<svg width="131" height="52" viewBox="0 0 131 52" fill="none" xmlns="http://www.w3.org/2000/svg">
<rect y="11" width="121" height="41" rx="20.5" fill="#142E6E"/>
<path d="M32.5605 37V36.1113L38.0566 27.9082H32.5059V26.8145H39.5332V27.7168L34.0371 35.9062H39.5879V37H32.5605ZM44.0449 37.1641C43.3112 37.1641 42.6755 37 42.1377 36.6719C41.6045 36.3438 41.1943 35.8857 40.9072 35.2979C40.6201 34.7054 40.4766 34.0195 40.4766 33.2402C40.4766 32.4564 40.6178 31.766 40.9004 31.1689C41.1829 30.5719 41.5794 30.1048 42.0898 29.7676C42.6048 29.4303 43.2064 29.2617 43.8945 29.2617C44.291 29.2617 44.6852 29.3278 45.0771 29.46C45.4691 29.5921 45.8245 29.8063 46.1436 30.1025C46.4671 30.3988 46.7246 30.7907 46.916 31.2783C47.1074 31.766 47.2031 32.3652 47.2031 33.0762V33.582H41.3105V32.5703H46.5674L46.0273 32.9531C46.0273 32.4427 45.9476 31.9893 45.7881 31.5928C45.6286 31.1963 45.3893 30.8841 45.0703 30.6562C44.7559 30.4284 44.3639 30.3145 43.8945 30.3145C43.4251 30.3145 43.0218 30.4307 42.6846 30.6631C42.3519 30.891 42.0967 31.1895 41.9189 31.5586C41.7412 31.9277 41.6523 32.3242 41.6523 32.748V33.418C41.6523 33.9967 41.7526 34.4867 41.9531 34.8877C42.1536 35.2887 42.4339 35.5941 42.7939 35.8037C43.154 36.0088 43.571 36.1113 44.0449 36.1113C44.3503 36.1113 44.6283 36.068 44.8789 35.9814C45.1296 35.8903 45.346 35.7559 45.5283 35.5781C45.7106 35.3958 45.8496 35.1725 45.9453 34.9082L47.0801 35.2363C46.9616 35.6191 46.7611 35.9564 46.4785 36.248C46.2005 36.5352 45.8542 36.7607 45.4395 36.9248C45.0247 37.0843 44.5599 37.1641 44.0449 37.1641ZM48.3105 37V29.3574H49.4316V30.5195H49.5137C49.6549 30.1413 49.9079 29.8359 50.2725 29.6035C50.6416 29.3665 51.054 29.248 51.5098 29.248C51.5964 29.248 51.7035 29.2503 51.8311 29.2549C51.9587 29.2549 52.0566 29.2572 52.125 29.2617V30.4512C52.084 30.4421 51.9928 30.4284 51.8516 30.4102C51.7103 30.3919 51.5599 30.3828 51.4004 30.3828C51.0312 30.3828 50.7008 30.4603 50.4092 30.6152C50.1175 30.7702 49.8874 30.9821 49.7188 31.251C49.5547 31.5199 49.4727 31.8275 49.4727 32.1738V37H48.3105ZM55.7207 37.1641C55.0326 37.1641 54.4287 37 53.9092 36.6719C53.3896 36.3438 52.984 35.8835 52.6924 35.291C52.4053 34.6986 52.2617 34.0104 52.2617 33.2266C52.2617 32.429 52.4053 31.734 52.6924 31.1416C52.984 30.5446 53.3896 30.082 53.9092 29.7539C54.4287 29.4258 55.0326 29.2617 55.7207 29.2617C56.4134 29.2617 57.0195 29.4258 57.5391 29.7539C58.0586 30.082 58.4642 30.5446 58.7559 31.1416C59.0475 31.734 59.1934 32.429 59.1934 33.2266C59.1934 34.0104 59.0475 34.6986 58.7559 35.291C58.4642 35.8835 58.0586 36.3438 57.5391 36.6719C57.0195 37 56.4134 37.1641 55.7207 37.1641ZM55.7207 36.1113C56.2493 36.1113 56.6823 35.9769 57.0195 35.708C57.3568 35.4391 57.6074 35.0859 57.7715 34.6484C57.9355 34.2064 58.0176 33.7324 58.0176 33.2266C58.0176 32.7116 57.9355 32.2331 57.7715 31.791C57.6074 31.349 57.3568 30.9935 57.0195 30.7246C56.6823 30.4512 56.2493 30.3145 55.7207 30.3145C55.2012 30.3145 54.7728 30.4512 54.4355 30.7246C54.0983 30.9935 53.8477 31.349 53.6836 31.791C53.5195 32.2331 53.4375 32.7116 53.4375 33.2266C53.4375 33.7324 53.5195 34.2064 53.6836 34.6484C53.8477 35.0859 54.0983 35.4391 54.4355 35.708C54.7728 35.9769 55.2012 36.1113 55.7207 36.1113ZM67 29.3574V30.3555H62.8848V29.3574H67ZM64.1152 37V28.3047C64.1152 27.8672 64.2178 27.5026 64.4229 27.2109C64.6325 26.9193 64.9014 26.7005 65.2295 26.5547C65.5576 26.4089 65.9017 26.3359 66.2617 26.3359C66.5534 26.3359 66.7904 26.361 66.9727 26.4111C67.1595 26.4567 67.2962 26.5 67.3828 26.541L67.041 27.5527C66.9818 27.5299 66.8997 27.5049 66.7949 27.4775C66.6947 27.4456 66.5579 27.4297 66.3848 27.4297C65.9974 27.4297 65.7148 27.5299 65.5371 27.7305C65.3639 27.9264 65.2773 28.2135 65.2773 28.5918V37H64.1152ZM70.8828 37.1641C70.1491 37.1641 69.5133 37 68.9756 36.6719C68.4424 36.3438 68.0322 35.8857 67.7451 35.2979C67.458 34.7054 67.3145 34.0195 67.3145 33.2402C67.3145 32.4564 67.4557 31.766 67.7383 31.1689C68.0208 30.5719 68.4173 30.1048 68.9277 29.7676C69.4427 29.4303 70.0443 29.2617 70.7324 29.2617C71.1289 29.2617 71.5231 29.3278 71.915 29.46C72.307 29.5921 72.6624 29.8063 72.9814 30.1025C73.305 30.3988 73.5625 30.7907 73.7539 31.2783C73.9453 31.766 74.041 32.3652 74.041 33.0762V33.582H68.1484V32.5703H73.4053L72.8652 32.9531C72.8652 32.4427 72.7855 31.9893 72.626 31.5928C72.4665 31.1963 72.2272 30.8841 71.9082 30.6562C71.5938 30.4284 71.2018 30.3145 70.7324 30.3145C70.263 30.3145 69.8597 30.4307 69.5225 30.6631C69.1898 30.891 68.9346 31.1895 68.7568 31.5586C68.5791 31.9277 68.4902 32.3242 68.4902 32.748V33.418C68.4902 33.9967 68.5905 34.4867 68.791 34.8877C68.9915 35.2887 69.2718 35.5941 69.6318 35.8037C69.9919 36.0088 70.4089 36.1113 70.8828 36.1113C71.1882 36.1113 71.4661 36.068 71.7168 35.9814C71.9674 35.8903 72.1839 35.7559 72.3662 35.5781C72.5485 35.3958 72.6875 35.1725 72.7832 34.9082L73.918 35.2363C73.7995 35.6191 73.599 35.9564 73.3164 36.248C73.0384 36.5352 72.6921 36.7607 72.2773 36.9248C71.8626 37.0843 71.3978 37.1641 70.8828 37.1641ZM78.3477 37.1641C77.6139 37.1641 76.9782 37 76.4404 36.6719C75.9072 36.3438 75.4971 35.8857 75.21 35.2979C74.9229 34.7054 74.7793 34.0195 74.7793 33.2402C74.7793 32.4564 74.9206 31.766 75.2031 31.1689C75.4857 30.5719 75.8822 30.1048 76.3926 29.7676C76.9076 29.4303 77.5091 29.2617 78.1973 29.2617C78.5938 29.2617 78.988 29.3278 79.3799 29.46C79.7718 29.5921 80.1273 29.8063 80.4463 30.1025C80.7699 30.3988 81.0273 30.7907 81.2188 31.2783C81.4102 31.766 81.5059 32.3652 81.5059 33.0762V33.582H75.6133V32.5703H80.8701L80.3301 32.9531C80.3301 32.4427 80.2503 31.9893 80.0908 31.5928C79.9313 31.1963 79.6921 30.8841 79.373 30.6562C79.0586 30.4284 78.6667 30.3145 78.1973 30.3145C77.7279 30.3145 77.3245 30.4307 76.9873 30.6631C76.6546 30.891 76.3994 31.1895 76.2217 31.5586C76.0439 31.9277 75.9551 32.3242 75.9551 32.748V33.418C75.9551 33.9967 76.0553 34.4867 76.2559 34.8877C76.4564 35.2887 76.7367 35.5941 77.0967 35.8037C77.4567 36.0088 77.8737 36.1113 78.3477 36.1113C78.653 36.1113 78.931 36.068 79.1816 35.9814C79.4323 35.8903 79.6488 35.7559 79.8311 35.5781C80.0133 35.3958 80.1523 35.1725 80.248 34.9082L81.3828 35.2363C81.2643 35.6191 81.0638 35.9564 80.7812 36.248C80.5033 36.5352 80.1569 36.7607 79.7422 36.9248C79.3275 37.0843 78.8626 37.1641 78.3477 37.1641ZM88.0137 31.0801L86.9609 31.3672C86.8607 31.1074 86.6875 30.8613 86.4414 30.6289C86.1999 30.3919 85.8216 30.2734 85.3066 30.2734C84.8418 30.2734 84.4544 30.3828 84.1445 30.6016C83.8346 30.8158 83.6797 31.0846 83.6797 31.4082C83.6797 31.6999 83.7845 31.9323 83.9941 32.1055C84.2083 32.2786 84.541 32.4199 84.9922 32.5293L86.127 32.8027C86.806 32.9668 87.3118 33.2197 87.6445 33.5615C87.9818 33.9033 88.1504 34.3385 88.1504 34.8672C88.1504 35.3047 88.0251 35.6966 87.7744 36.043C87.5238 36.3893 87.1751 36.6628 86.7285 36.8633C86.2819 37.0638 85.7624 37.1641 85.1699 37.1641C84.3906 37.1641 83.7458 36.9932 83.2354 36.6514C82.7295 36.3096 82.4082 35.8151 82.2715 35.168L83.3789 34.8945C83.4837 35.3047 83.6842 35.6123 83.9805 35.8174C84.2812 36.0225 84.6732 36.125 85.1562 36.125C85.6986 36.125 86.1315 36.0088 86.4551 35.7764C86.7832 35.5394 86.9473 35.2591 86.9473 34.9355C86.9473 34.3978 86.569 34.0378 85.8125 33.8555L84.541 33.5547C83.8392 33.3861 83.3242 33.1286 82.9961 32.7822C82.668 32.4359 82.5039 32.0007 82.5039 31.4766C82.5039 31.0436 82.6247 30.6608 82.8662 30.3281C83.1123 29.9954 83.4473 29.7357 83.8711 29.5488C84.2949 29.3574 84.7734 29.2617 85.3066 29.2617C86.0677 29.2617 86.6624 29.4303 87.0908 29.7676C87.5238 30.1003 87.8314 30.5378 88.0137 31.0801Z" fill="white"/>
<g clip-path="url(#clip0_5425_26274)">
<path d="M130.287 0.0496884L111.404 6.34984C110.87 6.52814 110.87 6.82532 111.375 7.03334L115.063 8.50997C118.473 9.87513 121.263 12.4439 122.905 15.7292L124.866 19.6535C125.104 20.1289 125.43 20.1091 125.578 19.5841L130.959 0.683666C131.108 0.168559 130.801 -0.118712 130.287 0.0496884Z" fill="#142E6E"/>
</g>
<defs>
<clipPath id="clip0_5425_26274">
<rect width="20" height="20" fill="white" transform="translate(111)"/>
</clipPath>
</defs>
</svg>
