<svg width="330" height="217" viewBox="0 0 330 217" fill="none" xmlns="http://www.w3.org/2000/svg">
<rect y="21.3022" width="253" height="195" rx="16" fill="#BEAB9A"/>
<path d="M16.3906 44.9116V43.6616H25.125V44.9116H21.4688V55.3022H20.0625V44.9116H16.3906ZM25.4688 55.3022V46.5679H26.75V47.896H26.8438C27.0052 47.4637 27.2943 47.1147 27.7109 46.8491C28.1328 46.5783 28.6042 46.4429 29.125 46.4429C29.224 46.4429 29.3464 46.4455 29.4922 46.4507C29.638 46.4507 29.75 46.4533 29.8281 46.4585V47.8179C29.7812 47.8075 29.6771 47.7918 29.5156 47.771C29.3542 47.7502 29.1823 47.7397 29 47.7397C28.5781 47.7397 28.2005 47.8283 27.8672 48.0054C27.5339 48.1825 27.2708 48.4246 27.0781 48.7319C26.8906 49.0392 26.7969 49.3908 26.7969 49.7866V55.3022H25.4688ZM33.2344 55.5054C32.6823 55.5054 32.1797 55.4012 31.7266 55.1929C31.2734 54.9793 30.9141 54.672 30.6484 54.271C30.3828 53.87 30.25 53.3856 30.25 52.8179C30.25 52.3179 30.349 51.9142 30.5469 51.6069C30.7448 51.2944 31.0078 51.0496 31.3359 50.8726C31.6693 50.6903 32.0339 50.5549 32.4297 50.4663C32.8307 50.3778 33.2344 50.3075 33.6406 50.2554C34.1719 50.1877 34.6016 50.1356 34.9297 50.0991C35.263 50.0627 35.5052 50.0002 35.6562 49.9116C35.8125 49.8231 35.8906 49.672 35.8906 49.4585V49.4116C35.8906 48.8543 35.737 48.422 35.4297 48.1147C35.1276 47.8022 34.6667 47.646 34.0469 47.646C33.4115 47.646 32.9115 47.7866 32.5469 48.0679C32.1823 48.3439 31.9271 48.6408 31.7812 48.9585L30.5 48.5054C30.7292 47.9741 31.0339 47.5601 31.4141 47.2632C31.7995 46.9663 32.2161 46.758 32.6641 46.6382C33.1172 46.5184 33.5625 46.4585 34 46.4585C34.2812 46.4585 34.6042 46.4924 34.9688 46.5601C35.3333 46.6226 35.6875 46.758 36.0312 46.9663C36.3802 47.1694 36.6667 47.4793 36.8906 47.896C37.1198 48.3075 37.2344 48.8595 37.2344 49.5522V55.3022H35.8906V54.1147H35.8281C35.7396 54.3022 35.5885 54.5054 35.375 54.7241C35.1615 54.9377 34.8776 55.1226 34.5234 55.2788C34.1745 55.4299 33.7448 55.5054 33.2344 55.5054ZM33.4375 54.3022C33.9688 54.3022 34.4167 54.1981 34.7812 53.9897C35.1458 53.7814 35.4219 53.5132 35.6094 53.1851C35.7969 52.8517 35.8906 52.5054 35.8906 52.146V50.9116C35.8333 50.9793 35.7083 51.0418 35.5156 51.0991C35.3281 51.1512 35.1094 51.1981 34.8594 51.2397C34.6146 51.2814 34.375 51.3179 34.1406 51.3491C33.9062 51.3752 33.7188 51.396 33.5781 51.4116C33.2292 51.4585 32.9036 51.534 32.6016 51.6382C32.2995 51.7371 32.0547 51.8856 31.8672 52.0835C31.6849 52.2814 31.5938 52.5522 31.5938 52.896C31.5938 53.3595 31.7656 53.7111 32.1094 53.9507C32.4583 54.1851 32.901 54.3022 33.4375 54.3022ZM40.2812 50.0522V55.3022H38.9531V46.5679H40.2344V47.9429H40.3594C40.5625 47.495 40.8724 47.1356 41.2891 46.8647C41.7057 46.5939 42.2448 46.4585 42.9062 46.4585C43.4948 46.4585 44.0104 46.5783 44.4531 46.8179C44.8958 47.0575 45.2396 47.422 45.4844 47.9116C45.7344 48.396 45.8594 49.0106 45.8594 49.7554V55.3022H44.5312V49.8491C44.5312 49.1668 44.3516 48.633 43.9922 48.2476C43.6328 47.8569 43.1432 47.6616 42.5234 47.6616C42.0964 47.6616 41.7135 47.7554 41.375 47.9429C41.0365 48.1304 40.7682 48.4012 40.5703 48.7554C40.3776 49.1095 40.2812 49.5418 40.2812 50.0522ZM53.75 48.5366L52.5469 48.8647C52.4323 48.5679 52.2344 48.2866 51.9531 48.021C51.6771 47.7502 51.2448 47.6147 50.6562 47.6147C50.125 47.6147 49.6823 47.7397 49.3281 47.9897C48.974 48.2345 48.7969 48.5418 48.7969 48.9116C48.7969 49.245 48.9167 49.5106 49.1562 49.7085C49.401 49.9064 49.7812 50.0679 50.2969 50.1929L51.5938 50.5054C52.3698 50.6929 52.9479 50.9819 53.3281 51.3726C53.7135 51.7632 53.9062 52.2606 53.9062 52.8647C53.9062 53.3647 53.763 53.8127 53.4766 54.2085C53.1901 54.6043 52.7917 54.9168 52.2812 55.146C51.7708 55.3752 51.1771 55.4897 50.5 55.4897C49.6094 55.4897 48.8724 55.2944 48.2891 54.9038C47.7109 54.5132 47.3438 53.9481 47.1875 53.2085L48.4531 52.896C48.5729 53.3647 48.8021 53.7163 49.1406 53.9507C49.4844 54.1851 49.9323 54.3022 50.4844 54.3022C51.1042 54.3022 51.599 54.1694 51.9688 53.9038C52.3438 53.633 52.5312 53.3127 52.5312 52.9429C52.5312 52.3283 52.099 51.9168 51.2344 51.7085L49.7812 51.3647C48.9792 51.172 48.3906 50.8778 48.0156 50.4819C47.6406 50.0861 47.4531 49.5887 47.4531 48.9897C47.4531 48.495 47.5911 48.0575 47.8672 47.6772C48.1484 47.297 48.5312 47.0002 49.0156 46.7866C49.5 46.5679 50.0469 46.4585 50.6562 46.4585C51.526 46.4585 52.2057 46.6512 52.6953 47.0366C53.1901 47.4168 53.5417 47.9168 53.75 48.5366ZM57.75 55.5054C57.1979 55.5054 56.6953 55.4012 56.2422 55.1929C55.7891 54.9793 55.4297 54.672 55.1641 54.271C54.8984 53.87 54.7656 53.3856 54.7656 52.8179C54.7656 52.3179 54.8646 51.9142 55.0625 51.6069C55.2604 51.2944 55.5234 51.0496 55.8516 50.8726C56.1849 50.6903 56.5495 50.5549 56.9453 50.4663C57.3464 50.3778 57.75 50.3075 58.1562 50.2554C58.6875 50.1877 59.1172 50.1356 59.4453 50.0991C59.7786 50.0627 60.0208 50.0002 60.1719 49.9116C60.3281 49.8231 60.4062 49.672 60.4062 49.4585V49.4116C60.4062 48.8543 60.2526 48.422 59.9453 48.1147C59.6432 47.8022 59.1823 47.646 58.5625 47.646C57.9271 47.646 57.4271 47.7866 57.0625 48.0679C56.6979 48.3439 56.4427 48.6408 56.2969 48.9585L55.0156 48.5054C55.2448 47.9741 55.5495 47.5601 55.9297 47.2632C56.3151 46.9663 56.7318 46.758 57.1797 46.6382C57.6328 46.5184 58.0781 46.4585 58.5156 46.4585C58.7969 46.4585 59.1198 46.4924 59.4844 46.5601C59.849 46.6226 60.2031 46.758 60.5469 46.9663C60.8958 47.1694 61.1823 47.4793 61.4062 47.896C61.6354 48.3075 61.75 48.8595 61.75 49.5522V55.3022H60.4062V54.1147H60.3438C60.2552 54.3022 60.1042 54.5054 59.8906 54.7241C59.6771 54.9377 59.3932 55.1226 59.0391 55.2788C58.6901 55.4299 58.2604 55.5054 57.75 55.5054ZM57.9531 54.3022C58.4844 54.3022 58.9323 54.1981 59.2969 53.9897C59.6615 53.7814 59.9375 53.5132 60.125 53.1851C60.3125 52.8517 60.4062 52.5054 60.4062 52.146V50.9116C60.349 50.9793 60.224 51.0418 60.0312 51.0991C59.8438 51.1512 59.625 51.1981 59.375 51.2397C59.1302 51.2814 58.8906 51.3179 58.6562 51.3491C58.4219 51.3752 58.2344 51.396 58.0938 51.4116C57.7448 51.4585 57.4193 51.534 57.1172 51.6382C56.8151 51.7371 56.5703 51.8856 56.3828 52.0835C56.2005 52.2814 56.1094 52.5522 56.1094 52.896C56.1094 53.3595 56.2812 53.7111 56.625 53.9507C56.974 54.1851 57.4167 54.3022 57.9531 54.3022ZM67 55.4897C66.1875 55.4897 65.4844 55.297 64.8906 54.9116C64.3021 54.521 63.8464 53.9871 63.5234 53.3101C63.2057 52.633 63.0469 51.8595 63.0469 50.9897C63.0469 50.0991 63.2109 49.3153 63.5391 48.6382C63.8672 47.9559 64.3255 47.422 64.9141 47.0366C65.5078 46.6512 66.1979 46.4585 66.9844 46.4585C67.599 46.4585 68.151 46.5731 68.6406 46.8022C69.1354 47.0262 69.5391 47.3439 69.8516 47.7554C70.1693 48.1668 70.3646 48.646 70.4375 49.1929H69.0938C69.026 48.9272 68.9036 48.6772 68.7266 48.4429C68.5495 48.2085 68.3151 48.021 68.0234 47.8804C67.737 47.7345 67.3958 47.6616 67 47.6616C66.4792 47.6616 66.0234 47.797 65.6328 48.0679C65.2422 48.3387 64.9375 48.7215 64.7188 49.2163C64.5 49.7059 64.3906 50.2814 64.3906 50.9429C64.3906 51.6147 64.4974 52.2033 64.7109 52.7085C64.9245 53.2085 65.2266 53.5965 65.6172 53.8726C66.013 54.1486 66.474 54.2866 67 54.2866C67.526 54.2866 67.9766 54.1512 68.3516 53.8804C68.7266 53.6043 68.974 53.2293 69.0938 52.7554H70.4375C70.3646 53.271 70.1771 53.7345 69.875 54.146C69.5781 54.5575 69.1849 54.8856 68.6953 55.1304C68.2109 55.37 67.6458 55.4897 67 55.4897ZM75.4844 46.5679V47.7085H70.9688V46.5679H75.4844ZM72.2812 44.4897H73.6094V52.8022C73.6094 53.2554 73.7031 53.5887 73.8906 53.8022C74.0781 54.0106 74.375 54.1147 74.7812 54.1147C74.8698 54.1147 74.9609 54.1095 75.0547 54.0991C75.1536 54.0887 75.2604 54.0731 75.375 54.0522L75.6562 55.2554C75.5312 55.3022 75.3776 55.3387 75.1953 55.3647C75.0182 55.396 74.8385 55.4116 74.6562 55.4116C73.9531 55.4116 73.3802 55.2033 72.9375 54.7866C72.5 54.37 72.2812 53.8283 72.2812 53.1616V44.4897ZM76.7656 55.3022V46.5679H78.0938V55.3022H76.7656ZM77.4375 45.1147C77.1771 45.1147 76.9531 45.0262 76.7656 44.8491C76.5781 44.672 76.4844 44.4585 76.4844 44.2085C76.4844 43.9585 76.5781 43.745 76.7656 43.5679C76.9531 43.3908 77.1771 43.3022 77.4375 43.3022C77.6979 43.3022 77.9219 43.3908 78.1094 43.5679C78.2969 43.745 78.3906 43.9585 78.3906 44.2085C78.3906 44.4585 78.2969 44.672 78.1094 44.8491C77.9219 45.0262 77.6979 45.1147 77.4375 45.1147ZM83.3438 55.4897C82.5573 55.4897 81.8672 55.3022 81.2734 54.9272C80.6797 54.5522 80.2161 54.0262 79.8828 53.3491C79.5547 52.672 79.3906 51.8856 79.3906 50.9897C79.3906 50.0783 79.5547 49.284 79.8828 48.6069C80.2161 47.9246 80.6797 47.396 81.2734 47.021C81.8672 46.646 82.5573 46.4585 83.3438 46.4585C84.1354 46.4585 84.8281 46.646 85.4219 47.021C86.0156 47.396 86.4792 47.9246 86.8125 48.6069C87.1458 49.284 87.3125 50.0783 87.3125 50.9897C87.3125 51.8856 87.1458 52.672 86.8125 53.3491C86.4792 54.0262 86.0156 54.5522 85.4219 54.9272C84.8281 55.3022 84.1354 55.4897 83.3438 55.4897ZM83.3438 54.2866C83.9479 54.2866 84.4427 54.133 84.8281 53.8257C85.2135 53.5184 85.5 53.1147 85.6875 52.6147C85.875 52.1095 85.9688 51.5679 85.9688 50.9897C85.9688 50.4012 85.875 49.8543 85.6875 49.3491C85.5 48.8439 85.2135 48.4377 84.8281 48.1304C84.4427 47.8179 83.9479 47.6616 83.3438 47.6616C82.75 47.6616 82.2604 47.8179 81.875 48.1304C81.4896 48.4377 81.2031 48.8439 81.0156 49.3491C80.8281 49.8543 80.7344 50.4012 80.7344 50.9897C80.7344 51.5679 80.8281 52.1095 81.0156 52.6147C81.2031 53.1147 81.4896 53.5184 81.875 53.8257C82.2604 54.133 82.75 54.2866 83.3438 54.2866ZM89.9375 50.0522V55.3022H88.6094V46.5679H89.8906V47.9429H90.0156C90.2188 47.495 90.5286 47.1356 90.9453 46.8647C91.362 46.5939 91.901 46.4585 92.5625 46.4585C93.151 46.4585 93.6667 46.5783 94.1094 46.8179C94.5521 47.0575 94.8958 47.422 95.1406 47.9116C95.3906 48.396 95.5156 49.0106 95.5156 49.7554V55.3022H94.1875V49.8491C94.1875 49.1668 94.0078 48.633 93.6484 48.2476C93.2891 47.8569 92.7995 47.6616 92.1797 47.6616C91.7526 47.6616 91.3698 47.7554 91.0312 47.9429C90.6927 48.1304 90.4245 48.4012 90.2266 48.7554C90.0339 49.1095 89.9375 49.5418 89.9375 50.0522ZM107.156 48.5366L105.953 48.8647C105.839 48.5679 105.641 48.2866 105.359 48.021C105.083 47.7502 104.651 47.6147 104.062 47.6147C103.531 47.6147 103.089 47.7397 102.734 47.9897C102.38 48.2345 102.203 48.5418 102.203 48.9116C102.203 49.245 102.323 49.5106 102.562 49.7085C102.807 49.9064 103.188 50.0679 103.703 50.1929L105 50.5054C105.776 50.6929 106.354 50.9819 106.734 51.3726C107.12 51.7632 107.312 52.2606 107.312 52.8647C107.312 53.3647 107.169 53.8127 106.883 54.2085C106.596 54.6043 106.198 54.9168 105.688 55.146C105.177 55.3752 104.583 55.4897 103.906 55.4897C103.016 55.4897 102.279 55.2944 101.695 54.9038C101.117 54.5132 100.75 53.9481 100.594 53.2085L101.859 52.896C101.979 53.3647 102.208 53.7163 102.547 53.9507C102.891 54.1851 103.339 54.3022 103.891 54.3022C104.51 54.3022 105.005 54.1694 105.375 53.9038C105.75 53.633 105.938 53.3127 105.938 52.9429C105.938 52.3283 105.505 51.9168 104.641 51.7085L103.188 51.3647C102.385 51.172 101.797 50.8778 101.422 50.4819C101.047 50.0861 100.859 49.5887 100.859 48.9897C100.859 48.495 100.997 48.0575 101.273 47.6772C101.555 47.297 101.938 47.0002 102.422 46.7866C102.906 46.5679 103.453 46.4585 104.062 46.4585C104.932 46.4585 105.612 46.6512 106.102 47.0366C106.596 47.4168 106.948 47.9168 107.156 48.5366ZM112.375 46.5679V47.7085H107.859V46.5679H112.375ZM109.172 44.4897H110.5V52.8022C110.5 53.2554 110.594 53.5887 110.781 53.8022C110.969 54.0106 111.266 54.1147 111.672 54.1147C111.76 54.1147 111.852 54.1095 111.945 54.0991C112.044 54.0887 112.151 54.0731 112.266 54.0522L112.547 55.2554C112.422 55.3022 112.268 55.3387 112.086 55.3647C111.909 55.396 111.729 55.4116 111.547 55.4116C110.844 55.4116 110.271 55.2033 109.828 54.7866C109.391 54.37 109.172 53.8283 109.172 53.1616V44.4897ZM116.219 55.5054C115.667 55.5054 115.164 55.4012 114.711 55.1929C114.258 54.9793 113.898 54.672 113.633 54.271C113.367 53.87 113.234 53.3856 113.234 52.8179C113.234 52.3179 113.333 51.9142 113.531 51.6069C113.729 51.2944 113.992 51.0496 114.32 50.8726C114.654 50.6903 115.018 50.5549 115.414 50.4663C115.815 50.3778 116.219 50.3075 116.625 50.2554C117.156 50.1877 117.586 50.1356 117.914 50.0991C118.247 50.0627 118.49 50.0002 118.641 49.9116C118.797 49.8231 118.875 49.672 118.875 49.4585V49.4116C118.875 48.8543 118.721 48.422 118.414 48.1147C118.112 47.8022 117.651 47.646 117.031 47.646C116.396 47.646 115.896 47.7866 115.531 48.0679C115.167 48.3439 114.911 48.6408 114.766 48.9585L113.484 48.5054C113.714 47.9741 114.018 47.5601 114.398 47.2632C114.784 46.9663 115.201 46.758 115.648 46.6382C116.102 46.5184 116.547 46.4585 116.984 46.4585C117.266 46.4585 117.589 46.4924 117.953 46.5601C118.318 46.6226 118.672 46.758 119.016 46.9663C119.365 47.1694 119.651 47.4793 119.875 47.896C120.104 48.3075 120.219 48.8595 120.219 49.5522V55.3022H118.875V54.1147H118.812C118.724 54.3022 118.573 54.5054 118.359 54.7241C118.146 54.9377 117.862 55.1226 117.508 55.2788C117.159 55.4299 116.729 55.5054 116.219 55.5054ZM116.422 54.3022C116.953 54.3022 117.401 54.1981 117.766 53.9897C118.13 53.7814 118.406 53.5132 118.594 53.1851C118.781 52.8517 118.875 52.5054 118.875 52.146V50.9116C118.818 50.9793 118.693 51.0418 118.5 51.0991C118.312 51.1512 118.094 51.1981 117.844 51.2397C117.599 51.2814 117.359 51.3179 117.125 51.3491C116.891 51.3752 116.703 51.396 116.562 51.4116C116.214 51.4585 115.888 51.534 115.586 51.6382C115.284 51.7371 115.039 51.8856 114.852 52.0835C114.669 52.2814 114.578 52.5522 114.578 52.896C114.578 53.3595 114.75 53.7111 115.094 53.9507C115.443 54.1851 115.885 54.3022 116.422 54.3022ZM125.719 46.5679V47.7085H121.203V46.5679H125.719ZM122.516 44.4897H123.844V52.8022C123.844 53.2554 123.938 53.5887 124.125 53.8022C124.312 54.0106 124.609 54.1147 125.016 54.1147C125.104 54.1147 125.195 54.1095 125.289 54.0991C125.388 54.0887 125.495 54.0731 125.609 54.0522L125.891 55.2554C125.766 55.3022 125.612 55.3387 125.43 55.3647C125.253 55.396 125.073 55.4116 124.891 55.4116C124.188 55.4116 123.615 55.2033 123.172 54.7866C122.734 54.37 122.516 53.8283 122.516 53.1616V44.4897ZM127 55.3022V46.5679H128.328V55.3022H127ZM127.672 45.1147C127.411 45.1147 127.188 45.0262 127 44.8491C126.812 44.672 126.719 44.4585 126.719 44.2085C126.719 43.9585 126.812 43.745 127 43.5679C127.188 43.3908 127.411 43.3022 127.672 43.3022C127.932 43.3022 128.156 43.3908 128.344 43.5679C128.531 43.745 128.625 43.9585 128.625 44.2085C128.625 44.4585 128.531 44.672 128.344 44.8491C128.156 45.0262 127.932 45.1147 127.672 45.1147ZM136.219 48.5366L135.016 48.8647C134.901 48.5679 134.703 48.2866 134.422 48.021C134.146 47.7502 133.714 47.6147 133.125 47.6147C132.594 47.6147 132.151 47.7397 131.797 47.9897C131.443 48.2345 131.266 48.5418 131.266 48.9116C131.266 49.245 131.385 49.5106 131.625 49.7085C131.87 49.9064 132.25 50.0679 132.766 50.1929L134.062 50.5054C134.839 50.6929 135.417 50.9819 135.797 51.3726C136.182 51.7632 136.375 52.2606 136.375 52.8647C136.375 53.3647 136.232 53.8127 135.945 54.2085C135.659 54.6043 135.26 54.9168 134.75 55.146C134.24 55.3752 133.646 55.4897 132.969 55.4897C132.078 55.4897 131.341 55.2944 130.758 54.9038C130.18 54.5132 129.812 53.9481 129.656 53.2085L130.922 52.896C131.042 53.3647 131.271 53.7163 131.609 53.9507C131.953 54.1851 132.401 54.3022 132.953 54.3022C133.573 54.3022 134.068 54.1694 134.438 53.9038C134.812 53.633 135 53.3127 135 52.9429C135 52.3283 134.568 51.9168 133.703 51.7085L132.25 51.3647C131.448 51.172 130.859 50.8778 130.484 50.4819C130.109 50.0861 129.922 49.5887 129.922 48.9897C129.922 48.495 130.06 48.0575 130.336 47.6772C130.617 47.297 131 47.0002 131.484 46.7866C131.969 46.5679 132.516 46.4585 133.125 46.4585C133.995 46.4585 134.674 46.6512 135.164 47.0366C135.659 47.4168 136.01 47.9168 136.219 48.5366ZM141.438 46.5679V47.7085H136.922V46.5679H141.438ZM138.234 44.4897H139.562V52.8022C139.562 53.2554 139.656 53.5887 139.844 53.8022C140.031 54.0106 140.328 54.1147 140.734 54.1147C140.823 54.1147 140.914 54.1095 141.008 54.0991C141.107 54.0887 141.214 54.0731 141.328 54.0522L141.609 55.2554C141.484 55.3022 141.331 55.3387 141.148 55.3647C140.971 55.396 140.792 55.4116 140.609 55.4116C139.906 55.4116 139.333 55.2033 138.891 54.7866C138.453 54.37 138.234 53.8283 138.234 53.1616V44.4897ZM142.719 55.3022V46.5679H144.047V55.3022H142.719ZM143.391 45.1147C143.13 45.1147 142.906 45.0262 142.719 44.8491C142.531 44.672 142.438 44.4585 142.438 44.2085C142.438 43.9585 142.531 43.745 142.719 43.5679C142.906 43.3908 143.13 43.3022 143.391 43.3022C143.651 43.3022 143.875 43.3908 144.062 43.5679C144.25 43.745 144.344 43.9585 144.344 44.2085C144.344 44.4585 144.25 44.672 144.062 44.8491C143.875 45.0262 143.651 45.1147 143.391 45.1147ZM149.297 55.4897C148.484 55.4897 147.781 55.297 147.188 54.9116C146.599 54.521 146.143 53.9871 145.82 53.3101C145.503 52.633 145.344 51.8595 145.344 50.9897C145.344 50.0991 145.508 49.3153 145.836 48.6382C146.164 47.9559 146.622 47.422 147.211 47.0366C147.805 46.6512 148.495 46.4585 149.281 46.4585C149.896 46.4585 150.448 46.5731 150.938 46.8022C151.432 47.0262 151.836 47.3439 152.148 47.7554C152.466 48.1668 152.661 48.646 152.734 49.1929H151.391C151.323 48.9272 151.201 48.6772 151.023 48.4429C150.846 48.2085 150.612 48.021 150.32 47.8804C150.034 47.7345 149.693 47.6616 149.297 47.6616C148.776 47.6616 148.32 47.797 147.93 48.0679C147.539 48.3387 147.234 48.7215 147.016 49.2163C146.797 49.7059 146.688 50.2814 146.688 50.9429C146.688 51.6147 146.794 52.2033 147.008 52.7085C147.221 53.2085 147.523 53.5965 147.914 53.8726C148.31 54.1486 148.771 54.2866 149.297 54.2866C149.823 54.2866 150.273 54.1512 150.648 53.8804C151.023 53.6043 151.271 53.2293 151.391 52.7554H152.734C152.661 53.271 152.474 53.7345 152.172 54.146C151.875 54.5575 151.482 54.8856 150.992 55.1304C150.508 55.37 149.943 55.4897 149.297 55.4897ZM160.172 48.5366L158.969 48.8647C158.854 48.5679 158.656 48.2866 158.375 48.021C158.099 47.7502 157.667 47.6147 157.078 47.6147C156.547 47.6147 156.104 47.7397 155.75 47.9897C155.396 48.2345 155.219 48.5418 155.219 48.9116C155.219 49.245 155.339 49.5106 155.578 49.7085C155.823 49.9064 156.203 50.0679 156.719 50.1929L158.016 50.5054C158.792 50.6929 159.37 50.9819 159.75 51.3726C160.135 51.7632 160.328 52.2606 160.328 52.8647C160.328 53.3647 160.185 53.8127 159.898 54.2085C159.612 54.6043 159.214 54.9168 158.703 55.146C158.193 55.3752 157.599 55.4897 156.922 55.4897C156.031 55.4897 155.294 55.2944 154.711 54.9038C154.133 54.5132 153.766 53.9481 153.609 53.2085L154.875 52.896C154.995 53.3647 155.224 53.7163 155.562 53.9507C155.906 54.1851 156.354 54.3022 156.906 54.3022C157.526 54.3022 158.021 54.1694 158.391 53.9038C158.766 53.633 158.953 53.3127 158.953 52.9429C158.953 52.3283 158.521 51.9168 157.656 51.7085L156.203 51.3647C155.401 51.172 154.812 50.8778 154.438 50.4819C154.062 50.0861 153.875 49.5887 153.875 48.9897C153.875 48.495 154.013 48.0575 154.289 47.6772C154.57 47.297 154.953 47.0002 155.438 46.7866C155.922 46.5679 156.469 46.4585 157.078 46.4585C157.948 46.4585 158.628 46.6512 159.117 47.0366C159.612 47.4168 159.964 47.9168 160.172 48.5366Z" fill="#FCFCFC" fill-opacity="0.6"/>
<path d="M19.8281 89.5737V76.8452H20.6348V89.5737H19.8281ZM20.2314 88.4663C19.4704 88.4663 18.8096 88.3478 18.249 88.1108C17.693 87.8693 17.2578 87.5252 16.9434 87.0786C16.6289 86.632 16.4535 86.1011 16.417 85.4858H17.9619C17.9938 85.855 18.1123 86.1626 18.3174 86.4087C18.527 86.6502 18.7982 86.8302 19.1309 86.9487C19.4635 87.0672 19.8281 87.1265 20.2246 87.1265C20.6576 87.1265 21.0449 87.0581 21.3867 86.9214C21.7285 86.7847 21.9951 86.5933 22.1865 86.3472C22.3825 86.0965 22.4805 85.8049 22.4805 85.4722C22.4805 85.1714 22.3939 84.9253 22.2207 84.7339C22.0521 84.5425 21.8219 84.3853 21.5303 84.2622C21.2386 84.1346 20.9105 84.0229 20.5459 83.9272L19.3496 83.5991C18.5293 83.3804 17.8822 83.0545 17.4082 82.6216C16.9342 82.1841 16.6973 81.6121 16.6973 80.9058C16.6973 80.3179 16.8545 79.8052 17.1689 79.3677C17.488 78.9302 17.9186 78.5907 18.4609 78.3491C19.0078 78.103 19.6208 77.98 20.2998 77.98C20.9925 77.98 21.6009 78.103 22.125 78.3491C22.6536 78.5907 23.0706 78.9233 23.376 79.3472C23.6859 79.7664 23.8477 80.2472 23.8613 80.7896H22.3711C22.3164 80.3201 22.0977 79.9556 21.7148 79.6958C21.3366 79.436 20.8535 79.3062 20.2656 79.3062C19.8555 79.3062 19.4954 79.3722 19.1855 79.5044C18.8802 79.632 18.6432 79.8097 18.4746 80.0376C18.3105 80.2655 18.2285 80.5275 18.2285 80.8237C18.2285 81.1427 18.3265 81.4025 18.5225 81.603C18.723 81.8035 18.9645 81.9631 19.2471 82.0815C19.5342 82.1955 19.8099 82.2889 20.0742 82.3618L21.0654 82.6284C21.389 82.7104 21.7217 82.8198 22.0635 82.9565C22.4053 83.0933 22.722 83.2733 23.0137 83.4966C23.3099 83.7153 23.5469 83.9888 23.7246 84.3169C23.9069 84.6405 23.998 85.0324 23.998 85.4927C23.998 86.0623 23.8499 86.5728 23.5537 87.0239C23.2575 87.4705 22.8291 87.8237 22.2686 88.0835C21.708 88.3387 21.029 88.4663 20.2314 88.4663ZM28.0176 86.313V85.0757L32.4131 78.1167H33.3906V79.9487H32.7617L29.6172 84.9253V85.0073H35.6533V86.313H28.0176ZM32.8301 88.3022V85.937L32.8438 85.3696V78.1167H34.3066V88.3022H32.8301ZM40.3223 78.1167V88.3022H38.8047V79.6616H38.7363L36.3164 81.2544V79.7778L38.8457 78.1167H40.3223ZM42.9609 88.3979C42.6829 88.3979 42.446 88.3022 42.25 88.1108C42.0586 87.9194 41.9629 87.6847 41.9629 87.4067C41.9629 87.1287 42.0586 86.894 42.25 86.7026C42.446 86.5112 42.6829 86.4155 42.9609 86.4155C43.2389 86.4155 43.4736 86.5112 43.665 86.7026C43.861 86.894 43.959 87.1287 43.959 87.4067C43.959 87.6847 43.861 87.9194 43.665 88.1108C43.4736 88.3022 43.2389 88.3979 42.9609 88.3979ZM48.6416 88.439C47.9535 88.439 47.3428 88.3228 46.8096 88.0903C46.2764 87.8534 45.8548 87.5252 45.5449 87.106C45.235 86.6867 45.071 86.2013 45.0527 85.6499H46.5977C46.6204 85.9507 46.723 86.2104 46.9053 86.4292C47.0876 86.6479 47.3268 86.8188 47.623 86.9419C47.9238 87.0604 48.2588 87.1196 48.6279 87.1196C49.029 87.1196 49.3844 87.049 49.6943 86.9077C50.0042 86.7664 50.2458 86.5728 50.4189 86.3267C50.5967 86.076 50.6855 85.7866 50.6855 85.4585C50.6855 85.1167 50.599 84.8159 50.4258 84.5562C50.2526 84.2918 49.9997 84.0868 49.667 83.9409C49.3343 83.7951 48.9333 83.7222 48.4639 83.7222H47.5957V82.4644H48.4639C48.8376 82.4644 49.168 82.396 49.4551 82.2593C49.7422 82.1226 49.9655 81.9334 50.125 81.6919C50.2891 81.4504 50.3711 81.1655 50.3711 80.8374C50.3711 80.5229 50.3005 80.2495 50.1592 80.0171C50.0179 79.7801 49.8197 79.5978 49.5645 79.4702C49.3092 79.3381 49.0085 79.272 48.6621 79.272C48.3294 79.272 48.0195 79.3312 47.7324 79.4497C47.4453 79.5682 47.2106 79.7391 47.0283 79.9624C46.8506 80.1812 46.7572 80.4478 46.748 80.7622H45.2646C45.2783 80.2108 45.4378 79.7277 45.7432 79.313C46.0531 78.8937 46.4632 78.5679 46.9736 78.3354C47.4886 78.0985 48.0583 77.98 48.6826 77.98C49.3343 77.98 49.8971 78.1076 50.3711 78.3628C50.8496 78.6134 51.2188 78.9507 51.4785 79.3745C51.7383 79.7938 51.8682 80.2518 51.8682 80.7485C51.8682 81.3273 51.7087 81.8149 51.3896 82.2114C51.0706 82.6034 50.6445 82.87 50.1113 83.0112V83.0864C50.7858 83.1912 51.3076 83.4601 51.6768 83.8931C52.0505 84.326 52.2373 84.8638 52.2373 85.5063C52.2373 86.0669 52.0801 86.5682 51.7656 87.0103C51.4557 87.4523 51.0296 87.8009 50.4873 88.0562C49.9495 88.3114 49.3343 88.439 48.6416 88.439ZM53.8711 88.3022L58.3145 79.5112V79.436H53.1738V78.1167H59.9141V79.4907L55.4775 88.3022H53.8711ZM64.125 77.9731C64.5807 77.9777 65.0273 78.062 65.4648 78.2261C65.9069 78.3856 66.3057 78.6499 66.6611 79.019C67.0212 79.3882 67.3083 79.8872 67.5225 80.5161C67.7367 81.1405 67.8438 81.9198 67.8438 82.854C67.8438 83.7427 67.7549 84.5334 67.5771 85.2261C67.3994 85.9188 67.1419 86.5044 66.8047 86.9829C66.472 87.4614 66.0687 87.826 65.5947 88.0767C65.1208 88.3228 64.5898 88.4458 64.002 88.4458C63.3958 88.4458 62.8558 88.325 62.3818 88.0835C61.9079 87.842 61.5251 87.5116 61.2334 87.0923C60.9417 86.6685 60.7572 86.1831 60.6797 85.6362H62.1973C62.2975 86.0692 62.5003 86.4224 62.8057 86.6958C63.1156 86.9647 63.5143 87.0991 64.002 87.0991C64.7448 87.0991 65.3236 86.7733 65.7383 86.1216C66.1576 85.4699 66.3695 84.5607 66.374 83.394H66.2988C66.1211 83.6812 65.9046 83.9295 65.6494 84.1392C65.3942 84.3442 65.1071 84.5015 64.7881 84.6108C64.4691 84.7202 64.1318 84.7749 63.7764 84.7749C63.1839 84.7749 62.6462 84.6313 62.1631 84.3442C61.68 84.0571 61.2972 83.6629 61.0146 83.1616C60.7321 82.6558 60.5885 82.0793 60.584 81.4321C60.5885 80.785 60.7367 80.1994 61.0283 79.6753C61.3245 79.1512 61.737 78.7365 62.2656 78.4312C62.7943 78.1213 63.4141 77.9686 64.125 77.9731ZM64.1318 79.272C63.7445 79.272 63.3958 79.3677 63.0859 79.5591C62.776 79.7505 62.5322 80.008 62.3545 80.3315C62.1768 80.6551 62.0879 81.0151 62.0879 81.4116C62.0879 81.8081 62.1722 82.1659 62.3408 82.4849C62.514 82.8039 62.7533 83.0591 63.0586 83.2505C63.3639 83.4373 63.7103 83.5308 64.0977 83.5308C64.4896 83.5308 64.8405 83.4328 65.1504 83.2368C65.4648 83.0363 65.7155 82.7743 65.9023 82.4507C66.0892 82.1226 66.1826 81.7694 66.1826 81.3911C66.1826 81.0174 66.0938 80.6688 65.916 80.3452C65.7383 80.0216 65.4945 79.7619 65.1846 79.5659C64.8792 79.37 64.5283 79.272 64.1318 79.272Z" fill="#FCFCFC"/>
<path d="M16 185.302L16 151.017C16 146.598 19.5817 143.017 24 143.017C28.4183 143.017 32 146.598 32 151.017L32 185.302L16 185.302Z" fill="url(#paint0_linear_2267_35072)"/>
<path d="M50.166 185.302L50.166 163.588C50.166 159.17 53.7477 155.588 58.166 155.588C62.5843 155.588 66.166 159.17 66.166 163.588L66.166 185.302L50.166 185.302Z" fill="url(#paint1_linear_2267_35072)"/>
<path d="M84.334 185.302L84.334 135.017C84.334 130.598 87.9157 127.017 92.334 127.017C96.7523 127.017 100.334 130.598 100.334 135.017L100.334 185.302L84.334 185.302Z" fill="url(#paint2_linear_2267_35072)"/>
<path d="M118.5 185.302L118.5 156.731C118.5 152.313 122.082 148.731 126.5 148.731C130.918 148.731 134.5 152.313 134.5 156.731L134.5 185.302L118.5 185.302Z" fill="url(#paint3_linear_2267_35072)"/>
<path d="M152.666 185.302L152.666 144.159C152.666 139.741 156.248 136.159 160.666 136.159C165.084 136.159 168.666 139.741 168.666 144.159L168.666 185.302L152.666 185.302Z" fill="url(#paint4_linear_2267_35072)"/>
<path d="M186.834 185.302L186.834 129.302C186.834 124.884 190.416 121.302 194.834 121.302C199.252 121.302 202.834 124.884 202.834 129.302L202.834 185.302L186.834 185.302Z" fill="url(#paint5_linear_2267_35072)"/>
<path d="M221 185.302L221 176.159C221 171.741 224.582 168.159 229 168.159C233.418 168.159 237 171.741 237 176.159L237 185.302L221 185.302Z" fill="url(#paint6_linear_2267_35072)"/>
<path d="M24.1712 201.446C23.6112 201.446 23.0912 201.342 22.6112 201.134C22.1312 200.918 21.7232 200.626 21.3872 200.258C21.0512 199.89 20.8032 199.466 20.6432 198.986L21.8432 198.482C22.0592 199.034 22.3752 199.458 22.7912 199.754C23.2072 200.05 23.6872 200.198 24.2312 200.198C24.5512 200.198 24.8312 200.15 25.0712 200.054C25.3112 199.95 25.4952 199.806 25.6232 199.622C25.7592 199.438 25.8272 199.226 25.8272 198.986C25.8272 198.658 25.7352 198.398 25.5512 198.206C25.3672 198.014 25.0952 197.862 24.7352 197.75L23.0552 197.222C22.3832 197.014 21.8712 196.698 21.5192 196.274C21.1672 195.842 20.9912 195.338 20.9912 194.762C20.9912 194.258 21.1152 193.818 21.3632 193.442C21.6112 193.058 21.9512 192.758 22.3832 192.542C22.8232 192.326 23.3232 192.218 23.8832 192.218C24.4192 192.218 24.9072 192.314 25.3472 192.506C25.7872 192.69 26.1632 192.946 26.4752 193.274C26.7952 193.602 27.0272 193.982 27.1712 194.414L25.9952 194.93C25.8192 194.458 25.5432 194.094 25.1672 193.838C24.7992 193.582 24.3712 193.454 23.8832 193.454C23.5872 193.454 23.3272 193.506 23.1032 193.61C22.8792 193.706 22.7032 193.85 22.5752 194.042C22.4552 194.226 22.3952 194.442 22.3952 194.69C22.3952 194.978 22.4872 195.234 22.6712 195.458C22.8552 195.682 23.1352 195.85 23.5112 195.962L25.0712 196.454C25.7832 196.67 26.3192 196.982 26.6792 197.39C27.0392 197.79 27.2192 198.29 27.2192 198.89C27.2192 199.386 27.0872 199.826 26.8232 200.21C26.5672 200.594 26.2112 200.898 25.7552 201.122C25.2992 201.338 24.7712 201.446 24.1712 201.446Z" fill="#FCFCFC"/>
<path d="M54.3459 201.302V192.362H55.6659L59.0259 197.018H58.3659L61.6659 192.362H62.9859V201.302H61.5819V194.03L62.1099 194.174L58.7379 198.782H58.5939L55.2939 194.174L55.7619 194.03V201.302H54.3459Z" fill="#FCFCFC"/>
<path d="M92.1486 201.302V193.622H89.7726V192.362H95.8926V193.622H93.5526V201.302H92.1486Z" fill="#FCFCFC"/>
<path d="M124.545 201.302L122.085 192.362H123.585L125.577 200.102H125.205L127.269 192.362H128.745L130.809 200.102H130.425L132.429 192.362H133.917L131.469 201.302H129.873L127.797 193.682H128.217L126.129 201.302H124.545Z" fill="#FCFCFC"/>
<path d="M162.481 201.302V193.622H160.105V192.362H166.225V193.622H163.885V201.302H162.481Z" fill="#FCFCFC"/>
<path d="M193.254 201.302V192.362H199.074V193.622H194.67V196.31H198.594V197.57H194.67V201.302H193.254Z" fill="#FCFCFC"/>
<path d="M229.171 201.446C228.611 201.446 228.091 201.342 227.611 201.134C227.131 200.918 226.723 200.626 226.387 200.258C226.051 199.89 225.803 199.466 225.643 198.986L226.843 198.482C227.059 199.034 227.375 199.458 227.791 199.754C228.207 200.05 228.687 200.198 229.231 200.198C229.551 200.198 229.831 200.15 230.071 200.054C230.311 199.95 230.495 199.806 230.623 199.622C230.759 199.438 230.827 199.226 230.827 198.986C230.827 198.658 230.735 198.398 230.551 198.206C230.367 198.014 230.095 197.862 229.735 197.75L228.055 197.222C227.383 197.014 226.871 196.698 226.519 196.274C226.167 195.842 225.991 195.338 225.991 194.762C225.991 194.258 226.115 193.818 226.363 193.442C226.611 193.058 226.951 192.758 227.383 192.542C227.823 192.326 228.323 192.218 228.883 192.218C229.419 192.218 229.907 192.314 230.347 192.506C230.787 192.69 231.163 192.946 231.475 193.274C231.795 193.602 232.027 193.982 232.171 194.414L230.995 194.93C230.819 194.458 230.543 194.094 230.167 193.838C229.799 193.582 229.371 193.454 228.883 193.454C228.587 193.454 228.327 193.506 228.103 193.61C227.879 193.706 227.703 193.85 227.575 194.042C227.455 194.226 227.395 194.442 227.395 194.69C227.395 194.978 227.487 195.234 227.671 195.458C227.855 195.682 228.135 195.85 228.511 195.962L230.071 196.454C230.783 196.67 231.319 196.982 231.679 197.39C232.039 197.79 232.219 198.29 232.219 198.89C232.219 199.386 232.087 199.826 231.823 200.21C231.567 200.594 231.211 200.898 230.755 201.122C230.299 201.338 229.771 201.446 229.171 201.446Z" fill="#FCFCFC"/>
<g filter="url(#filter0_dd_2267_35072)">
<rect x="198.906" y="53.3032" width="62" height="50" rx="8" transform="rotate(-14 198.906 53.3032)" fill="#ECC5A2"/>
<path d="M216.099 84.0575L215.73 82.5794L219.794 75.0444C220.268 74.1693 220.647 73.4144 220.932 72.7799C221.224 72.1434 221.414 71.5646 221.502 71.0436C221.597 70.5207 221.58 70.0015 221.451 69.4861C221.302 68.8872 221.029 68.4076 220.634 68.0474C220.244 67.6776 219.777 67.4358 219.233 67.3217C218.689 67.2077 218.11 67.2272 217.496 67.3803C216.844 67.5429 216.309 67.8173 215.89 68.2035C215.479 68.5879 215.201 69.0558 215.056 69.6071C214.918 70.1489 214.929 70.742 215.089 71.3863L213.134 71.8739C212.886 70.8809 212.896 69.9525 213.164 69.0886C213.439 68.2228 213.919 67.4832 214.603 66.8697C215.293 66.2468 216.131 65.8124 217.117 65.5667C218.11 65.3191 219.042 65.3122 219.913 65.5458C220.783 65.7718 221.523 66.1872 222.132 66.7921C222.748 67.3874 223.165 68.1248 223.384 69.0041C223.539 69.6257 223.577 70.2605 223.497 70.9085C223.423 71.547 223.199 72.2991 222.828 73.1648C222.463 74.0286 221.925 75.1007 221.214 76.3811L218.431 81.3987L218.465 81.5352L226.334 79.5733L226.787 81.3926L216.099 84.0575ZM234.69 79.6639C233.446 79.9738 232.3 79.8973 231.251 79.4343C230.201 78.9713 229.285 78.1531 228.501 76.9798C227.715 75.7988 227.093 74.2873 226.634 72.4452C226.176 70.6108 226.017 68.9878 226.156 67.5762C226.301 66.1552 226.728 64.994 227.438 64.0925C228.145 63.1834 229.116 62.5748 230.352 62.2668C231.588 61.9587 232.731 62.04 233.782 62.5105C234.832 62.9735 235.75 63.7993 236.538 64.9878C237.331 66.1669 237.956 67.6737 238.414 69.5082C238.873 71.3502 239.033 72.977 238.894 74.3885C238.753 75.7925 238.327 76.9452 237.618 77.8467C236.917 78.7463 235.94 79.352 234.69 79.6639ZM234.242 77.8673C235.083 77.6575 235.729 77.2108 236.178 76.527C236.626 75.8357 236.873 74.9368 236.919 73.8302C236.973 72.7218 236.819 71.4436 236.458 69.9958C236.095 68.5403 235.63 67.3359 235.062 66.3824C234.502 65.4271 233.862 64.7493 233.142 64.349C232.422 63.9488 231.641 63.8535 230.8 64.0633C229.542 64.3771 228.723 65.2254 228.343 66.6084C227.963 67.9914 228.045 69.7744 228.589 71.9576C228.95 73.4055 229.411 74.6071 229.971 75.5624C230.539 76.5159 231.183 77.1927 231.903 77.593C232.628 77.9838 233.408 78.0752 234.242 77.8673ZM250.418 72.1192L250.196 71.2323C250.041 70.6107 250.025 70.011 250.146 69.4332C250.276 68.8534 250.548 68.3467 250.963 67.9131C251.378 67.4794 251.938 67.1747 252.643 66.999C253.364 66.8194 254.005 66.8245 254.568 67.0144C255.13 67.2042 255.597 67.5266 255.968 67.9816C256.347 68.4347 256.614 68.9721 256.769 69.5937L256.99 70.4806C257.145 71.1022 257.161 71.7019 257.04 72.2797C256.918 72.8576 256.654 73.3624 256.246 73.7941C255.838 74.2259 255.278 74.5306 254.566 74.7083C253.853 74.8859 253.212 74.8808 252.641 74.6928C252.071 74.5049 251.597 74.1844 251.218 73.7313C250.839 73.2782 250.573 72.7408 250.418 72.1192ZM251.879 70.8127L252.1 71.6996C252.229 72.2151 252.466 72.6473 252.81 72.9961C253.153 73.3374 253.621 73.4381 254.214 73.2983C254.796 73.1452 255.154 72.8385 255.289 72.3781C255.429 71.9083 255.435 71.4156 255.307 70.9002L255.086 70.0132C254.957 69.4978 254.725 69.0685 254.39 68.7253C254.063 68.3802 253.599 68.2823 253.001 68.4317C252.424 68.5753 252.061 68.8792 251.911 69.3433C251.761 69.8075 251.751 70.2973 251.879 70.8127ZM239.565 64.535L239.344 63.6481C239.189 63.0265 239.176 62.4258 239.305 61.8461C239.435 61.2664 239.703 60.7606 240.111 60.3289C240.526 59.8952 241.086 59.5905 241.791 59.4147C242.511 59.2352 243.152 59.2403 243.715 59.4302C244.285 59.6181 244.756 59.9396 245.127 60.3946C245.506 60.8477 245.769 61.386 245.916 62.0095L246.137 62.8964C246.298 63.5085 246.315 64.1082 246.187 64.6955C246.066 65.2734 245.801 65.7782 245.393 66.2099C244.986 66.6417 244.426 66.9464 243.713 67.124C243.001 67.3017 242.359 67.2966 241.789 67.1086C241.219 66.9207 240.744 66.6001 240.366 66.147C239.985 65.6864 239.718 65.149 239.565 64.535ZM241.027 63.2285L241.248 64.1154C241.376 64.6309 241.613 65.0631 241.958 65.4119C242.3 65.7532 242.766 65.8463 243.356 65.6913C243.941 65.5534 244.302 65.2542 244.436 64.7939C244.577 64.3241 244.583 63.8314 244.454 63.3159L244.233 62.429C244.105 61.9136 243.873 61.4842 243.538 61.1411C243.208 60.7884 242.745 60.6906 242.148 60.8474C241.57 60.9835 241.207 61.2874 241.059 61.7591C240.909 62.2232 240.898 62.713 241.027 63.2285ZM243.411 77.2478L250.83 57.4025L252.718 56.9319L245.299 76.7772L243.411 77.2478Z" fill="#1A1A1C"/>
</g>
<defs>
<filter id="filter0_dd_2267_35072" x="138.906" y="-1.6958" width="192.254" height="183.514" filterUnits="userSpaceOnUse" color-interpolation-filters="sRGB">
<feFlood flood-opacity="0" result="BackgroundImageFix"/>
<feColorMatrix in="SourceAlpha" type="matrix" values="0 0 0 0 0 0 0 0 0 0 0 0 0 0 0 0 0 0 127 0" result="hardAlpha"/>
<feMorphology radius="5" operator="erode" in="SourceAlpha" result="effect1_dropShadow_2267_35072"/>
<feOffset dy="20"/>
<feGaussianBlur stdDeviation="32.5"/>
<feColorMatrix type="matrix" values="0 0 0 0 0.109804 0 0 0 0 0.133333 0 0 0 0 0.168627 0 0 0 0.05 0"/>
<feBlend mode="normal" in2="BackgroundImageFix" result="effect1_dropShadow_2267_35072"/>
<feColorMatrix in="SourceAlpha" type="matrix" values="0 0 0 0 0 0 0 0 0 0 0 0 0 0 0 0 0 0 127 0" result="hardAlpha"/>
<feMorphology radius="5" operator="erode" in="SourceAlpha" result="effect2_dropShadow_2267_35072"/>
<feOffset dy="10"/>
<feGaussianBlur stdDeviation="10"/>
<feColorMatrix type="matrix" values="0 0 0 0 0.109804 0 0 0 0 0.133333 0 0 0 0 0.168627 0 0 0 0.05 0"/>
<feBlend mode="normal" in2="effect1_dropShadow_2267_35072" result="effect2_dropShadow_2267_35072"/>
<feBlend mode="normal" in="SourceGraphic" in2="effect2_dropShadow_2267_35072" result="shape"/>
</filter>
<linearGradient id="paint0_linear_2267_35072" x1="23.9998" y1="145.366" x2="23.9998" y2="185.302" gradientUnits="userSpaceOnUse">
<stop stop-color="#F4EFE7"/>
<stop offset="1" stop-color="#F4EFE7" stop-opacity="0"/>
</linearGradient>
<linearGradient id="paint1_linear_2267_35072" x1="58.1658" y1="157.239" x2="58.1658" y2="185.302" gradientUnits="userSpaceOnUse">
<stop stop-color="#F4EFE7"/>
<stop offset="1" stop-color="#F4EFE7" stop-opacity="0"/>
</linearGradient>
<linearGradient id="paint2_linear_2267_35072" x1="92.3338" y1="130.255" x2="92.3338" y2="185.302" gradientUnits="userSpaceOnUse">
<stop stop-color="#F4EFE7"/>
<stop offset="1" stop-color="#F4EFE7" stop-opacity="0"/>
</linearGradient>
<linearGradient id="paint3_linear_2267_35072" x1="126.5" y1="150.763" x2="126.5" y2="185.302" gradientUnits="userSpaceOnUse">
<stop stop-color="#F4EFE7"/>
<stop offset="1" stop-color="#F4EFE7" stop-opacity="0"/>
</linearGradient>
<linearGradient id="paint4_linear_2267_35072" x1="160.666" y1="138.89" x2="160.666" y2="185.302" gradientUnits="userSpaceOnUse">
<stop stop-color="#F4EFE7"/>
<stop offset="1" stop-color="#F4EFE7" stop-opacity="0"/>
</linearGradient>
<linearGradient id="paint5_linear_2267_35072" x1="194.834" y1="124.858" x2="194.834" y2="185.302" gradientUnits="userSpaceOnUse">
<stop stop-color="#F4EFE7"/>
<stop offset="1" stop-color="#F4EFE7" stop-opacity="0"/>
</linearGradient>
<linearGradient id="paint6_linear_2267_35072" x1="229" y1="169.112" x2="229" y2="185.302" gradientUnits="userSpaceOnUse">
<stop stop-color="#F4EFE7"/>
<stop offset="1" stop-color="#F4EFE7" stop-opacity="0"/>
</linearGradient>
</defs>
</svg>
