<svg width="629" height="156" viewBox="0 0 629 156" fill="none" xmlns="http://www.w3.org/2000/svg">
<path d="M158.109 88.0117C158.109 136.619 114.907 176.023 61.6133 176.023C8.31996 176.023 -34.8828 136.619 -34.8828 88.0117C-34.8828 39.4042 8.31996 0 61.6133 0C114.907 0 158.109 39.4042 158.109 88.0117Z" fill="white"/>
<path d="M235.961 132.928C235.961 172.146 201.104 203.938 158.105 203.938C115.107 203.938 80.25 172.146 80.25 132.928C80.25 93.7103 115.107 61.918 158.105 61.918C201.104 61.918 235.961 93.7103 235.961 132.928Z" fill="white"/>
<path d="M320.344 141.438C320.344 169.531 296.3 192.304 266.641 192.304C236.981 192.304 212.938 169.531 212.938 141.438C212.938 113.346 236.981 90.5723 266.641 90.5723C296.3 90.5723 320.344 113.346 320.344 141.438Z" fill="white"/>
<path d="M469.891 88.0117C469.891 136.619 513.093 176.023 566.387 176.023C619.68 176.023 662.883 136.619 662.883 88.0117C662.883 39.4042 619.68 0 566.387 0C513.093 0 469.891 39.4042 469.891 88.0117Z" fill="white"/>
<path d="M392.039 132.928C392.039 172.146 426.896 203.938 469.895 203.938C512.893 203.938 547.75 172.146 547.75 132.928C547.75 93.7103 512.893 61.918 469.895 61.918C426.896 61.918 392.039 93.7103 392.039 132.928Z" fill="white"/>
<path d="M307.656 141.438C307.656 169.531 331.7 192.304 361.359 192.304C391.019 192.304 415.062 169.531 415.062 141.438C415.062 113.346 391.019 90.5723 361.359 90.5723C331.7 90.5723 307.656 113.346 307.656 141.438Z" fill="white"/>
</svg>
