<svg width="255" height="177" viewBox="0 0 255 177" fill="none" xmlns="http://www.w3.org/2000/svg">
<rect width="255" height="177" fill="#1A1A1C"/>
<rect x="16" y="16" width="40" height="40" rx="8" fill="#F4EFE7"/>
<path d="M41.5332 39.4668L41.5322 39.4678L36.002 45L30.4707 39.4707L30.4688 39.4678L32.5059 37.4365L36.002 40.9326L39.499 37.4355L41.5332 39.4668ZM38.0645 35.999H38.0654L38.0645 36.001L36.001 38.0645L33.9385 36.0029L33.9355 35.999L34.2998 35.6348L34.4756 35.46L36.001 33.9346L38.0645 35.999ZM31.0674 36L29.0342 38.0342L27 36L29.0342 33.9668L31.0674 36ZM45 36.001L42.9658 38.0342L40.9316 36.001L42.9658 33.9668L45 36.001ZM41.5322 32.5322L39.499 34.5664L36.002 31.0693L32.5059 34.5635L30.4707 32.5303L36.002 27L41.5322 32.5322Z" fill="#1A1A1C"/>
<path d="M17.0312 87V75.3594H21.1094C21.9167 75.3594 22.5833 75.5 23.1094 75.7812C23.6354 76.0573 24.026 76.4297 24.2812 76.8984C24.5417 77.3672 24.6719 77.8854 24.6719 78.4531C24.6719 78.9531 24.5833 79.3672 24.4062 79.6953C24.2292 80.0182 23.9974 80.276 23.7109 80.4688C23.4245 80.6562 23.1146 80.7969 22.7812 80.8906V81C23.1406 81.0208 23.5 81.1458 23.8594 81.375C24.2188 81.6042 24.5182 81.9297 24.7578 82.3516C25.0026 82.7734 25.125 83.2917 25.125 83.9062C25.125 84.4896 24.9922 85.0156 24.7266 85.4844C24.4609 85.9479 24.0417 86.3177 23.4688 86.5938C22.901 86.8646 22.1562 87 21.2344 87H17.0312ZM18.4375 85.75H21.2344C22.1562 85.75 22.8099 85.5703 23.1953 85.2109C23.5859 84.8516 23.7812 84.4167 23.7812 83.9062C23.7812 83.5104 23.6797 83.1458 23.4766 82.8125C23.2786 82.4792 22.9948 82.2109 22.625 82.0078C22.2552 81.8047 21.8177 81.7031 21.3125 81.7031H18.4375V85.75ZM18.4375 80.4844H21.0625C21.4844 80.4844 21.8672 80.401 22.2109 80.2344C22.5547 80.0625 22.8255 79.8255 23.0234 79.5234C23.2266 79.2161 23.3281 78.8594 23.3281 78.4531C23.3281 77.9427 23.151 77.5078 22.7969 77.1484C22.4427 76.7891 21.8802 76.6094 21.1094 76.6094H18.4375V80.4844ZM36.1935 75.3594V87H34.8029L28.4747 77.8594H28.3497V87H26.9435V75.3594H28.3029L34.6779 84.5156H34.7872V75.3594H36.1935ZM38.512 87V75.3594H42.5901C43.3974 75.3594 44.0641 75.5 44.5901 75.7812C45.1162 76.0573 45.5068 76.4297 45.762 76.8984C46.0224 77.3672 46.1526 77.8854 46.1526 78.4531C46.1526 78.9531 46.0641 79.3672 45.887 79.6953C45.7099 80.0182 45.4781 80.276 45.1917 80.4688C44.9052 80.6562 44.5953 80.7969 44.262 80.8906V81C44.6214 81.0208 44.9807 81.1458 45.3401 81.375C45.6995 81.6042 45.999 81.9297 46.2386 82.3516C46.4834 82.7734 46.6057 83.2917 46.6057 83.9062C46.6057 84.4896 46.4729 85.0156 46.2073 85.4844C45.9417 85.9479 45.5224 86.3177 44.9495 86.5938C44.3818 86.8646 43.637 87 42.7151 87H38.512ZM39.9182 85.75H42.7151C43.637 85.75 44.2906 85.5703 44.6761 85.2109C45.0667 84.8516 45.262 84.4167 45.262 83.9062C45.262 83.5104 45.1604 83.1458 44.9573 82.8125C44.7594 82.4792 44.4755 82.2109 44.1057 82.0078C43.736 81.8047 43.2985 81.7031 42.7932 81.7031H39.9182V85.75ZM39.9182 80.4844H42.5432C42.9651 80.4844 43.3479 80.401 43.6917 80.2344C44.0354 80.0625 44.3063 79.8255 44.5042 79.5234C44.7073 79.2161 44.8089 78.8594 44.8089 78.4531C44.8089 77.9427 44.6318 77.5078 44.2776 77.1484C43.9235 76.7891 43.361 76.6094 42.5901 76.6094H39.9182V80.4844Z" fill="white"/>
<path d="M65.6394 79.6001C65.5444 79.6001 65.4494 79.5651 65.3744 79.4901C65.2294 79.3451 65.2294 79.1051 65.3744 78.9601L66.9694 77.3651L65.3744 75.7701C65.2294 75.6251 65.2294 75.3851 65.3744 75.2401C65.5194 75.0951 65.7594 75.0951 65.9044 75.2401L67.7644 77.1001C67.8344 77.1701 67.8744 77.2651 67.8744 77.3651C67.8744 77.4651 67.8344 77.5601 67.7644 77.6301L65.9044 79.4901C65.8294 79.5601 65.7344 79.6001 65.6394 79.6001Z" fill="white"/>
<path d="M67.5 77.74H58.5C58.295 77.74 58.125 77.57 58.125 77.365C58.125 77.16 58.295 76.99 58.5 76.99H67.5C67.705 76.99 67.875 77.16 67.875 77.365C67.875 77.57 67.705 77.74 67.5 77.74Z" fill="white"/>
<path d="M60.36 84.875C60.265 84.875 60.17 84.84 60.095 84.765L58.235 82.905C58.165 82.835 58.125 82.74 58.125 82.64C58.125 82.54 58.165 82.445 58.235 82.375L60.095 80.515C60.24 80.37 60.48 80.37 60.625 80.515C60.77 80.66 60.77 80.9 60.625 81.045L59.03 82.64L60.625 84.235C60.77 84.38 60.77 84.62 60.625 84.765C60.555 84.84 60.46 84.875 60.36 84.875Z" fill="white"/>
<path d="M67.5 83.01H58.5C58.295 83.01 58.125 82.84 58.125 82.635C58.125 82.43 58.295 82.26 58.5 82.26H67.5C67.705 82.26 67.875 82.43 67.875 82.635C67.875 82.84 67.705 83.01 67.5 83.01Z" fill="white"/>
<path d="M86.6719 75.3594H88.0781V83.0625C88.0781 83.8594 87.8906 84.5703 87.5156 85.1953C87.1458 85.8151 86.6224 86.3047 85.9453 86.6641C85.2682 87.0234 84.474 87.2031 83.5625 87.2031C82.651 87.2031 81.8542 87.0234 81.1719 86.6641C80.4948 86.3047 79.9688 85.8151 79.5938 85.1953C79.2188 84.5703 79.0312 83.8594 79.0312 83.0625V75.3594H80.4375V82.9531C80.4375 83.5208 80.5625 84.026 80.8125 84.4688C81.0625 84.9115 81.4219 85.2604 81.8906 85.5156C82.3594 85.7656 82.9167 85.8906 83.5625 85.8906C84.2083 85.8906 84.763 85.7656 85.2266 85.5156C85.6901 85.2604 86.0469 84.9115 86.2969 84.4688C86.5469 84.026 86.6719 83.5208 86.6719 82.9531V75.3594ZM94.0841 87.2031C93.2508 87.2031 92.5294 87.0703 91.9201 86.8047C91.3107 86.5339 90.8315 86.1589 90.4826 85.6797C90.1388 85.1953 89.9435 84.6354 89.8966 84H91.3497C91.3914 84.4375 91.5399 84.7995 91.7951 85.0859C92.0555 85.3724 92.3862 85.5859 92.7872 85.7266C93.1883 85.8672 93.6206 85.9375 94.0841 85.9375C94.6206 85.9375 95.1024 85.849 95.5294 85.6719C95.9617 85.4948 96.3029 85.2474 96.5529 84.9297C96.8029 84.612 96.9279 84.2396 96.9279 83.8125C96.9279 83.4271 96.8185 83.1146 96.5997 82.875C96.381 82.6354 96.0945 82.4401 95.7404 82.2891C95.3914 82.138 95.0112 82.0052 94.5997 81.8906L93.1779 81.4844C92.2664 81.224 91.5451 80.8516 91.0138 80.3672C90.4878 79.8776 90.2247 79.2396 90.2247 78.4531C90.2247 77.8021 90.3992 77.2344 90.7482 76.75C91.1024 76.2604 91.5789 75.8802 92.1779 75.6094C92.782 75.3385 93.4539 75.2031 94.1935 75.2031C94.9435 75.2031 95.6102 75.3385 96.1935 75.6094C96.7768 75.875 97.2404 76.2396 97.5841 76.7031C97.9279 77.1615 98.1102 77.6823 98.131 78.2656H96.756C96.6883 77.6927 96.4122 77.2474 95.9279 76.9297C95.4487 76.612 94.855 76.4531 94.1466 76.4531C93.6362 76.4531 93.1883 76.5365 92.8029 76.7031C92.4175 76.8698 92.118 77.099 91.9044 77.3906C91.6909 77.6823 91.5841 78.0156 91.5841 78.3906C91.5841 78.8021 91.7117 79.1354 91.9669 79.3906C92.2221 79.6406 92.5242 79.8359 92.8732 79.9766C93.2274 80.1172 93.5477 80.2292 93.8341 80.3125L95.006 80.6406C95.3081 80.724 95.644 80.8359 96.0138 80.9766C96.3888 81.1172 96.7482 81.3073 97.0919 81.5469C97.4409 81.7865 97.7274 82.0938 97.9513 82.4688C98.1753 82.8385 98.2872 83.2969 98.2872 83.8438C98.2872 84.4688 98.1232 85.0365 97.7951 85.5469C97.4669 86.0521 96.9904 86.4557 96.3654 86.7578C95.7404 87.0547 94.98 87.2031 94.0841 87.2031ZM103.699 87H100.903V85.75H103.606C104.569 85.75 105.366 85.5651 105.996 85.1953C106.632 84.8255 107.106 84.2969 107.418 83.6094C107.731 82.9219 107.887 82.1042 107.887 81.1562C107.887 80.2188 107.733 79.4115 107.426 78.7344C107.119 78.0521 106.658 77.5286 106.043 77.1641C105.434 76.7943 104.673 76.6094 103.762 76.6094H100.84V75.3594H103.856C104.986 75.3594 105.952 75.5911 106.754 76.0547C107.561 76.5182 108.179 77.1849 108.606 78.0547C109.033 78.9193 109.246 79.9531 109.246 81.1562C109.246 82.3698 109.03 83.4141 108.598 84.2891C108.166 85.1589 107.535 85.8281 106.707 86.2969C105.884 86.7656 104.882 87 103.699 87ZM101.512 75.3594V87H100.106V75.3594H101.512Z" fill="white"/>
<path d="M22.9375 119.234C22.2266 119.234 21.5117 119.105 20.793 118.848C20.0742 118.582 19.418 118.141 18.8242 117.523C18.2383 116.898 17.7656 116.051 17.4062 114.98C17.0469 113.91 16.8672 112.57 16.8672 110.961C16.8672 109.414 17.0117 108.043 17.3008 106.848C17.5977 105.652 18.0195 104.645 18.5664 103.824C19.1211 102.996 19.7891 102.371 20.5703 101.949C21.3516 101.52 22.2344 101.305 23.2188 101.305C24.1953 101.305 25.0625 101.5 25.8203 101.891C26.5859 102.281 27.2109 102.824 27.6953 103.52C28.1797 104.207 28.4922 105 28.6328 105.898H26.5703C26.375 105.117 25.9961 104.469 25.4336 103.953C24.8789 103.438 24.1406 103.18 23.2188 103.18C21.8672 103.18 20.8008 103.77 20.0195 104.949C19.2461 106.121 18.8594 107.773 18.8594 109.906H19C19.3203 109.422 19.6992 109.008 20.1367 108.664C20.5742 108.312 21.0586 108.047 21.5898 107.867C22.1211 107.68 22.6875 107.586 23.2891 107.586C24.2891 107.586 25.2031 107.836 26.0312 108.336C26.8594 108.828 27.5234 109.512 28.0234 110.387C28.5234 111.254 28.7734 112.25 28.7734 113.375C28.7734 114.453 28.5312 115.438 28.0469 116.328C27.5703 117.211 26.8945 117.918 26.0195 118.449C25.1445 118.973 24.1172 119.234 22.9375 119.234ZM22.9375 117.359C23.6562 117.359 24.3008 117.184 24.8711 116.832C25.4414 116.473 25.8945 115.992 26.2305 115.391C26.5664 114.781 26.7344 114.109 26.7344 113.375C26.7344 112.648 26.5703 111.992 26.2422 111.406C25.9219 110.812 25.4805 110.34 24.918 109.988C24.3633 109.637 23.7266 109.461 23.0078 109.461C22.2891 109.461 21.6367 109.645 21.0508 110.012C20.4727 110.379 20.0117 110.863 19.668 111.465C19.332 112.059 19.1641 112.703 19.1641 113.398C19.1641 114.094 19.3281 114.746 19.6562 115.355C19.9844 115.957 20.4297 116.441 20.9922 116.809C21.5625 117.176 22.2109 117.359 22.9375 117.359ZM36.7277 119.234C35.7277 119.234 34.8254 119.039 34.0207 118.648C33.2238 118.25 32.5832 117.703 32.0988 117.008C31.6145 116.312 31.3527 115.523 31.3137 114.641H33.3527C33.4309 115.422 33.7863 116.07 34.4192 116.586C35.0598 117.102 35.8293 117.359 36.7277 117.359C37.4465 117.359 38.0832 117.191 38.6379 116.855C39.1926 116.52 39.6301 116.059 39.9504 115.473C40.2707 114.887 40.4309 114.219 40.4309 113.469C40.4309 112.711 40.2629 112.031 39.927 111.43C39.5988 110.828 39.1457 110.355 38.5676 110.012C37.9895 109.66 37.3293 109.484 36.5871 109.484C36.0481 109.484 35.4973 109.57 34.9348 109.742C34.3801 109.906 33.9231 110.117 33.5637 110.375L31.5715 110.141L32.6262 101.539H41.6965V103.414H34.4074L33.7981 108.57H33.8918C34.2512 108.281 34.7004 108.047 35.2395 107.867C35.7785 107.68 36.3449 107.586 36.9387 107.586C38.009 107.586 38.9621 107.84 39.7981 108.348C40.634 108.855 41.2902 109.551 41.7668 110.434C42.2512 111.309 42.4934 112.312 42.4934 113.445C42.4934 114.555 42.2434 115.547 41.7434 116.422C41.2434 117.297 40.5598 117.984 39.6926 118.484C38.8254 118.984 37.8371 119.234 36.7277 119.234ZM44.5883 115.414V113.68L52.2524 101.539H53.518V104.234H52.6508L46.8617 113.398V113.539H57.1977V115.414H44.5883ZM52.7914 119V114.898V114.078V101.539H54.8071V119H52.7914ZM60.1833 119L67.9879 103.555V103.414H58.9879V101.539H70.1911V103.531L62.4098 119H60.1833ZM71.0087 119.141C70.5868 119.141 70.2235 118.992 69.9188 118.695C69.6219 118.391 69.4735 118.027 69.4735 117.605C69.4735 117.184 69.6219 116.824 69.9188 116.527C70.2235 116.223 70.5868 116.07 71.0087 116.07C71.4305 116.07 71.7899 116.223 72.0868 116.527C72.3915 116.824 72.5438 117.184 72.5438 117.605C72.5438 118.027 72.3915 118.391 72.0868 118.695C71.7899 118.992 71.4305 119.141 71.0087 119.141ZM75.67 119L83.4747 103.555V103.414H74.4747V101.539H85.6778V103.531L77.8966 119H75.67ZM93.1165 101.305C93.8353 101.312 94.5501 101.449 95.261 101.715C95.9798 101.98 96.636 102.422 97.2298 103.039C97.8235 103.656 98.2962 104.496 98.6478 105.559C99.0071 106.621 99.1868 107.953 99.1868 109.555C99.1868 111.109 99.0423 112.488 98.7532 113.691C98.4642 114.887 98.0423 115.898 97.4876 116.727C96.9407 117.547 96.2767 118.172 95.4954 118.602C94.7142 119.023 93.8353 119.234 92.8587 119.234C91.8821 119.234 91.0071 119.039 90.2337 118.648C89.4681 118.258 88.8431 117.715 88.3587 117.02C87.8743 116.324 87.5618 115.516 87.4212 114.594H89.5071C89.6946 115.398 90.0696 116.062 90.6321 116.586C91.1946 117.102 91.9368 117.359 92.8587 117.359C94.2024 117.359 95.261 116.773 96.0345 115.602C96.8157 114.422 97.2103 112.758 97.2181 110.609H97.0774C96.7571 111.086 96.3782 111.5 95.9407 111.852C95.5032 112.195 95.0188 112.461 94.4876 112.648C93.9563 112.836 93.3899 112.93 92.7884 112.93C91.7884 112.93 90.8704 112.684 90.0345 112.191C89.1985 111.691 88.5306 111.008 88.0306 110.141C87.5384 109.266 87.2884 108.266 87.2806 107.141C87.2884 106.07 87.5306 105.094 88.0071 104.211C88.4915 103.32 89.1673 102.609 90.0345 102.078C90.9095 101.547 91.9368 101.289 93.1165 101.305ZM93.1165 103.18C92.4056 103.18 91.761 103.359 91.1829 103.719C90.6126 104.07 90.1634 104.547 89.8353 105.148C89.5071 105.742 89.3431 106.406 89.3431 107.141C89.3431 107.867 89.4993 108.527 89.8118 109.121C90.1321 109.715 90.5735 110.188 91.136 110.539C91.6985 110.883 92.3353 111.055 93.0462 111.055C93.7649 111.055 94.4134 110.871 94.9915 110.504C95.5774 110.129 96.0423 109.641 96.386 109.039C96.7376 108.438 96.9134 107.789 96.9134 107.094C96.9134 106.414 96.7493 105.777 96.4212 105.184C96.0931 104.582 95.6438 104.098 95.0735 103.73C94.5032 103.363 93.8509 103.18 93.1165 103.18Z" fill="white"/>
<path d="M29.6162 144.924H27.6162V143.506L24.3184 146.804L23.6104 147.511L20.7939 144.695L17.4141 148.076L16 146.662L20.0869 142.574L20.7939 141.867L21.502 142.574L23.6104 144.682L26.3691 141.924H24.6162V139.924H29.6162V144.924Z" fill="#F4EFE7"/>
<path d="M37.5264 139.178C37.9456 139.182 38.3626 139.262 38.7773 139.417C39.1966 139.572 39.5794 139.829 39.9258 140.189C40.2721 140.549 40.5479 141.039 40.7529 141.659C40.9626 142.279 41.0674 143.056 41.0674 143.99C41.0674 144.897 40.9831 145.701 40.8145 146.403C40.6458 147.101 40.3997 147.691 40.0762 148.174C39.7572 148.652 39.3698 149.017 38.9141 149.268C38.4583 149.514 37.9456 149.637 37.376 149.637C36.8063 149.637 36.2959 149.523 35.8447 149.295C35.3981 149.067 35.0335 148.75 34.751 148.345C34.4684 147.939 34.2861 147.467 34.2041 146.93H35.4209C35.5303 147.399 35.749 147.786 36.0771 148.092C36.4053 148.393 36.8382 148.543 37.376 148.543C38.1598 148.543 38.7773 148.201 39.2285 147.518C39.6842 146.829 39.9144 145.859 39.9189 144.605H39.8369C39.6501 144.883 39.429 145.125 39.1738 145.33C38.9186 145.531 38.6361 145.686 38.3262 145.795C38.0163 145.904 37.6859 145.959 37.335 145.959C36.7516 145.959 36.2161 145.815 35.7285 145.528C35.2409 145.237 34.8512 144.838 34.5596 144.332C34.2725 143.822 34.1266 143.238 34.1221 142.582C34.1266 141.958 34.2679 141.388 34.5459 140.873C34.8285 140.354 35.2227 139.939 35.7285 139.629C36.2389 139.319 36.8382 139.169 37.5264 139.178ZM37.5264 140.271C37.1117 140.271 36.7357 140.376 36.3984 140.586C36.0658 140.791 35.8037 141.069 35.6123 141.42C35.4209 141.766 35.3252 142.154 35.3252 142.582C35.3252 143.006 35.4163 143.391 35.5986 143.737C35.7855 144.084 36.043 144.359 36.3711 144.564C36.6992 144.765 37.0706 144.865 37.4854 144.865C37.9046 144.865 38.2829 144.758 38.6201 144.544C38.9619 144.325 39.2331 144.04 39.4336 143.689C39.6387 143.339 39.7412 142.96 39.7412 142.555C39.7412 142.158 39.6455 141.787 39.4541 141.44C39.2627 141.09 39.0007 140.807 38.668 140.593C38.3353 140.379 37.9548 140.271 37.5264 140.271ZM42.5989 149.582C42.3528 149.582 42.1409 149.495 41.9632 149.322C41.79 149.145 41.7034 148.933 41.7034 148.687C41.7034 148.44 41.79 148.231 41.9632 148.058C42.1409 147.88 42.3528 147.791 42.5989 147.791C42.845 147.791 43.0546 147.88 43.2278 148.058C43.4055 148.231 43.4944 148.44 43.4944 148.687C43.4944 148.933 43.4055 149.145 43.2278 149.322C43.0546 149.495 42.845 149.582 42.5989 149.582ZM47.6851 149.637C47.1018 149.637 46.5754 149.523 46.106 149.295C45.6412 149.062 45.2675 148.743 44.9849 148.338C44.7024 147.932 44.5497 147.472 44.5269 146.957H45.7164C45.7619 147.413 45.9693 147.791 46.3384 148.092C46.7121 148.393 47.161 148.543 47.6851 148.543C48.1044 148.543 48.4758 148.445 48.7994 148.249C49.1229 148.053 49.3782 147.784 49.565 147.442C49.7518 147.101 49.8453 146.711 49.8453 146.273C49.8453 145.831 49.7473 145.435 49.5513 145.084C49.3599 144.733 49.0956 144.457 48.7584 144.257C48.4211 144.052 48.036 143.949 47.6031 143.949C47.2886 143.949 46.9673 143.999 46.6392 144.1C46.3157 144.195 46.049 144.318 45.8394 144.469L44.6773 144.332L45.2925 139.314H50.5836V140.408H46.3316L45.9761 143.416H46.0308C46.2405 143.247 46.5025 143.111 46.817 143.006C47.1314 142.896 47.4618 142.842 47.8082 142.842C48.4325 142.842 48.9885 142.99 49.4761 143.286C49.9638 143.582 50.3466 143.988 50.6246 144.503C50.9071 145.013 51.0484 145.599 51.0484 146.26C51.0484 146.907 50.9026 147.486 50.6109 147.996C50.3192 148.507 49.9205 148.908 49.4146 149.199C48.9087 149.491 48.3323 149.637 47.6851 149.637ZM57.1942 147.586V147.053C57.1942 146.679 57.2694 146.337 57.4198 146.027C57.5747 145.717 57.8003 145.469 58.0965 145.282C58.3927 145.095 58.7528 145.002 59.1766 145.002C59.6095 145.002 59.9718 145.095 60.2635 145.282C60.5552 145.469 60.7739 145.717 60.9198 146.027C61.0702 146.337 61.1454 146.679 61.1454 147.053V147.586C61.1454 147.96 61.0702 148.301 60.9198 148.611C60.7694 148.921 60.5483 149.17 60.2567 149.356C59.965 149.543 59.605 149.637 59.1766 149.637C58.7482 149.637 58.3859 149.543 58.0897 149.356C57.7935 149.17 57.5702 148.921 57.4198 148.611C57.2694 148.301 57.1942 147.96 57.1942 147.586ZM58.2059 147.053V147.586C58.2059 147.896 58.2788 148.174 58.4246 148.42C58.5705 148.661 58.8211 148.785 59.1766 148.789C59.5275 148.785 59.7736 148.661 59.9149 148.42C60.0607 148.174 60.1336 147.896 60.1336 147.586V147.053C60.1336 146.743 60.063 146.467 59.9217 146.226C59.785 145.984 59.5366 145.863 59.1766 145.863C58.8302 145.863 58.5819 145.984 58.4315 146.226C58.2811 146.467 58.2059 146.743 58.2059 147.053ZM52.1219 141.762V141.229C52.1219 140.855 52.1994 140.513 52.3543 140.203C52.5093 139.893 52.7326 139.645 53.0243 139.458C53.3205 139.271 53.6805 139.178 54.1043 139.178C54.5373 139.178 54.8996 139.271 55.1912 139.458C55.4875 139.645 55.7085 139.893 55.8543 140.203C56.0047 140.513 56.0776 140.855 56.0731 141.229V141.762C56.0776 142.131 56.0024 142.473 55.8475 142.787C55.6971 143.097 55.4761 143.345 55.1844 143.532C54.8927 143.719 54.5327 143.812 54.1043 143.812C53.676 143.812 53.3136 143.719 53.0174 143.532C52.7212 143.345 52.4979 143.097 52.3475 142.787C52.1971 142.473 52.1219 142.131 52.1219 141.762ZM53.1336 141.229V141.762C53.1336 142.072 53.2065 142.35 53.3524 142.596C53.4982 142.837 53.7489 142.956 54.1043 142.951C54.4552 142.956 54.7013 142.837 54.8426 142.596C54.9885 142.35 55.0614 142.072 55.0614 141.762V141.229C55.0614 140.919 54.9907 140.643 54.8495 140.401C54.7127 140.155 54.4644 140.035 54.1043 140.039C53.758 140.035 53.5096 140.155 53.3592 140.401C53.2088 140.643 53.1336 140.919 53.1336 141.229ZM52.5047 149.5L59.5047 139.314H60.6395L53.6395 149.5H52.5047Z" fill="#F4EFE7"/>
<path d="M239 60.5C231.96 74.5 225.321 92.3724 211.19 92.3724C193.945 92.8015 190.421 76.883 175.636 77.7766C150.642 77.7766 159.794 116.5 126 116.5" stroke="#F4EFE7" stroke-width="2"/>
</svg>
