<svg width="360" height="166" viewBox="0 0 360 166" fill="none" xmlns="http://www.w3.org/2000/svg">
<rect width="360" height="166" fill="#F4EFE7"/>
<path d="M22.9844 24.5391V42H20.9219V26.7656H20.8047L16.5625 29.6016V27.4453L20.9219 24.5391H22.9844ZM31.2344 42.2344C30.2344 42.2344 29.332 42.0391 28.5273 41.6484C27.7305 41.25 27.0898 40.7031 26.6055 40.0078C26.1211 39.3125 25.8594 38.5234 25.8203 37.6406H27.8594C27.9375 38.4219 28.293 39.0703 28.9258 39.5859C29.5664 40.1016 30.3359 40.3594 31.2344 40.3594C31.9531 40.3594 32.5898 40.1914 33.1445 39.8555C33.6992 39.5195 34.1367 39.0586 34.457 38.4727C34.7773 37.8867 34.9375 37.2188 34.9375 36.4688C34.9375 35.7109 34.7695 35.0312 34.4336 34.4297C34.1055 33.8281 33.6523 33.3555 33.0742 33.0117C32.4961 32.6602 31.8359 32.4844 31.0938 32.4844C30.5547 32.4844 30.0039 32.5703 29.4414 32.7422C28.8867 32.9062 28.4297 33.1172 28.0703 33.375L26.0781 33.1406L27.1328 24.5391H36.2031V26.4141H28.9141L28.3047 31.5703H28.3984C28.7578 31.2812 29.207 31.0469 29.7461 30.8672C30.2852 30.6797 30.8516 30.5859 31.4453 30.5859C32.5156 30.5859 33.4688 30.8398 34.3047 31.3477C35.1406 31.8555 35.7969 32.5508 36.2734 33.4336C36.7578 34.3086 37 35.3125 37 36.4453C37 37.5547 36.75 38.5469 36.25 39.4219C35.75 40.2969 35.0664 40.9844 34.1992 41.4844C33.332 41.9844 32.3438 42.2344 31.2344 42.2344ZM44.8047 42.2344C43.5234 42.2344 42.4297 41.8828 41.5234 41.1797C40.6172 40.4766 39.9258 39.4609 39.4492 38.1328C38.9727 36.7969 38.7344 35.1797 38.7344 33.2812C38.7344 31.3906 38.9727 29.7773 39.4492 28.4414C39.9336 27.0977 40.6289 26.0742 41.5352 25.3711C42.4414 24.6602 43.5312 24.3047 44.8047 24.3047C46.0781 24.3047 47.168 24.6602 48.0742 25.3711C48.9805 26.0742 49.6719 27.0977 50.1484 28.4414C50.6328 29.7773 50.875 31.3906 50.875 33.2812C50.875 35.1797 50.6367 36.7969 50.1602 38.1328C49.6836 39.4609 48.9922 40.4766 48.0859 41.1797C47.1875 41.8828 46.0938 42.2344 44.8047 42.2344ZM44.8047 40.3828C45.6719 40.3828 46.4062 40.1055 47.0078 39.5508C47.6094 38.9883 48.0664 38.1758 48.3789 37.1133C48.6992 36.0508 48.8594 34.7734 48.8594 33.2812C48.8594 31.7812 48.6992 30.5 48.3789 29.4375C48.0664 28.375 47.6094 27.5625 47.0078 27C46.4062 26.4375 45.6719 26.1562 44.8047 26.1562C43.5078 26.1562 42.5078 26.7812 41.8047 28.0312C41.1016 29.2812 40.75 31.0312 40.75 33.2812C40.75 34.7734 40.9062 36.0508 41.2188 37.1133C41.5391 38.1758 42 38.9883 42.6016 39.5508C43.2109 40.1055 43.9453 40.3828 44.8047 40.3828ZM61.8906 38.7188V37.8047C61.8906 37.1641 62.0195 36.5781 62.2773 36.0469C62.543 35.5156 62.9297 35.0898 63.4375 34.7695C63.9453 34.4492 64.5625 34.2891 65.2891 34.2891C66.0312 34.2891 66.6523 34.4492 67.1523 34.7695C67.6523 35.0898 68.0273 35.5156 68.2773 36.0469C68.5352 36.5781 68.6641 37.1641 68.6641 37.8047V38.7188C68.6641 39.3594 68.5352 39.9453 68.2773 40.4766C68.0195 41.0078 67.6406 41.4336 67.1406 41.7539C66.6406 42.0742 66.0234 42.2344 65.2891 42.2344C64.5547 42.2344 63.9336 42.0742 63.4258 41.7539C62.918 41.4336 62.5352 41.0078 62.2773 40.4766C62.0195 39.9453 61.8906 39.3594 61.8906 38.7188ZM63.625 37.8047V38.7188C63.625 39.25 63.75 39.7266 64 40.1484C64.25 40.5625 64.6797 40.7734 65.2891 40.7812C65.8906 40.7734 66.3125 40.5625 66.5547 40.1484C66.8047 39.7266 66.9297 39.25 66.9297 38.7188V37.8047C66.9297 37.2734 66.8086 36.8008 66.5664 36.3867C66.332 35.9727 65.9062 35.7656 65.2891 35.7656C64.6953 35.7656 64.2695 35.9727 64.0117 36.3867C63.7539 36.8008 63.625 37.2734 63.625 37.8047ZM53.1953 28.7344V27.8203C53.1953 27.1797 53.3281 26.5938 53.5938 26.0625C53.8594 25.5312 54.2422 25.1055 54.7422 24.7852C55.25 24.4648 55.8672 24.3047 56.5938 24.3047C57.3359 24.3047 57.957 24.4648 58.457 24.7852C58.9648 25.1055 59.3438 25.5312 59.5938 26.0625C59.8516 26.5938 59.9766 27.1797 59.9688 27.8203V28.7344C59.9766 29.3672 59.8477 29.9531 59.582 30.4922C59.3242 31.0234 58.9453 31.4492 58.4453 31.7695C57.9453 32.0898 57.3281 32.25 56.5938 32.25C55.8594 32.25 55.2383 32.0898 54.7305 31.7695C54.2227 31.4492 53.8398 31.0234 53.582 30.4922C53.3242 29.9531 53.1953 29.3672 53.1953 28.7344ZM54.9297 27.8203V28.7344C54.9297 29.2656 55.0547 29.7422 55.3047 30.1641C55.5547 30.5781 55.9844 30.7812 56.5938 30.7734C57.1953 30.7812 57.6172 30.5781 57.8594 30.1641C58.1094 29.7422 58.2344 29.2656 58.2344 28.7344V27.8203C58.2344 27.2891 58.1133 26.8164 57.8711 26.4023C57.6367 25.9805 57.2109 25.7734 56.5938 25.7812C56 25.7734 55.5742 25.9805 55.3164 26.4023C55.0586 26.8164 54.9297 27.2891 54.9297 27.8203ZM53.8516 42L65.8516 24.5391H67.7969L55.7969 42H53.8516Z" fill="#1A1A1C"/>
<path d="M16.9023 66V55.8145H20.4707C21.1771 55.8145 21.7604 55.9375 22.2207 56.1836C22.681 56.4251 23.0228 56.751 23.2461 57.1611C23.474 57.5713 23.5879 58.0247 23.5879 58.5215C23.5879 58.959 23.5104 59.3213 23.3555 59.6084C23.2005 59.891 22.9977 60.1165 22.7471 60.2852C22.4964 60.4492 22.2253 60.5723 21.9336 60.6543V60.75C22.248 60.7682 22.5625 60.8776 22.877 61.0781C23.1914 61.2786 23.4535 61.5635 23.6631 61.9326C23.8773 62.3018 23.9844 62.7552 23.9844 63.293C23.9844 63.8034 23.8682 64.2637 23.6357 64.6738C23.4033 65.0794 23.0365 65.403 22.5352 65.6445C22.0384 65.8815 21.3867 66 20.5801 66H16.9023ZM18.1328 64.9062H20.5801C21.3867 64.9062 21.9587 64.749 22.2959 64.4346C22.6377 64.1201 22.8086 63.7396 22.8086 63.293C22.8086 62.9466 22.7197 62.6276 22.542 62.3359C22.3688 62.0443 22.1204 61.8096 21.7969 61.6318C21.4733 61.4541 21.0905 61.3652 20.6484 61.3652H18.1328V64.9062ZM18.1328 60.2988H20.4297C20.7988 60.2988 21.1338 60.2259 21.4346 60.0801C21.7354 59.9297 21.9723 59.7223 22.1455 59.458C22.3232 59.1891 22.4121 58.877 22.4121 58.5215C22.4121 58.0749 22.2572 57.6943 21.9473 57.3799C21.6374 57.0654 21.1452 56.9082 20.4707 56.9082H18.1328V60.2988ZM30.0137 62.8828V58.3574H31.1758V66H30.0137V64.7012H29.9316C29.7493 65.0885 29.4691 65.4189 29.0908 65.6924C28.7171 65.9658 28.2409 66.1003 27.6621 66.0957C27.1836 66.0957 26.7598 65.9932 26.3906 65.7881C26.0215 65.5785 25.7298 65.2594 25.5156 64.8311C25.306 64.4027 25.2012 63.8626 25.2012 63.2109V58.3574H26.3633V63.1426C26.3633 63.694 26.5205 64.1361 26.835 64.4688C27.154 64.8014 27.5573 64.9655 28.0449 64.9609C28.3366 64.9609 28.6328 64.888 28.9336 64.7422C29.2389 64.5918 29.4941 64.3639 29.6992 64.0586C29.9089 63.7487 30.0137 63.3568 30.0137 62.8828ZM38.0801 60.0801L37.0273 60.3672C36.9271 60.1074 36.7539 59.8613 36.5078 59.6289C36.2663 59.3919 35.888 59.2734 35.373 59.2734C34.9082 59.2734 34.5208 59.3828 34.2109 59.6016C33.901 59.8158 33.7461 60.0846 33.7461 60.4082C33.7461 60.6999 33.8509 60.9323 34.0605 61.1055C34.2747 61.2786 34.6074 61.4199 35.0586 61.5293L36.1934 61.8027C36.8724 61.9668 37.3783 62.2197 37.7109 62.5615C38.0482 62.9033 38.2168 63.3385 38.2168 63.8672C38.2168 64.3047 38.0915 64.6966 37.8408 65.043C37.5902 65.3893 37.2415 65.6628 36.7949 65.8633C36.3483 66.0638 35.8288 66.1641 35.2363 66.1641C34.457 66.1641 33.8122 65.9932 33.3018 65.6514C32.7959 65.3096 32.4746 64.8151 32.3379 64.168L33.4453 63.8945C33.5501 64.3047 33.7507 64.6123 34.0469 64.8174C34.3477 65.0225 34.7396 65.125 35.2227 65.125C35.765 65.125 36.1979 65.0088 36.5215 64.7764C36.8496 64.5394 37.0137 64.2591 37.0137 63.9355C37.0137 63.3978 36.6354 63.0378 35.8789 62.8555L34.6074 62.5547C33.9056 62.3861 33.3906 62.1286 33.0625 61.7822C32.7344 61.4359 32.5703 61.0007 32.5703 60.4766C32.5703 60.0436 32.6911 59.6608 32.9326 59.3281C33.1787 58.9954 33.5137 58.7357 33.9375 58.5488C34.3613 58.3574 34.8398 58.2617 35.373 58.2617C36.1341 58.2617 36.7288 58.4303 37.1572 58.7676C37.5902 59.1003 37.8978 59.5378 38.0801 60.0801ZM39.3379 66V58.3574H40.5V66H39.3379ZM39.9258 57.0859C39.6979 57.0859 39.502 57.0085 39.3379 56.8535C39.1738 56.6986 39.0918 56.5117 39.0918 56.293C39.0918 56.0742 39.1738 55.8874 39.3379 55.7324C39.502 55.5775 39.6979 55.5 39.9258 55.5C40.1536 55.5 40.3496 55.5775 40.5137 55.7324C40.6777 55.8874 40.7598 56.0742 40.7598 56.293C40.7598 56.5117 40.6777 56.6986 40.5137 56.8535C40.3496 57.0085 40.1536 57.0859 39.9258 57.0859ZM43.166 61.4062V66H42.0039V58.3574H43.125V59.5605H43.2344C43.4121 59.1686 43.6833 58.8542 44.0479 58.6172C44.4124 58.3802 44.8841 58.2617 45.4629 58.2617C45.9779 58.2617 46.429 58.3665 46.8164 58.5762C47.2038 58.7858 47.5046 59.1048 47.7188 59.5332C47.9375 59.957 48.0469 60.4948 48.0469 61.1465V66H46.8848V61.2285C46.8848 60.6315 46.7275 60.1644 46.4131 59.8271C46.0986 59.4854 45.6702 59.3145 45.1279 59.3145C44.7542 59.3145 44.4193 59.3965 44.123 59.5605C43.8268 59.7246 43.5921 59.9616 43.4189 60.2715C43.2503 60.5814 43.166 60.9596 43.166 61.4062ZM52.75 66.1641C52.0163 66.1641 51.3805 66 50.8428 65.6719C50.3096 65.3438 49.8994 64.8857 49.6123 64.2979C49.3252 63.7054 49.1816 63.0195 49.1816 62.2402C49.1816 61.4564 49.3229 60.766 49.6055 60.1689C49.888 59.5719 50.2845 59.1048 50.7949 58.7676C51.3099 58.4303 51.9115 58.2617 52.5996 58.2617C52.9961 58.2617 53.3903 58.3278 53.7822 58.46C54.1742 58.5921 54.5296 58.8063 54.8486 59.1025C55.1722 59.3988 55.4297 59.7907 55.6211 60.2783C55.8125 60.766 55.9082 61.3652 55.9082 62.0762V62.582H50.0156V61.5703H55.2725L54.7324 61.9531C54.7324 61.4427 54.6527 60.9893 54.4932 60.5928C54.3337 60.1963 54.0944 59.8841 53.7754 59.6562C53.4609 59.4284 53.069 59.3145 52.5996 59.3145C52.1302 59.3145 51.7269 59.4307 51.3896 59.6631C51.057 59.891 50.8018 60.1895 50.624 60.5586C50.4463 60.9277 50.3574 61.3242 50.3574 61.748V62.418C50.3574 62.9967 50.4577 63.4867 50.6582 63.8877C50.8587 64.2887 51.139 64.5941 51.499 64.8037C51.859 65.0088 52.276 65.1113 52.75 65.1113C53.0553 65.1113 53.3333 65.068 53.584 64.9814C53.8346 64.8903 54.0511 64.7559 54.2334 64.5781C54.4157 64.3958 54.5547 64.1725 54.6504 63.9082L55.7852 64.2363C55.6667 64.6191 55.4661 64.9564 55.1836 65.248C54.9056 65.5352 54.5592 65.7607 54.1445 65.9248C53.7298 66.0843 53.265 66.1641 52.75 66.1641ZM62.416 60.0801L61.3633 60.3672C61.263 60.1074 61.0898 59.8613 60.8438 59.6289C60.6022 59.3919 60.224 59.2734 59.709 59.2734C59.2441 59.2734 58.8568 59.3828 58.5469 59.6016C58.237 59.8158 58.082 60.0846 58.082 60.4082C58.082 60.6999 58.1868 60.9323 58.3965 61.1055C58.6107 61.2786 58.9434 61.4199 59.3945 61.5293L60.5293 61.8027C61.2083 61.9668 61.7142 62.2197 62.0469 62.5615C62.3841 62.9033 62.5527 63.3385 62.5527 63.8672C62.5527 64.3047 62.4274 64.6966 62.1768 65.043C61.9261 65.3893 61.5775 65.6628 61.1309 65.8633C60.6842 66.0638 60.1647 66.1641 59.5723 66.1641C58.793 66.1641 58.1481 65.9932 57.6377 65.6514C57.1318 65.3096 56.8105 64.8151 56.6738 64.168L57.7812 63.8945C57.8861 64.3047 58.0866 64.6123 58.3828 64.8174C58.6836 65.0225 59.0755 65.125 59.5586 65.125C60.1009 65.125 60.5339 65.0088 60.8574 64.7764C61.1855 64.5394 61.3496 64.2591 61.3496 63.9355C61.3496 63.3978 60.9714 63.0378 60.2148 62.8555L58.9434 62.5547C58.2415 62.3861 57.7266 62.1286 57.3984 61.7822C57.0703 61.4359 56.9062 61.0007 56.9062 60.4766C56.9062 60.0436 57.027 59.6608 57.2686 59.3281C57.5146 58.9954 57.8496 58.7357 58.2734 58.5488C58.6973 58.3574 59.1758 58.2617 59.709 58.2617C60.4701 58.2617 61.0648 58.4303 61.4932 58.7676C61.9261 59.1003 62.2337 59.5378 62.416 60.0801ZM69.0742 60.0801L68.0215 60.3672C67.9212 60.1074 67.748 59.8613 67.502 59.6289C67.2604 59.3919 66.8822 59.2734 66.3672 59.2734C65.9023 59.2734 65.515 59.3828 65.2051 59.6016C64.8952 59.8158 64.7402 60.0846 64.7402 60.4082C64.7402 60.6999 64.8451 60.9323 65.0547 61.1055C65.2689 61.2786 65.6016 61.4199 66.0527 61.5293L67.1875 61.8027C67.8665 61.9668 68.3724 62.2197 68.7051 62.5615C69.0423 62.9033 69.2109 63.3385 69.2109 63.8672C69.2109 64.3047 69.0856 64.6966 68.835 65.043C68.5843 65.3893 68.2357 65.6628 67.7891 65.8633C67.3424 66.0638 66.8229 66.1641 66.2305 66.1641C65.4512 66.1641 64.8063 65.9932 64.2959 65.6514C63.79 65.3096 63.4688 64.8151 63.332 64.168L64.4395 63.8945C64.5443 64.3047 64.7448 64.6123 65.041 64.8174C65.3418 65.0225 65.7337 65.125 66.2168 65.125C66.7591 65.125 67.1921 65.0088 67.5156 64.7764C67.8438 64.5394 68.0078 64.2591 68.0078 63.9355C68.0078 63.3978 67.6296 63.0378 66.873 62.8555L65.6016 62.5547C64.8997 62.3861 64.3848 62.1286 64.0566 61.7822C63.7285 61.4359 63.5645 61.0007 63.5645 60.4766C63.5645 60.0436 63.6852 59.6608 63.9268 59.3281C64.1729 58.9954 64.5078 58.7357 64.9316 58.5488C65.3555 58.3574 65.834 58.2617 66.3672 58.2617C67.1283 58.2617 67.723 58.4303 68.1514 58.7676C68.5843 59.1003 68.8919 59.5378 69.0742 60.0801ZM77.9062 66.1367C77.0039 66.1367 76.2109 65.9248 75.5273 65.501C74.8483 65.0771 74.3174 64.4756 73.9346 63.6963C73.5563 62.9124 73.3672 61.985 73.3672 60.9141C73.3672 59.8385 73.5563 58.9089 73.9346 58.125C74.3174 57.3411 74.8438 56.7373 75.5137 56.3135C76.1836 55.8896 76.9538 55.6777 77.8242 55.6777C78.362 55.6777 78.8633 55.7575 79.3281 55.917C79.793 56.0765 80.2077 56.3044 80.5723 56.6006C80.9368 56.8968 81.2399 57.2477 81.4814 57.6533C81.7275 58.0589 81.8984 58.5078 81.9941 59H80.7227C80.6133 58.6628 80.4697 58.362 80.292 58.0977C80.1188 57.8288 79.9092 57.6009 79.6631 57.4141C79.417 57.2227 79.1413 57.0768 78.8359 56.9766C78.5306 56.8763 78.1934 56.8262 77.8242 56.8262C77.2227 56.8262 76.6735 56.9834 76.1768 57.2979C75.6846 57.6077 75.2904 58.068 74.9941 58.6787C74.7025 59.2848 74.5566 60.0299 74.5566 60.9141C74.5566 61.7936 74.7048 62.5365 75.001 63.1426C75.2972 63.7487 75.6982 64.209 76.2041 64.5234C76.71 64.8333 77.2773 64.9883 77.9062 64.9883C78.4896 64.9883 79.0023 64.863 79.4443 64.6123C79.8864 64.3617 80.2327 64.0085 80.4834 63.5527C80.734 63.0924 80.8594 62.5501 80.8594 61.9258L81.2422 62.0078H78.1797V60.9141H82.0625V62.0078C82.0625 62.8464 81.8848 63.5755 81.5293 64.1953C81.1738 64.8105 80.6816 65.2891 80.0527 65.6309C79.4284 65.9681 78.7129 66.1367 77.9062 66.1367ZM83.3613 66V58.3574H84.4824V59.5195H84.5645C84.7057 59.1413 84.9587 58.8359 85.3232 58.6035C85.6924 58.3665 86.1048 58.248 86.5605 58.248C86.6471 58.248 86.7542 58.2503 86.8818 58.2549C87.0094 58.2549 87.1074 58.2572 87.1758 58.2617V59.4512C87.1348 59.4421 87.0436 59.4284 86.9023 59.4102C86.7611 59.3919 86.6107 59.3828 86.4512 59.3828C86.082 59.3828 85.7516 59.4603 85.46 59.6152C85.1683 59.7702 84.9382 59.9821 84.7695 60.251C84.6055 60.5199 84.5234 60.8275 84.5234 61.1738V66H83.3613ZM90.7715 66.1641C90.0833 66.1641 89.4795 66 88.96 65.6719C88.4404 65.3438 88.0348 64.8835 87.7432 64.291C87.4561 63.6986 87.3125 63.0104 87.3125 62.2266C87.3125 61.429 87.4561 60.734 87.7432 60.1416C88.0348 59.5446 88.4404 59.082 88.96 58.7539C89.4795 58.4258 90.0833 58.2617 90.7715 58.2617C91.4642 58.2617 92.0703 58.4258 92.5898 58.7539C93.1094 59.082 93.515 59.5446 93.8066 60.1416C94.0983 60.734 94.2441 61.429 94.2441 62.2266C94.2441 63.0104 94.0983 63.6986 93.8066 64.291C93.515 64.8835 93.1094 65.3438 92.5898 65.6719C92.0703 66 91.4642 66.1641 90.7715 66.1641ZM90.7715 65.1113C91.3001 65.1113 91.7331 64.9769 92.0703 64.708C92.4076 64.4391 92.6582 64.0859 92.8223 63.6484C92.9863 63.2064 93.0684 62.7324 93.0684 62.2266C93.0684 61.7116 92.9863 61.2331 92.8223 60.791C92.6582 60.349 92.4076 59.9935 92.0703 59.7246C91.7331 59.4512 91.3001 59.3145 90.7715 59.3145C90.252 59.3145 89.8236 59.4512 89.4863 59.7246C89.1491 59.9935 88.8984 60.349 88.7344 60.791C88.5703 61.2331 88.4883 61.7116 88.4883 62.2266C88.4883 62.7324 88.5703 63.2064 88.7344 63.6484C88.8984 64.0859 89.1491 64.4391 89.4863 64.708C89.8236 64.9769 90.252 65.1113 90.7715 65.1113ZM96.8418 66L94.5176 58.3574H95.748L97.4023 64.209H97.4844L99.1113 58.3574H100.369L101.969 64.1953H102.051L103.705 58.3574H104.936L102.611 66H101.463L99.7812 60.1348H99.6719L97.9902 66H96.8418ZM109.146 58.3574V59.3555H105.195V58.3574H109.146ZM106.344 56.5391H107.506V63.8125C107.506 64.209 107.588 64.5007 107.752 64.6875C107.916 64.8698 108.176 64.9609 108.531 64.9609C108.609 64.9609 108.688 64.9564 108.771 64.9473C108.857 64.9382 108.951 64.9245 109.051 64.9062L109.297 65.959C109.188 66 109.053 66.0319 108.894 66.0547C108.739 66.082 108.581 66.0957 108.422 66.0957C107.807 66.0957 107.305 65.9134 106.918 65.5488C106.535 65.1842 106.344 64.7103 106.344 64.127V56.5391ZM111.594 61.4062V66H110.432V55.8145H111.594V59.5605H111.703C111.881 59.1641 112.147 58.8496 112.503 58.6172C112.863 58.3802 113.344 58.2617 113.945 58.2617C114.465 58.2617 114.921 58.3665 115.312 58.5762C115.704 58.7812 116.01 59.098 116.229 59.5264C116.447 59.9502 116.557 60.4902 116.557 61.1465V66H115.381V61.2285C115.381 60.6178 115.224 60.1462 114.909 59.8135C114.595 59.4808 114.16 59.3145 113.604 59.3145C113.216 59.3145 112.872 59.3965 112.571 59.5605C112.271 59.7246 112.031 59.9616 111.854 60.2715C111.68 60.5814 111.594 60.9596 111.594 61.4062Z" fill="#1A1A1C" fill-opacity="0.6"/>
<rect x="300" y="21.5" width="44" height="44" rx="22" fill="#BEAB9A"/>
<path d="M316 49.5L328 37.5" stroke="#F4EFE7" stroke-linecap="round" stroke-linejoin="round"/>
<path d="M318.25 37.5H328V47.25" stroke="#F4EFE7" stroke-linecap="round" stroke-linejoin="round"/>
<path d="M24.5312 143.906V114.812H26.375V143.906H24.5312ZM25.4375 141.406C23.7708 141.406 22.3281 141.141 21.1094 140.609C19.8906 140.068 18.9323 139.318 18.2344 138.359C17.5469 137.391 17.1562 136.271 17.0625 135H19.9688C20.0521 135.875 20.349 136.599 20.8594 137.172C21.3802 137.745 22.0417 138.172 22.8438 138.453C23.6458 138.734 24.5104 138.875 25.4375 138.875C26.5104 138.875 27.474 138.698 28.3281 138.344C29.1927 137.99 29.875 137.495 30.375 136.859C30.875 136.224 31.125 135.479 31.125 134.625C31.125 133.854 30.9062 133.229 30.4688 132.75C30.0312 132.271 29.4583 131.88 28.75 131.578C28.0521 131.276 27.2917 131.01 26.4688 130.781L23.625 129.969C21.8021 129.448 20.3594 128.703 19.2969 127.734C18.2448 126.755 17.7188 125.479 17.7188 123.906C17.7188 122.604 18.0677 121.469 18.7656 120.5C19.474 119.521 20.4271 118.76 21.625 118.219C22.8333 117.677 24.1771 117.406 25.6562 117.406C27.1562 117.406 28.4896 117.677 29.6562 118.219C30.8229 118.75 31.75 119.479 32.4375 120.406C33.125 121.323 33.4896 122.365 33.5312 123.531H30.7812C30.6458 122.385 30.0938 121.495 29.125 120.859C28.1667 120.224 26.9792 119.906 25.5625 119.906C24.5417 119.906 23.6458 120.073 22.875 120.406C22.1042 120.74 21.5052 121.198 21.0781 121.781C20.651 122.365 20.4375 123.031 20.4375 123.781C20.4375 124.604 20.6927 125.271 21.2031 125.781C21.7135 126.281 22.3177 126.672 23.0156 126.953C23.724 127.234 24.3646 127.458 24.9375 127.625L27.2812 128.281C27.8854 128.448 28.5573 128.672 29.2969 128.953C30.0469 129.234 30.7656 129.615 31.4531 130.094C32.151 130.573 32.724 131.188 33.1719 131.938C33.6198 132.677 33.8438 133.594 33.8438 134.688C33.8438 135.938 33.5156 137.073 32.8594 138.094C32.2031 139.104 31.25 139.911 30 140.516C28.75 141.109 27.2292 141.406 25.4375 141.406ZM44.1562 141.312C43.2083 141.312 42.2552 141.141 41.2969 140.797C40.3385 140.443 39.4635 139.854 38.6719 139.031C37.8906 138.198 37.2604 137.068 36.7812 135.641C36.3021 134.214 36.0625 132.427 36.0625 130.281C36.0625 128.219 36.2552 126.391 36.6406 124.797C37.0365 123.203 37.599 121.859 38.3281 120.766C39.0677 119.661 39.9583 118.828 41 118.266C42.0417 117.693 43.2188 117.406 44.5312 117.406C45.8333 117.406 46.9896 117.667 48 118.188C49.0208 118.708 49.8542 119.432 50.5 120.359C51.1458 121.276 51.5625 122.333 51.75 123.531H49C48.7396 122.49 48.2344 121.625 47.4844 120.938C46.7448 120.25 45.7604 119.906 44.5312 119.906C42.7292 119.906 41.3073 120.693 40.2656 122.266C39.2344 123.828 38.7188 126.031 38.7188 128.875H38.9062C39.3333 128.229 39.8385 127.677 40.4219 127.219C41.0052 126.75 41.651 126.396 42.3594 126.156C43.0677 125.906 43.8229 125.781 44.625 125.781C45.9583 125.781 47.1771 126.115 48.2812 126.781C49.3854 127.438 50.2708 128.349 50.9375 129.516C51.6042 130.672 51.9375 132 51.9375 133.5C51.9375 134.938 51.6146 136.25 50.9688 137.438C50.3333 138.615 49.4323 139.557 48.2656 140.266C47.099 140.964 45.7292 141.312 44.1562 141.312ZM44.1562 138.812C45.1146 138.812 45.974 138.578 46.7344 138.109C47.4948 137.63 48.099 136.99 48.5469 136.188C48.9948 135.375 49.2188 134.479 49.2188 133.5C49.2188 132.531 49 131.656 48.5625 130.875C48.1354 130.083 47.5469 129.453 46.7969 128.984C46.0573 128.516 45.2083 128.281 44.25 128.281C43.2917 128.281 42.4219 128.526 41.6406 129.016C40.8698 129.505 40.2552 130.151 39.7969 130.953C39.349 131.745 39.125 132.604 39.125 133.531C39.125 134.458 39.3438 135.328 39.7812 136.141C40.2188 136.943 40.8125 137.589 41.5625 138.078C42.3229 138.568 43.1875 138.812 44.1562 138.812ZM62.1562 141.312C60.5938 141.312 59.2188 141.036 58.0312 140.484C56.8438 139.922 55.9167 139.151 55.25 138.172C54.5833 137.193 54.25 136.073 54.25 134.812C54.25 133.833 54.4427 132.927 54.8281 132.094C55.224 131.25 55.7604 130.547 56.4375 129.984C57.125 129.422 57.8958 129.062 58.75 128.906V128.781C57.6354 128.49 56.7448 127.859 56.0781 126.891C55.4219 125.922 55.0938 124.823 55.0938 123.594C55.0938 122.406 55.3958 121.349 56 120.422C56.6042 119.484 57.4375 118.75 58.5 118.219C59.5729 117.677 60.7917 117.406 62.1562 117.406C63.5 117.406 64.7031 117.677 65.7656 118.219C66.8281 118.75 67.6615 119.484 68.2656 120.422C68.8802 121.349 69.1875 122.406 69.1875 123.594C69.1875 124.823 68.8542 125.922 68.1875 126.891C67.5208 127.859 66.6458 128.49 65.5625 128.781V128.906C66.3958 129.062 67.151 129.422 67.8281 129.984C68.5156 130.547 69.0573 131.25 69.4531 132.094C69.8594 132.927 70.0625 133.833 70.0625 134.812C70.0625 136.073 69.724 137.193 69.0469 138.172C68.3802 139.151 67.4531 139.922 66.2656 140.484C65.0781 141.036 63.7083 141.312 62.1562 141.312ZM62.1562 138.812C63.2083 138.812 64.1146 138.646 64.875 138.312C65.6458 137.969 66.2396 137.49 66.6562 136.875C67.0729 136.25 67.2812 135.521 67.2812 134.688C67.2812 133.812 67.0573 133.036 66.6094 132.359C66.1615 131.682 65.5521 131.151 64.7812 130.766C64.0104 130.38 63.1354 130.188 62.1562 130.188C61.1562 130.188 60.2656 130.38 59.4844 130.766C58.7135 131.151 58.1042 131.682 57.6562 132.359C57.2188 133.036 57 133.812 57 134.688C57 135.521 57.2083 136.25 57.625 136.875C58.0417 137.49 58.6354 137.969 59.4062 138.312C60.1771 138.646 61.0938 138.812 62.1562 138.812ZM62.1562 127.781C62.9896 127.781 63.7292 127.615 64.375 127.281C65.0208 126.948 65.5312 126.484 65.9062 125.891C66.2812 125.286 66.4688 124.583 66.4688 123.781C66.4688 122.99 66.2865 122.302 65.9219 121.719C65.5573 121.135 65.0521 120.682 64.4062 120.359C63.7604 120.036 63.0104 119.875 62.1562 119.875C61.2812 119.875 60.5156 120.036 59.8594 120.359C59.2135 120.682 58.7083 121.135 58.3438 121.719C57.9896 122.302 57.8125 122.99 57.8125 123.781C57.8125 124.583 57.9948 125.286 58.3594 125.891C58.7344 126.484 59.2448 126.948 59.8906 127.281C60.5469 127.615 61.3021 127.781 62.1562 127.781ZM72.875 141V138.969L80.5625 130.531C81.4583 129.552 82.1927 128.698 82.7656 127.969C83.349 127.24 83.7812 126.552 84.0625 125.906C84.3542 125.26 84.5 124.583 84.5 123.875C84.5 123.052 84.3021 122.344 83.9062 121.75C83.5208 121.146 82.9948 120.682 82.3281 120.359C81.6615 120.036 80.9062 119.875 80.0625 119.875C79.1667 119.875 78.3854 120.057 77.7188 120.422C77.0625 120.786 76.5521 121.302 76.1875 121.969C75.8333 122.625 75.6562 123.396 75.6562 124.281H72.9688C72.9688 122.917 73.2812 121.719 73.9062 120.688C74.5417 119.656 75.401 118.854 76.4844 118.281C77.5781 117.698 78.8021 117.406 80.1562 117.406C81.5208 117.406 82.7292 117.698 83.7812 118.281C84.8333 118.854 85.6562 119.63 86.25 120.609C86.8542 121.578 87.1562 122.667 87.1562 123.875C87.1562 124.729 87 125.562 86.6875 126.375C86.3854 127.177 85.8542 128.078 85.0938 129.078C84.3438 130.078 83.3021 131.292 81.9688 132.719L76.75 138.312V138.5H87.5625V141H72.875ZM92.8906 141.188C92.3281 141.188 91.8438 140.99 91.4375 140.594C91.0417 140.188 90.8438 139.703 90.8438 139.141C90.8438 138.578 91.0417 138.099 91.4375 137.703C91.8438 137.297 92.3281 137.094 92.8906 137.094C93.4531 137.094 93.9323 137.297 94.3281 137.703C94.7344 138.099 94.9375 138.578 94.9375 139.141C94.9375 139.703 94.7344 140.188 94.3281 140.594C93.9323 140.99 93.4531 141.188 92.8906 141.188ZM105.156 141.312C103.823 141.312 102.62 141.052 101.547 140.531C100.484 140 99.6302 139.271 98.9844 138.344C98.3385 137.417 97.9896 136.365 97.9375 135.188H100.656C100.76 136.229 101.234 137.094 102.078 137.781C102.932 138.469 103.958 138.812 105.156 138.812C106.115 138.812 106.964 138.589 107.703 138.141C108.443 137.693 109.026 137.078 109.453 136.297C109.88 135.516 110.094 134.625 110.094 133.625C110.094 132.615 109.87 131.708 109.422 130.906C108.984 130.104 108.38 129.474 107.609 129.016C106.839 128.547 105.958 128.312 104.969 128.312C104.25 128.312 103.516 128.427 102.766 128.656C102.026 128.875 101.417 129.156 100.938 129.5L98.2812 129.188L99.6875 117.719H111.781V120.219H102.062L101.25 127.094H101.375C101.854 126.708 102.453 126.396 103.172 126.156C103.891 125.906 104.646 125.781 105.438 125.781C106.865 125.781 108.135 126.12 109.25 126.797C110.365 127.474 111.24 128.401 111.875 129.578C112.521 130.745 112.844 132.083 112.844 133.594C112.844 135.073 112.51 136.396 111.844 137.562C111.177 138.729 110.266 139.646 109.109 140.312C107.953 140.979 106.635 141.312 105.156 141.312Z" fill="#BEAB9A"/>
</svg>
