<svg width="350" height="345" viewBox="0 0 350 345" fill="none" xmlns="http://www.w3.org/2000/svg">
<rect width="350" height="345" fill="#1A1A1C"/>
<g clip-path="url(#clip0_2264_32065)">
<path d="M87.5298 45.9487C87.2265 45.9487 86.9232 45.8728 86.6578 45.7212C79.3778 41.9674 73.0836 40.3749 65.5382 40.3749C58.0307 40.3749 50.9023 42.157 44.4186 45.7212C43.5086 46.2141 42.3711 45.8728 41.8403 44.9628C41.3473 44.0528 41.6886 42.8774 42.5986 42.3845C49.6511 38.5549 57.3861 36.5833 65.5382 36.5833C73.6144 36.5833 80.6669 38.3653 88.4019 42.3466C89.3498 42.8395 89.6911 43.977 89.1982 44.887C88.8569 45.5695 88.2123 45.9487 87.5298 45.9487ZM33.2711 65.8549C32.8919 65.8549 32.5128 65.7412 32.1715 65.5137C31.2994 64.907 31.1098 63.7316 31.7165 62.8595C35.4703 57.5512 40.2478 53.3803 45.9353 50.4608C57.8411 44.3183 73.0836 44.2803 85.0273 50.4228C90.7148 53.3424 95.4923 57.4753 99.2461 62.7457C99.8528 63.5799 99.6632 64.7933 98.7911 65.3999C97.919 66.0066 96.7436 65.817 96.1369 64.9449C92.7244 60.1674 88.4019 56.4137 83.2832 53.7974C72.4011 48.2237 58.4857 48.2237 47.6415 53.8353C42.4848 56.4895 38.1623 60.2812 34.7498 65.0587C34.4465 65.5895 33.8778 65.8549 33.2711 65.8549ZM56.969 111.62C56.4761 111.62 55.9832 111.431 55.6419 111.052C52.3432 107.753 50.5611 105.63 48.0207 101.042C45.4044 96.3778 44.0394 90.6903 44.0394 84.5858C44.0394 73.3245 53.6703 64.1487 65.5003 64.1487C77.3303 64.1487 86.9611 73.3245 86.9611 84.5858C86.9611 85.6474 86.1269 86.4816 85.0653 86.4816C84.0036 86.4816 83.1694 85.6474 83.1694 84.5858C83.1694 75.4099 75.2448 67.9403 65.5003 67.9403C55.7557 67.9403 47.8311 75.4099 47.8311 84.5858C47.8311 90.0457 49.0444 95.0887 51.3573 99.1837C53.784 103.544 55.4523 105.402 58.3719 108.359C59.0923 109.118 59.0923 110.293 58.3719 111.052C57.9548 111.431 57.4619 111.62 56.969 111.62ZM84.1553 104.606C79.6432 104.606 75.6619 103.468 72.4011 101.231C66.7515 97.4016 63.3769 91.1833 63.3769 84.5858C63.3769 83.5241 64.2111 82.6899 65.2728 82.6899C66.3344 82.6899 67.1686 83.5241 67.1686 84.5858C67.1686 89.932 69.8986 94.9749 74.5244 98.0841C77.2165 99.9041 80.3636 100.776 84.1553 100.776C85.0653 100.776 86.5819 100.662 88.0986 100.397C89.1223 100.207 90.1082 100.89 90.2978 101.952C90.4873 102.975 89.8048 103.961 88.7432 104.151C86.5819 104.568 84.6861 104.606 84.1553 104.606ZM76.534 112.417C76.3823 112.417 76.1928 112.379 76.0411 112.341C70.0123 110.672 66.069 108.435 61.9361 104.378C56.6278 99.1078 53.7082 92.0933 53.7082 84.5858C53.7082 78.4432 58.9407 73.4383 65.3865 73.4383C71.8323 73.4383 77.0648 78.4432 77.0648 84.5858C77.0648 88.6428 80.5911 91.9416 84.9515 91.9416C89.3119 91.9416 92.8382 88.6428 92.8382 84.5858C92.8382 70.2912 80.5153 58.6887 65.3486 58.6887C54.5803 58.6887 44.7219 64.6795 40.2857 73.9691C38.8069 77.0403 38.0486 80.6424 38.0486 84.5858C38.0486 87.5432 38.314 92.207 40.589 98.2737C40.9682 99.2595 40.4753 100.359 39.4894 100.7C38.5036 101.079 37.404 100.549 37.0628 99.6008C35.2048 94.6337 34.2948 89.7045 34.2948 84.5858C34.2948 80.0357 35.1669 75.9028 36.8732 72.3008C41.9161 61.722 53.1015 54.8591 65.3486 54.8591C82.6007 54.8591 96.6298 68.1678 96.6298 84.5478C96.6298 90.6903 91.3973 95.6953 84.9515 95.6953C78.5057 95.6953 73.2732 90.6903 73.2732 84.5478C73.2732 80.4907 69.7469 77.192 65.3865 77.192C61.0261 77.192 57.4998 80.4907 57.4998 84.5478C57.4998 91.0316 60.0023 97.0982 64.5903 101.648C68.1923 105.212 71.6428 107.184 76.989 108.663C78.0128 108.928 78.5815 109.99 78.3161 110.976C78.1265 111.848 77.3303 112.417 76.534 112.417Z" fill="#ECC5A2"/>
</g>
<path d="M28.5781 162.234C27.0938 162.234 25.7695 161.871 24.6055 161.145C23.4414 160.418 22.5273 159.387 21.8633 158.051C21.1992 156.707 20.8672 155.117 20.8672 153.281C20.8672 151.438 21.1992 149.844 21.8633 148.5C22.5273 147.156 23.4414 146.121 24.6055 145.395C25.7695 144.668 27.0938 144.305 28.5781 144.305C29.4531 144.305 30.2773 144.434 31.0508 144.691C31.832 144.949 32.5352 145.324 33.1602 145.816C33.7852 146.301 34.3047 146.898 34.7188 147.609C35.1406 148.312 35.4297 149.109 35.5859 150H33.4766C33.3516 149.391 33.1328 148.855 32.8203 148.395C32.5156 147.934 32.1406 147.547 31.6953 147.234C31.2578 146.914 30.7734 146.676 30.2422 146.52C29.7109 146.355 29.1562 146.273 28.5781 146.273C27.5234 146.273 26.5664 146.543 25.707 147.082C24.8477 147.613 24.1641 148.402 23.6562 149.449C23.1562 150.488 22.9062 151.766 22.9062 153.281C22.9062 154.789 23.1562 156.062 23.6562 157.102C24.1641 158.141 24.8477 158.93 25.707 159.469C26.5664 160 27.5234 160.266 28.5781 160.266C29.1562 160.266 29.7109 160.188 30.2422 160.031C30.7734 159.867 31.2578 159.629 31.6953 159.316C32.1406 158.996 32.5156 158.605 32.8203 158.145C33.1328 157.684 33.3516 157.148 33.4766 156.539H35.5859C35.4297 157.438 35.1406 158.238 34.7188 158.941C34.3047 159.645 33.7852 160.242 33.1602 160.734C32.5352 161.219 31.832 161.59 31.0508 161.848C30.2773 162.105 29.4531 162.234 28.5781 162.234ZM42.9219 162.281C41.7422 162.281 40.707 162 39.8164 161.438C38.9258 160.875 38.2305 160.086 37.7305 159.07C37.2383 158.055 36.9922 156.875 36.9922 155.531C36.9922 154.164 37.2383 152.973 37.7305 151.957C38.2305 150.934 38.9258 150.141 39.8164 149.578C40.707 149.016 41.7422 148.734 42.9219 148.734C44.1094 148.734 45.1484 149.016 46.0391 149.578C46.9297 150.141 47.625 150.934 48.125 151.957C48.625 152.973 48.875 154.164 48.875 155.531C48.875 156.875 48.625 158.055 48.125 159.07C47.625 160.086 46.9297 160.875 46.0391 161.438C45.1484 162 44.1094 162.281 42.9219 162.281ZM42.9219 160.477C43.8281 160.477 44.5703 160.246 45.1484 159.785C45.7266 159.324 46.1562 158.719 46.4375 157.969C46.7188 157.211 46.8594 156.398 46.8594 155.531C46.8594 154.648 46.7188 153.828 46.4375 153.07C46.1562 152.312 45.7266 151.703 45.1484 151.242C44.5703 150.773 43.8281 150.539 42.9219 150.539C42.0312 150.539 41.2969 150.773 40.7188 151.242C40.1406 151.703 39.7109 152.312 39.4297 153.07C39.1484 153.828 39.0078 154.648 39.0078 155.531C39.0078 156.398 39.1484 157.211 39.4297 157.969C39.7109 158.719 40.1406 159.324 40.7188 159.785C41.2969 160.246 42.0312 160.477 42.9219 160.477ZM52.8125 154.125V162H50.8203V148.898H52.7422V150.961H52.9297C53.2344 150.289 53.6992 149.75 54.3242 149.344C54.9492 148.938 55.7578 148.734 56.75 148.734C57.6328 148.734 58.4062 148.914 59.0703 149.273C59.7344 149.633 60.25 150.18 60.6172 150.914C60.9922 151.641 61.1797 152.562 61.1797 153.68V162H59.1875V153.82C59.1875 152.797 58.918 151.996 58.3789 151.418C57.8398 150.832 57.1055 150.539 56.1758 150.539C55.5352 150.539 54.9609 150.68 54.4531 150.961C53.9453 151.242 53.543 151.648 53.2461 152.18C52.957 152.711 52.8125 153.359 52.8125 154.125ZM69.4297 148.898V150.609H62.6562V148.898H69.4297ZM64.625 145.781H66.6172V158.25C66.6172 158.93 66.7578 159.43 67.0391 159.75C67.3203 160.062 67.7656 160.219 68.375 160.219C68.5078 160.219 68.6445 160.211 68.7852 160.195C68.9336 160.18 69.0938 160.156 69.2656 160.125L69.6875 161.93C69.5 162 69.2695 162.055 68.9961 162.094C68.7305 162.141 68.4609 162.164 68.1875 162.164C67.1328 162.164 66.2734 161.852 65.6094 161.227C64.9531 160.602 64.625 159.789 64.625 158.789V145.781ZM71.3516 162V148.898H73.2734V150.891H73.4141C73.6562 150.242 74.0898 149.719 74.7148 149.32C75.3477 148.914 76.0547 148.711 76.8359 148.711C76.9844 148.711 77.168 148.715 77.3867 148.723C77.6055 148.723 77.7734 148.727 77.8906 148.734V150.773C77.8203 150.758 77.6641 150.734 77.4219 150.703C77.1797 150.672 76.9219 150.656 76.6484 150.656C76.0156 150.656 75.4492 150.789 74.9492 151.055C74.4492 151.32 74.0547 151.684 73.7656 152.145C73.4844 152.605 73.3438 153.133 73.3438 153.727V162H71.3516ZM84.0547 162.281C82.875 162.281 81.8398 162 80.9492 161.438C80.0586 160.875 79.3633 160.086 78.8633 159.07C78.3711 158.055 78.125 156.875 78.125 155.531C78.125 154.164 78.3711 152.973 78.8633 151.957C79.3633 150.934 80.0586 150.141 80.9492 149.578C81.8398 149.016 82.875 148.734 84.0547 148.734C85.2422 148.734 86.2812 149.016 87.1719 149.578C88.0625 150.141 88.7578 150.934 89.2578 151.957C89.7578 152.973 90.0078 154.164 90.0078 155.531C90.0078 156.875 89.7578 158.055 89.2578 159.07C88.7578 160.086 88.0625 160.875 87.1719 161.438C86.2812 162 85.2422 162.281 84.0547 162.281ZM84.0547 160.477C84.9609 160.477 85.7031 160.246 86.2812 159.785C86.8594 159.324 87.2891 158.719 87.5703 157.969C87.8516 157.211 87.9922 156.398 87.9922 155.531C87.9922 154.648 87.8516 153.828 87.5703 153.07C87.2891 152.312 86.8594 151.703 86.2812 151.242C85.7031 150.773 84.9609 150.539 84.0547 150.539C83.1641 150.539 82.4297 150.773 81.8516 151.242C81.2734 151.703 80.8438 152.312 80.5625 153.07C80.2812 153.828 80.1406 154.648 80.1406 155.531C80.1406 156.398 80.2812 157.211 80.5625 157.969C80.8438 158.719 81.2734 159.324 81.8516 159.785C82.4297 160.246 83.1641 160.477 84.0547 160.477ZM93.9453 144.539V162H91.9531V144.539H93.9453ZM107.445 162.281C106.227 162.281 105.172 161.992 104.281 161.414C103.398 160.828 102.715 160.027 102.23 159.012C101.754 157.996 101.516 156.836 101.516 155.531C101.516 154.195 101.762 153.02 102.254 152.004C102.746 150.98 103.434 150.18 104.316 149.602C105.207 149.023 106.242 148.734 107.422 148.734C108.344 148.734 109.172 148.906 109.906 149.25C110.648 149.586 111.254 150.062 111.723 150.68C112.199 151.297 112.492 152.016 112.602 152.836H110.586C110.484 152.438 110.301 152.062 110.035 151.711C109.77 151.359 109.418 151.078 108.98 150.867C108.551 150.648 108.039 150.539 107.445 150.539C106.664 150.539 105.98 150.742 105.395 151.148C104.809 151.555 104.352 152.129 104.023 152.871C103.695 153.605 103.531 154.469 103.531 155.461C103.531 156.469 103.691 157.352 104.012 158.109C104.332 158.859 104.785 159.441 105.371 159.855C105.965 160.27 106.656 160.477 107.445 160.477C108.234 160.477 108.91 160.273 109.473 159.867C110.035 159.453 110.406 158.891 110.586 158.18H112.602C112.492 158.953 112.211 159.648 111.758 160.266C111.312 160.883 110.723 161.375 109.988 161.742C109.262 162.102 108.414 162.281 107.445 162.281ZM118.344 162.305C117.516 162.305 116.762 162.148 116.082 161.836C115.402 161.516 114.863 161.055 114.465 160.453C114.066 159.852 113.867 159.125 113.867 158.273C113.867 157.523 114.016 156.918 114.312 156.457C114.609 155.988 115.004 155.621 115.496 155.355C115.996 155.082 116.543 154.879 117.137 154.746C117.738 154.613 118.344 154.508 118.953 154.43C119.75 154.328 120.395 154.25 120.887 154.195C121.387 154.141 121.75 154.047 121.977 153.914C122.211 153.781 122.328 153.555 122.328 153.234V153.164C122.328 152.328 122.098 151.68 121.637 151.219C121.184 150.75 120.492 150.516 119.562 150.516C118.609 150.516 117.859 150.727 117.312 151.148C116.766 151.562 116.383 152.008 116.164 152.484L114.242 151.805C114.586 151.008 115.043 150.387 115.613 149.941C116.191 149.496 116.816 149.184 117.488 149.004C118.168 148.824 118.836 148.734 119.492 148.734C119.914 148.734 120.398 148.785 120.945 148.887C121.492 148.98 122.023 149.184 122.539 149.496C123.062 149.801 123.492 150.266 123.828 150.891C124.172 151.508 124.344 152.336 124.344 153.375V162H122.328V160.219H122.234C122.102 160.5 121.875 160.805 121.555 161.133C121.234 161.453 120.809 161.73 120.277 161.965C119.754 162.191 119.109 162.305 118.344 162.305ZM118.648 160.5C119.445 160.5 120.117 160.344 120.664 160.031C121.211 159.719 121.625 159.316 121.906 158.824C122.188 158.324 122.328 157.805 122.328 157.266V155.414C122.242 155.516 122.055 155.609 121.766 155.695C121.484 155.773 121.156 155.844 120.781 155.906C120.414 155.969 120.055 156.023 119.703 156.07C119.352 156.109 119.07 156.141 118.859 156.164C118.336 156.234 117.848 156.348 117.395 156.504C116.941 156.652 116.574 156.875 116.293 157.172C116.02 157.469 115.883 157.875 115.883 158.391C115.883 159.086 116.141 159.613 116.656 159.973C117.18 160.324 117.844 160.5 118.648 160.5ZM126.922 162V148.898H128.844V150.891H128.984C129.227 150.242 129.66 149.719 130.285 149.32C130.918 148.914 131.625 148.711 132.406 148.711C132.555 148.711 132.738 148.715 132.957 148.723C133.176 148.723 133.344 148.727 133.461 148.734V150.773C133.391 150.758 133.234 150.734 132.992 150.703C132.75 150.672 132.492 150.656 132.219 150.656C131.586 150.656 131.02 150.789 130.52 151.055C130.02 151.32 129.625 151.684 129.336 152.145C129.055 152.605 128.914 153.133 128.914 153.727V162H126.922ZM139.25 162.281C138.156 162.281 137.191 162.004 136.355 161.449C135.52 160.895 134.867 160.109 134.398 159.094C133.93 158.07 133.695 156.867 133.695 155.484C133.695 154.109 133.93 152.918 134.398 151.91C134.875 150.895 135.531 150.113 136.367 149.566C137.203 149.012 138.172 148.734 139.273 148.734C140.133 148.734 140.809 148.875 141.301 149.156C141.801 149.438 142.184 149.758 142.449 150.117C142.715 150.469 142.922 150.758 143.07 150.984H143.234V144.539H145.227V162H143.305V159.984H143.07C142.922 160.219 142.711 160.52 142.438 160.887C142.164 161.246 141.773 161.57 141.266 161.859C140.766 162.141 140.094 162.281 139.25 162.281ZM139.508 160.477C140.32 160.477 141.004 160.266 141.559 159.844C142.113 159.414 142.535 158.824 142.824 158.074C143.113 157.316 143.258 156.445 143.258 155.461C143.258 154.477 143.117 153.617 142.836 152.883C142.555 152.141 142.133 151.566 141.57 151.16C141.016 150.746 140.328 150.539 139.508 150.539C138.664 150.539 137.961 150.758 137.398 151.195C136.836 151.633 136.414 152.223 136.133 152.965C135.852 153.707 135.711 154.539 135.711 155.461C135.711 156.391 135.852 157.234 136.133 157.992C136.422 158.75 136.848 159.355 137.41 159.809C137.973 160.254 138.672 160.477 139.508 160.477ZM162.688 151.852L160.883 152.344C160.711 151.898 160.414 151.477 159.992 151.078C159.578 150.672 158.93 150.469 158.047 150.469C157.25 150.469 156.586 150.656 156.055 151.031C155.523 151.398 155.258 151.859 155.258 152.414C155.258 152.914 155.438 153.312 155.797 153.609C156.164 153.906 156.734 154.148 157.508 154.336L159.453 154.805C160.617 155.086 161.484 155.52 162.055 156.105C162.633 156.691 162.922 157.438 162.922 158.344C162.922 159.094 162.707 159.766 162.277 160.359C161.848 160.953 161.25 161.422 160.484 161.766C159.719 162.109 158.828 162.281 157.812 162.281C156.477 162.281 155.371 161.988 154.496 161.402C153.629 160.816 153.078 159.969 152.844 158.859L154.742 158.391C154.922 159.094 155.266 159.621 155.773 159.973C156.289 160.324 156.961 160.5 157.789 160.5C158.719 160.5 159.461 160.301 160.016 159.902C160.578 159.496 160.859 159.016 160.859 158.461C160.859 157.539 160.211 156.922 158.914 156.609L156.734 156.094C155.531 155.805 154.648 155.363 154.086 154.77C153.523 154.176 153.242 153.43 153.242 152.531C153.242 151.789 153.449 151.133 153.863 150.562C154.285 149.992 154.859 149.547 155.586 149.227C156.312 148.898 157.133 148.734 158.047 148.734C159.352 148.734 160.371 149.023 161.105 149.602C161.848 150.172 162.375 150.922 162.688 151.852ZM170.328 162.281C169.07 162.281 167.98 162 167.059 161.438C166.145 160.875 165.441 160.09 164.949 159.082C164.457 158.066 164.211 156.891 164.211 155.555C164.211 154.211 164.453 153.027 164.938 152.004C165.422 150.98 166.102 150.18 166.977 149.602C167.859 149.023 168.891 148.734 170.07 148.734C170.75 148.734 171.426 148.848 172.098 149.074C172.77 149.301 173.379 149.668 173.926 150.176C174.48 150.684 174.922 151.355 175.25 152.191C175.578 153.027 175.742 154.055 175.742 155.273V156.141H165.641V154.406H174.652L173.727 155.062C173.727 154.188 173.59 153.41 173.316 152.73C173.043 152.051 172.633 151.516 172.086 151.125C171.547 150.734 170.875 150.539 170.07 150.539C169.266 150.539 168.574 150.738 167.996 151.137C167.426 151.527 166.988 152.039 166.684 152.672C166.379 153.305 166.227 153.984 166.227 154.711V155.859C166.227 156.852 166.398 157.691 166.742 158.379C167.086 159.066 167.566 159.59 168.184 159.949C168.801 160.301 169.516 160.477 170.328 160.477C170.852 160.477 171.328 160.402 171.758 160.254C172.188 160.098 172.559 159.867 172.871 159.562C173.184 159.25 173.422 158.867 173.586 158.414L175.531 158.977C175.328 159.633 174.984 160.211 174.5 160.711C174.023 161.203 173.43 161.59 172.719 161.871C172.008 162.145 171.211 162.281 170.328 162.281ZM182.938 162.281C181.719 162.281 180.664 161.992 179.773 161.414C178.891 160.828 178.207 160.027 177.723 159.012C177.246 157.996 177.008 156.836 177.008 155.531C177.008 154.195 177.254 153.02 177.746 152.004C178.238 150.98 178.926 150.18 179.809 149.602C180.699 149.023 181.734 148.734 182.914 148.734C183.836 148.734 184.664 148.906 185.398 149.25C186.141 149.586 186.746 150.062 187.215 150.68C187.691 151.297 187.984 152.016 188.094 152.836H186.078C185.977 152.438 185.793 152.062 185.527 151.711C185.262 151.359 184.91 151.078 184.473 150.867C184.043 150.648 183.531 150.539 182.938 150.539C182.156 150.539 181.473 150.742 180.887 151.148C180.301 151.555 179.844 152.129 179.516 152.871C179.188 153.605 179.023 154.469 179.023 155.461C179.023 156.469 179.184 157.352 179.504 158.109C179.824 158.859 180.277 159.441 180.863 159.855C181.457 160.27 182.148 160.477 182.938 160.477C183.727 160.477 184.402 160.273 184.965 159.867C185.527 159.453 185.898 158.891 186.078 158.18H188.094C187.984 158.953 187.703 159.648 187.25 160.266C186.805 160.883 186.215 161.375 185.48 161.742C184.754 162.102 183.906 162.281 182.938 162.281ZM198.242 156.656V148.898H200.234V162H198.242V159.773H198.102C197.789 160.438 197.309 161.004 196.66 161.473C196.02 161.941 195.203 162.172 194.211 162.164C193.391 162.164 192.664 161.988 192.031 161.637C191.398 161.277 190.898 160.73 190.531 159.996C190.172 159.262 189.992 158.336 189.992 157.219V148.898H191.984V157.102C191.984 158.047 192.254 158.805 192.793 159.375C193.34 159.945 194.031 160.227 194.867 160.219C195.367 160.219 195.875 160.094 196.391 159.844C196.914 159.586 197.352 159.195 197.703 158.672C198.062 158.141 198.242 157.469 198.242 156.656ZM202.812 162V148.898H204.734V150.891H204.875C205.117 150.242 205.551 149.719 206.176 149.32C206.809 148.914 207.516 148.711 208.297 148.711C208.445 148.711 208.629 148.715 208.848 148.723C209.066 148.723 209.234 148.727 209.352 148.734V150.773C209.281 150.758 209.125 150.734 208.883 150.703C208.641 150.672 208.383 150.656 208.109 150.656C207.477 150.656 206.91 150.789 206.41 151.055C205.91 151.32 205.516 151.684 205.227 152.145C204.945 152.605 204.805 153.133 204.805 153.727V162H202.812ZM210.617 162V148.898H212.609V162H210.617ZM211.625 146.719C211.234 146.719 210.898 146.586 210.617 146.32C210.336 146.055 210.195 145.734 210.195 145.359C210.195 144.984 210.336 144.664 210.617 144.398C210.898 144.133 211.234 144 211.625 144C212.016 144 212.352 144.133 212.633 144.398C212.914 144.664 213.055 144.984 213.055 145.359C213.055 145.734 212.914 146.055 212.633 146.32C212.352 146.586 212.016 146.719 211.625 146.719ZM220.859 148.898V150.609H214.086V148.898H220.859ZM216.055 145.781H218.047V158.25C218.047 158.93 218.188 159.43 218.469 159.75C218.75 160.062 219.195 160.219 219.805 160.219C219.938 160.219 220.074 160.211 220.215 160.195C220.363 160.18 220.523 160.156 220.695 160.125L221.117 161.93C220.93 162 220.699 162.055 220.426 162.094C220.16 162.141 219.891 162.164 219.617 162.164C218.562 162.164 217.703 161.852 217.039 161.227C216.383 160.602 216.055 159.789 216.055 158.789V145.781ZM224.07 166.898C223.727 166.906 223.422 166.883 223.156 166.828C222.891 166.773 222.703 166.719 222.594 166.664L223.109 164.906L223.309 164.953C223.98 165.109 224.543 165.074 224.996 164.848C225.457 164.629 225.859 164.047 226.203 163.102L226.578 162.07L221.75 148.898H223.93L227.539 159.352H227.68L231.289 148.898H233.469L227.914 163.898C227.664 164.578 227.355 165.141 226.988 165.586C226.621 166.031 226.195 166.359 225.711 166.57C225.227 166.789 224.68 166.898 224.07 166.898ZM21.2891 196V182.898H23.2812V196H21.2891ZM22.2969 180.719C21.9062 180.719 21.5703 180.586 21.2891 180.32C21.0078 180.055 20.8672 179.734 20.8672 179.359C20.8672 178.984 21.0078 178.664 21.2891 178.398C21.5703 178.133 21.9062 178 22.2969 178C22.6875 178 23.0234 178.133 23.3047 178.398C23.5859 178.664 23.7266 178.984 23.7266 179.359C23.7266 179.734 23.5859 180.055 23.3047 180.32C23.0234 180.586 22.6875 180.719 22.2969 180.719ZM27.8516 188.125V196H25.8594V182.898H27.7812V184.961H27.9688C28.2734 184.289 28.7383 183.75 29.3633 183.344C29.9883 182.938 30.7969 182.734 31.7891 182.734C32.6719 182.734 33.4453 182.914 34.1094 183.273C34.7734 183.633 35.2891 184.18 35.6562 184.914C36.0312 185.641 36.2188 186.562 36.2188 187.68V196H34.2266V187.82C34.2266 186.797 33.957 185.996 33.418 185.418C32.8789 184.832 32.1445 184.539 31.2148 184.539C30.5742 184.539 30 184.68 29.4922 184.961C28.9844 185.242 28.582 185.648 28.2852 186.18C27.9961 186.711 27.8516 187.359 27.8516 188.125ZM46.2734 187.586V189.461H38.6328V187.586H46.2734ZM52.5312 196.305C51.7031 196.305 50.9492 196.148 50.2695 195.836C49.5898 195.516 49.0508 195.055 48.6523 194.453C48.2539 193.852 48.0547 193.125 48.0547 192.273C48.0547 191.523 48.2031 190.918 48.5 190.457C48.7969 189.988 49.1914 189.621 49.6836 189.355C50.1836 189.082 50.7305 188.879 51.3242 188.746C51.9258 188.613 52.5312 188.508 53.1406 188.43C53.9375 188.328 54.582 188.25 55.0742 188.195C55.5742 188.141 55.9375 188.047 56.1641 187.914C56.3984 187.781 56.5156 187.555 56.5156 187.234V187.164C56.5156 186.328 56.2852 185.68 55.8242 185.219C55.3711 184.75 54.6797 184.516 53.75 184.516C52.7969 184.516 52.0469 184.727 51.5 185.148C50.9531 185.562 50.5703 186.008 50.3516 186.484L48.4297 185.805C48.7734 185.008 49.2305 184.387 49.8008 183.941C50.3789 183.496 51.0039 183.184 51.6758 183.004C52.3555 182.824 53.0234 182.734 53.6797 182.734C54.1016 182.734 54.5859 182.785 55.1328 182.887C55.6797 182.98 56.2109 183.184 56.7266 183.496C57.25 183.801 57.6797 184.266 58.0156 184.891C58.3594 185.508 58.5312 186.336 58.5312 187.375V196H56.5156V194.219H56.4219C56.2891 194.5 56.0625 194.805 55.7422 195.133C55.4219 195.453 54.9961 195.73 54.4648 195.965C53.9414 196.191 53.2969 196.305 52.5312 196.305ZM52.8359 194.5C53.6328 194.5 54.3047 194.344 54.8516 194.031C55.3984 193.719 55.8125 193.316 56.0938 192.824C56.375 192.324 56.5156 191.805 56.5156 191.266V189.414C56.4297 189.516 56.2422 189.609 55.9531 189.695C55.6719 189.773 55.3438 189.844 54.9688 189.906C54.6016 189.969 54.2422 190.023 53.8906 190.07C53.5391 190.109 53.2578 190.141 53.0469 190.164C52.5234 190.234 52.0352 190.348 51.582 190.504C51.1289 190.652 50.7617 190.875 50.4805 191.172C50.207 191.469 50.0703 191.875 50.0703 192.391C50.0703 193.086 50.3281 193.613 50.8438 193.973C51.3672 194.324 52.0312 194.5 52.8359 194.5ZM61.1094 200.898V182.898H63.0312V184.984H63.2656C63.4141 184.758 63.6211 184.469 63.8867 184.117C64.1523 183.758 64.5352 183.438 65.0352 183.156C65.5352 182.875 66.2109 182.734 67.0625 182.734C68.1641 182.734 69.1328 183.012 69.9688 183.566C70.8047 184.113 71.457 184.895 71.9258 185.91C72.4023 186.918 72.6406 188.109 72.6406 189.484C72.6406 190.867 72.4062 192.07 71.9375 193.094C71.4688 194.109 70.8164 194.895 69.9805 195.449C69.1445 196.004 68.1797 196.281 67.0859 196.281C66.25 196.281 65.5781 196.141 65.0703 195.859C64.5625 195.57 64.1719 195.246 63.8984 194.887C63.625 194.52 63.4141 194.219 63.2656 193.984H63.1016V200.898H61.1094ZM66.8281 194.477C67.6641 194.477 68.3633 194.254 68.9258 193.809C69.4883 193.355 69.9102 192.75 70.1914 191.992C70.4805 191.234 70.625 190.391 70.625 189.461C70.625 188.539 70.4844 187.707 70.2031 186.965C69.9219 186.223 69.5 185.633 68.9375 185.195C68.3828 184.758 67.6797 184.539 66.8281 184.539C66.0078 184.539 65.3203 184.746 64.7656 185.16C64.2109 185.566 63.7891 186.141 63.5 186.883C63.2188 187.617 63.0781 188.477 63.0781 189.461C63.0781 190.445 63.2227 191.316 63.5117 192.074C63.8008 192.824 64.2227 193.414 64.7773 193.844C65.3398 194.266 66.0234 194.477 66.8281 194.477ZM74.5859 200.898V182.898H76.5078V184.984H76.7422C76.8906 184.758 77.0977 184.469 77.3633 184.117C77.6289 183.758 78.0117 183.438 78.5117 183.156C79.0117 182.875 79.6875 182.734 80.5391 182.734C81.6406 182.734 82.6094 183.012 83.4453 183.566C84.2812 184.113 84.9336 184.895 85.4023 185.91C85.8789 186.918 86.1172 188.109 86.1172 189.484C86.1172 190.867 85.8828 192.07 85.4141 193.094C84.9453 194.109 84.293 194.895 83.457 195.449C82.6211 196.004 81.6562 196.281 80.5625 196.281C79.7266 196.281 79.0547 196.141 78.5469 195.859C78.0391 195.57 77.6484 195.246 77.375 194.887C77.1016 194.52 76.8906 194.219 76.7422 193.984H76.5781V200.898H74.5859ZM80.3047 194.477C81.1406 194.477 81.8398 194.254 82.4023 193.809C82.9648 193.355 83.3867 192.75 83.668 191.992C83.957 191.234 84.1016 190.391 84.1016 189.461C84.1016 188.539 83.9609 187.707 83.6797 186.965C83.3984 186.223 82.9766 185.633 82.4141 185.195C81.8594 184.758 81.1562 184.539 80.3047 184.539C79.4844 184.539 78.7969 184.746 78.2422 185.16C77.6875 185.566 77.2656 186.141 76.9766 186.883C76.6953 187.617 76.5547 188.477 76.5547 189.461C76.5547 190.445 76.6992 191.316 76.9883 192.074C77.2773 192.824 77.6992 193.414 78.2539 193.844C78.8164 194.266 79.5 194.477 80.3047 194.477ZM96.6406 196L92.6562 182.898H94.7656L97.6016 192.93H97.7422L100.531 182.898H102.688L105.43 192.906H105.57L108.406 182.898H110.516L106.531 196H104.562L101.68 185.945H101.492L98.6094 196H96.6406ZM112.062 196V182.898H114.055V196H112.062ZM113.07 180.719C112.68 180.719 112.344 180.586 112.062 180.32C111.781 180.055 111.641 179.734 111.641 179.359C111.641 178.984 111.781 178.664 112.062 178.398C112.344 178.133 112.68 178 113.07 178C113.461 178 113.797 178.133 114.078 178.398C114.359 178.664 114.5 178.984 114.5 179.359C114.5 179.734 114.359 180.055 114.078 180.32C113.797 180.586 113.461 180.719 113.07 180.719ZM122.305 182.898V184.609H115.531V182.898H122.305ZM117.5 179.781H119.492V192.25C119.492 192.93 119.633 193.43 119.914 193.75C120.195 194.062 120.641 194.219 121.25 194.219C121.383 194.219 121.52 194.211 121.66 194.195C121.809 194.18 121.969 194.156 122.141 194.125L122.562 195.93C122.375 196 122.145 196.055 121.871 196.094C121.605 196.141 121.336 196.164 121.062 196.164C120.008 196.164 119.148 195.852 118.484 195.227C117.828 194.602 117.5 193.789 117.5 192.789V179.781ZM126.5 188.125V196H124.508V178.539H126.5V184.961H126.688C126.992 184.281 127.449 183.742 128.059 183.344C128.676 182.938 129.5 182.734 130.531 182.734C131.422 182.734 132.203 182.914 132.875 183.273C133.547 183.625 134.07 184.168 134.445 184.902C134.82 185.629 135.008 186.555 135.008 187.68V196H132.992V187.82C132.992 186.773 132.723 185.965 132.184 185.395C131.645 184.824 130.898 184.539 129.945 184.539C129.281 184.539 128.691 184.68 128.176 184.961C127.66 185.242 127.25 185.648 126.945 186.18C126.648 186.711 126.5 187.359 126.5 188.125ZM147.055 196.305C146.227 196.305 145.473 196.148 144.793 195.836C144.113 195.516 143.574 195.055 143.176 194.453C142.777 193.852 142.578 193.125 142.578 192.273C142.578 191.523 142.727 190.918 143.023 190.457C143.32 189.988 143.715 189.621 144.207 189.355C144.707 189.082 145.254 188.879 145.848 188.746C146.449 188.613 147.055 188.508 147.664 188.43C148.461 188.328 149.105 188.25 149.598 188.195C150.098 188.141 150.461 188.047 150.688 187.914C150.922 187.781 151.039 187.555 151.039 187.234V187.164C151.039 186.328 150.809 185.68 150.348 185.219C149.895 184.75 149.203 184.516 148.273 184.516C147.32 184.516 146.57 184.727 146.023 185.148C145.477 185.562 145.094 186.008 144.875 186.484L142.953 185.805C143.297 185.008 143.754 184.387 144.324 183.941C144.902 183.496 145.527 183.184 146.199 183.004C146.879 182.824 147.547 182.734 148.203 182.734C148.625 182.734 149.109 182.785 149.656 182.887C150.203 182.98 150.734 183.184 151.25 183.496C151.773 183.801 152.203 184.266 152.539 184.891C152.883 185.508 153.055 186.336 153.055 187.375V196H151.039V194.219H150.945C150.812 194.5 150.586 194.805 150.266 195.133C149.945 195.453 149.52 195.73 148.988 195.965C148.465 196.191 147.82 196.305 147.055 196.305ZM147.359 194.5C148.156 194.5 148.828 194.344 149.375 194.031C149.922 193.719 150.336 193.316 150.617 192.824C150.898 192.324 151.039 191.805 151.039 191.266V189.414C150.953 189.516 150.766 189.609 150.477 189.695C150.195 189.773 149.867 189.844 149.492 189.906C149.125 189.969 148.766 190.023 148.414 190.07C148.062 190.109 147.781 190.141 147.57 190.164C147.047 190.234 146.559 190.348 146.105 190.504C145.652 190.652 145.285 190.875 145.004 191.172C144.73 191.469 144.594 191.875 144.594 192.391C144.594 193.086 144.852 193.613 145.367 193.973C145.891 194.324 146.555 194.5 147.359 194.5ZM166.93 182.898V184.609H160.156V182.898H166.93ZM162.125 179.781H164.117V192.25C164.117 192.93 164.258 193.43 164.539 193.75C164.82 194.062 165.266 194.219 165.875 194.219C166.008 194.219 166.145 194.211 166.285 194.195C166.434 194.18 166.594 194.156 166.766 194.125L167.188 195.93C167 196 166.77 196.055 166.496 196.094C166.23 196.141 165.961 196.164 165.688 196.164C164.633 196.164 163.773 195.852 163.109 195.227C162.453 194.602 162.125 193.789 162.125 192.789V179.781ZM172.695 196.305C171.867 196.305 171.113 196.148 170.434 195.836C169.754 195.516 169.215 195.055 168.816 194.453C168.418 193.852 168.219 193.125 168.219 192.273C168.219 191.523 168.367 190.918 168.664 190.457C168.961 189.988 169.355 189.621 169.848 189.355C170.348 189.082 170.895 188.879 171.488 188.746C172.09 188.613 172.695 188.508 173.305 188.43C174.102 188.328 174.746 188.25 175.238 188.195C175.738 188.141 176.102 188.047 176.328 187.914C176.562 187.781 176.68 187.555 176.68 187.234V187.164C176.68 186.328 176.449 185.68 175.988 185.219C175.535 184.75 174.844 184.516 173.914 184.516C172.961 184.516 172.211 184.727 171.664 185.148C171.117 185.562 170.734 186.008 170.516 186.484L168.594 185.805C168.938 185.008 169.395 184.387 169.965 183.941C170.543 183.496 171.168 183.184 171.84 183.004C172.52 182.824 173.188 182.734 173.844 182.734C174.266 182.734 174.75 182.785 175.297 182.887C175.844 182.98 176.375 183.184 176.891 183.496C177.414 183.801 177.844 184.266 178.18 184.891C178.523 185.508 178.695 186.336 178.695 187.375V196H176.68V194.219H176.586C176.453 194.5 176.227 194.805 175.906 195.133C175.586 195.453 175.16 195.73 174.629 195.965C174.105 196.191 173.461 196.305 172.695 196.305ZM173 194.5C173.797 194.5 174.469 194.344 175.016 194.031C175.562 193.719 175.977 193.316 176.258 192.824C176.539 192.324 176.68 191.805 176.68 191.266V189.414C176.594 189.516 176.406 189.609 176.117 189.695C175.836 189.773 175.508 189.844 175.133 189.906C174.766 189.969 174.406 190.023 174.055 190.07C173.703 190.109 173.422 190.141 173.211 190.164C172.688 190.234 172.199 190.348 171.746 190.504C171.293 190.652 170.926 190.875 170.645 191.172C170.371 191.469 170.234 191.875 170.234 192.391C170.234 193.086 170.492 193.613 171.008 193.973C171.531 194.324 172.195 194.5 173 194.5ZM181.273 200.898V182.898H183.195V184.984H183.43C183.578 184.758 183.785 184.469 184.051 184.117C184.316 183.758 184.699 183.438 185.199 183.156C185.699 182.875 186.375 182.734 187.227 182.734C188.328 182.734 189.297 183.012 190.133 183.566C190.969 184.113 191.621 184.895 192.09 185.91C192.566 186.918 192.805 188.109 192.805 189.484C192.805 190.867 192.57 192.07 192.102 193.094C191.633 194.109 190.98 194.895 190.145 195.449C189.309 196.004 188.344 196.281 187.25 196.281C186.414 196.281 185.742 196.141 185.234 195.859C184.727 195.57 184.336 195.246 184.062 194.887C183.789 194.52 183.578 194.219 183.43 193.984H183.266V200.898H181.273ZM186.992 194.477C187.828 194.477 188.527 194.254 189.09 193.809C189.652 193.355 190.074 192.75 190.355 191.992C190.645 191.234 190.789 190.391 190.789 189.461C190.789 188.539 190.648 187.707 190.367 186.965C190.086 186.223 189.664 185.633 189.102 185.195C188.547 184.758 187.844 184.539 186.992 184.539C186.172 184.539 185.484 184.746 184.93 185.16C184.375 185.566 183.953 186.141 183.664 186.883C183.383 187.617 183.242 188.477 183.242 189.461C183.242 190.445 183.387 191.316 183.676 192.074C183.965 192.824 184.387 193.414 184.941 193.844C185.504 194.266 186.188 194.477 186.992 194.477Z" fill="#FCFCFC" fill-opacity="0.8"/>
<path d="M24.625 226H21.8281V224.75H24.5312C25.4948 224.75 26.2917 224.565 26.9219 224.195C27.5573 223.826 28.0312 223.297 28.3438 222.609C28.6562 221.922 28.8125 221.104 28.8125 220.156C28.8125 219.219 28.6589 218.411 28.3516 217.734C28.0443 217.052 27.5833 216.529 26.9688 216.164C26.3594 215.794 25.599 215.609 24.6875 215.609H21.7656V214.359H24.7812C25.9115 214.359 26.8776 214.591 27.6797 215.055C28.487 215.518 29.1042 216.185 29.5312 217.055C29.9583 217.919 30.1719 218.953 30.1719 220.156C30.1719 221.37 29.9557 222.414 29.5234 223.289C29.0911 224.159 28.4609 224.828 27.6328 225.297C26.8099 225.766 25.8073 226 24.625 226ZM22.4375 214.359V226H21.0312V214.359H22.4375ZM31.6094 226V217.266H32.9375V226H31.6094ZM32.2812 215.812C32.0208 215.812 31.7969 215.724 31.6094 215.547C31.4219 215.37 31.3281 215.156 31.3281 214.906C31.3281 214.656 31.4219 214.443 31.6094 214.266C31.7969 214.089 32.0208 214 32.2812 214C32.5417 214 32.7656 214.089 32.9531 214.266C33.1406 214.443 33.2344 214.656 33.2344 214.906C33.2344 215.156 33.1406 215.37 32.9531 215.547C32.7656 215.724 32.5417 215.812 32.2812 215.812ZM40.8281 219.234L39.625 219.562C39.5104 219.266 39.3125 218.984 39.0312 218.719C38.7552 218.448 38.3229 218.312 37.7344 218.312C37.2031 218.312 36.7604 218.438 36.4062 218.688C36.0521 218.932 35.875 219.24 35.875 219.609C35.875 219.943 35.9948 220.208 36.2344 220.406C36.4792 220.604 36.8594 220.766 37.375 220.891L38.6719 221.203C39.4479 221.391 40.026 221.68 40.4062 222.07C40.7917 222.461 40.9844 222.958 40.9844 223.562C40.9844 224.062 40.8411 224.51 40.5547 224.906C40.2682 225.302 39.8698 225.615 39.3594 225.844C38.849 226.073 38.2552 226.188 37.5781 226.188C36.6875 226.188 35.9505 225.992 35.3672 225.602C34.7891 225.211 34.4219 224.646 34.2656 223.906L35.5312 223.594C35.651 224.062 35.8802 224.414 36.2188 224.648C36.5625 224.883 37.0104 225 37.5625 225C38.1823 225 38.6771 224.867 39.0469 224.602C39.4219 224.331 39.6094 224.01 39.6094 223.641C39.6094 223.026 39.1771 222.615 38.3125 222.406L36.8594 222.062C36.0573 221.87 35.4688 221.576 35.0938 221.18C34.7188 220.784 34.5312 220.286 34.5312 219.688C34.5312 219.193 34.6693 218.755 34.9453 218.375C35.2266 217.995 35.6094 217.698 36.0938 217.484C36.5781 217.266 37.125 217.156 37.7344 217.156C38.6042 217.156 39.2839 217.349 39.7734 217.734C40.2682 218.115 40.6198 218.615 40.8281 219.234ZM45.7969 226.188C44.9844 226.188 44.2812 225.995 43.6875 225.609C43.099 225.219 42.6432 224.685 42.3203 224.008C42.0026 223.331 41.8438 222.557 41.8438 221.688C41.8438 220.797 42.0078 220.013 42.3359 219.336C42.6641 218.654 43.1224 218.12 43.7109 217.734C44.3047 217.349 44.9948 217.156 45.7812 217.156C46.3958 217.156 46.9479 217.271 47.4375 217.5C47.9323 217.724 48.3359 218.042 48.6484 218.453C48.9661 218.865 49.1615 219.344 49.2344 219.891H47.8906C47.8229 219.625 47.7005 219.375 47.5234 219.141C47.3464 218.906 47.112 218.719 46.8203 218.578C46.5339 218.432 46.1927 218.359 45.7969 218.359C45.276 218.359 44.8203 218.495 44.4297 218.766C44.0391 219.036 43.7344 219.419 43.5156 219.914C43.2969 220.404 43.1875 220.979 43.1875 221.641C43.1875 222.312 43.2943 222.901 43.5078 223.406C43.7214 223.906 44.0234 224.294 44.4141 224.57C44.8099 224.846 45.2708 224.984 45.7969 224.984C46.3229 224.984 46.7734 224.849 47.1484 224.578C47.5234 224.302 47.7708 223.927 47.8906 223.453H49.2344C49.1615 223.969 48.974 224.432 48.6719 224.844C48.375 225.255 47.9818 225.583 47.4922 225.828C47.0078 226.068 46.4427 226.188 45.7969 226.188ZM54.0312 226.188C53.2448 226.188 52.5547 226 51.9609 225.625C51.3672 225.25 50.9036 224.724 50.5703 224.047C50.2422 223.37 50.0781 222.583 50.0781 221.688C50.0781 220.776 50.2422 219.982 50.5703 219.305C50.9036 218.622 51.3672 218.094 51.9609 217.719C52.5547 217.344 53.2448 217.156 54.0312 217.156C54.8229 217.156 55.5156 217.344 56.1094 217.719C56.7031 218.094 57.1667 218.622 57.5 219.305C57.8333 219.982 58 220.776 58 221.688C58 222.583 57.8333 223.37 57.5 224.047C57.1667 224.724 56.7031 225.25 56.1094 225.625C55.5156 226 54.8229 226.188 54.0312 226.188ZM54.0312 224.984C54.6354 224.984 55.1302 224.831 55.5156 224.523C55.901 224.216 56.1875 223.812 56.375 223.312C56.5625 222.807 56.6562 222.266 56.6562 221.688C56.6562 221.099 56.5625 220.552 56.375 220.047C56.1875 219.542 55.901 219.135 55.5156 218.828C55.1302 218.516 54.6354 218.359 54.0312 218.359C53.4375 218.359 52.9479 218.516 52.5625 218.828C52.1771 219.135 51.8906 219.542 51.7031 220.047C51.5156 220.552 51.4219 221.099 51.4219 221.688C51.4219 222.266 51.5156 222.807 51.7031 223.312C51.8906 223.812 52.1771 224.216 52.5625 224.523C52.9479 224.831 53.4375 224.984 54.0312 224.984ZM66.1094 217.266L62.8906 226H61.5156L58.2969 217.266H59.75L62.1562 224.234H62.25L64.6562 217.266H66.1094ZM70.4844 226.188C69.6458 226.188 68.9193 226 68.3047 225.625C67.6953 225.25 67.2266 224.727 66.8984 224.055C66.5703 223.378 66.4062 222.594 66.4062 221.703C66.4062 220.807 66.5677 220.018 66.8906 219.336C67.2135 218.654 67.6667 218.12 68.25 217.734C68.8385 217.349 69.526 217.156 70.3125 217.156C70.7656 217.156 71.2161 217.232 71.6641 217.383C72.112 217.534 72.5182 217.779 72.8828 218.117C73.2526 218.456 73.5469 218.904 73.7656 219.461C73.9844 220.018 74.0938 220.703 74.0938 221.516V222.094H67.3594V220.938H73.3672L72.75 221.375C72.75 220.792 72.6589 220.273 72.4766 219.82C72.2943 219.367 72.0208 219.01 71.6562 218.75C71.2969 218.49 70.849 218.359 70.3125 218.359C69.776 218.359 69.3151 218.492 68.9297 218.758C68.5495 219.018 68.2578 219.359 68.0547 219.781C67.8516 220.203 67.75 220.656 67.75 221.141V221.906C67.75 222.568 67.8646 223.128 68.0938 223.586C68.3229 224.044 68.6432 224.393 69.0547 224.633C69.4661 224.867 69.9427 224.984 70.4844 224.984C70.8333 224.984 71.151 224.935 71.4375 224.836C71.724 224.732 71.9714 224.578 72.1797 224.375C72.388 224.167 72.5469 223.911 72.6562 223.609L73.9531 223.984C73.8177 224.422 73.5885 224.807 73.2656 225.141C72.9479 225.469 72.5521 225.727 72.0781 225.914C71.6042 226.096 71.0729 226.188 70.4844 226.188ZM75.3594 226V217.266H76.6406V218.594H76.7344C76.8958 218.161 77.1849 217.812 77.6016 217.547C78.0234 217.276 78.4948 217.141 79.0156 217.141C79.1146 217.141 79.237 217.143 79.3828 217.148C79.5286 217.148 79.6406 217.151 79.7188 217.156V218.516C79.6719 218.505 79.5677 218.49 79.4062 218.469C79.2448 218.448 79.0729 218.438 78.8906 218.438C78.4688 218.438 78.0911 218.526 77.7578 218.703C77.4245 218.88 77.1615 219.122 76.9688 219.43C76.7812 219.737 76.6875 220.089 76.6875 220.484V226H75.3594ZM87.8438 226.188C87.0573 226.188 86.3672 226 85.7734 225.625C85.1797 225.25 84.7161 224.724 84.3828 224.047C84.0547 223.37 83.8906 222.583 83.8906 221.688C83.8906 220.776 84.0547 219.982 84.3828 219.305C84.7161 218.622 85.1797 218.094 85.7734 217.719C86.3672 217.344 87.0573 217.156 87.8438 217.156C88.6354 217.156 89.3281 217.344 89.9219 217.719C90.5156 218.094 90.9792 218.622 91.3125 219.305C91.6458 219.982 91.8125 220.776 91.8125 221.688C91.8125 222.583 91.6458 223.37 91.3125 224.047C90.9792 224.724 90.5156 225.25 89.9219 225.625C89.3281 226 88.6354 226.188 87.8438 226.188ZM87.8438 224.984C88.4479 224.984 88.9427 224.831 89.3281 224.523C89.7135 224.216 90 223.812 90.1875 223.312C90.375 222.807 90.4688 222.266 90.4688 221.688C90.4688 221.099 90.375 220.552 90.1875 220.047C90 219.542 89.7135 219.135 89.3281 218.828C88.9427 218.516 88.4479 218.359 87.8438 218.359C87.25 218.359 86.7604 218.516 86.375 218.828C85.9896 219.135 85.7031 219.542 85.5156 220.047C85.3281 220.552 85.2344 221.099 85.2344 221.688C85.2344 222.266 85.3281 222.807 85.5156 223.312C85.7031 223.812 85.9896 224.216 86.375 224.523C86.7604 224.831 87.25 224.984 87.8438 224.984ZM98.6094 222.438V217.266H99.9375V226H98.6094V224.516H98.5156C98.3073 224.958 97.987 225.336 97.5547 225.648C97.1276 225.961 96.5833 226.115 95.9219 226.109C95.375 226.109 94.8906 225.992 94.4688 225.758C94.0469 225.518 93.7135 225.154 93.4688 224.664C93.2292 224.174 93.1094 223.557 93.1094 222.812V217.266H94.4375V222.734C94.4375 223.365 94.6172 223.87 94.9766 224.25C95.3411 224.63 95.8021 224.818 96.3594 224.812C96.6927 224.812 97.0312 224.729 97.375 224.562C97.724 224.391 98.0156 224.13 98.25 223.781C98.4896 223.427 98.6094 222.979 98.6094 222.438ZM101.656 226V217.266H102.938V218.594H103.031C103.193 218.161 103.482 217.812 103.898 217.547C104.32 217.276 104.792 217.141 105.312 217.141C105.411 217.141 105.534 217.143 105.68 217.148C105.826 217.148 105.938 217.151 106.016 217.156V218.516C105.969 218.505 105.865 218.49 105.703 218.469C105.542 218.448 105.37 218.438 105.188 218.438C104.766 218.438 104.388 218.526 104.055 218.703C103.721 218.88 103.458 219.122 103.266 219.43C103.078 219.737 102.984 220.089 102.984 220.484V226H101.656ZM114.141 226.188C113.328 226.188 112.625 225.995 112.031 225.609C111.443 225.219 110.987 224.685 110.664 224.008C110.346 223.331 110.188 222.557 110.188 221.688C110.188 220.797 110.352 220.013 110.68 219.336C111.008 218.654 111.466 218.12 112.055 217.734C112.648 217.349 113.339 217.156 114.125 217.156C114.74 217.156 115.292 217.271 115.781 217.5C116.276 217.724 116.68 218.042 116.992 218.453C117.31 218.865 117.505 219.344 117.578 219.891H116.234C116.167 219.625 116.044 219.375 115.867 219.141C115.69 218.906 115.456 218.719 115.164 218.578C114.878 218.432 114.536 218.359 114.141 218.359C113.62 218.359 113.164 218.495 112.773 218.766C112.383 219.036 112.078 219.419 111.859 219.914C111.641 220.404 111.531 220.979 111.531 221.641C111.531 222.312 111.638 222.901 111.852 223.406C112.065 223.906 112.367 224.294 112.758 224.57C113.154 224.846 113.615 224.984 114.141 224.984C114.667 224.984 115.117 224.849 115.492 224.578C115.867 224.302 116.115 223.927 116.234 223.453H117.578C117.505 223.969 117.318 224.432 117.016 224.844C116.719 225.255 116.326 225.583 115.836 225.828C115.352 226.068 114.786 226.188 114.141 226.188ZM121.406 226.203C120.854 226.203 120.352 226.099 119.898 225.891C119.445 225.677 119.086 225.37 118.82 224.969C118.555 224.568 118.422 224.083 118.422 223.516C118.422 223.016 118.521 222.612 118.719 222.305C118.917 221.992 119.18 221.747 119.508 221.57C119.841 221.388 120.206 221.253 120.602 221.164C121.003 221.076 121.406 221.005 121.812 220.953C122.344 220.885 122.773 220.833 123.102 220.797C123.435 220.76 123.677 220.698 123.828 220.609C123.984 220.521 124.062 220.37 124.062 220.156V220.109C124.062 219.552 123.909 219.12 123.602 218.812C123.299 218.5 122.839 218.344 122.219 218.344C121.583 218.344 121.083 218.484 120.719 218.766C120.354 219.042 120.099 219.339 119.953 219.656L118.672 219.203C118.901 218.672 119.206 218.258 119.586 217.961C119.971 217.664 120.388 217.456 120.836 217.336C121.289 217.216 121.734 217.156 122.172 217.156C122.453 217.156 122.776 217.19 123.141 217.258C123.505 217.32 123.859 217.456 124.203 217.664C124.552 217.867 124.839 218.177 125.062 218.594C125.292 219.005 125.406 219.557 125.406 220.25V226H124.062V224.812H124C123.911 225 123.76 225.203 123.547 225.422C123.333 225.635 123.049 225.82 122.695 225.977C122.346 226.128 121.917 226.203 121.406 226.203ZM121.609 225C122.141 225 122.589 224.896 122.953 224.688C123.318 224.479 123.594 224.211 123.781 223.883C123.969 223.549 124.062 223.203 124.062 222.844V221.609C124.005 221.677 123.88 221.74 123.688 221.797C123.5 221.849 123.281 221.896 123.031 221.938C122.786 221.979 122.547 222.016 122.312 222.047C122.078 222.073 121.891 222.094 121.75 222.109C121.401 222.156 121.076 222.232 120.773 222.336C120.471 222.435 120.227 222.583 120.039 222.781C119.857 222.979 119.766 223.25 119.766 223.594C119.766 224.057 119.938 224.409 120.281 224.648C120.63 224.883 121.073 225 121.609 225ZM127.125 226V217.266H128.406V218.594H128.5C128.661 218.161 128.951 217.812 129.367 217.547C129.789 217.276 130.26 217.141 130.781 217.141C130.88 217.141 131.003 217.143 131.148 217.148C131.294 217.148 131.406 217.151 131.484 217.156V218.516C131.438 218.505 131.333 218.49 131.172 218.469C131.01 218.448 130.839 218.438 130.656 218.438C130.234 218.438 129.857 218.526 129.523 218.703C129.19 218.88 128.927 219.122 128.734 219.43C128.547 219.737 128.453 220.089 128.453 220.484V226H127.125ZM135.344 226.188C134.615 226.188 133.971 226.003 133.414 225.633C132.857 225.263 132.422 224.74 132.109 224.062C131.797 223.38 131.641 222.578 131.641 221.656C131.641 220.74 131.797 219.945 132.109 219.273C132.427 218.596 132.865 218.076 133.422 217.711C133.979 217.341 134.625 217.156 135.359 217.156C135.932 217.156 136.383 217.25 136.711 217.438C137.044 217.625 137.299 217.839 137.477 218.078C137.654 218.312 137.792 218.505 137.891 218.656H138V214.359H139.328V226H138.047V224.656H137.891C137.792 224.812 137.651 225.013 137.469 225.258C137.286 225.497 137.026 225.714 136.688 225.906C136.354 226.094 135.906 226.188 135.344 226.188ZM135.516 224.984C136.057 224.984 136.513 224.844 136.883 224.562C137.253 224.276 137.534 223.883 137.727 223.383C137.919 222.878 138.016 222.297 138.016 221.641C138.016 220.984 137.922 220.411 137.734 219.922C137.547 219.427 137.266 219.044 136.891 218.773C136.521 218.497 136.062 218.359 135.516 218.359C134.953 218.359 134.484 218.505 134.109 218.797C133.734 219.089 133.453 219.482 133.266 219.977C133.078 220.471 132.984 221.026 132.984 221.641C132.984 222.26 133.078 222.823 133.266 223.328C133.458 223.833 133.742 224.237 134.117 224.539C134.492 224.836 134.958 224.984 135.516 224.984ZM147.219 219.234L146.016 219.562C145.901 219.266 145.703 218.984 145.422 218.719C145.146 218.448 144.714 218.312 144.125 218.312C143.594 218.312 143.151 218.438 142.797 218.688C142.443 218.932 142.266 219.24 142.266 219.609C142.266 219.943 142.385 220.208 142.625 220.406C142.87 220.604 143.25 220.766 143.766 220.891L145.062 221.203C145.839 221.391 146.417 221.68 146.797 222.07C147.182 222.461 147.375 222.958 147.375 223.562C147.375 224.062 147.232 224.51 146.945 224.906C146.659 225.302 146.26 225.615 145.75 225.844C145.24 226.073 144.646 226.188 143.969 226.188C143.078 226.188 142.341 225.992 141.758 225.602C141.18 225.211 140.812 224.646 140.656 223.906L141.922 223.594C142.042 224.062 142.271 224.414 142.609 224.648C142.953 224.883 143.401 225 143.953 225C144.573 225 145.068 224.867 145.438 224.602C145.812 224.331 146 224.01 146 223.641C146 223.026 145.568 222.615 144.703 222.406L143.25 222.062C142.448 221.87 141.859 221.576 141.484 221.18C141.109 220.784 140.922 220.286 140.922 219.688C140.922 219.193 141.06 218.755 141.336 218.375C141.617 217.995 142 217.698 142.484 217.484C142.969 217.266 143.516 217.156 144.125 217.156C144.995 217.156 145.674 217.349 146.164 217.734C146.659 218.115 147.01 218.615 147.219 219.234ZM156.391 226.188C155.833 226.188 155.385 226.094 155.047 225.906C154.708 225.714 154.448 225.497 154.266 225.258C154.083 225.013 153.943 224.812 153.844 224.656H153.688V226H152.406V214.359H153.734V218.656H153.844C153.943 218.505 154.081 218.312 154.258 218.078C154.435 217.839 154.69 217.625 155.023 217.438C155.357 217.25 155.807 217.156 156.375 217.156C157.109 217.156 157.755 217.341 158.312 217.711C158.87 218.076 159.305 218.596 159.617 219.273C159.935 219.945 160.094 220.74 160.094 221.656C160.094 222.578 159.938 223.38 159.625 224.062C159.312 224.74 158.878 225.263 158.32 225.633C157.763 226.003 157.12 226.188 156.391 226.188ZM156.219 224.984C156.776 224.984 157.242 224.836 157.617 224.539C157.992 224.237 158.273 223.833 158.461 223.328C158.654 222.823 158.75 222.26 158.75 221.641C158.75 221.026 158.656 220.471 158.469 219.977C158.281 219.482 158 219.089 157.625 218.797C157.255 218.505 156.786 218.359 156.219 218.359C155.672 218.359 155.214 218.497 154.844 218.773C154.474 219.044 154.193 219.427 154 219.922C153.812 220.411 153.719 220.984 153.719 221.641C153.719 222.297 153.815 222.878 154.008 223.383C154.201 223.883 154.482 224.276 154.852 224.562C155.227 224.844 155.682 224.984 156.219 224.984ZM165.047 226.188C164.208 226.188 163.482 226 162.867 225.625C162.258 225.25 161.789 224.727 161.461 224.055C161.133 223.378 160.969 222.594 160.969 221.703C160.969 220.807 161.13 220.018 161.453 219.336C161.776 218.654 162.229 218.12 162.812 217.734C163.401 217.349 164.089 217.156 164.875 217.156C165.328 217.156 165.779 217.232 166.227 217.383C166.674 217.534 167.081 217.779 167.445 218.117C167.815 218.456 168.109 218.904 168.328 219.461C168.547 220.018 168.656 220.703 168.656 221.516V222.094H161.922V220.938H167.93L167.312 221.375C167.312 220.792 167.221 220.273 167.039 219.82C166.857 219.367 166.583 219.01 166.219 218.75C165.859 218.49 165.411 218.359 164.875 218.359C164.339 218.359 163.878 218.492 163.492 218.758C163.112 219.018 162.82 219.359 162.617 219.781C162.414 220.203 162.312 220.656 162.312 221.141V221.906C162.312 222.568 162.427 223.128 162.656 223.586C162.885 224.044 163.206 224.393 163.617 224.633C164.029 224.867 164.505 224.984 165.047 224.984C165.396 224.984 165.714 224.935 166 224.836C166.286 224.732 166.534 224.578 166.742 224.375C166.951 224.167 167.109 223.911 167.219 223.609L168.516 223.984C168.38 224.422 168.151 224.807 167.828 225.141C167.51 225.469 167.115 225.727 166.641 225.914C166.167 226.096 165.635 226.188 165.047 226.188ZM171.25 220.75V226H169.922V217.266H171.203V218.641H171.328C171.531 218.193 171.841 217.833 172.258 217.562C172.674 217.292 173.214 217.156 173.875 217.156C174.464 217.156 174.979 217.276 175.422 217.516C175.865 217.755 176.208 218.12 176.453 218.609C176.703 219.094 176.828 219.708 176.828 220.453V226H175.5V220.547C175.5 219.865 175.32 219.331 174.961 218.945C174.602 218.555 174.112 218.359 173.492 218.359C173.065 218.359 172.682 218.453 172.344 218.641C172.005 218.828 171.737 219.099 171.539 219.453C171.346 219.807 171.25 220.24 171.25 220.75ZM182.203 226.188C181.365 226.188 180.638 226 180.023 225.625C179.414 225.25 178.945 224.727 178.617 224.055C178.289 223.378 178.125 222.594 178.125 221.703C178.125 220.807 178.286 220.018 178.609 219.336C178.932 218.654 179.385 218.12 179.969 217.734C180.557 217.349 181.245 217.156 182.031 217.156C182.484 217.156 182.935 217.232 183.383 217.383C183.831 217.534 184.237 217.779 184.602 218.117C184.971 218.456 185.266 218.904 185.484 219.461C185.703 220.018 185.812 220.703 185.812 221.516V222.094H179.078V220.938H185.086L184.469 221.375C184.469 220.792 184.378 220.273 184.195 219.82C184.013 219.367 183.74 219.01 183.375 218.75C183.016 218.49 182.568 218.359 182.031 218.359C181.495 218.359 181.034 218.492 180.648 218.758C180.268 219.018 179.977 219.359 179.773 219.781C179.57 220.203 179.469 220.656 179.469 221.141V221.906C179.469 222.568 179.583 223.128 179.812 223.586C180.042 224.044 180.362 224.393 180.773 224.633C181.185 224.867 181.661 224.984 182.203 224.984C182.552 224.984 182.87 224.935 183.156 224.836C183.443 224.732 183.69 224.578 183.898 224.375C184.107 224.167 184.266 223.911 184.375 223.609L185.672 223.984C185.536 224.422 185.307 224.807 184.984 225.141C184.667 225.469 184.271 225.727 183.797 225.914C183.323 226.096 182.792 226.188 182.203 226.188ZM190.953 217.266V218.406H186.25V217.266H190.953ZM187.656 226V216.062C187.656 215.562 187.773 215.146 188.008 214.812C188.247 214.479 188.555 214.229 188.93 214.062C189.305 213.896 189.698 213.812 190.109 213.812C190.443 213.812 190.714 213.841 190.922 213.898C191.135 213.951 191.292 214 191.391 214.047L191 215.203C190.932 215.177 190.839 215.148 190.719 215.117C190.604 215.081 190.448 215.062 190.25 215.062C189.807 215.062 189.484 215.177 189.281 215.406C189.083 215.63 188.984 215.958 188.984 216.391V226H187.656ZM192.094 226V217.266H193.422V226H192.094ZM192.766 215.812C192.505 215.812 192.281 215.724 192.094 215.547C191.906 215.37 191.812 215.156 191.812 214.906C191.812 214.656 191.906 214.443 192.094 214.266C192.281 214.089 192.505 214 192.766 214C193.026 214 193.25 214.089 193.438 214.266C193.625 214.443 193.719 214.656 193.719 214.906C193.719 215.156 193.625 215.37 193.438 215.547C193.25 215.724 193.026 215.812 192.766 215.812ZM198.922 217.266V218.406H194.406V217.266H198.922ZM195.719 215.188H197.047V223.5C197.047 223.953 197.141 224.286 197.328 224.5C197.516 224.708 197.812 224.812 198.219 224.812C198.307 224.812 198.398 224.807 198.492 224.797C198.591 224.786 198.698 224.771 198.812 224.75L199.094 225.953C198.969 226 198.815 226.036 198.633 226.062C198.456 226.094 198.276 226.109 198.094 226.109C197.391 226.109 196.818 225.901 196.375 225.484C195.938 225.068 195.719 224.526 195.719 223.859V215.188ZM206.219 219.234L205.016 219.562C204.901 219.266 204.703 218.984 204.422 218.719C204.146 218.448 203.714 218.312 203.125 218.312C202.594 218.312 202.151 218.438 201.797 218.688C201.443 218.932 201.266 219.24 201.266 219.609C201.266 219.943 201.385 220.208 201.625 220.406C201.87 220.604 202.25 220.766 202.766 220.891L204.062 221.203C204.839 221.391 205.417 221.68 205.797 222.07C206.182 222.461 206.375 222.958 206.375 223.562C206.375 224.062 206.232 224.51 205.945 224.906C205.659 225.302 205.26 225.615 204.75 225.844C204.24 226.073 203.646 226.188 202.969 226.188C202.078 226.188 201.341 225.992 200.758 225.602C200.18 225.211 199.812 224.646 199.656 223.906L200.922 223.594C201.042 224.062 201.271 224.414 201.609 224.648C201.953 224.883 202.401 225 202.953 225C203.573 225 204.068 224.867 204.438 224.602C204.812 224.331 205 224.01 205 223.641C205 223.026 204.568 222.615 203.703 222.406L202.25 222.062C201.448 221.87 200.859 221.576 200.484 221.18C200.109 220.784 199.922 220.286 199.922 219.688C199.922 219.193 200.06 218.755 200.336 218.375C200.617 217.995 201 217.698 201.484 217.484C201.969 217.266 202.516 217.156 203.125 217.156C203.995 217.156 204.674 217.349 205.164 217.734C205.659 218.115 206.01 218.615 206.219 219.234ZM207.422 228.766L208.109 224.375H209.656L208.453 228.766H207.422ZM22.8281 250L20.1719 241.266H21.5781L23.4688 247.953H23.5625L25.4219 241.266H26.8594L28.6875 247.938H28.7812L30.6719 241.266H32.0781L29.4219 250H28.1094L26.1875 243.297H26.0625L24.1406 250H22.8281ZM33.1094 250V241.266H34.4375V250H33.1094ZM33.7812 239.812C33.5208 239.812 33.2969 239.724 33.1094 239.547C32.9219 239.37 32.8281 239.156 32.8281 238.906C32.8281 238.656 32.9219 238.443 33.1094 238.266C33.2969 238.089 33.5208 238 33.7812 238C34.0417 238 34.2656 238.089 34.4531 238.266C34.6406 238.443 34.7344 238.656 34.7344 238.906C34.7344 239.156 34.6406 239.37 34.4531 239.547C34.2656 239.724 34.0417 239.812 33.7812 239.812ZM39.9375 241.266V242.406H35.4219V241.266H39.9375ZM36.7344 239.188H38.0625V247.5C38.0625 247.953 38.1562 248.286 38.3438 248.5C38.5312 248.708 38.8281 248.812 39.2344 248.812C39.3229 248.812 39.4141 248.807 39.5078 248.797C39.6068 248.786 39.7135 248.771 39.8281 248.75L40.1094 249.953C39.9844 250 39.8307 250.036 39.6484 250.062C39.4714 250.094 39.2917 250.109 39.1094 250.109C38.4062 250.109 37.8333 249.901 37.3906 249.484C36.9531 249.068 36.7344 248.526 36.7344 247.859V239.188ZM42.7344 244.75V250H41.4062V238.359H42.7344V242.641H42.8594C43.0625 242.188 43.3672 241.828 43.7734 241.562C44.1849 241.292 44.7344 241.156 45.4219 241.156C46.0156 241.156 46.5365 241.276 46.9844 241.516C47.4323 241.75 47.7812 242.112 48.0312 242.602C48.2812 243.086 48.4062 243.703 48.4062 244.453V250H47.0625V244.547C47.0625 243.849 46.8828 243.31 46.5234 242.93C46.1641 242.549 45.6667 242.359 45.0312 242.359C44.5885 242.359 44.1953 242.453 43.8516 242.641C43.5078 242.828 43.2344 243.099 43.0312 243.453C42.8333 243.807 42.7344 244.24 42.7344 244.75ZM57.4062 250.188C56.6198 250.188 55.9297 250 55.3359 249.625C54.7422 249.25 54.2786 248.724 53.9453 248.047C53.6172 247.37 53.4531 246.583 53.4531 245.688C53.4531 244.776 53.6172 243.982 53.9453 243.305C54.2786 242.622 54.7422 242.094 55.3359 241.719C55.9297 241.344 56.6198 241.156 57.4062 241.156C58.1979 241.156 58.8906 241.344 59.4844 241.719C60.0781 242.094 60.5417 242.622 60.875 243.305C61.2083 243.982 61.375 244.776 61.375 245.688C61.375 246.583 61.2083 247.37 60.875 248.047C60.5417 248.724 60.0781 249.25 59.4844 249.625C58.8906 250 58.1979 250.188 57.4062 250.188ZM57.4062 248.984C58.0104 248.984 58.5052 248.831 58.8906 248.523C59.276 248.216 59.5625 247.812 59.75 247.312C59.9375 246.807 60.0312 246.266 60.0312 245.688C60.0312 245.099 59.9375 244.552 59.75 244.047C59.5625 243.542 59.276 243.135 58.8906 242.828C58.5052 242.516 58.0104 242.359 57.4062 242.359C56.8125 242.359 56.3229 242.516 55.9375 242.828C55.5521 243.135 55.2656 243.542 55.0781 244.047C54.8906 244.552 54.7969 245.099 54.7969 245.688C54.7969 246.266 54.8906 246.807 55.0781 247.312C55.2656 247.812 55.5521 248.216 55.9375 248.523C56.3229 248.831 56.8125 248.984 57.4062 248.984ZM64 244.75V250H62.6719V241.266H63.9531V242.641H64.0781C64.2812 242.193 64.5911 241.833 65.0078 241.562C65.4245 241.292 65.9635 241.156 66.625 241.156C67.2135 241.156 67.7292 241.276 68.1719 241.516C68.6146 241.755 68.9583 242.12 69.2031 242.609C69.4531 243.094 69.5781 243.708 69.5781 244.453V250H68.25V244.547C68.25 243.865 68.0703 243.331 67.7109 242.945C67.3516 242.555 66.862 242.359 66.2422 242.359C65.8151 242.359 65.4323 242.453 65.0938 242.641C64.7552 242.828 64.487 243.099 64.2891 243.453C64.0964 243.807 64 244.24 64 244.75ZM74.9531 250.188C74.1146 250.188 73.388 250 72.7734 249.625C72.1641 249.25 71.6953 248.727 71.3672 248.055C71.0391 247.378 70.875 246.594 70.875 245.703C70.875 244.807 71.0365 244.018 71.3594 243.336C71.6823 242.654 72.1354 242.12 72.7188 241.734C73.3073 241.349 73.9948 241.156 74.7812 241.156C75.2344 241.156 75.6849 241.232 76.1328 241.383C76.5807 241.534 76.987 241.779 77.3516 242.117C77.7214 242.456 78.0156 242.904 78.2344 243.461C78.4531 244.018 78.5625 244.703 78.5625 245.516V246.094H71.8281V244.938H77.8359L77.2188 245.375C77.2188 244.792 77.1276 244.273 76.9453 243.82C76.763 243.367 76.4896 243.01 76.125 242.75C75.7656 242.49 75.3177 242.359 74.7812 242.359C74.2448 242.359 73.7839 242.492 73.3984 242.758C73.0182 243.018 72.7266 243.359 72.5234 243.781C72.3203 244.203 72.2188 244.656 72.2188 245.141V245.906C72.2188 246.568 72.3333 247.128 72.5625 247.586C72.7917 248.044 73.112 248.393 73.5234 248.633C73.9349 248.867 74.4115 248.984 74.9531 248.984C75.3021 248.984 75.6198 248.935 75.9062 248.836C76.1927 248.732 76.4401 248.578 76.6484 248.375C76.8568 248.167 77.0156 247.911 77.125 247.609L78.4219 247.984C78.2865 248.422 78.0573 248.807 77.7344 249.141C77.4167 249.469 77.0208 249.727 76.5469 249.914C76.0729 250.096 75.5417 250.188 74.9531 250.188ZM87.3594 241.266V242.406H82.8438V241.266H87.3594ZM84.1562 239.188H85.4844V247.5C85.4844 247.953 85.5781 248.286 85.7656 248.5C85.9531 248.708 86.25 248.812 86.6562 248.812C86.7448 248.812 86.8359 248.807 86.9297 248.797C87.0286 248.786 87.1354 248.771 87.25 248.75L87.5312 249.953C87.4062 250 87.2526 250.036 87.0703 250.062C86.8932 250.094 86.7135 250.109 86.5312 250.109C85.8281 250.109 85.2552 249.901 84.8125 249.484C84.375 249.068 84.1562 248.526 84.1562 247.859V239.188ZM91.2031 250.203C90.651 250.203 90.1484 250.099 89.6953 249.891C89.2422 249.677 88.8828 249.37 88.6172 248.969C88.3516 248.568 88.2188 248.083 88.2188 247.516C88.2188 247.016 88.3177 246.612 88.5156 246.305C88.7135 245.992 88.9766 245.747 89.3047 245.57C89.638 245.388 90.0026 245.253 90.3984 245.164C90.7995 245.076 91.2031 245.005 91.6094 244.953C92.1406 244.885 92.5703 244.833 92.8984 244.797C93.2318 244.76 93.474 244.698 93.625 244.609C93.7812 244.521 93.8594 244.37 93.8594 244.156V244.109C93.8594 243.552 93.7057 243.12 93.3984 242.812C93.0964 242.5 92.6354 242.344 92.0156 242.344C91.3802 242.344 90.8802 242.484 90.5156 242.766C90.151 243.042 89.8958 243.339 89.75 243.656L88.4688 243.203C88.6979 242.672 89.0026 242.258 89.3828 241.961C89.7682 241.664 90.1849 241.456 90.6328 241.336C91.0859 241.216 91.5312 241.156 91.9688 241.156C92.25 241.156 92.5729 241.19 92.9375 241.258C93.3021 241.32 93.6562 241.456 94 241.664C94.349 241.867 94.6354 242.177 94.8594 242.594C95.0885 243.005 95.2031 243.557 95.2031 244.25V250H93.8594V248.812H93.7969C93.7083 249 93.5573 249.203 93.3438 249.422C93.1302 249.635 92.8464 249.82 92.4922 249.977C92.1432 250.128 91.7135 250.203 91.2031 250.203ZM91.4062 249C91.9375 249 92.3854 248.896 92.75 248.688C93.1146 248.479 93.3906 248.211 93.5781 247.883C93.7656 247.549 93.8594 247.203 93.8594 246.844V245.609C93.8021 245.677 93.6771 245.74 93.4844 245.797C93.2969 245.849 93.0781 245.896 92.8281 245.938C92.5833 245.979 92.3438 246.016 92.1094 246.047C91.875 246.073 91.6875 246.094 91.5469 246.109C91.1979 246.156 90.8724 246.232 90.5703 246.336C90.2682 246.435 90.0234 246.583 89.8359 246.781C89.6536 246.979 89.5625 247.25 89.5625 247.594C89.5625 248.057 89.7344 248.409 90.0781 248.648C90.4271 248.883 90.8698 249 91.4062 249ZM96.9219 253.266V241.266H98.2031V242.656H98.3594C98.4583 242.505 98.5964 242.312 98.7734 242.078C98.9505 241.839 99.2057 241.625 99.5391 241.438C99.8724 241.25 100.323 241.156 100.891 241.156C101.625 241.156 102.271 241.341 102.828 241.711C103.385 242.076 103.82 242.596 104.133 243.273C104.451 243.945 104.609 244.74 104.609 245.656C104.609 246.578 104.453 247.38 104.141 248.062C103.828 248.74 103.393 249.263 102.836 249.633C102.279 250.003 101.635 250.188 100.906 250.188C100.349 250.188 99.901 250.094 99.5625 249.906C99.224 249.714 98.9635 249.497 98.7812 249.258C98.599 249.013 98.4583 248.812 98.3594 248.656H98.25V253.266H96.9219ZM100.734 248.984C101.292 248.984 101.758 248.836 102.133 248.539C102.508 248.237 102.789 247.833 102.977 247.328C103.169 246.823 103.266 246.26 103.266 245.641C103.266 245.026 103.172 244.471 102.984 243.977C102.797 243.482 102.516 243.089 102.141 242.797C101.771 242.505 101.302 242.359 100.734 242.359C100.188 242.359 99.7292 242.497 99.3594 242.773C98.9896 243.044 98.7083 243.427 98.5156 243.922C98.3281 244.411 98.2344 244.984 98.2344 245.641C98.2344 246.297 98.3307 246.878 98.5234 247.383C98.7161 247.883 98.9974 248.276 99.3672 248.562C99.7422 248.844 100.198 248.984 100.734 248.984ZM106.945 250.094C106.664 250.094 106.422 249.995 106.219 249.797C106.021 249.594 105.922 249.352 105.922 249.07C105.922 248.789 106.021 248.549 106.219 248.352C106.422 248.148 106.664 248.047 106.945 248.047C107.227 248.047 107.466 248.148 107.664 248.352C107.867 248.549 107.969 248.789 107.969 249.07C107.969 249.352 107.867 249.594 107.664 249.797C107.466 249.995 107.227 250.094 106.945 250.094Z" fill="#FCFCFC" fill-opacity="0.4"/>
<rect x="20" y="283" width="133" height="40" rx="20" fill="#FCFCFC" fill-opacity="0.1"/>
<path d="M40.8203 308V297.814H44.457C45.2454 297.814 45.8994 297.96 46.4189 298.252C46.9385 298.539 47.3281 298.933 47.5879 299.435C47.8477 299.931 47.9775 300.492 47.9775 301.116C47.9775 301.741 47.8477 302.303 47.5879 302.805C47.3281 303.301 46.9362 303.696 46.4121 303.987C45.8926 304.274 45.2363 304.418 44.4434 304.418H41.9551V303.119H44.2998C44.8057 303.119 45.2135 303.033 45.5234 302.859C45.8379 302.686 46.0658 302.449 46.207 302.148C46.3529 301.843 46.4258 301.499 46.4258 301.116C46.4258 300.729 46.3529 300.387 46.207 300.091C46.0658 299.79 45.8379 299.555 45.5234 299.387C45.209 299.218 44.7988 299.134 44.293 299.134H42.3584V308H40.8203ZM51.2109 308.164C50.7279 308.164 50.2904 308.075 49.8984 307.897C49.5065 307.715 49.1966 307.451 48.9688 307.104C48.7409 306.758 48.627 306.337 48.627 305.84C48.627 305.407 48.709 305.054 48.873 304.78C49.0417 304.502 49.2673 304.281 49.5498 304.117C49.8324 303.953 50.1468 303.83 50.4932 303.748C50.8395 303.666 51.195 303.602 51.5596 303.557C52.0199 303.507 52.3913 303.463 52.6738 303.427C52.9564 303.39 53.1615 303.333 53.2891 303.256C53.4212 303.174 53.4873 303.044 53.4873 302.866V302.832C53.4873 302.399 53.3643 302.064 53.1182 301.827C52.8766 301.59 52.5166 301.472 52.0381 301.472C51.5413 301.472 51.1471 301.581 50.8555 301.8C50.5684 302.014 50.3701 302.258 50.2607 302.531L48.8594 302.21C49.028 301.745 49.2718 301.371 49.5908 301.089C49.9144 300.802 50.2835 300.592 50.6982 300.46C51.1175 300.328 51.555 300.262 52.0107 300.262C52.3161 300.262 52.6396 300.298 52.9814 300.371C53.3232 300.439 53.6445 300.569 53.9453 300.761C54.2507 300.948 54.499 301.216 54.6904 301.567C54.8818 301.918 54.9775 302.372 54.9775 302.928V308H53.5215V306.954H53.4668C53.3757 307.141 53.2321 307.328 53.0361 307.515C52.8447 307.701 52.5986 307.856 52.2979 307.979C51.9971 308.103 51.6348 308.164 51.2109 308.164ZM51.5322 306.975C51.9469 306.975 52.3001 306.895 52.5918 306.735C52.8835 306.571 53.1068 306.357 53.2617 306.093C53.4167 305.828 53.4941 305.548 53.4941 305.252V304.261C53.4395 304.311 53.3369 304.359 53.1865 304.404C53.0361 304.45 52.8652 304.489 52.6738 304.521C52.4824 304.552 52.2956 304.582 52.1133 304.609C51.931 304.632 51.7783 304.65 51.6553 304.664C51.3682 304.705 51.1061 304.769 50.8691 304.855C50.6322 304.938 50.4408 305.061 50.2949 305.225C50.1536 305.384 50.083 305.596 50.083 305.86C50.083 306.229 50.2197 306.507 50.4932 306.694C50.7666 306.881 51.113 306.975 51.5322 306.975ZM57.0625 310.857C56.8392 310.862 56.6364 310.846 56.4541 310.81C56.2764 310.778 56.1396 310.739 56.0439 310.693L56.4062 309.483L56.5088 309.511C56.887 309.606 57.2061 309.6 57.4658 309.49C57.7301 309.385 57.9512 309.091 58.1289 308.608L58.3135 308.103L55.5244 300.357H57.1172L59.0449 306.291H59.127L61.0615 300.357H62.6543L59.5098 309.012C59.3639 309.413 59.1794 309.75 58.9561 310.023C58.7327 310.301 58.4639 310.509 58.1494 310.646C57.8395 310.787 57.4772 310.857 57.0625 310.857ZM70.3584 308.15C69.8981 308.15 69.5199 308.073 69.2236 307.918C68.932 307.758 68.7018 307.574 68.5332 307.364C68.3691 307.155 68.2415 306.97 68.1504 306.811H68.0273V308H66.5918V297.814H68.0684V301.602H68.1504C68.2415 301.442 68.3669 301.257 68.5264 301.048C68.6904 300.838 68.9183 300.656 69.21 300.501C69.5016 300.341 69.8822 300.262 70.3516 300.262C70.9668 300.262 71.5137 300.417 71.9922 300.727C72.4753 301.036 72.8558 301.485 73.1338 302.073C73.4118 302.661 73.5508 303.37 73.5508 304.199C73.5508 305.02 73.4141 305.726 73.1406 306.318C72.8672 306.906 72.4889 307.36 72.0059 307.679C71.5273 307.993 70.9782 308.15 70.3584 308.15ZM70.0371 306.886C70.4792 306.886 70.8483 306.767 71.1445 306.53C71.4408 306.293 71.6641 305.972 71.8145 305.566C71.9694 305.156 72.0469 304.696 72.0469 304.186C72.0469 303.68 71.9717 303.226 71.8213 302.825C71.6709 302.424 71.4476 302.107 71.1514 301.875C70.8551 301.643 70.4837 301.526 70.0371 301.526C69.6042 301.526 69.2396 301.638 68.9434 301.861C68.6471 302.08 68.4215 302.39 68.2666 302.791C68.1162 303.188 68.041 303.652 68.041 304.186C68.041 304.719 68.1185 305.188 68.2734 305.594C68.4284 305.999 68.654 306.316 68.9502 306.544C69.251 306.772 69.6133 306.886 70.0371 306.886ZM75.3008 310.857C75.0775 310.862 74.8747 310.846 74.6924 310.81C74.5146 310.778 74.3779 310.739 74.2822 310.693L74.6445 309.483L74.7471 309.511C75.1253 309.606 75.4443 309.6 75.7041 309.49C75.9684 309.385 76.1895 309.091 76.3672 308.608L76.5518 308.103L73.7627 300.357H75.3555L77.2832 306.291H77.3652L79.2998 300.357H80.8926L77.748 309.012C77.6022 309.413 77.4176 309.75 77.1943 310.023C76.971 310.301 76.7021 310.509 76.3877 310.646C76.0778 310.787 75.7155 310.857 75.3008 310.857ZM88.3848 300.357V301.554H84.2148V300.357H88.3848ZM85.3291 298.539H86.8125V305.758C86.8125 306.109 86.8854 306.366 87.0312 306.53C87.1771 306.69 87.4118 306.77 87.7354 306.77C87.8128 306.77 87.8949 306.765 87.9814 306.756C88.0726 306.747 88.1637 306.733 88.2549 306.715L88.5352 307.945C88.3848 307.995 88.2207 308.034 88.043 308.062C87.8652 308.089 87.6875 308.103 87.5098 308.103C86.849 308.103 86.3203 307.918 85.9238 307.549C85.5273 307.175 85.3291 306.678 85.3291 306.059V298.539ZM89.4512 308V300.357H90.8799V301.581H90.9619C91.1032 301.171 91.3493 300.847 91.7002 300.61C92.0557 300.369 92.4567 300.248 92.9033 300.248C92.9945 300.248 93.1016 300.253 93.2246 300.262C93.3522 300.266 93.4548 300.273 93.5322 300.282V301.704C93.473 301.686 93.3659 301.668 93.2109 301.649C93.0605 301.631 92.9079 301.622 92.7529 301.622C92.402 301.622 92.0876 301.697 91.8096 301.848C91.5361 301.993 91.3197 302.196 91.1602 302.456C91.0052 302.711 90.9277 303.007 90.9277 303.345V308H89.4512ZM96.3965 308.164C95.9134 308.164 95.4759 308.075 95.084 307.897C94.6921 307.715 94.3822 307.451 94.1543 307.104C93.9264 306.758 93.8125 306.337 93.8125 305.84C93.8125 305.407 93.8945 305.054 94.0586 304.78C94.2272 304.502 94.4528 304.281 94.7354 304.117C95.0179 303.953 95.3324 303.83 95.6787 303.748C96.0251 303.666 96.3805 303.602 96.7451 303.557C97.2054 303.507 97.5768 303.463 97.8594 303.427C98.1419 303.39 98.347 303.333 98.4746 303.256C98.6068 303.174 98.6729 303.044 98.6729 302.866V302.832C98.6729 302.399 98.5498 302.064 98.3037 301.827C98.0622 301.59 97.7021 301.472 97.2236 301.472C96.7269 301.472 96.3327 301.581 96.041 301.8C95.7539 302.014 95.5557 302.258 95.4463 302.531L94.0449 302.21C94.2135 301.745 94.4574 301.371 94.7764 301.089C95.0999 300.802 95.4691 300.592 95.8838 300.46C96.3031 300.328 96.7406 300.262 97.1963 300.262C97.5016 300.262 97.8252 300.298 98.167 300.371C98.5088 300.439 98.8301 300.569 99.1309 300.761C99.4362 300.948 99.6846 301.216 99.876 301.567C100.067 301.918 100.163 302.372 100.163 302.928V308H98.707V306.954H98.6523C98.5612 307.141 98.4176 307.328 98.2217 307.515C98.0303 307.701 97.7842 307.856 97.4834 307.979C97.1826 308.103 96.8203 308.164 96.3965 308.164ZM96.7178 306.975C97.1325 306.975 97.4857 306.895 97.7773 306.735C98.069 306.571 98.2923 306.357 98.4473 306.093C98.6022 305.828 98.6797 305.548 98.6797 305.252V304.261C98.625 304.311 98.5225 304.359 98.3721 304.404C98.2217 304.45 98.0508 304.489 97.8594 304.521C97.668 304.552 97.4811 304.582 97.2988 304.609C97.1165 304.632 96.9639 304.65 96.8408 304.664C96.5537 304.705 96.2917 304.769 96.0547 304.855C95.8177 304.938 95.6263 305.061 95.4805 305.225C95.3392 305.384 95.2686 305.596 95.2686 305.86C95.2686 306.229 95.4053 306.507 95.6787 306.694C95.9521 306.881 96.2985 306.975 96.7178 306.975ZM103.068 303.468V308H101.592V300.357H103.027V301.615H103.13C103.303 301.201 103.574 300.872 103.943 300.631C104.312 300.385 104.786 300.262 105.365 300.262C105.885 300.262 106.338 300.371 106.726 300.59C107.118 300.804 107.421 301.125 107.635 301.554C107.854 301.982 107.963 302.513 107.963 303.146V308H106.486V303.324C106.486 302.773 106.34 302.34 106.049 302.025C105.757 301.706 105.361 301.547 104.859 301.547C104.518 301.547 104.21 301.624 103.937 301.779C103.668 301.93 103.456 302.146 103.301 302.429C103.146 302.711 103.068 303.058 103.068 303.468ZM115.1 302.23L113.753 302.463C113.666 302.208 113.505 301.973 113.268 301.759C113.035 301.545 112.687 301.438 112.222 301.438C111.802 301.438 111.451 301.533 111.169 301.725C110.891 301.911 110.752 302.151 110.752 302.442C110.752 302.698 110.845 302.905 111.032 303.064C111.224 303.224 111.527 303.352 111.941 303.447L113.165 303.721C113.862 303.88 114.384 304.131 114.73 304.473C115.077 304.814 115.25 305.252 115.25 305.785C115.25 306.245 115.118 306.656 114.854 307.016C114.589 307.371 114.222 307.651 113.753 307.856C113.284 308.057 112.741 308.157 112.126 308.157C111.269 308.157 110.572 307.973 110.034 307.604C109.496 307.234 109.166 306.715 109.043 306.045L110.472 305.826C110.563 306.2 110.747 306.482 111.025 306.674C111.308 306.865 111.673 306.961 112.119 306.961C112.602 306.961 112.99 306.858 113.281 306.653C113.577 306.448 113.726 306.2 113.726 305.908C113.726 305.425 113.366 305.099 112.646 304.931L111.354 304.644C110.638 304.479 110.109 304.222 109.768 303.871C109.43 303.516 109.262 303.069 109.262 302.531C109.262 302.08 109.387 301.684 109.638 301.342C109.893 301 110.242 300.736 110.684 300.549C111.13 300.357 111.638 300.262 112.208 300.262C113.037 300.262 113.687 300.442 114.156 300.802C114.63 301.162 114.945 301.638 115.1 302.23ZM119.926 300.357V301.554H115.612V300.357H119.926ZM116.788 308V299.469C116.788 298.995 116.893 298.601 117.103 298.286C117.317 297.967 117.595 297.73 117.937 297.575C118.283 297.416 118.654 297.336 119.051 297.336C119.356 297.336 119.616 297.361 119.83 297.411C120.044 297.461 120.201 297.505 120.302 297.541L119.946 298.744C119.878 298.721 119.789 298.696 119.68 298.669C119.575 298.642 119.443 298.628 119.283 298.628C118.923 298.628 118.663 298.719 118.504 298.901C118.344 299.079 118.265 299.339 118.265 299.681V308H116.788ZM123.856 308.157C123.109 308.157 122.462 307.995 121.915 307.672C121.368 307.348 120.947 306.893 120.65 306.305C120.359 305.712 120.213 305.022 120.213 304.233C120.213 303.45 120.356 302.759 120.644 302.162C120.935 301.565 121.343 301.1 121.867 300.768C122.396 300.43 123.016 300.262 123.727 300.262C124.16 300.262 124.579 300.332 124.984 300.474C125.39 300.615 125.755 300.838 126.078 301.144C126.402 301.449 126.657 301.845 126.844 302.333C127.035 302.821 127.131 303.409 127.131 304.097V304.63H121.054V303.516H126.365L125.675 303.885C125.675 303.415 125.602 303.001 125.456 302.641C125.31 302.281 125.091 302 124.8 301.8C124.513 301.595 124.155 301.492 123.727 301.492C123.298 301.492 122.931 301.595 122.626 301.8C122.325 302.005 122.095 302.276 121.936 302.613C121.776 302.951 121.696 303.32 121.696 303.721V304.479C121.696 305.004 121.787 305.448 121.97 305.812C122.152 306.177 122.405 306.455 122.729 306.646C123.057 306.838 123.437 306.934 123.87 306.934C124.153 306.934 124.408 306.893 124.636 306.811C124.868 306.729 125.069 306.605 125.237 306.441C125.406 306.277 125.534 306.075 125.62 305.833L127.028 306.1C126.914 306.51 126.714 306.87 126.427 307.18C126.14 307.49 125.777 307.731 125.34 307.904C124.907 308.073 124.412 308.157 123.856 308.157ZM128.17 308V300.357H129.599V301.581H129.681C129.822 301.171 130.068 300.847 130.419 300.61C130.774 300.369 131.175 300.248 131.622 300.248C131.713 300.248 131.82 300.253 131.943 300.262C132.071 300.266 132.174 300.273 132.251 300.282V301.704C132.192 301.686 132.085 301.668 131.93 301.649C131.779 301.631 131.627 301.622 131.472 301.622C131.121 301.622 130.806 301.697 130.528 301.848C130.255 301.993 130.038 302.196 129.879 302.456C129.724 302.711 129.646 303.007 129.646 303.345V308H128.17Z" fill="#FCFCFC"/>
<defs>
<clipPath id="clip0_2264_32065">
<rect width="91" height="91" fill="white" transform="translate(20 29)"/>
</clipPath>
</defs>
</svg>
