<svg width="360" height="166" viewBox="0 0 360 166" fill="none" xmlns="http://www.w3.org/2000/svg">
<rect width="360" height="166" fill="#F4EFE7"/>
<path d="M23.0469 27.4492V42H21.2891V27.4492H23.0469ZM27.0703 35.4375V42H25.4102V31.082H27.0117V32.8008H27.168C27.4219 32.2409 27.8092 31.7917 28.3301 31.4531C28.8509 31.1146 29.5247 30.9453 30.3516 30.9453C31.0872 30.9453 31.7318 31.0951 32.2852 31.3945C32.8385 31.694 33.2682 32.1497 33.5742 32.7617C33.8867 33.3672 34.043 34.1354 34.043 35.0664V42H32.3828V35.1836C32.3828 34.3307 32.1582 33.6634 31.709 33.1816C31.2598 32.6934 30.6478 32.4492 29.873 32.4492C29.3392 32.4492 28.8607 32.5664 28.4375 32.8008C28.0143 33.0352 27.679 33.3737 27.4316 33.8164C27.1908 34.2591 27.0703 34.7995 27.0703 35.4375ZM44.707 31.082L40.6836 42H38.9648L34.9414 31.082H36.7578L39.7656 39.793H39.8828L42.8906 31.082H44.707ZM50.1758 42.2344C49.1276 42.2344 48.2194 42 47.4512 41.5312C46.6895 41.0625 46.1035 40.4082 45.6934 39.5684C45.2832 38.722 45.0781 37.7422 45.0781 36.6289C45.0781 35.5091 45.2799 34.5228 45.6836 33.6699C46.0872 32.8171 46.6536 32.1497 47.3828 31.668C48.1185 31.1862 48.9779 30.9453 49.9609 30.9453C50.5273 30.9453 51.0905 31.0397 51.6504 31.2285C52.2103 31.4173 52.7181 31.7233 53.1738 32.1465C53.6361 32.5697 54.0039 33.1296 54.2773 33.8262C54.5508 34.5228 54.6875 35.3789 54.6875 36.3945V37.1172H46.2695V35.6719H53.7793L53.0078 36.2188C53.0078 35.4896 52.8939 34.8418 52.666 34.2754C52.4382 33.709 52.0964 33.263 51.6406 32.9375C51.1914 32.612 50.6315 32.4492 49.9609 32.4492C49.2904 32.4492 48.7142 32.6152 48.2324 32.9473C47.7572 33.2728 47.3926 33.6992 47.1387 34.2266C46.8848 34.7539 46.7578 35.3203 46.7578 35.9258V36.8828C46.7578 37.7096 46.901 38.4095 47.1875 38.9824C47.474 39.5553 47.8743 39.9915 48.3887 40.291C48.903 40.584 49.4987 40.7305 50.1758 40.7305C50.612 40.7305 51.0091 40.6686 51.3672 40.5449C51.7253 40.4147 52.0345 40.2227 52.2949 39.9688C52.5553 39.7083 52.7539 39.3893 52.8906 39.0117L54.5117 39.4805C54.3424 40.0273 54.056 40.5091 53.6523 40.9258C53.2552 41.3359 52.7604 41.6582 52.168 41.8926C51.5755 42.1204 50.9115 42.2344 50.1758 42.2344ZM63.9844 33.543L62.4805 33.9531C62.3372 33.582 62.0898 33.2305 61.7383 32.8984C61.3932 32.5599 60.8529 32.3906 60.1172 32.3906C59.4531 32.3906 58.8997 32.5469 58.457 32.8594C58.0143 33.1654 57.793 33.5495 57.793 34.0117C57.793 34.4284 57.9427 34.7604 58.2422 35.0078C58.5482 35.2552 59.0234 35.457 59.668 35.6133L61.2891 36.0039C62.2591 36.2383 62.9818 36.5996 63.457 37.0879C63.9388 37.5762 64.1797 38.1979 64.1797 38.9531C64.1797 39.5781 64.0007 40.138 63.6426 40.6328C63.2845 41.1276 62.7865 41.5182 62.1484 41.8047C61.5104 42.0911 60.7682 42.2344 59.9219 42.2344C58.8086 42.2344 57.8874 41.9902 57.1582 41.502C56.4355 41.0137 55.9766 40.3073 55.7812 39.3828L57.3633 38.9922C57.513 39.5781 57.7995 40.0176 58.2227 40.3105C58.6523 40.6035 59.2122 40.75 59.9023 40.75C60.6771 40.75 61.2956 40.584 61.7578 40.252C62.2266 39.9134 62.4609 39.513 62.4609 39.0508C62.4609 38.2826 61.9206 37.7682 60.8398 37.5078L59.0234 37.0781C58.0208 36.8372 57.2852 36.4694 56.8164 35.9746C56.3477 35.4798 56.1133 34.8581 56.1133 34.1094C56.1133 33.4909 56.2858 32.944 56.6309 32.4688C56.9824 31.9935 57.4609 31.6224 58.0664 31.3555C58.6719 31.082 59.3555 30.9453 60.1172 30.9453C61.2044 30.9453 62.054 31.1862 62.666 31.668C63.2845 32.1432 63.724 32.7682 63.9844 33.543ZM70.5078 31.082V32.5078H64.8633V31.082H70.5078ZM66.5039 28.4844H68.1641V38.875C68.1641 39.4414 68.2812 39.8581 68.5156 40.125C68.75 40.3854 69.1211 40.5156 69.6289 40.5156C69.7396 40.5156 69.8535 40.5091 69.9707 40.4961C70.0944 40.4831 70.2279 40.4635 70.3711 40.4375L70.7227 41.9414C70.5664 42 70.3743 42.0456 70.1465 42.0781C69.9251 42.1172 69.7005 42.1367 69.4727 42.1367C68.5938 42.1367 67.8776 41.8763 67.3242 41.3555C66.7773 40.8346 66.5039 40.1576 66.5039 39.3242V28.4844ZM72.1094 42V31.082H73.7109V32.8008H73.8672C74.0951 32.2148 74.4629 31.7591 74.9707 31.4336C75.4785 31.1081 76.0872 30.9453 76.7969 30.9453C77.513 30.9453 78.1087 31.1081 78.584 31.4336C79.0658 31.7591 79.4401 32.2148 79.707 32.8008H79.8242C80.1107 32.2344 80.5306 31.7852 81.084 31.4531C81.6439 31.1146 82.3112 30.9453 83.0859 30.9453C84.0625 30.9453 84.8633 31.2513 85.4883 31.8633C86.1133 32.4688 86.4258 33.4128 86.4258 34.6953V42H84.7461V34.6953C84.7461 33.888 84.5247 33.3118 84.082 32.9668C83.6393 32.6217 83.1185 32.4492 82.5195 32.4492C81.7578 32.4492 81.1654 32.6836 80.7422 33.1523C80.3255 33.6146 80.1172 34.194 80.1172 34.8906V42H78.3984V34.5195C78.3984 33.901 78.1999 33.403 77.8027 33.0254C77.4056 32.6413 76.888 32.4492 76.25 32.4492C75.8138 32.4492 75.4069 32.5664 75.0293 32.8008C74.6517 33.0352 74.3457 33.3574 74.1113 33.7676C73.8835 34.1777 73.7695 34.6497 73.7695 35.1836V42H72.1094ZM93.1445 42.2344C92.0964 42.2344 91.1882 42 90.4199 41.5312C89.6582 41.0625 89.0723 40.4082 88.6621 39.5684C88.252 38.722 88.0469 37.7422 88.0469 36.6289C88.0469 35.5091 88.2487 34.5228 88.6523 33.6699C89.056 32.8171 89.6224 32.1497 90.3516 31.668C91.0872 31.1862 91.9466 30.9453 92.9297 30.9453C93.4961 30.9453 94.0592 31.0397 94.6191 31.2285C95.179 31.4173 95.6868 31.7233 96.1426 32.1465C96.6048 32.5697 96.9727 33.1296 97.2461 33.8262C97.5195 34.5228 97.6562 35.3789 97.6562 36.3945V37.1172H89.2383V35.6719H96.748L95.9766 36.2188C95.9766 35.4896 95.8626 34.8418 95.6348 34.2754C95.4069 33.709 95.0651 33.263 94.6094 32.9375C94.1602 32.612 93.6003 32.4492 92.9297 32.4492C92.2591 32.4492 91.6829 32.6152 91.2012 32.9473C90.7259 33.2728 90.3613 33.6992 90.1074 34.2266C89.8535 34.7539 89.7266 35.3203 89.7266 35.9258V36.8828C89.7266 37.7096 89.8698 38.4095 90.1562 38.9824C90.4427 39.5553 90.8431 39.9915 91.3574 40.291C91.8717 40.584 92.4674 40.7305 93.1445 40.7305C93.5807 40.7305 93.9779 40.6686 94.3359 40.5449C94.694 40.4147 95.0033 40.2227 95.2637 39.9688C95.5241 39.7083 95.7227 39.3893 95.8594 39.0117L97.4805 39.4805C97.3112 40.0273 97.0247 40.5091 96.6211 40.9258C96.224 41.3359 95.7292 41.6582 95.1367 41.8926C94.5443 42.1204 93.8802 42.2344 93.1445 42.2344ZM100.898 35.4375V42H99.2383V31.082H100.84V32.8008H100.996C101.25 32.2409 101.637 31.7917 102.158 31.4531C102.679 31.1146 103.353 30.9453 104.18 30.9453C104.915 30.9453 105.56 31.0951 106.113 31.3945C106.667 31.694 107.096 32.1497 107.402 32.7617C107.715 33.3672 107.871 34.1354 107.871 35.0664V42H106.211V35.1836C106.211 34.3307 105.986 33.6634 105.537 33.1816C105.088 32.6934 104.476 32.4492 103.701 32.4492C103.167 32.4492 102.689 32.5664 102.266 32.8008C101.842 33.0352 101.507 33.3737 101.26 33.8164C101.019 34.2591 100.898 34.7995 100.898 35.4375ZM114.746 31.082V32.5078H109.102V31.082H114.746ZM110.742 28.4844H112.402V38.875C112.402 39.4414 112.52 39.8581 112.754 40.125C112.988 40.3854 113.359 40.5156 113.867 40.5156C113.978 40.5156 114.092 40.5091 114.209 40.4961C114.333 40.4831 114.466 40.4635 114.609 40.4375L114.961 41.9414C114.805 42 114.613 42.0456 114.385 42.0781C114.163 42.1172 113.939 42.1367 113.711 42.1367C112.832 42.1367 112.116 41.8763 111.562 41.3555C111.016 40.8346 110.742 40.1576 110.742 39.3242V28.4844ZM125.762 31.082V32.5078H120.117V31.082H125.762ZM121.758 28.4844H123.418V38.875C123.418 39.4414 123.535 39.8581 123.77 40.125C124.004 40.3854 124.375 40.5156 124.883 40.5156C124.993 40.5156 125.107 40.5091 125.225 40.4961C125.348 40.4831 125.482 40.4635 125.625 40.4375L125.977 41.9414C125.82 42 125.628 42.0456 125.4 42.0781C125.179 42.1172 124.954 42.1367 124.727 42.1367C123.848 42.1367 123.132 41.8763 122.578 41.3555C122.031 40.8346 121.758 40.1576 121.758 39.3242V28.4844ZM130.566 42.2539C129.876 42.2539 129.248 42.1237 128.682 41.8633C128.115 41.5964 127.666 41.2122 127.334 40.7109C127.002 40.2096 126.836 39.6042 126.836 38.8945C126.836 38.2695 126.96 37.765 127.207 37.3809C127.454 36.9902 127.783 36.6842 128.193 36.4629C128.61 36.235 129.066 36.0658 129.561 35.9551C130.062 35.8444 130.566 35.7565 131.074 35.6914C131.738 35.6068 132.275 35.5417 132.686 35.4961C133.102 35.4505 133.405 35.3724 133.594 35.2617C133.789 35.151 133.887 34.9622 133.887 34.6953V34.6367C133.887 33.9401 133.695 33.3997 133.311 33.0156C132.933 32.625 132.357 32.4297 131.582 32.4297C130.788 32.4297 130.163 32.6055 129.707 32.957C129.251 33.3021 128.932 33.6732 128.75 34.0703L127.148 33.5039C127.435 32.8398 127.816 32.3223 128.291 31.9512C128.773 31.5801 129.294 31.3197 129.854 31.1699C130.42 31.0202 130.977 30.9453 131.523 30.9453C131.875 30.9453 132.279 30.9876 132.734 31.0723C133.19 31.1504 133.633 31.3197 134.062 31.5801C134.499 31.834 134.857 32.2214 135.137 32.7422C135.423 33.2565 135.566 33.9466 135.566 34.8125V42H133.887V40.5156H133.809C133.698 40.75 133.509 41.0039 133.242 41.2773C132.975 41.5443 132.62 41.7754 132.178 41.9707C131.742 42.1595 131.204 42.2539 130.566 42.2539ZM130.82 40.75C131.484 40.75 132.044 40.6198 132.5 40.3594C132.956 40.099 133.301 39.7637 133.535 39.3535C133.77 38.9368 133.887 38.5039 133.887 38.0547V36.5117C133.815 36.5964 133.659 36.6745 133.418 36.7461C133.184 36.8112 132.91 36.8698 132.598 36.9219C132.292 36.974 131.992 37.0195 131.699 37.0586C131.406 37.0911 131.172 37.1172 130.996 37.1367C130.56 37.1953 130.153 37.2897 129.775 37.4199C129.398 37.5436 129.092 37.7292 128.857 37.9766C128.63 38.224 128.516 38.5625 128.516 38.9922C128.516 39.5716 128.73 40.0111 129.16 40.3105C129.596 40.6035 130.15 40.75 130.82 40.75ZM137.715 42V31.082H139.316V32.7422H139.434C139.635 32.2018 139.997 31.7656 140.518 31.4336C141.045 31.0951 141.634 30.9258 142.285 30.9258C142.409 30.9258 142.562 30.929 142.744 30.9355C142.926 30.9355 143.066 30.9388 143.164 30.9453V32.6445C143.105 32.6315 142.975 32.612 142.773 32.5859C142.572 32.5599 142.357 32.5469 142.129 32.5469C141.602 32.5469 141.13 32.6576 140.713 32.8789C140.296 33.1003 139.967 33.403 139.727 33.7871C139.492 34.1712 139.375 34.6107 139.375 35.1055V42H137.715ZM148.281 46.3164C147.064 46.3164 146.1 46.0951 145.391 45.6523C144.688 45.2096 144.167 44.7018 143.828 44.1289L145.156 43.1914C145.306 43.3932 145.498 43.6211 145.732 43.875C145.967 44.1354 146.286 44.36 146.689 44.5488C147.093 44.7376 147.624 44.832 148.281 44.832C149.16 44.832 149.886 44.6204 150.459 44.1973C151.038 43.7741 151.328 43.1068 151.328 42.1953V39.9883H151.172C151.055 40.1836 150.882 40.4277 150.654 40.7207C150.433 41.0072 150.111 41.2643 149.688 41.4922C149.271 41.7135 148.704 41.8242 147.988 41.8242C147.109 41.8242 146.322 41.6159 145.625 41.1992C144.928 40.7826 144.375 40.1771 143.965 39.3828C143.561 38.5885 143.359 37.625 143.359 36.4922C143.359 35.3724 143.555 34.3991 143.945 33.5723C144.342 32.7389 144.893 32.0944 145.596 31.6387C146.299 31.1764 147.109 30.9453 148.027 30.9453C148.737 30.9453 149.3 31.0625 149.717 31.2969C150.14 31.5312 150.462 31.7982 150.684 32.0977C150.911 32.3906 151.087 32.6315 151.211 32.8203H151.387V31.082H152.988V42.3125C152.988 43.25 152.777 44.0117 152.354 44.5977C151.937 45.1901 151.37 45.623 150.654 45.8965C149.945 46.1764 149.154 46.3164 148.281 46.3164ZM148.223 40.3203C149.232 40.3203 150.003 39.9785 150.537 39.2949C151.077 38.6113 151.348 37.6641 151.348 36.4531C151.348 35.6654 151.23 34.972 150.996 34.373C150.762 33.7741 150.41 33.3053 149.941 32.9668C149.479 32.6217 148.906 32.4492 148.223 32.4492C147.513 32.4492 146.921 32.6315 146.445 32.9961C145.977 33.3542 145.625 33.8359 145.391 34.4414C145.156 35.0469 145.039 35.7174 145.039 36.4531C145.039 37.2083 145.156 37.8789 145.391 38.4648C145.632 39.0443 145.99 39.5 146.465 39.832C146.94 40.1576 147.526 40.3203 148.223 40.3203ZM159.707 42.2344C158.659 42.2344 157.751 42 156.982 41.5312C156.221 41.0625 155.635 40.4082 155.225 39.5684C154.814 38.722 154.609 37.7422 154.609 36.6289C154.609 35.5091 154.811 34.5228 155.215 33.6699C155.618 32.8171 156.185 32.1497 156.914 31.668C157.65 31.1862 158.509 30.9453 159.492 30.9453C160.059 30.9453 160.622 31.0397 161.182 31.2285C161.742 31.4173 162.249 31.7233 162.705 32.1465C163.167 32.5697 163.535 33.1296 163.809 33.8262C164.082 34.5228 164.219 35.3789 164.219 36.3945V37.1172H155.801V35.6719H163.311L162.539 36.2188C162.539 35.4896 162.425 34.8418 162.197 34.2754C161.969 33.709 161.628 33.263 161.172 32.9375C160.723 32.612 160.163 32.4492 159.492 32.4492C158.822 32.4492 158.245 32.6152 157.764 32.9473C157.288 33.2728 156.924 33.6992 156.67 34.2266C156.416 34.7539 156.289 35.3203 156.289 35.9258V36.8828C156.289 37.7096 156.432 38.4095 156.719 38.9824C157.005 39.5553 157.406 39.9915 157.92 40.291C158.434 40.584 159.03 40.7305 159.707 40.7305C160.143 40.7305 160.54 40.6686 160.898 40.5449C161.257 40.4147 161.566 40.2227 161.826 39.9688C162.087 39.7083 162.285 39.3893 162.422 39.0117L164.043 39.4805C163.874 40.0273 163.587 40.5091 163.184 40.9258C162.786 41.3359 162.292 41.6582 161.699 41.8926C161.107 42.1204 160.443 42.2344 159.707 42.2344ZM170.527 31.082V32.5078H164.883V31.082H170.527ZM166.523 28.4844H168.184V38.875C168.184 39.4414 168.301 39.8581 168.535 40.125C168.77 40.3854 169.141 40.5156 169.648 40.5156C169.759 40.5156 169.873 40.5091 169.99 40.4961C170.114 40.4831 170.247 40.4635 170.391 40.4375L170.742 41.9414C170.586 42 170.394 42.0456 170.166 42.0781C169.945 42.1172 169.72 42.1367 169.492 42.1367C168.613 42.1367 167.897 41.8763 167.344 41.3555C166.797 40.8346 166.523 40.1576 166.523 39.3242V28.4844Z" fill="#1A1A1C"/>
<path d="M21.0391 61L25.5918 51.9902V51.9082H20.3418V50.8145H26.877V51.9766L22.3379 61H21.0391ZM31.0469 61.1367C30.6322 61.1367 30.2152 61.0615 29.7959 60.9111C29.3766 60.7562 28.9938 60.4987 28.6475 60.1387C28.3057 59.7741 28.0299 59.2796 27.8203 58.6553C27.6107 58.0309 27.5059 57.2493 27.5059 56.3105C27.5059 55.4082 27.5902 54.6084 27.7588 53.9111C27.932 53.2139 28.1781 52.626 28.4971 52.1475C28.8206 51.6644 29.2103 51.2998 29.666 51.0537C30.1217 50.8031 30.6367 50.6777 31.2109 50.6777C31.7806 50.6777 32.2865 50.7917 32.7285 51.0195C33.1751 51.2474 33.5397 51.5641 33.8223 51.9697C34.1048 52.3708 34.2871 52.8333 34.3691 53.3574H33.166C33.0521 52.9017 32.8311 52.5234 32.5029 52.2227C32.1794 51.9219 31.7487 51.7715 31.2109 51.7715C30.4225 51.7715 29.8005 52.1156 29.3447 52.8037C28.8936 53.4873 28.668 54.4512 28.668 55.6953H28.75C28.9368 55.4128 29.1579 55.1712 29.4131 54.9707C29.6683 54.7656 29.9508 54.6107 30.2607 54.5059C30.5706 54.3965 30.901 54.3418 31.252 54.3418C31.8353 54.3418 32.3685 54.4876 32.8516 54.7793C33.3346 55.0664 33.722 55.4652 34.0137 55.9756C34.3053 56.4814 34.4512 57.0625 34.4512 57.7188C34.4512 58.3477 34.3099 58.9219 34.0273 59.4414C33.7493 59.9564 33.3551 60.3688 32.8447 60.6787C32.3343 60.984 31.735 61.1367 31.0469 61.1367ZM31.0469 60.043C31.4661 60.043 31.8421 59.9404 32.1748 59.7354C32.5075 59.5257 32.7718 59.2454 32.9678 58.8945C33.1637 58.5391 33.2617 58.1471 33.2617 57.7188C33.2617 57.2949 33.166 56.9121 32.9746 56.5703C32.7878 56.224 32.5303 55.9482 32.2021 55.7432C31.8786 55.5381 31.5072 55.4355 31.0879 55.4355C30.6686 55.4355 30.2881 55.5426 29.9463 55.7568C29.609 55.971 29.3402 56.2536 29.1396 56.6045C28.9437 56.9508 28.8457 57.3268 28.8457 57.7324C28.8457 58.138 28.9414 58.5186 29.1328 58.874C29.3242 59.2249 29.584 59.5075 29.9121 59.7217C30.2448 59.9359 30.623 60.043 31.0469 60.043ZM40.877 59.0859V58.5527C40.877 58.179 40.9521 57.8372 41.1025 57.5273C41.2575 57.2174 41.4831 56.9691 41.7793 56.7822C42.0755 56.5954 42.4355 56.502 42.8594 56.502C43.2923 56.502 43.6546 56.5954 43.9463 56.7822C44.238 56.9691 44.4567 57.2174 44.6025 57.5273C44.7529 57.8372 44.8281 58.179 44.8281 58.5527V59.0859C44.8281 59.4596 44.7529 59.8014 44.6025 60.1113C44.4521 60.4212 44.2311 60.6696 43.9395 60.8564C43.6478 61.0433 43.2878 61.1367 42.8594 61.1367C42.431 61.1367 42.0687 61.0433 41.7725 60.8564C41.4762 60.6696 41.2529 60.4212 41.1025 60.1113C40.9521 59.8014 40.877 59.4596 40.877 59.0859ZM41.8887 58.5527V59.0859C41.8887 59.3958 41.9616 59.6738 42.1074 59.9199C42.2533 60.1615 42.5039 60.2845 42.8594 60.2891C43.2103 60.2845 43.4564 60.1615 43.5977 59.9199C43.7435 59.6738 43.8164 59.3958 43.8164 59.0859V58.5527C43.8164 58.2428 43.7458 57.9671 43.6045 57.7256C43.4678 57.484 43.2194 57.3633 42.8594 57.3633C42.513 57.3633 42.2646 57.484 42.1143 57.7256C41.9639 57.9671 41.8887 58.2428 41.8887 58.5527ZM35.8047 53.2617V52.7285C35.8047 52.3548 35.8822 52.013 36.0371 51.7031C36.1921 51.3932 36.4154 51.1449 36.707 50.958C37.0033 50.7712 37.3633 50.6777 37.7871 50.6777C38.2201 50.6777 38.5824 50.7712 38.874 50.958C39.1702 51.1449 39.3913 51.3932 39.5371 51.7031C39.6875 52.013 39.7604 52.3548 39.7559 52.7285V53.2617C39.7604 53.6309 39.6852 53.9727 39.5303 54.2871C39.3799 54.597 39.1589 54.8454 38.8672 55.0322C38.5755 55.2191 38.2155 55.3125 37.7871 55.3125C37.3587 55.3125 36.9964 55.2191 36.7002 55.0322C36.404 54.8454 36.1807 54.597 36.0303 54.2871C35.8799 53.9727 35.8047 53.6309 35.8047 53.2617ZM36.8164 52.7285V53.2617C36.8164 53.5716 36.8893 53.8496 37.0352 54.0957C37.181 54.3372 37.4316 54.4557 37.7871 54.4512C38.138 54.4557 38.3841 54.3372 38.5254 54.0957C38.6712 53.8496 38.7441 53.5716 38.7441 53.2617V52.7285C38.7441 52.4186 38.6735 52.1429 38.5322 51.9014C38.3955 51.6553 38.1471 51.5345 37.7871 51.5391C37.4408 51.5345 37.1924 51.6553 37.042 51.9014C36.8916 52.1429 36.8164 52.4186 36.8164 52.7285ZM36.1875 61L43.1875 50.8145H44.3223L37.3223 61H36.1875Z" fill="#FCFCFC" fill-opacity="0.6"/>
<rect x="296" y="20" width="44" height="44" rx="22" fill="#BEAB9A"/>
<path d="M313 48L325 36" stroke="#F4EFE7" stroke-linecap="round" stroke-linejoin="round"/>
<path d="M315.25 36H325V45.75" stroke="#F4EFE7" stroke-linecap="round" stroke-linejoin="round"/>
<path d="M22.0703 119V116.461L31.6797 105.914C32.7995 104.69 33.7174 103.622 34.4336 102.711C35.1628 101.799 35.7031 100.94 36.0547 100.133C36.4193 99.3255 36.6016 98.4792 36.6016 97.5938C36.6016 96.5651 36.3542 95.6797 35.8594 94.9375C35.3776 94.1823 34.7201 93.6029 33.8867 93.1992C33.0534 92.7956 32.1094 92.5938 31.0547 92.5938C29.9349 92.5938 28.9583 92.8216 28.125 93.2773C27.3047 93.7331 26.6667 94.3776 26.2109 95.2109C25.7682 96.0312 25.5469 96.9948 25.5469 98.1016H22.1875C22.1875 96.3958 22.5781 94.8984 23.3594 93.6094C24.1536 92.3203 25.2279 91.3177 26.582 90.6016C27.9492 89.8724 29.4792 89.5078 31.1719 89.5078C32.8776 89.5078 34.388 89.8724 35.7031 90.6016C37.0182 91.3177 38.0469 92.2878 38.7891 93.5117C39.5443 94.7227 39.9219 96.0833 39.9219 97.5938C39.9219 98.6615 39.7266 99.7031 39.3359 100.719C38.9583 101.721 38.2943 102.848 37.3438 104.098C36.4062 105.348 35.1042 106.865 33.4375 108.648L26.9141 115.641V115.875H40.4297V119H22.0703ZM54.2578 119.391C52.3698 119.391 50.6966 119.072 49.2383 118.434C47.7799 117.796 46.6211 116.904 45.7617 115.758C44.9023 114.599 44.4401 113.258 44.375 111.734H47.9297C48.0078 112.672 48.3268 113.479 48.8867 114.156C49.4596 114.833 50.2018 115.354 51.1133 115.719C52.0378 116.083 53.0599 116.266 54.1797 116.266C55.4297 116.266 56.5365 116.051 57.5 115.621C58.4766 115.178 59.2383 114.573 59.7852 113.805C60.3451 113.023 60.625 112.125 60.625 111.109C60.625 110.029 60.3581 109.078 59.8242 108.258C59.2904 107.438 58.5091 106.799 57.4805 106.344C56.4648 105.875 55.2214 105.641 53.75 105.641H51.4062V102.516H53.75C54.8958 102.516 55.9049 102.307 56.7773 101.891C57.6497 101.474 58.3333 100.888 58.8281 100.133C59.3229 99.3776 59.5703 98.4922 59.5703 97.4766C59.5703 96.487 59.3555 95.6276 58.9258 94.8984C58.4961 94.1693 57.8841 93.6029 57.0898 93.1992C56.3086 92.7956 55.3776 92.5938 54.2969 92.5938C53.2943 92.5938 52.3503 92.776 51.4648 93.1406C50.5794 93.5052 49.8568 94.026 49.2969 94.7031C48.737 95.3802 48.4375 96.2005 48.3984 97.1641H45C45.0521 95.6406 45.5078 94.306 46.3672 93.1602C47.2266 92.0143 48.3529 91.1224 49.7461 90.4844C51.1523 89.8333 52.6953 89.5078 54.375 89.5078C56.1719 89.5078 57.7148 89.8724 59.0039 90.6016C60.293 91.3177 61.2826 92.2682 61.9727 93.4531C62.6628 94.638 63.0078 95.9141 63.0078 97.2812C63.0078 98.9349 62.5781 100.335 61.7188 101.48C60.8724 102.626 59.7135 103.427 58.2422 103.883V104.117C60.0651 104.417 61.4909 105.198 62.5195 106.461C63.5482 107.711 64.0625 109.26 64.0625 111.109C64.0625 112.685 63.6328 114.098 62.7734 115.348C61.9271 116.598 60.7617 117.587 59.2773 118.316C57.806 119.033 56.1328 119.391 54.2578 119.391ZM66.6016 125.914L68.3203 114.938H72.1875L69.1797 125.914H66.6016ZM85.625 119.391C83.4896 119.391 81.6667 118.805 80.1562 117.633C78.6458 116.461 77.4935 114.768 76.6992 112.555C75.9049 110.328 75.5078 107.633 75.5078 104.469C75.5078 101.318 75.9049 98.6289 76.6992 96.4023C77.5065 94.1628 78.6654 92.457 80.1758 91.2852C81.6862 90.1003 83.5026 89.5078 85.625 89.5078C87.7474 89.5078 89.5638 90.1003 91.0742 91.2852C92.5846 92.457 93.737 94.1628 94.5312 96.4023C95.3385 98.6289 95.7422 101.318 95.7422 104.469C95.7422 107.633 95.3451 110.328 94.5508 112.555C93.7565 114.768 92.6042 116.461 91.0938 117.633C89.5964 118.805 87.7734 119.391 85.625 119.391ZM85.625 116.305C87.0703 116.305 88.2943 115.842 89.2969 114.918C90.2995 113.98 91.0612 112.626 91.582 110.855C92.1159 109.085 92.3828 106.956 92.3828 104.469C92.3828 101.969 92.1159 99.8333 91.582 98.0625C91.0612 96.2917 90.2995 94.9375 89.2969 94C88.2943 93.0625 87.0703 92.5938 85.625 92.5938C83.4635 92.5938 81.7969 93.6354 80.625 95.7188C79.4531 97.8021 78.8672 100.719 78.8672 104.469C78.8672 106.956 79.1276 109.085 79.6484 110.855C80.1823 112.626 80.9505 113.98 81.9531 114.918C82.9688 115.842 84.1927 116.305 85.625 116.305ZM108.75 119.391C107.565 119.391 106.374 119.176 105.176 118.746C103.978 118.303 102.884 117.568 101.895 116.539C100.918 115.497 100.13 114.085 99.5312 112.301C98.9323 110.517 98.6328 108.284 98.6328 105.602C98.6328 103.023 98.8737 100.738 99.3555 98.7461C99.8503 96.7539 100.553 95.0742 101.465 93.707C102.389 92.3268 103.503 91.2852 104.805 90.582C106.107 89.8659 107.578 89.5078 109.219 89.5078C110.846 89.5078 112.292 89.8333 113.555 90.4844C114.831 91.1354 115.872 92.0404 116.68 93.1992C117.487 94.3451 118.008 95.6667 118.242 97.1641H114.805C114.479 95.862 113.848 94.7812 112.91 93.9219C111.986 93.0625 110.755 92.6328 109.219 92.6328C106.966 92.6328 105.189 93.6159 103.887 95.582C102.598 97.5352 101.953 100.289 101.953 103.844H102.188C102.721 103.036 103.353 102.346 104.082 101.773C104.811 101.188 105.618 100.745 106.504 100.445C107.389 100.133 108.333 99.9766 109.336 99.9766C111.003 99.9766 112.526 100.393 113.906 101.227C115.286 102.047 116.393 103.186 117.227 104.645C118.06 106.09 118.477 107.75 118.477 109.625C118.477 111.422 118.073 113.062 117.266 114.547C116.471 116.018 115.345 117.197 113.887 118.082C112.428 118.954 110.716 119.391 108.75 119.391ZM108.75 116.266C109.948 116.266 111.022 115.973 111.973 115.387C112.923 114.788 113.678 113.987 114.238 112.984C114.798 111.969 115.078 110.849 115.078 109.625C115.078 108.414 114.805 107.32 114.258 106.344C113.724 105.354 112.988 104.566 112.051 103.98C111.126 103.395 110.065 103.102 108.867 103.102C107.669 103.102 106.582 103.408 105.605 104.02C104.642 104.632 103.874 105.439 103.301 106.441C102.741 107.431 102.461 108.505 102.461 109.664C102.461 110.823 102.734 111.91 103.281 112.926C103.828 113.928 104.57 114.736 105.508 115.348C106.458 115.96 107.539 116.266 108.75 116.266ZM131.094 119.391C129.427 119.391 127.923 119.065 126.582 118.414C125.254 117.75 124.186 116.839 123.379 115.68C122.572 114.521 122.135 113.206 122.07 111.734H125.469C125.599 113.036 126.191 114.117 127.246 114.977C128.314 115.836 129.596 116.266 131.094 116.266C132.292 116.266 133.353 115.986 134.277 115.426C135.202 114.866 135.931 114.098 136.465 113.121C136.999 112.145 137.266 111.031 137.266 109.781C137.266 108.518 136.986 107.385 136.426 106.383C135.879 105.38 135.124 104.592 134.16 104.02C133.197 103.434 132.096 103.141 130.859 103.141C129.961 103.141 129.043 103.284 128.105 103.57C127.181 103.844 126.419 104.195 125.82 104.625L122.5 104.234L124.258 89.8984H139.375V93.0234H127.227L126.211 101.617H126.367C126.966 101.135 127.715 100.745 128.613 100.445C129.512 100.133 130.456 99.9766 131.445 99.9766C133.229 99.9766 134.818 100.4 136.211 101.246C137.604 102.092 138.698 103.251 139.492 104.723C140.299 106.181 140.703 107.854 140.703 109.742C140.703 111.591 140.286 113.245 139.453 114.703C138.62 116.161 137.48 117.307 136.035 118.141C134.59 118.974 132.943 119.391 131.094 119.391ZM162.188 122.633V86.2656H164.492V122.633H162.188ZM163.32 119.508C161.237 119.508 159.434 119.176 157.91 118.512C156.387 117.835 155.189 116.897 154.316 115.699C153.457 114.488 152.969 113.089 152.852 111.5H156.484C156.589 112.594 156.96 113.499 157.598 114.215C158.249 114.931 159.076 115.465 160.078 115.816C161.081 116.168 162.161 116.344 163.32 116.344C164.661 116.344 165.866 116.122 166.934 115.68C168.014 115.237 168.867 114.618 169.492 113.824C170.117 113.03 170.43 112.099 170.43 111.031C170.43 110.068 170.156 109.286 169.609 108.688C169.062 108.089 168.346 107.6 167.461 107.223C166.589 106.845 165.638 106.513 164.609 106.227L161.055 105.211C158.776 104.56 156.973 103.629 155.645 102.418C154.329 101.194 153.672 99.599 153.672 97.6328C153.672 96.0052 154.108 94.5859 154.98 93.375C155.866 92.151 157.057 91.2005 158.555 90.5234C160.065 89.8464 161.745 89.5078 163.594 89.5078C165.469 89.5078 167.135 89.8464 168.594 90.5234C170.052 91.1875 171.211 92.099 172.07 93.2578C172.93 94.4036 173.385 95.7057 173.438 97.1641H170C169.831 95.7318 169.141 94.6185 167.93 93.8242C166.732 93.0299 165.247 92.6328 163.477 92.6328C162.201 92.6328 161.081 92.8411 160.117 93.2578C159.154 93.6745 158.405 94.2474 157.871 94.9766C157.337 95.7057 157.07 96.5391 157.07 97.4766C157.07 98.5052 157.389 99.3385 158.027 99.9766C158.665 100.602 159.421 101.09 160.293 101.441C161.178 101.793 161.979 102.073 162.695 102.281L165.625 103.102C166.38 103.31 167.22 103.59 168.145 103.941C169.082 104.293 169.98 104.768 170.84 105.367C171.712 105.966 172.428 106.734 172.988 107.672C173.548 108.596 173.828 109.742 173.828 111.109C173.828 112.672 173.418 114.091 172.598 115.367C171.777 116.63 170.586 117.639 169.023 118.395C167.461 119.137 165.56 119.508 163.32 119.508Z" fill="#BEAB9A"/>
</svg>
