<svg width="360" height="166" viewBox="0 0 360 166" fill="none" xmlns="http://www.w3.org/2000/svg">
<rect width="360" height="166" fill="#F4EFE7"/>
<path d="M20.3418 30.9082V29.8145H27.9844V30.9082H24.7852V40H23.5547V30.9082H20.3418ZM28.2852 40V32.3574H29.4062V33.5195H29.4883C29.6296 33.1413 29.8825 32.8359 30.2471 32.6035C30.6162 32.3665 31.0286 32.248 31.4844 32.248C31.571 32.248 31.6781 32.2503 31.8057 32.2549C31.9333 32.2549 32.0312 32.2572 32.0996 32.2617V33.4512C32.0586 33.4421 31.9674 33.4284 31.8262 33.4102C31.6849 33.3919 31.5345 33.3828 31.375 33.3828C31.0059 33.3828 30.6755 33.4603 30.3838 33.6152C30.0921 33.7702 29.862 33.9821 29.6934 34.251C29.5293 34.5199 29.4473 34.8275 29.4473 35.1738V40H28.2852ZM35.0801 40.1777C34.597 40.1777 34.1572 40.0866 33.7607 39.9043C33.3643 39.7174 33.0498 39.4486 32.8174 39.0977C32.585 38.7467 32.4688 38.3229 32.4688 37.8262C32.4688 37.3887 32.5553 37.0355 32.7285 36.7666C32.9017 36.4932 33.1318 36.279 33.4189 36.124C33.7106 35.9645 34.0296 35.846 34.376 35.7686C34.7269 35.6911 35.0801 35.6296 35.4355 35.584C35.9004 35.5247 36.2764 35.4792 36.5635 35.4473C36.8551 35.4154 37.0671 35.3607 37.1992 35.2832C37.3359 35.2057 37.4043 35.0736 37.4043 34.8867V34.8457C37.4043 34.3581 37.2699 33.9798 37.001 33.7109C36.7367 33.4375 36.3333 33.3008 35.791 33.3008C35.235 33.3008 34.7975 33.4238 34.4785 33.6699C34.1595 33.9115 33.9362 34.1712 33.8086 34.4492L32.6875 34.0527C32.888 33.5879 33.1546 33.2256 33.4873 32.9658C33.8245 32.7061 34.1891 32.5238 34.5811 32.4189C34.9775 32.3141 35.3672 32.2617 35.75 32.2617C35.9961 32.2617 36.2786 32.2913 36.5977 32.3506C36.9167 32.4053 37.2266 32.5238 37.5273 32.7061C37.8327 32.8838 38.0833 33.1549 38.2793 33.5195C38.4798 33.8796 38.5801 34.3626 38.5801 34.9688V40H37.4043V38.9609H37.3496C37.2721 39.125 37.14 39.3027 36.9531 39.4941C36.7663 39.681 36.5179 39.8428 36.208 39.9795C35.9027 40.1117 35.5267 40.1777 35.0801 40.1777ZM35.2578 39.125C35.7227 39.125 36.1146 39.0339 36.4336 38.8516C36.7526 38.6693 36.9941 38.4346 37.1582 38.1475C37.3223 37.8558 37.4043 37.5527 37.4043 37.2383V36.1582C37.3542 36.2174 37.2448 36.2721 37.0762 36.3223C36.9121 36.3678 36.7207 36.4089 36.502 36.4453C36.2878 36.4818 36.0781 36.5137 35.873 36.541C35.668 36.5638 35.5039 36.582 35.3809 36.5957C35.0755 36.6367 34.7907 36.7028 34.5264 36.7939C34.262 36.8805 34.0479 37.0104 33.8838 37.1836C33.7243 37.3568 33.6445 37.5938 33.6445 37.8945C33.6445 38.3001 33.7949 38.6077 34.0957 38.8174C34.401 39.0225 34.7884 39.125 35.2578 39.125ZM41.2461 35.4062V40H40.084V32.3574H41.2051V33.5605H41.3145C41.4922 33.1686 41.7633 32.8542 42.1279 32.6172C42.4925 32.3802 42.9642 32.2617 43.543 32.2617C44.0579 32.2617 44.5091 32.3665 44.8965 32.5762C45.2839 32.7858 45.5846 33.1048 45.7988 33.5332C46.0176 33.957 46.127 34.4948 46.127 35.1465V40H44.9648V35.2285C44.9648 34.6315 44.8076 34.1644 44.4932 33.8271C44.1787 33.4854 43.7503 33.3145 43.208 33.3145C42.8343 33.3145 42.4993 33.3965 42.2031 33.5605C41.9069 33.7246 41.6722 33.9616 41.499 34.2715C41.3304 34.5814 41.2461 34.9596 41.2461 35.4062ZM53.0312 34.0801L51.9785 34.3672C51.8783 34.1074 51.7051 33.8613 51.459 33.6289C51.2174 33.3919 50.8392 33.2734 50.3242 33.2734C49.8594 33.2734 49.472 33.3828 49.1621 33.6016C48.8522 33.8158 48.6973 34.0846 48.6973 34.4082C48.6973 34.6999 48.8021 34.9323 49.0117 35.1055C49.2259 35.2786 49.5586 35.4199 50.0098 35.5293L51.1445 35.8027C51.8236 35.9668 52.3294 36.2197 52.6621 36.5615C52.9993 36.9033 53.168 37.3385 53.168 37.8672C53.168 38.3047 53.0426 38.6966 52.792 39.043C52.5413 39.3893 52.1927 39.6628 51.7461 39.8633C51.2995 40.0638 50.7799 40.1641 50.1875 40.1641C49.4082 40.1641 48.7633 39.9932 48.2529 39.6514C47.7471 39.3096 47.4258 38.8151 47.2891 38.168L48.3965 37.8945C48.5013 38.3047 48.7018 38.6123 48.998 38.8174C49.2988 39.0225 49.6908 39.125 50.1738 39.125C50.7161 39.125 51.1491 39.0088 51.4727 38.7764C51.8008 38.5394 51.9648 38.2591 51.9648 37.9355C51.9648 37.3978 51.5866 37.0378 50.8301 36.8555L49.5586 36.5547C48.8568 36.3861 48.3418 36.1286 48.0137 35.7822C47.6855 35.4359 47.5215 35.0007 47.5215 34.4766C47.5215 34.0436 47.6423 33.6608 47.8838 33.3281C48.1299 32.9954 48.4648 32.7357 48.8887 32.5488C49.3125 32.3574 49.791 32.2617 50.3242 32.2617C51.0853 32.2617 51.68 32.4303 52.1084 32.7676C52.5413 33.1003 52.849 33.5378 53.0312 34.0801ZM56.5312 40.1777C56.0482 40.1777 55.6084 40.0866 55.2119 39.9043C54.8154 39.7174 54.501 39.4486 54.2686 39.0977C54.0361 38.7467 53.9199 38.3229 53.9199 37.8262C53.9199 37.3887 54.0065 37.0355 54.1797 36.7666C54.3529 36.4932 54.583 36.279 54.8701 36.124C55.1618 35.9645 55.4808 35.846 55.8271 35.7686C56.1781 35.6911 56.5312 35.6296 56.8867 35.584C57.3516 35.5247 57.7275 35.4792 58.0146 35.4473C58.3063 35.4154 58.5182 35.3607 58.6504 35.2832C58.7871 35.2057 58.8555 35.0736 58.8555 34.8867V34.8457C58.8555 34.3581 58.721 33.9798 58.4521 33.7109C58.1878 33.4375 57.7845 33.3008 57.2422 33.3008C56.6862 33.3008 56.2487 33.4238 55.9297 33.6699C55.6107 33.9115 55.3874 34.1712 55.2598 34.4492L54.1387 34.0527C54.3392 33.5879 54.6058 33.2256 54.9385 32.9658C55.2757 32.7061 55.6403 32.5238 56.0322 32.4189C56.4287 32.3141 56.8184 32.2617 57.2012 32.2617C57.4473 32.2617 57.7298 32.2913 58.0488 32.3506C58.3678 32.4053 58.6777 32.5238 58.9785 32.7061C59.2839 32.8838 59.5345 33.1549 59.7305 33.5195C59.931 33.8796 60.0312 34.3626 60.0312 34.9688V40H58.8555V38.9609H58.8008C58.7233 39.125 58.5911 39.3027 58.4043 39.4941C58.2174 39.681 57.9691 39.8428 57.6592 39.9795C57.3538 40.1117 56.9779 40.1777 56.5312 40.1777ZM56.709 39.125C57.1738 39.125 57.5658 39.0339 57.8848 38.8516C58.2038 38.6693 58.4453 38.4346 58.6094 38.1475C58.7734 37.8558 58.8555 37.5527 58.8555 37.2383V36.1582C58.8053 36.2174 58.696 36.2721 58.5273 36.3223C58.3633 36.3678 58.1719 36.4089 57.9531 36.4453C57.7389 36.4818 57.5293 36.5137 57.3242 36.541C57.1191 36.5638 56.9551 36.582 56.832 36.5957C56.5267 36.6367 56.2419 36.7028 55.9775 36.7939C55.7132 36.8805 55.499 37.0104 55.335 37.1836C55.1755 37.3568 55.0957 37.5938 55.0957 37.8945C55.0957 38.3001 55.2461 38.6077 55.5469 38.8174C55.8522 39.0225 56.2396 39.125 56.709 39.125ZM64.625 40.1641C63.9141 40.1641 63.2988 39.9954 62.7793 39.6582C62.2643 39.3164 61.8656 38.8493 61.583 38.2568C61.305 37.6644 61.166 36.9876 61.166 36.2266C61.166 35.4473 61.3096 34.7614 61.5967 34.1689C61.8838 33.5719 62.2848 33.1048 62.7998 32.7676C63.3193 32.4303 63.9232 32.2617 64.6113 32.2617C65.1491 32.2617 65.6322 32.362 66.0605 32.5625C66.4935 32.7585 66.8467 33.0365 67.1201 33.3965C67.3981 33.7565 67.569 34.1758 67.6328 34.6543H66.457C66.3978 34.4219 66.2907 34.2031 66.1357 33.998C65.9808 33.793 65.7757 33.6289 65.5205 33.5059C65.2699 33.3783 64.9714 33.3145 64.625 33.3145C64.1693 33.3145 63.7705 33.4329 63.4287 33.6699C63.0869 33.9069 62.8203 34.2419 62.6289 34.6748C62.4375 35.1032 62.3418 35.6068 62.3418 36.1855C62.3418 36.7734 62.4352 37.2884 62.6221 37.7305C62.8089 38.168 63.0732 38.5075 63.415 38.749C63.7614 38.9906 64.1647 39.1113 64.625 39.1113C65.0853 39.1113 65.4795 38.9928 65.8076 38.7559C66.1357 38.5143 66.3522 38.1862 66.457 37.7715H67.6328C67.569 38.2227 67.4049 38.6283 67.1406 38.9883C66.8809 39.3483 66.5368 39.6354 66.1084 39.8496C65.6846 40.0592 65.1901 40.1641 64.625 40.1641ZM72.0488 32.3574V33.3555H68.0977V32.3574H72.0488ZM69.2461 30.5391H70.4082V37.8125C70.4082 38.209 70.4902 38.5007 70.6543 38.6875C70.8184 38.8698 71.0781 38.9609 71.4336 38.9609C71.5111 38.9609 71.5908 38.9564 71.6729 38.9473C71.7594 38.9382 71.8529 38.9245 71.9531 38.9062L72.1992 39.959C72.0898 40 71.9554 40.0319 71.7959 40.0547C71.641 40.082 71.4837 40.0957 71.3242 40.0957C70.709 40.0957 70.2077 39.9134 69.8203 39.5488C69.4375 39.1842 69.2461 38.7103 69.2461 38.127V30.5391ZM73.1699 40V32.3574H74.332V40H73.1699ZM73.7578 31.0859C73.5299 31.0859 73.334 31.0085 73.1699 30.8535C73.0059 30.6986 72.9238 30.5117 72.9238 30.293C72.9238 30.0742 73.0059 29.8874 73.1699 29.7324C73.334 29.5775 73.5299 29.5 73.7578 29.5C73.9857 29.5 74.1816 29.5775 74.3457 29.7324C74.5098 29.8874 74.5918 30.0742 74.5918 30.293C74.5918 30.5117 74.5098 30.6986 74.3457 30.8535C74.1816 31.0085 73.9857 31.0859 73.7578 31.0859ZM78.9258 40.1641C78.2376 40.1641 77.6338 40 77.1143 39.6719C76.5947 39.3438 76.1891 38.8835 75.8975 38.291C75.6104 37.6986 75.4668 37.0104 75.4668 36.2266C75.4668 35.429 75.6104 34.734 75.8975 34.1416C76.1891 33.5446 76.5947 33.082 77.1143 32.7539C77.6338 32.4258 78.2376 32.2617 78.9258 32.2617C79.6185 32.2617 80.2246 32.4258 80.7441 32.7539C81.2637 33.082 81.6693 33.5446 81.9609 34.1416C82.2526 34.734 82.3984 35.429 82.3984 36.2266C82.3984 37.0104 82.2526 37.6986 81.9609 38.291C81.6693 38.8835 81.2637 39.3438 80.7441 39.6719C80.2246 40 79.6185 40.1641 78.9258 40.1641ZM78.9258 39.1113C79.4544 39.1113 79.8874 38.9769 80.2246 38.708C80.5618 38.4391 80.8125 38.0859 80.9766 37.6484C81.1406 37.2064 81.2227 36.7324 81.2227 36.2266C81.2227 35.7116 81.1406 35.2331 80.9766 34.791C80.8125 34.349 80.5618 33.9935 80.2246 33.7246C79.8874 33.4512 79.4544 33.3145 78.9258 33.3145C78.4062 33.3145 77.9779 33.4512 77.6406 33.7246C77.3034 33.9935 77.0527 34.349 76.8887 34.791C76.7246 35.2331 76.6426 35.7116 76.6426 36.2266C76.6426 36.7324 76.7246 37.2064 76.8887 37.6484C77.0527 38.0859 77.3034 38.4391 77.6406 38.708C77.9779 38.9769 78.4062 39.1113 78.9258 39.1113ZM84.6953 35.4062V40H83.5332V32.3574H84.6543V33.5605H84.7637C84.9414 33.1686 85.2126 32.8542 85.5771 32.6172C85.9417 32.3802 86.4134 32.2617 86.9922 32.2617C87.5072 32.2617 87.9583 32.3665 88.3457 32.5762C88.7331 32.7858 89.0339 33.1048 89.248 33.5332C89.4668 33.957 89.5762 34.4948 89.5762 35.1465V40H88.4141V35.2285C88.4141 34.6315 88.2568 34.1644 87.9424 33.8271C87.6279 33.4854 87.1995 33.3145 86.6572 33.3145C86.2835 33.3145 85.9486 33.3965 85.6523 33.5605C85.3561 33.7246 85.1214 33.9616 84.9482 34.2715C84.7796 34.5814 84.6953 34.9596 84.6953 35.4062ZM99.7617 34.0801L98.709 34.3672C98.6087 34.1074 98.4355 33.8613 98.1895 33.6289C97.9479 33.3919 97.5697 33.2734 97.0547 33.2734C96.5898 33.2734 96.2025 33.3828 95.8926 33.6016C95.5827 33.8158 95.4277 34.0846 95.4277 34.4082C95.4277 34.6999 95.5326 34.9323 95.7422 35.1055C95.9564 35.2786 96.2891 35.4199 96.7402 35.5293L97.875 35.8027C98.554 35.9668 99.0599 36.2197 99.3926 36.5615C99.7298 36.9033 99.8984 37.3385 99.8984 37.8672C99.8984 38.3047 99.7731 38.6966 99.5225 39.043C99.2718 39.3893 98.9232 39.6628 98.4766 39.8633C98.0299 40.0638 97.5104 40.1641 96.918 40.1641C96.1387 40.1641 95.4938 39.9932 94.9834 39.6514C94.4775 39.3096 94.1562 38.8151 94.0195 38.168L95.127 37.8945C95.2318 38.3047 95.4323 38.6123 95.7285 38.8174C96.0293 39.0225 96.4212 39.125 96.9043 39.125C97.4466 39.125 97.8796 39.0088 98.2031 38.7764C98.5312 38.5394 98.6953 38.2591 98.6953 37.9355C98.6953 37.3978 98.3171 37.0378 97.5605 36.8555L96.2891 36.5547C95.5872 36.3861 95.0723 36.1286 94.7441 35.7822C94.416 35.4359 94.252 35.0007 94.252 34.4766C94.252 34.0436 94.3727 33.6608 94.6143 33.3281C94.8604 32.9954 95.1953 32.7357 95.6191 32.5488C96.043 32.3574 96.5215 32.2617 97.0547 32.2617C97.8158 32.2617 98.4105 32.4303 98.8389 32.7676C99.2718 33.1003 99.5794 33.5378 99.7617 34.0801ZM104.328 32.3574V33.3555H100.377V32.3574H104.328ZM101.525 30.5391H102.688V37.8125C102.688 38.209 102.77 38.5007 102.934 38.6875C103.098 38.8698 103.357 38.9609 103.713 38.9609C103.79 38.9609 103.87 38.9564 103.952 38.9473C104.039 38.9382 104.132 38.9245 104.232 38.9062L104.479 39.959C104.369 40 104.235 40.0319 104.075 40.0547C103.92 40.082 103.763 40.0957 103.604 40.0957C102.988 40.0957 102.487 39.9134 102.1 39.5488C101.717 39.1842 101.525 38.7103 101.525 38.127V30.5391ZM107.691 40.1777C107.208 40.1777 106.769 40.0866 106.372 39.9043C105.976 39.7174 105.661 39.4486 105.429 39.0977C105.196 38.7467 105.08 38.3229 105.08 37.8262C105.08 37.3887 105.167 37.0355 105.34 36.7666C105.513 36.4932 105.743 36.279 106.03 36.124C106.322 35.9645 106.641 35.846 106.987 35.7686C107.338 35.6911 107.691 35.6296 108.047 35.584C108.512 35.5247 108.888 35.4792 109.175 35.4473C109.466 35.4154 109.678 35.3607 109.811 35.2832C109.947 35.2057 110.016 35.0736 110.016 34.8867V34.8457C110.016 34.3581 109.881 33.9798 109.612 33.7109C109.348 33.4375 108.945 33.3008 108.402 33.3008C107.846 33.3008 107.409 33.4238 107.09 33.6699C106.771 33.9115 106.548 34.1712 106.42 34.4492L105.299 34.0527C105.499 33.5879 105.766 33.2256 106.099 32.9658C106.436 32.7061 106.8 32.5238 107.192 32.4189C107.589 32.3141 107.979 32.2617 108.361 32.2617C108.607 32.2617 108.89 32.2913 109.209 32.3506C109.528 32.4053 109.838 32.5238 110.139 32.7061C110.444 32.8838 110.695 33.1549 110.891 33.5195C111.091 33.8796 111.191 34.3626 111.191 34.9688V40H110.016V38.9609H109.961C109.883 39.125 109.751 39.3027 109.564 39.4941C109.378 39.681 109.129 39.8428 108.819 39.9795C108.514 40.1117 108.138 40.1777 107.691 40.1777ZM107.869 39.125C108.334 39.125 108.726 39.0339 109.045 38.8516C109.364 38.6693 109.605 38.4346 109.77 38.1475C109.934 37.8558 110.016 37.5527 110.016 37.2383V36.1582C109.965 36.2174 109.856 36.2721 109.688 36.3223C109.523 36.3678 109.332 36.4089 109.113 36.4453C108.899 36.4818 108.689 36.5137 108.484 36.541C108.279 36.5638 108.115 36.582 107.992 36.5957C107.687 36.6367 107.402 36.7028 107.138 36.7939C106.873 36.8805 106.659 37.0104 106.495 37.1836C106.336 37.3568 106.256 37.5938 106.256 37.8945C106.256 38.3001 106.406 38.6077 106.707 38.8174C107.012 39.0225 107.4 39.125 107.869 39.125ZM116.004 32.3574V33.3555H112.053V32.3574H116.004ZM113.201 30.5391H114.363V37.8125C114.363 38.209 114.445 38.5007 114.609 38.6875C114.773 38.8698 115.033 38.9609 115.389 38.9609C115.466 38.9609 115.546 38.9564 115.628 38.9473C115.715 38.9382 115.808 38.9245 115.908 38.9062L116.154 39.959C116.045 40 115.91 40.0319 115.751 40.0547C115.596 40.082 115.439 40.0957 115.279 40.0957C114.664 40.0957 114.163 39.9134 113.775 39.5488C113.393 39.1842 113.201 38.7103 113.201 38.127V30.5391ZM117.125 40V32.3574H118.287V40H117.125ZM117.713 31.0859C117.485 31.0859 117.289 31.0085 117.125 30.8535C116.961 30.6986 116.879 30.5117 116.879 30.293C116.879 30.0742 116.961 29.8874 117.125 29.7324C117.289 29.5775 117.485 29.5 117.713 29.5C117.941 29.5 118.137 29.5775 118.301 29.7324C118.465 29.8874 118.547 30.0742 118.547 30.293C118.547 30.5117 118.465 30.6986 118.301 30.8535C118.137 31.0085 117.941 31.0859 117.713 31.0859ZM125.191 34.0801L124.139 34.3672C124.038 34.1074 123.865 33.8613 123.619 33.6289C123.378 33.3919 122.999 33.2734 122.484 33.2734C122.02 33.2734 121.632 33.3828 121.322 33.6016C121.012 33.8158 120.857 34.0846 120.857 34.4082C120.857 34.6999 120.962 34.9323 121.172 35.1055C121.386 35.2786 121.719 35.4199 122.17 35.5293L123.305 35.8027C123.984 35.9668 124.49 36.2197 124.822 36.5615C125.16 36.9033 125.328 37.3385 125.328 37.8672C125.328 38.3047 125.203 38.6966 124.952 39.043C124.701 39.3893 124.353 39.6628 123.906 39.8633C123.46 40.0638 122.94 40.1641 122.348 40.1641C121.568 40.1641 120.924 39.9932 120.413 39.6514C119.907 39.3096 119.586 38.8151 119.449 38.168L120.557 37.8945C120.661 38.3047 120.862 38.6123 121.158 38.8174C121.459 39.0225 121.851 39.125 122.334 39.125C122.876 39.125 123.309 39.0088 123.633 38.7764C123.961 38.5394 124.125 38.2591 124.125 37.9355C124.125 37.3978 123.747 37.0378 122.99 36.8555L121.719 36.5547C121.017 36.3861 120.502 36.1286 120.174 35.7822C119.846 35.4359 119.682 35.0007 119.682 34.4766C119.682 34.0436 119.802 33.6608 120.044 33.3281C120.29 32.9954 120.625 32.7357 121.049 32.5488C121.473 32.3574 121.951 32.2617 122.484 32.2617C123.245 32.2617 123.84 32.4303 124.269 32.7676C124.701 33.1003 125.009 33.5378 125.191 34.0801ZM129.758 32.3574V33.3555H125.807V32.3574H129.758ZM126.955 30.5391H128.117V37.8125C128.117 38.209 128.199 38.5007 128.363 38.6875C128.527 38.8698 128.787 38.9609 129.143 38.9609C129.22 38.9609 129.3 38.9564 129.382 38.9473C129.468 38.9382 129.562 38.9245 129.662 38.9062L129.908 39.959C129.799 40 129.664 40.0319 129.505 40.0547C129.35 40.082 129.193 40.0957 129.033 40.0957C128.418 40.0957 127.917 39.9134 127.529 39.5488C127.146 39.1842 126.955 38.7103 126.955 38.127V30.5391ZM130.879 40V32.3574H132.041V40H130.879ZM131.467 31.0859C131.239 31.0859 131.043 31.0085 130.879 30.8535C130.715 30.6986 130.633 30.5117 130.633 30.293C130.633 30.0742 130.715 29.8874 130.879 29.7324C131.043 29.5775 131.239 29.5 131.467 29.5C131.695 29.5 131.891 29.5775 132.055 29.7324C132.219 29.8874 132.301 30.0742 132.301 30.293C132.301 30.5117 132.219 30.6986 132.055 30.8535C131.891 31.0085 131.695 31.0859 131.467 31.0859ZM136.635 40.1641C135.924 40.1641 135.309 39.9954 134.789 39.6582C134.274 39.3164 133.875 38.8493 133.593 38.2568C133.315 37.6644 133.176 36.9876 133.176 36.2266C133.176 35.4473 133.319 34.7614 133.606 34.1689C133.894 33.5719 134.295 33.1048 134.81 32.7676C135.329 32.4303 135.933 32.2617 136.621 32.2617C137.159 32.2617 137.642 32.362 138.07 32.5625C138.503 32.7585 138.856 33.0365 139.13 33.3965C139.408 33.7565 139.579 34.1758 139.643 34.6543H138.467C138.408 34.4219 138.3 34.2031 138.146 33.998C137.991 33.793 137.785 33.6289 137.53 33.5059C137.28 33.3783 136.981 33.3145 136.635 33.3145C136.179 33.3145 135.78 33.4329 135.438 33.6699C135.097 33.9069 134.83 34.2419 134.639 34.6748C134.447 35.1032 134.352 35.6068 134.352 36.1855C134.352 36.7734 134.445 37.2884 134.632 37.7305C134.819 38.168 135.083 38.5075 135.425 38.749C135.771 38.9906 136.174 39.1113 136.635 39.1113C137.095 39.1113 137.489 38.9928 137.817 38.7559C138.146 38.5143 138.362 38.1862 138.467 37.7715H139.643C139.579 38.2227 139.415 38.6283 139.15 38.9883C138.891 39.3483 138.547 39.6354 138.118 39.8496C137.694 40.0592 137.2 40.1641 136.635 40.1641ZM146.15 34.0801L145.098 34.3672C144.997 34.1074 144.824 33.8613 144.578 33.6289C144.337 33.3919 143.958 33.2734 143.443 33.2734C142.979 33.2734 142.591 33.3828 142.281 33.6016C141.971 33.8158 141.816 34.0846 141.816 34.4082C141.816 34.6999 141.921 34.9323 142.131 35.1055C142.345 35.2786 142.678 35.4199 143.129 35.5293L144.264 35.8027C144.943 35.9668 145.449 36.2197 145.781 36.5615C146.118 36.9033 146.287 37.3385 146.287 37.8672C146.287 38.3047 146.162 38.6966 145.911 39.043C145.66 39.3893 145.312 39.6628 144.865 39.8633C144.419 40.0638 143.899 40.1641 143.307 40.1641C142.527 40.1641 141.882 39.9932 141.372 39.6514C140.866 39.3096 140.545 38.8151 140.408 38.168L141.516 37.8945C141.62 38.3047 141.821 38.6123 142.117 38.8174C142.418 39.0225 142.81 39.125 143.293 39.125C143.835 39.125 144.268 39.0088 144.592 38.7764C144.92 38.5394 145.084 38.2591 145.084 37.9355C145.084 37.3978 144.706 37.0378 143.949 36.8555L142.678 36.5547C141.976 36.3861 141.461 36.1286 141.133 35.7822C140.805 35.4359 140.641 35.0007 140.641 34.4766C140.641 34.0436 140.761 33.6608 141.003 33.3281C141.249 32.9954 141.584 32.7357 142.008 32.5488C142.432 32.3574 142.91 32.2617 143.443 32.2617C144.204 32.2617 144.799 32.4303 145.228 32.7676C145.66 33.1003 145.968 33.5378 146.15 34.0801Z" fill="#1A1A1C" fill-opacity="0.6"/>
<path d="M25.332 68.8164V50.6328H26.4844V68.8164H25.332ZM25.8984 67.2539C24.8568 67.2539 23.9551 67.0879 23.1934 66.7559C22.4316 66.4173 21.8327 65.9486 21.3965 65.3496C20.9668 64.7441 20.7227 64.0443 20.6641 63.25H22.4805C22.5326 63.7969 22.7181 64.2493 23.0371 64.6074C23.3626 64.9655 23.776 65.2324 24.2773 65.4082C24.7786 65.584 25.319 65.6719 25.8984 65.6719C26.569 65.6719 27.1712 65.5612 27.7051 65.3398C28.2454 65.1185 28.6719 64.8092 28.9844 64.4121C29.2969 64.015 29.4531 63.5495 29.4531 63.0156C29.4531 62.5339 29.3164 62.1432 29.043 61.8438C28.7695 61.5443 28.4115 61.3001 27.9688 61.1113C27.5326 60.9225 27.0573 60.7565 26.543 60.6133L24.7656 60.1055C23.6263 59.7799 22.7246 59.3145 22.0605 58.709C21.403 58.097 21.0742 57.2995 21.0742 56.3164C21.0742 55.5026 21.2923 54.793 21.7285 54.1875C22.1712 53.5755 22.7669 53.1003 23.5156 52.7617C24.2708 52.4232 25.1107 52.2539 26.0352 52.2539C26.9727 52.2539 27.806 52.4232 28.5352 52.7617C29.2643 53.0938 29.8438 53.5495 30.2734 54.1289C30.7031 54.7018 30.931 55.3529 30.957 56.082H29.2383C29.1536 55.3659 28.8086 54.8092 28.2031 54.4121C27.6042 54.015 26.862 53.8164 25.9766 53.8164C25.3385 53.8164 24.7786 53.9206 24.2969 54.1289C23.8151 54.3372 23.4408 54.6237 23.1738 54.9883C22.9069 55.3529 22.7734 55.7695 22.7734 56.2383C22.7734 56.7526 22.9329 57.1693 23.252 57.4883C23.571 57.8008 23.9486 58.0449 24.3848 58.2207C24.8275 58.3965 25.2279 58.5365 25.5859 58.6406L27.0508 59.0508C27.4284 59.1549 27.8483 59.2949 28.3105 59.4707C28.7793 59.6465 29.2285 59.8841 29.6582 60.1836C30.0944 60.4831 30.4525 60.8672 30.7324 61.3359C31.0124 61.7982 31.1523 62.3711 31.1523 63.0547C31.1523 63.8359 30.9473 64.5456 30.5371 65.1836C30.127 65.8151 29.5312 66.3197 28.75 66.6973C27.9688 67.0684 27.0182 67.2539 25.8984 67.2539ZM37.207 64.0117V62.5664L43.5938 52.4492H44.6484V54.6953H43.9258L39.1016 62.332V62.4492H47.7148V64.0117H37.207ZM44.043 67V63.582V62.8984V52.4492H45.7227V67H44.043ZM54.0234 52.4492V67H52.3047V54.3047H52.207L48.6719 56.668V54.8711L52.3047 52.4492H54.0234ZM57.6855 67.1172C57.334 67.1172 57.0312 66.9935 56.7773 66.7461C56.5299 66.4922 56.4062 66.1895 56.4062 65.8379C56.4062 65.4863 56.5299 65.1868 56.7773 64.9395C57.0312 64.6855 57.334 64.5586 57.6855 64.5586C58.0371 64.5586 58.3366 64.6855 58.584 64.9395C58.8379 65.1868 58.9648 65.4863 58.9648 65.8379C58.9648 66.1895 58.8379 66.4922 58.584 66.7461C58.3366 66.9935 58.0371 67.1172 57.6855 67.1172ZM65.4688 67.1953C64.5247 67.1953 63.6882 67.0358 62.959 66.7168C62.2298 66.3978 61.6504 65.9518 61.2207 65.3789C60.791 64.7995 60.5599 64.1289 60.5273 63.3672H62.3047C62.3438 63.8359 62.5033 64.2396 62.7832 64.5781C63.0697 64.9167 63.4408 65.1771 63.8965 65.3594C64.3587 65.5417 64.8698 65.6328 65.4297 65.6328C66.0547 65.6328 66.6081 65.5254 67.0898 65.3105C67.5781 65.0892 67.959 64.7865 68.2324 64.4023C68.5124 64.0117 68.6523 63.5625 68.6523 63.0547C68.6523 62.5143 68.5189 62.0391 68.252 61.6289C67.985 61.2188 67.5944 60.8997 67.0801 60.6719C66.5723 60.4375 65.9505 60.3203 65.2148 60.3203H64.043V58.7578H65.2148C65.7878 58.7578 66.2923 58.6536 66.7285 58.4453C67.1647 58.237 67.5065 57.944 67.7539 57.5664C68.0013 57.1888 68.125 56.7461 68.125 56.2383C68.125 55.7435 68.0176 55.3138 67.8027 54.9492C67.5879 54.5846 67.2819 54.3014 66.8848 54.0996C66.4941 53.8978 66.0286 53.7969 65.4883 53.7969C64.987 53.7969 64.515 53.888 64.0723 54.0703C63.6296 54.2526 63.2682 54.513 62.9883 54.8516C62.7083 55.1901 62.5586 55.6003 62.5391 56.082H60.8398C60.8659 55.3203 61.0938 54.653 61.5234 54.0801C61.9531 53.5072 62.5163 53.0612 63.2129 52.7422C63.916 52.4167 64.6875 52.2539 65.5273 52.2539C66.4258 52.2539 67.1973 52.4362 67.8418 52.8008C68.4863 53.1589 68.9811 53.6341 69.3262 54.2266C69.6712 54.819 69.8438 55.457 69.8438 56.1406C69.8438 56.9674 69.6289 57.6673 69.1992 58.2402C68.776 58.8132 68.1966 59.2135 67.4609 59.4414V59.5586C68.3724 59.7083 69.0853 60.099 69.5996 60.7305C70.1139 61.3555 70.3711 62.1302 70.3711 63.0547C70.3711 63.8424 70.1562 64.5488 69.7266 65.1738C69.3034 65.7988 68.7207 66.2936 67.9785 66.6582C67.2428 67.0163 66.4062 67.1953 65.4688 67.1953ZM72.793 67L79.2969 54.1289V54.0117H71.7969V52.4492H81.1328V54.1094L74.6484 67H72.793ZM87.0117 52.2539C87.6107 52.2604 88.2064 52.3743 88.7988 52.5957C89.3978 52.8171 89.9447 53.1849 90.4395 53.6992C90.9342 54.2135 91.3281 54.9134 91.6211 55.7988C91.9206 56.6842 92.0703 57.7943 92.0703 59.1289C92.0703 60.4245 91.9499 61.5736 91.709 62.5762C91.4681 63.5723 91.1165 64.4154 90.6543 65.1055C90.1986 65.7891 89.6452 66.3099 88.9941 66.668C88.3431 67.0195 87.6107 67.1953 86.7969 67.1953C85.9831 67.1953 85.2539 67.0326 84.6094 66.707C83.9714 66.3815 83.4505 65.929 83.0469 65.3496C82.6432 64.7702 82.3828 64.0964 82.2656 63.3281H84.0039C84.1602 63.9987 84.4727 64.5521 84.9414 64.9883C85.4102 65.418 86.0286 65.6328 86.7969 65.6328C87.9167 65.6328 88.7988 65.1445 89.4434 64.168C90.0944 63.1849 90.4232 61.7982 90.4297 60.0078H90.3125C90.0456 60.4049 89.7298 60.75 89.3652 61.043C89.0007 61.3294 88.597 61.5508 88.1543 61.707C87.7116 61.8633 87.2396 61.9414 86.7383 61.9414C85.9049 61.9414 85.14 61.7363 84.4434 61.3262C83.7467 60.9095 83.1901 60.3398 82.7734 59.6172C82.3633 58.888 82.1549 58.0547 82.1484 57.1172C82.1549 56.2253 82.3568 55.4115 82.7539 54.6758C83.1576 53.9336 83.7207 53.3411 84.4434 52.8984C85.1725 52.4557 86.0286 52.2409 87.0117 52.2539ZM87.0117 53.8164C86.4193 53.8164 85.8822 53.9661 85.4004 54.2656C84.9251 54.5586 84.5508 54.9557 84.2773 55.457C84.0039 55.9518 83.8672 56.5052 83.8672 57.1172C83.8672 57.7227 83.9974 58.2728 84.2578 58.7676C84.5247 59.2624 84.8926 59.6562 85.3613 59.9492C85.8301 60.2357 86.3607 60.3789 86.9531 60.3789C87.5521 60.3789 88.0924 60.2259 88.5742 59.9199C89.0625 59.6074 89.4499 59.2005 89.7363 58.6992C90.0293 58.1979 90.1758 57.6576 90.1758 57.0781C90.1758 56.5117 90.0391 55.9811 89.7656 55.4863C89.4922 54.985 89.1178 54.5814 88.6426 54.2754C88.1673 53.9694 87.6237 53.8164 87.0117 53.8164Z" fill="#1A1A1C"/>
<rect x="291" y="29.5" width="49" height="40" rx="8" fill="#BEAB9A"/>
<path d="M299.727 55.5V53.9844L303.773 50.0156C304.154 49.625 304.471 49.2786 304.727 48.9766C304.987 48.6745 305.182 48.3828 305.312 48.1016C305.443 47.8151 305.508 47.5104 305.508 47.1875C305.508 46.8229 305.424 46.5078 305.258 46.2422C305.091 45.9766 304.862 45.7734 304.57 45.6328C304.284 45.4922 303.956 45.4219 303.586 45.4219C303.201 45.4219 302.865 45.5 302.578 45.6562C302.292 45.8125 302.068 46.0339 301.906 46.3203C301.75 46.6068 301.672 46.9479 301.672 47.3438H299.672C299.672 46.6094 299.839 45.9714 300.172 45.4297C300.51 44.8828 300.977 44.4583 301.57 44.1562C302.164 43.8542 302.844 43.7031 303.609 43.7031C304.396 43.7031 305.083 43.849 305.672 44.1406C306.26 44.4323 306.719 44.8333 307.047 45.3438C307.375 45.849 307.539 46.4271 307.539 47.0781C307.539 47.5156 307.456 47.9453 307.289 48.3672C307.122 48.7839 306.828 49.25 306.406 49.7656C305.99 50.276 305.404 50.8932 304.648 51.6172L302.648 53.6562V53.7422H307.711V55.5H299.727ZM313.398 55.6562C312.456 55.6562 311.648 55.4219 310.977 54.9531C310.31 54.4792 309.799 53.7995 309.445 52.9141C309.091 52.0234 308.914 50.9479 308.914 49.6875C308.914 48.4271 309.091 47.3516 309.445 46.4609C309.799 45.5651 310.31 44.8828 310.977 44.4141C311.648 43.9401 312.456 43.7031 313.398 43.7031C314.336 43.7031 315.141 43.9401 315.812 44.4141C316.484 44.888 316.997 45.5703 317.352 46.4609C317.706 47.3516 317.883 48.4271 317.883 49.6875C317.883 50.9479 317.706 52.0234 317.352 52.9141C316.997 53.7995 316.487 54.4792 315.82 54.9531C315.154 55.4219 314.346 55.6562 313.398 55.6562ZM313.398 53.8906C313.904 53.8906 314.331 53.7266 314.68 53.3984C315.034 53.0703 315.302 52.5938 315.484 51.9688C315.672 51.3385 315.766 50.5781 315.766 49.6875C315.766 48.7917 315.672 48.0286 315.484 47.3984C315.302 46.7682 315.034 46.2891 314.68 45.9609C314.331 45.6276 313.904 45.4609 313.398 45.4609C312.638 45.4609 312.052 45.8307 311.641 46.5703C311.234 47.3047 311.031 48.3438 311.031 49.6875C311.031 50.5781 311.122 51.3385 311.305 51.9688C311.487 52.5938 311.755 53.0703 312.109 53.3984C312.464 53.7266 312.893 53.8906 313.398 53.8906ZM325.398 53.3125V52.7031C325.398 52.25 325.492 51.8333 325.68 51.4531C325.867 51.0729 326.146 50.7682 326.516 50.5391C326.885 50.3099 327.333 50.1953 327.859 50.1953C328.396 50.1953 328.846 50.3099 329.211 50.5391C329.576 50.7682 329.849 51.0729 330.031 51.4531C330.219 51.8281 330.312 52.2448 330.312 52.7031V53.3125C330.312 53.7656 330.219 54.1823 330.031 54.5625C329.844 54.9427 329.568 55.2474 329.203 55.4766C328.839 55.7057 328.391 55.8203 327.859 55.8203C327.328 55.8203 326.878 55.7057 326.508 55.4766C326.138 55.2474 325.859 54.9427 325.672 54.5625C325.49 54.1823 325.398 53.7656 325.398 53.3125ZM326.875 52.7031V53.3125C326.875 53.6146 326.948 53.8906 327.094 54.1406C327.24 54.3906 327.495 54.5156 327.859 54.5156C328.219 54.5156 328.469 54.3906 328.609 54.1406C328.75 53.8906 328.82 53.6146 328.82 53.3125V52.7031C328.82 52.401 328.753 52.125 328.617 51.875C328.487 51.625 328.234 51.5 327.859 51.5C327.5 51.5 327.245 51.625 327.094 51.875C326.948 52.125 326.875 52.401 326.875 52.7031ZM319.484 46.6562V46.0469C319.484 45.5885 319.581 45.1719 319.773 44.7969C319.966 44.4167 320.245 44.112 320.609 43.8828C320.974 43.6536 321.417 43.5391 321.938 43.5391C322.479 43.5391 322.932 43.6536 323.297 43.8828C323.661 44.112 323.938 44.4167 324.125 44.7969C324.312 45.1719 324.404 45.5885 324.398 46.0469V46.6562C324.404 47.1094 324.31 47.526 324.117 47.9062C323.924 48.2865 323.646 48.5911 323.281 48.8203C322.917 49.0443 322.469 49.1562 321.938 49.1562C321.406 49.1562 320.958 49.0417 320.594 48.8125C320.229 48.5833 319.953 48.2786 319.766 47.8984C319.578 47.5182 319.484 47.1042 319.484 46.6562ZM320.977 46.0469V46.6562C320.977 46.9583 321.047 47.2344 321.188 47.4844C321.328 47.7344 321.578 47.8568 321.938 47.8516C322.307 47.8568 322.56 47.7344 322.695 47.4844C322.836 47.2344 322.906 46.9583 322.906 46.6562V46.0469C322.906 45.7448 322.839 45.4688 322.703 45.2188C322.573 44.9635 322.318 44.8359 321.938 44.8359C321.583 44.8359 321.333 44.9635 321.188 45.2188C321.047 45.474 320.977 45.75 320.977 46.0469ZM320.125 55.5L328.125 43.8594H329.555L321.555 55.5H320.125Z" fill="#FCFCFC"/>
<path d="M20 146L20 111.714C20 107.296 23.5817 103.714 28 103.714C32.4183 103.714 36 107.296 36 111.714L36 146L20 146Z" fill="url(#paint0_linear_2267_36564)"/>
<path d="M70.667 146L70.667 124.286C70.667 119.867 74.2487 116.286 78.667 116.286C83.0853 116.286 86.667 119.867 86.667 124.286L86.667 146L70.667 146Z" fill="url(#paint1_linear_2267_36564)"/>
<path d="M121.333 146L121.333 95.7143C121.333 91.296 124.915 87.7143 129.333 87.7143C133.751 87.7143 137.333 91.296 137.333 95.7143L137.333 146L121.333 146Z" fill="url(#paint2_linear_2267_36564)"/>
<path d="M172 146L172 117.429C172 113.01 175.582 109.429 180 109.429C184.418 109.429 188 113.01 188 117.429L188 146L172 146Z" fill="url(#paint3_linear_2267_36564)"/>
<path d="M222.667 146L222.667 104.857C222.667 100.439 226.249 96.8571 230.667 96.8571C235.085 96.8571 238.667 100.439 238.667 104.857L238.667 146L222.667 146Z" fill="url(#paint4_linear_2267_36564)"/>
<path d="M273.333 146L273.333 90C273.333 85.5817 276.915 82 281.333 82C285.751 82 289.333 85.5817 289.333 90L289.333 146L273.333 146Z" fill="url(#paint5_linear_2267_36564)"/>
<path d="M324 146L324 136.857C324 132.439 327.582 128.857 332 128.857C336.418 128.857 340 132.439 340 136.857L340 146L324 146Z" fill="url(#paint6_linear_2267_36564)"/>
<defs>
<linearGradient id="paint0_linear_2267_36564" x1="27.9998" y1="106.063" x2="27.9998" y2="146" gradientUnits="userSpaceOnUse">
<stop stop-color="#BEAB9A"/>
<stop offset="1" stop-color="#F4EFE7"/>
</linearGradient>
<linearGradient id="paint1_linear_2267_36564" x1="78.6668" y1="117.937" x2="78.6668" y2="146" gradientUnits="userSpaceOnUse">
<stop stop-color="#BEAB9A"/>
<stop offset="1" stop-color="#F4EFE7"/>
</linearGradient>
<linearGradient id="paint2_linear_2267_36564" x1="129.333" y1="90.9524" x2="129.333" y2="146" gradientUnits="userSpaceOnUse">
<stop stop-color="#BEAB9A"/>
<stop offset="1" stop-color="#F4EFE7"/>
</linearGradient>
<linearGradient id="paint3_linear_2267_36564" x1="180" y1="111.46" x2="180" y2="146" gradientUnits="userSpaceOnUse">
<stop stop-color="#BEAB9A"/>
<stop offset="1" stop-color="#F4EFE7"/>
</linearGradient>
<linearGradient id="paint4_linear_2267_36564" x1="230.667" y1="99.5873" x2="230.667" y2="146" gradientUnits="userSpaceOnUse">
<stop stop-color="#BEAB9A"/>
<stop offset="1" stop-color="#F4EFE7"/>
</linearGradient>
<linearGradient id="paint5_linear_2267_36564" x1="281.333" y1="85.5556" x2="281.333" y2="146" gradientUnits="userSpaceOnUse">
<stop stop-color="#BEAB9A"/>
<stop offset="1" stop-color="#F4EFE7"/>
</linearGradient>
<linearGradient id="paint6_linear_2267_36564" x1="332" y1="129.81" x2="332" y2="146" gradientUnits="userSpaceOnUse">
<stop stop-color="#BEAB9A"/>
<stop offset="1" stop-color="#F4EFE7"/>
</linearGradient>
</defs>
</svg>
