<svg width="326" height="305" viewBox="0 0 326 305" fill="none" xmlns="http://www.w3.org/2000/svg">
<rect width="326" height="305" fill="#F4F5F8"/>
<path d="M24 36C24 29.3726 29.3726 24 36 24H290C296.627 24 302 29.3726 302 36V102C302 108.627 296.627 114 290 114H36C29.3726 114 24 108.627 24 102V36Z" fill="#F4EFE7"/>
<path d="M46.3984 68.1797V46.3594H47.7812V68.1797H46.3984ZM47.0781 66.3047C45.8281 66.3047 44.7461 66.1055 43.832 65.707C42.918 65.3008 42.1992 64.7383 41.6758 64.0195C41.1602 63.293 40.8672 62.4531 40.7969 61.5H42.9766C43.0391 62.1562 43.2617 62.6992 43.6445 63.1289C44.0352 63.5586 44.5312 63.8789 45.1328 64.0898C45.7344 64.3008 46.3828 64.4062 47.0781 64.4062C47.8828 64.4062 48.6055 64.2734 49.2461 64.0078C49.8945 63.7422 50.4062 63.3711 50.7812 62.8945C51.1562 62.418 51.3438 61.8594 51.3438 61.2188C51.3438 60.6406 51.1797 60.1719 50.8516 59.8125C50.5234 59.4531 50.0938 59.1602 49.5625 58.9336C49.0391 58.707 48.4688 58.5078 47.8516 58.3359L45.7188 57.7266C44.3516 57.3359 43.2695 56.7773 42.4727 56.0508C41.6836 55.3164 41.2891 54.3594 41.2891 53.1797C41.2891 52.2031 41.5508 51.3516 42.0742 50.625C42.6055 49.8906 43.3203 49.3203 44.2188 48.9141C45.125 48.5078 46.1328 48.3047 47.2422 48.3047C48.3672 48.3047 49.3672 48.5078 50.2422 48.9141C51.1172 49.3125 51.8125 49.8594 52.3281 50.5547C52.8438 51.2422 53.1172 52.0234 53.1484 52.8984H51.0859C50.9844 52.0391 50.5703 51.3711 49.8438 50.8945C49.125 50.418 48.2344 50.1797 47.1719 50.1797C46.4062 50.1797 45.7344 50.3047 45.1562 50.5547C44.5781 50.8047 44.1289 51.1484 43.8086 51.5859C43.4883 52.0234 43.3281 52.5234 43.3281 53.0859C43.3281 53.7031 43.5195 54.2031 43.9023 54.5859C44.2852 54.9609 44.7383 55.2539 45.2617 55.4648C45.793 55.6758 46.2734 55.8438 46.7031 55.9688L48.4609 56.4609C48.9141 56.5859 49.418 56.7539 49.9727 56.9648C50.5352 57.1758 51.0742 57.4609 51.5898 57.8203C52.1133 58.1797 52.543 58.6406 52.8789 59.2031C53.2148 59.7578 53.3828 60.4453 53.3828 61.2656C53.3828 62.2031 53.1367 63.0547 52.6445 63.8203C52.1523 64.5781 51.4375 65.1836 50.5 65.6367C49.5625 66.082 48.4219 66.3047 47.0781 66.3047ZM61.1641 48.5391V66H59.1016V50.7656H58.9844L54.7422 53.6016V51.4453L59.1016 48.5391H61.1641ZM64.4922 66L72.2969 50.5547V50.4141H63.2969V48.5391H74.5V50.5312L66.7188 66H64.4922ZM73.0234 70.1484L74.0547 63.5625H76.375L74.5703 70.1484H73.0234ZM84.4609 66.2344C83.4609 66.2344 82.5586 66.0391 81.7539 65.6484C80.957 65.25 80.3164 64.7031 79.832 64.0078C79.3477 63.3125 79.0859 62.5234 79.0469 61.6406H81.0859C81.1641 62.4219 81.5195 63.0703 82.1523 63.5859C82.793 64.1016 83.5625 64.3594 84.4609 64.3594C85.1797 64.3594 85.8164 64.1914 86.3711 63.8555C86.9258 63.5195 87.3633 63.0586 87.6836 62.4727C88.0039 61.8867 88.1641 61.2188 88.1641 60.4688C88.1641 59.7109 87.9961 59.0312 87.6602 58.4297C87.332 57.8281 86.8789 57.3555 86.3008 57.0117C85.7227 56.6602 85.0625 56.4844 84.3203 56.4844C83.7812 56.4844 83.2305 56.5703 82.668 56.7422C82.1133 56.9062 81.6562 57.1172 81.2969 57.375L79.3047 57.1406L80.3594 48.5391H89.4297V50.4141H82.1406L81.5312 55.5703H81.625C81.9844 55.2812 82.4336 55.0469 82.9727 54.8672C83.5117 54.6797 84.0781 54.5859 84.6719 54.5859C85.7422 54.5859 86.6953 54.8398 87.5312 55.3477C88.3672 55.8555 89.0234 56.5508 89.5 57.4336C89.9844 58.3086 90.2266 59.3125 90.2266 60.4453C90.2266 61.5547 89.9766 62.5469 89.4766 63.4219C88.9766 64.2969 88.293 64.9844 87.4258 65.4844C86.5586 65.9844 85.5703 66.2344 84.4609 66.2344ZM92.3359 66V64.4766L98.1016 58.1484C98.7734 57.4141 99.3242 56.7734 99.7539 56.2266C100.191 55.6797 100.516 55.1641 100.727 54.6797C100.945 54.1953 101.055 53.6875 101.055 53.1562C101.055 52.5391 100.906 52.0078 100.609 51.5625C100.32 51.1094 99.9258 50.7617 99.4258 50.5195C98.9258 50.2773 98.3594 50.1562 97.7266 50.1562C97.0547 50.1562 96.4688 50.293 95.9688 50.5664C95.4766 50.8398 95.0938 51.2266 94.8203 51.7266C94.5547 52.2188 94.4219 52.7969 94.4219 53.4609H92.4062C92.4062 52.4375 92.6406 51.5391 93.1094 50.7656C93.5859 49.9922 94.2305 49.3906 95.043 48.9609C95.8633 48.5234 96.7812 48.3047 97.7969 48.3047C98.8203 48.3047 99.7266 48.5234 100.516 48.9609C101.305 49.3906 101.922 49.9727 102.367 50.707C102.82 51.4336 103.047 52.25 103.047 53.1562C103.047 53.7969 102.93 54.4219 102.695 55.0312C102.469 55.6328 102.07 56.3086 101.5 57.0586C100.938 57.8086 100.156 58.7188 99.1562 59.7891L95.2422 63.9844V64.125H103.352V66H92.3359ZM111.484 48.5391V66H109.422V50.7656H109.305L105.062 53.6016V51.4453L109.422 48.5391H111.484ZM115.879 66.1406C115.457 66.1406 115.094 65.9922 114.789 65.6953C114.492 65.3906 114.344 65.0273 114.344 64.6055C114.344 64.1836 114.492 63.8242 114.789 63.5273C115.094 63.2227 115.457 63.0703 115.879 63.0703C116.301 63.0703 116.66 63.2227 116.957 63.5273C117.262 63.8242 117.414 64.1836 117.414 64.6055C117.414 65.0273 117.262 65.3906 116.957 65.6953C116.66 65.9922 116.301 66.1406 115.879 66.1406ZM125.055 66.2344C123.773 66.2344 122.68 65.8828 121.773 65.1797C120.867 64.4766 120.176 63.4609 119.699 62.1328C119.223 60.7969 118.984 59.1797 118.984 57.2812C118.984 55.3906 119.223 53.7773 119.699 52.4414C120.184 51.0977 120.879 50.0742 121.785 49.3711C122.691 48.6602 123.781 48.3047 125.055 48.3047C126.328 48.3047 127.418 48.6602 128.324 49.3711C129.23 50.0742 129.922 51.0977 130.398 52.4414C130.883 53.7773 131.125 55.3906 131.125 57.2812C131.125 59.1797 130.887 60.7969 130.41 62.1328C129.934 63.4609 129.242 64.4766 128.336 65.1797C127.438 65.8828 126.344 66.2344 125.055 66.2344ZM125.055 64.3828C125.922 64.3828 126.656 64.1055 127.258 63.5508C127.859 62.9883 128.316 62.1758 128.629 61.1133C128.949 60.0508 129.109 58.7734 129.109 57.2812C129.109 55.7812 128.949 54.5 128.629 53.4375C128.316 52.375 127.859 51.5625 127.258 51C126.656 50.4375 125.922 50.1562 125.055 50.1562C123.758 50.1562 122.758 50.7812 122.055 52.0312C121.352 53.2812 121 55.0312 121 57.2812C121 58.7734 121.156 60.0508 121.469 61.1133C121.789 62.1758 122.25 62.9883 122.852 63.5508C123.461 64.1055 124.195 64.3828 125.055 64.3828ZM138.93 66.2344C137.648 66.2344 136.555 65.8828 135.648 65.1797C134.742 64.4766 134.051 63.4609 133.574 62.1328C133.098 60.7969 132.859 59.1797 132.859 57.2812C132.859 55.3906 133.098 53.7773 133.574 52.4414C134.059 51.0977 134.754 50.0742 135.66 49.3711C136.566 48.6602 137.656 48.3047 138.93 48.3047C140.203 48.3047 141.293 48.6602 142.199 49.3711C143.105 50.0742 143.797 51.0977 144.273 52.4414C144.758 53.7773 145 55.3906 145 57.2812C145 59.1797 144.762 60.7969 144.285 62.1328C143.809 63.4609 143.117 64.4766 142.211 65.1797C141.312 65.8828 140.219 66.2344 138.93 66.2344ZM138.93 64.3828C139.797 64.3828 140.531 64.1055 141.133 63.5508C141.734 62.9883 142.191 62.1758 142.504 61.1133C142.824 60.0508 142.984 58.7734 142.984 57.2812C142.984 55.7812 142.824 54.5 142.504 53.4375C142.191 52.375 141.734 51.5625 141.133 51C140.531 50.4375 139.797 50.1562 138.93 50.1562C137.633 50.1562 136.633 50.7812 135.93 52.0312C135.227 53.2812 134.875 55.0312 134.875 57.2812C134.875 58.7734 135.031 60.0508 135.344 61.1133C135.664 62.1758 136.125 62.9883 136.727 63.5508C137.336 64.1055 138.07 64.3828 138.93 64.3828Z" fill="black"/>
<path d="M41.0312 92V80.3594H44.9688C45.8802 80.3594 46.625 80.5156 47.2031 80.8281C47.7865 81.1354 48.2188 81.5599 48.5 82.1016C48.7812 82.638 48.9219 83.25 48.9219 83.9375C48.9219 84.6198 48.7812 85.2266 48.5 85.7578C48.224 86.2891 47.7943 86.7057 47.2109 87.0078C46.6328 87.3047 45.8906 87.4531 44.9844 87.4531H41.8125V86.1875H44.9375C45.5625 86.1875 46.0651 86.0964 46.4453 85.9141C46.8255 85.7318 47.1016 85.474 47.2734 85.1406C47.4453 84.8021 47.5312 84.401 47.5312 83.9375C47.5312 83.4688 47.4427 83.0599 47.2656 82.7109C47.0938 82.362 46.8177 82.0911 46.4375 81.8984C46.0573 81.7057 45.5521 81.6094 44.9219 81.6094H42.4375V92H41.0312ZM47.7344 92L44.9219 86.7656H46.5156L49.375 92H47.7344ZM53.9062 92.1875C53.0677 92.1875 52.3411 92 51.7266 91.625C51.1172 91.25 50.6484 90.7266 50.3203 90.0547C49.9922 89.3776 49.8281 88.5938 49.8281 87.7031C49.8281 86.8073 49.9896 86.0182 50.3125 85.3359C50.6354 84.6536 51.0885 84.1198 51.6719 83.7344C52.2604 83.349 52.9479 83.1562 53.7344 83.1562C54.1875 83.1562 54.638 83.2318 55.0859 83.3828C55.5339 83.5339 55.9401 83.7786 56.3047 84.1172C56.6745 84.4557 56.9688 84.9036 57.1875 85.4609C57.4062 86.0182 57.5156 86.7031 57.5156 87.5156V88.0938H50.7812V86.9375H56.7891L56.1719 87.375C56.1719 86.7917 56.0807 86.2734 55.8984 85.8203C55.7161 85.3672 55.4427 85.0104 55.0781 84.75C54.7188 84.4896 54.2708 84.3594 53.7344 84.3594C53.1979 84.3594 52.737 84.4922 52.3516 84.7578C51.9714 85.0182 51.6797 85.3594 51.4766 85.7812C51.2734 86.2031 51.1719 86.6562 51.1719 87.1406V87.9062C51.1719 88.5677 51.2865 89.1276 51.5156 89.5859C51.7448 90.0443 52.0651 90.3932 52.4766 90.6328C52.888 90.8672 53.3646 90.9844 53.9062 90.9844C54.2552 90.9844 54.5729 90.9349 54.8594 90.8359C55.1458 90.7318 55.3932 90.5781 55.6016 90.375C55.8099 90.1667 55.9688 89.9115 56.0781 89.6094L57.375 89.9844C57.2396 90.4219 57.0104 90.8073 56.6875 91.1406C56.3698 91.4688 55.974 91.7266 55.5 91.9141C55.026 92.0964 54.4948 92.1875 53.9062 92.1875ZM65.5938 83.2656L62.375 92H61L57.7812 83.2656H59.2344L61.6406 90.2344H61.7344L64.1406 83.2656H65.5938ZM69.9688 92.1875C69.1302 92.1875 68.4036 92 67.7891 91.625C67.1797 91.25 66.7109 90.7266 66.3828 90.0547C66.0547 89.3776 65.8906 88.5938 65.8906 87.7031C65.8906 86.8073 66.0521 86.0182 66.375 85.3359C66.6979 84.6536 67.151 84.1198 67.7344 83.7344C68.3229 83.349 69.0104 83.1562 69.7969 83.1562C70.25 83.1562 70.7005 83.2318 71.1484 83.3828C71.5964 83.5339 72.0026 83.7786 72.3672 84.1172C72.737 84.4557 73.0312 84.9036 73.25 85.4609C73.4688 86.0182 73.5781 86.7031 73.5781 87.5156V88.0938H66.8438V86.9375H72.8516L72.2344 87.375C72.2344 86.7917 72.1432 86.2734 71.9609 85.8203C71.7786 85.3672 71.5052 85.0104 71.1406 84.75C70.7812 84.4896 70.3333 84.3594 69.7969 84.3594C69.2604 84.3594 68.7995 84.4922 68.4141 84.7578C68.0339 85.0182 67.7422 85.3594 67.5391 85.7812C67.3359 86.2031 67.2344 86.6562 67.2344 87.1406V87.9062C67.2344 88.5677 67.349 89.1276 67.5781 89.5859C67.8073 90.0443 68.1276 90.3932 68.5391 90.6328C68.9505 90.8672 69.4271 90.9844 69.9688 90.9844C70.3177 90.9844 70.6354 90.9349 70.9219 90.8359C71.2083 90.7318 71.4557 90.5781 71.6641 90.375C71.8724 90.1667 72.0312 89.9115 72.1406 89.6094L73.4375 89.9844C73.3021 90.4219 73.0729 90.8073 72.75 91.1406C72.4323 91.4688 72.0365 91.7266 71.5625 91.9141C71.0885 92.0964 70.5573 92.1875 69.9688 92.1875ZM76.1719 86.75V92H74.8438V83.2656H76.125V84.6406H76.25C76.4531 84.1927 76.763 83.8333 77.1797 83.5625C77.5964 83.2917 78.1354 83.1562 78.7969 83.1562C79.3854 83.1562 79.901 83.276 80.3438 83.5156C80.7865 83.7552 81.1302 84.1198 81.375 84.6094C81.625 85.0938 81.75 85.7083 81.75 86.4531V92H80.4219V86.5469C80.4219 85.8646 80.2422 85.3307 79.8828 84.9453C79.5234 84.5547 79.0339 84.3594 78.4141 84.3594C77.987 84.3594 77.6042 84.4531 77.2656 84.6406C76.9271 84.8281 76.6589 85.099 76.4609 85.4531C76.2682 85.8073 76.1719 86.2396 76.1719 86.75ZM88.9688 88.4375V83.2656H90.2969V92H88.9688V90.5156H88.875C88.6667 90.9583 88.3464 91.3359 87.9141 91.6484C87.487 91.9609 86.9427 92.1146 86.2812 92.1094C85.7344 92.1094 85.25 91.9922 84.8281 91.7578C84.4062 91.5182 84.0729 91.1536 83.8281 90.6641C83.5885 90.1745 83.4688 89.5573 83.4688 88.8125V83.2656H84.7969V88.7344C84.7969 89.3646 84.9766 89.8698 85.3359 90.25C85.7005 90.6302 86.1615 90.8177 86.7188 90.8125C87.0521 90.8125 87.3906 90.7292 87.7344 90.5625C88.0833 90.3906 88.375 90.1302 88.6094 89.7812C88.849 89.4271 88.9688 88.9792 88.9688 88.4375ZM95.6719 92.1875C94.8333 92.1875 94.1068 92 93.4922 91.625C92.8828 91.25 92.4141 90.7266 92.0859 90.0547C91.7578 89.3776 91.5938 88.5938 91.5938 87.7031C91.5938 86.8073 91.7552 86.0182 92.0781 85.3359C92.401 84.6536 92.8542 84.1198 93.4375 83.7344C94.026 83.349 94.7135 83.1562 95.5 83.1562C95.9531 83.1562 96.4036 83.2318 96.8516 83.3828C97.2995 83.5339 97.7057 83.7786 98.0703 84.1172C98.4401 84.4557 98.7344 84.9036 98.9531 85.4609C99.1719 86.0182 99.2812 86.7031 99.2812 87.5156V88.0938H92.5469V86.9375H98.5547L97.9375 87.375C97.9375 86.7917 97.8464 86.2734 97.6641 85.8203C97.4818 85.3672 97.2083 85.0104 96.8438 84.75C96.4844 84.4896 96.0365 84.3594 95.5 84.3594C94.9635 84.3594 94.5026 84.4922 94.1172 84.7578C93.737 85.0182 93.4453 85.3594 93.2422 85.7812C93.0391 86.2031 92.9375 86.6562 92.9375 87.1406V87.9062C92.9375 88.5677 93.0521 89.1276 93.2812 89.5859C93.5104 90.0443 93.8307 90.3932 94.2422 90.6328C94.6536 90.8672 95.1302 90.9844 95.6719 90.9844C96.0208 90.9844 96.3385 90.9349 96.625 90.8359C96.9115 90.7318 97.1589 90.5781 97.3672 90.375C97.5755 90.1667 97.7344 89.9115 97.8438 89.6094L99.1406 89.9844C99.0052 90.4219 98.776 90.8073 98.4531 91.1406C98.1354 91.4688 97.7396 91.7266 97.2656 91.9141C96.7917 92.0964 96.2604 92.1875 95.6719 92.1875ZM107.828 92.1875C107.042 92.1875 106.352 92 105.758 91.625C105.164 91.25 104.701 90.724 104.367 90.0469C104.039 89.3698 103.875 88.5833 103.875 87.6875C103.875 86.776 104.039 85.9818 104.367 85.3047C104.701 84.6224 105.164 84.0938 105.758 83.7188C106.352 83.3438 107.042 83.1562 107.828 83.1562C108.62 83.1562 109.312 83.3438 109.906 83.7188C110.5 84.0938 110.964 84.6224 111.297 85.3047C111.63 85.9818 111.797 86.776 111.797 87.6875C111.797 88.5833 111.63 89.3698 111.297 90.0469C110.964 90.724 110.5 91.25 109.906 91.625C109.312 92 108.62 92.1875 107.828 92.1875ZM107.828 90.9844C108.432 90.9844 108.927 90.8307 109.312 90.5234C109.698 90.2161 109.984 89.8125 110.172 89.3125C110.359 88.8073 110.453 88.2656 110.453 87.6875C110.453 87.099 110.359 86.5521 110.172 86.0469C109.984 85.5417 109.698 85.1354 109.312 84.8281C108.927 84.5156 108.432 84.3594 107.828 84.3594C107.234 84.3594 106.745 84.5156 106.359 84.8281C105.974 85.1354 105.688 85.5417 105.5 86.0469C105.312 86.5521 105.219 87.099 105.219 87.6875C105.219 88.2656 105.312 88.8073 105.5 89.3125C105.688 89.8125 105.974 90.2161 106.359 90.5234C106.745 90.8307 107.234 90.9844 107.828 90.9844ZM116.969 83.2656V84.4062H112.266V83.2656H116.969ZM113.672 92V82.0625C113.672 81.5625 113.789 81.1458 114.023 80.8125C114.263 80.4792 114.57 80.2292 114.945 80.0625C115.32 79.8958 115.714 79.8125 116.125 79.8125C116.458 79.8125 116.729 79.8411 116.938 79.8984C117.151 79.9505 117.307 80 117.406 80.0469L117.016 81.2031C116.948 81.1771 116.854 81.1484 116.734 81.1172C116.62 81.0807 116.464 81.0625 116.266 81.0625C115.823 81.0625 115.5 81.1771 115.297 81.4062C115.099 81.6302 115 81.9583 115 82.3906V92H113.672ZM125.641 83.2656V84.4062H121.125V83.2656H125.641ZM122.438 81.1875H123.766V89.5C123.766 89.9531 123.859 90.2865 124.047 90.5C124.234 90.7083 124.531 90.8125 124.938 90.8125C125.026 90.8125 125.117 90.8073 125.211 90.7969C125.31 90.7865 125.417 90.7708 125.531 90.75L125.812 91.9531C125.688 92 125.534 92.0365 125.352 92.0625C125.174 92.0938 124.995 92.1094 124.812 92.1094C124.109 92.1094 123.536 91.901 123.094 91.4844C122.656 91.0677 122.438 90.526 122.438 89.8594V81.1875ZM128.438 86.75V92H127.109V80.3594H128.438V84.6406H128.562C128.766 84.1875 129.07 83.8281 129.477 83.5625C129.888 83.2917 130.438 83.1562 131.125 83.1562C131.719 83.1562 132.24 83.276 132.688 83.5156C133.135 83.75 133.484 84.112 133.734 84.6016C133.984 85.0859 134.109 85.7031 134.109 86.4531V92H132.766V86.5469C132.766 85.849 132.586 85.3099 132.227 84.9297C131.867 84.5495 131.37 84.3594 130.734 84.3594C130.292 84.3594 129.898 84.4531 129.555 84.6406C129.211 84.8281 128.938 85.099 128.734 85.4531C128.536 85.8073 128.438 86.2396 128.438 86.75ZM135.828 92V83.2656H137.156V92H135.828ZM136.5 81.8125C136.24 81.8125 136.016 81.724 135.828 81.5469C135.641 81.3698 135.547 81.1562 135.547 80.9062C135.547 80.6562 135.641 80.4427 135.828 80.2656C136.016 80.0885 136.24 80 136.5 80C136.76 80 136.984 80.0885 137.172 80.2656C137.359 80.4427 137.453 80.6562 137.453 80.9062C137.453 81.1562 137.359 81.3698 137.172 81.5469C136.984 81.724 136.76 81.8125 136.5 81.8125ZM145.047 85.2344L143.844 85.5625C143.729 85.2656 143.531 84.9844 143.25 84.7188C142.974 84.4479 142.542 84.3125 141.953 84.3125C141.422 84.3125 140.979 84.4375 140.625 84.6875C140.271 84.9323 140.094 85.2396 140.094 85.6094C140.094 85.9427 140.214 86.2083 140.453 86.4062C140.698 86.6042 141.078 86.7656 141.594 86.8906L142.891 87.2031C143.667 87.3906 144.245 87.6797 144.625 88.0703C145.01 88.4609 145.203 88.9583 145.203 89.5625C145.203 90.0625 145.06 90.5104 144.773 90.9062C144.487 91.3021 144.089 91.6146 143.578 91.8438C143.068 92.0729 142.474 92.1875 141.797 92.1875C140.906 92.1875 140.169 91.9922 139.586 91.6016C139.008 91.2109 138.641 90.6458 138.484 89.9062L139.75 89.5938C139.87 90.0625 140.099 90.4141 140.438 90.6484C140.781 90.8828 141.229 91 141.781 91C142.401 91 142.896 90.8672 143.266 90.6016C143.641 90.3307 143.828 90.0104 143.828 89.6406C143.828 89.026 143.396 88.6146 142.531 88.4062L141.078 88.0625C140.276 87.8698 139.688 87.5755 139.312 87.1797C138.938 86.7839 138.75 86.2865 138.75 85.6875C138.75 85.1927 138.888 84.7552 139.164 84.375C139.445 83.9948 139.828 83.6979 140.312 83.4844C140.797 83.2656 141.344 83.1562 141.953 83.1562C142.823 83.1562 143.503 83.349 143.992 83.7344C144.487 84.1146 144.839 84.6146 145.047 85.2344ZM150.234 92V83.2656H151.516V84.6406H151.641C151.823 84.1719 152.117 83.8073 152.523 83.5469C152.93 83.2865 153.417 83.1562 153.984 83.1562C154.557 83.1562 155.034 83.2865 155.414 83.5469C155.799 83.8073 156.099 84.1719 156.312 84.6406H156.406C156.635 84.1875 156.971 83.8281 157.414 83.5625C157.862 83.2917 158.396 83.1562 159.016 83.1562C159.797 83.1562 160.438 83.401 160.938 83.8906C161.438 84.375 161.688 85.1302 161.688 86.1562V92H160.344V86.1562C160.344 85.5104 160.167 85.0495 159.812 84.7734C159.458 84.4974 159.042 84.3594 158.562 84.3594C157.953 84.3594 157.479 84.5469 157.141 84.9219C156.807 85.2917 156.641 85.7552 156.641 86.3125V92H155.266V86.0156C155.266 85.5208 155.107 85.1224 154.789 84.8203C154.471 84.513 154.057 84.3594 153.547 84.3594C153.198 84.3594 152.872 84.4531 152.57 84.6406C152.268 84.8281 152.023 85.0859 151.836 85.4141C151.654 85.7422 151.562 86.1198 151.562 86.5469V92H150.234ZM166.938 92.1875C166.151 92.1875 165.461 92 164.867 91.625C164.273 91.25 163.81 90.724 163.477 90.0469C163.148 89.3698 162.984 88.5833 162.984 87.6875C162.984 86.776 163.148 85.9818 163.477 85.3047C163.81 84.6224 164.273 84.0938 164.867 83.7188C165.461 83.3438 166.151 83.1562 166.938 83.1562C167.729 83.1562 168.422 83.3438 169.016 83.7188C169.609 84.0938 170.073 84.6224 170.406 85.3047C170.74 85.9818 170.906 86.776 170.906 87.6875C170.906 88.5833 170.74 89.3698 170.406 90.0469C170.073 90.724 169.609 91.25 169.016 91.625C168.422 92 167.729 92.1875 166.938 92.1875ZM166.938 90.9844C167.542 90.9844 168.036 90.8307 168.422 90.5234C168.807 90.2161 169.094 89.8125 169.281 89.3125C169.469 88.8073 169.562 88.2656 169.562 87.6875C169.562 87.099 169.469 86.5521 169.281 86.0469C169.094 85.5417 168.807 85.1354 168.422 84.8281C168.036 84.5156 167.542 84.3594 166.938 84.3594C166.344 84.3594 165.854 84.5156 165.469 84.8281C165.083 85.1354 164.797 85.5417 164.609 86.0469C164.422 86.5521 164.328 87.099 164.328 87.6875C164.328 88.2656 164.422 88.8073 164.609 89.3125C164.797 89.8125 165.083 90.2161 165.469 90.5234C165.854 90.8307 166.344 90.9844 166.938 90.9844ZM173.531 86.75V92H172.203V83.2656H173.484V84.6406H173.609C173.812 84.1927 174.122 83.8333 174.539 83.5625C174.956 83.2917 175.495 83.1562 176.156 83.1562C176.745 83.1562 177.26 83.276 177.703 83.5156C178.146 83.7552 178.49 84.1198 178.734 84.6094C178.984 85.0938 179.109 85.7083 179.109 86.4531V92H177.781V86.5469C177.781 85.8646 177.602 85.3307 177.242 84.9453C176.883 84.5547 176.393 84.3594 175.773 84.3594C175.346 84.3594 174.964 84.4531 174.625 84.6406C174.286 84.8281 174.018 85.099 173.82 85.4531C173.628 85.8073 173.531 86.2396 173.531 86.75ZM184.609 83.2656V84.4062H180.094V83.2656H184.609ZM181.406 81.1875H182.734V89.5C182.734 89.9531 182.828 90.2865 183.016 90.5C183.203 90.7083 183.5 90.8125 183.906 90.8125C183.995 90.8125 184.086 90.8073 184.18 90.7969C184.279 90.7865 184.385 90.7708 184.5 90.75L184.781 91.9531C184.656 92 184.503 92.0365 184.32 92.0625C184.143 92.0938 183.964 92.1094 183.781 92.1094C183.078 92.1094 182.505 91.901 182.062 91.4844C181.625 91.0677 181.406 90.526 181.406 89.8594V81.1875ZM187.406 86.75V92H186.078V80.3594H187.406V84.6406H187.531C187.734 84.1875 188.039 83.8281 188.445 83.5625C188.857 83.2917 189.406 83.1562 190.094 83.1562C190.688 83.1562 191.208 83.276 191.656 83.5156C192.104 83.75 192.453 84.112 192.703 84.6016C192.953 85.0859 193.078 85.7031 193.078 86.4531V92H191.734V86.5469C191.734 85.849 191.555 85.3099 191.195 84.9297C190.836 84.5495 190.339 84.3594 189.703 84.3594C189.26 84.3594 188.867 84.4531 188.523 84.6406C188.18 84.8281 187.906 85.099 187.703 85.4531C187.505 85.8073 187.406 86.2396 187.406 86.75Z" fill="#1A1A1C" fill-opacity="0.6"/>
<path d="M24.3418 152.908V151.814H31.9844V152.908H28.7852V162H27.5547V152.908H24.3418ZM32.2852 162V154.357H33.4062V155.52H33.4883C33.6296 155.141 33.8825 154.836 34.2471 154.604C34.6162 154.367 35.0286 154.248 35.4844 154.248C35.571 154.248 35.6781 154.25 35.8057 154.255C35.9333 154.255 36.0312 154.257 36.0996 154.262V155.451C36.0586 155.442 35.9674 155.428 35.8262 155.41C35.6849 155.392 35.5345 155.383 35.375 155.383C35.0059 155.383 34.6755 155.46 34.3838 155.615C34.0921 155.77 33.862 155.982 33.6934 156.251C33.5293 156.52 33.4473 156.827 33.4473 157.174V162H32.2852ZM39.0801 162.178C38.597 162.178 38.1572 162.087 37.7607 161.904C37.3643 161.717 37.0498 161.449 36.8174 161.098C36.585 160.747 36.4688 160.323 36.4688 159.826C36.4688 159.389 36.5553 159.035 36.7285 158.767C36.9017 158.493 37.1318 158.279 37.4189 158.124C37.7106 157.965 38.0296 157.846 38.376 157.769C38.7269 157.691 39.0801 157.63 39.4355 157.584C39.9004 157.525 40.2764 157.479 40.5635 157.447C40.8551 157.415 41.0671 157.361 41.1992 157.283C41.3359 157.206 41.4043 157.074 41.4043 156.887V156.846C41.4043 156.358 41.2699 155.98 41.001 155.711C40.7367 155.438 40.3333 155.301 39.791 155.301C39.235 155.301 38.7975 155.424 38.4785 155.67C38.1595 155.911 37.9362 156.171 37.8086 156.449L36.6875 156.053C36.888 155.588 37.1546 155.226 37.4873 154.966C37.8245 154.706 38.1891 154.524 38.5811 154.419C38.9775 154.314 39.3672 154.262 39.75 154.262C39.9961 154.262 40.2786 154.291 40.5977 154.351C40.9167 154.405 41.2266 154.524 41.5273 154.706C41.8327 154.884 42.0833 155.155 42.2793 155.52C42.4798 155.88 42.5801 156.363 42.5801 156.969V162H41.4043V160.961H41.3496C41.2721 161.125 41.14 161.303 40.9531 161.494C40.7663 161.681 40.5179 161.843 40.208 161.979C39.9027 162.112 39.5267 162.178 39.0801 162.178ZM39.2578 161.125C39.7227 161.125 40.1146 161.034 40.4336 160.852C40.7526 160.669 40.9941 160.435 41.1582 160.147C41.3223 159.856 41.4043 159.553 41.4043 159.238V158.158C41.3542 158.217 41.2448 158.272 41.0762 158.322C40.9121 158.368 40.7207 158.409 40.502 158.445C40.2878 158.482 40.0781 158.514 39.873 158.541C39.668 158.564 39.5039 158.582 39.3809 158.596C39.0755 158.637 38.7907 158.703 38.5264 158.794C38.262 158.881 38.0479 159.01 37.8838 159.184C37.7243 159.357 37.6445 159.594 37.6445 159.895C37.6445 160.3 37.7949 160.608 38.0957 160.817C38.401 161.022 38.7884 161.125 39.2578 161.125ZM45.2461 157.406V162H44.084V154.357H45.2051V155.561H45.3145C45.4922 155.169 45.7633 154.854 46.1279 154.617C46.4925 154.38 46.9642 154.262 47.543 154.262C48.0579 154.262 48.5091 154.367 48.8965 154.576C49.2839 154.786 49.5846 155.105 49.7988 155.533C50.0176 155.957 50.127 156.495 50.127 157.146V162H48.9648V157.229C48.9648 156.632 48.8076 156.164 48.4932 155.827C48.1787 155.485 47.7503 155.314 47.208 155.314C46.8343 155.314 46.4993 155.396 46.2031 155.561C45.9069 155.725 45.6722 155.962 45.499 156.271C45.3304 156.581 45.2461 156.96 45.2461 157.406ZM57.0312 156.08L55.9785 156.367C55.8783 156.107 55.7051 155.861 55.459 155.629C55.2174 155.392 54.8392 155.273 54.3242 155.273C53.8594 155.273 53.472 155.383 53.1621 155.602C52.8522 155.816 52.6973 156.085 52.6973 156.408C52.6973 156.7 52.8021 156.932 53.0117 157.105C53.2259 157.279 53.5586 157.42 54.0098 157.529L55.1445 157.803C55.8236 157.967 56.3294 158.22 56.6621 158.562C56.9993 158.903 57.168 159.339 57.168 159.867C57.168 160.305 57.0426 160.697 56.792 161.043C56.5413 161.389 56.1927 161.663 55.7461 161.863C55.2995 162.064 54.7799 162.164 54.1875 162.164C53.4082 162.164 52.7633 161.993 52.2529 161.651C51.7471 161.31 51.4258 160.815 51.2891 160.168L52.3965 159.895C52.5013 160.305 52.7018 160.612 52.998 160.817C53.2988 161.022 53.6908 161.125 54.1738 161.125C54.7161 161.125 55.1491 161.009 55.4727 160.776C55.8008 160.539 55.9648 160.259 55.9648 159.936C55.9648 159.398 55.5866 159.038 54.8301 158.855L53.5586 158.555C52.8568 158.386 52.3418 158.129 52.0137 157.782C51.6855 157.436 51.5215 157.001 51.5215 156.477C51.5215 156.044 51.6423 155.661 51.8838 155.328C52.1299 154.995 52.4648 154.736 52.8887 154.549C53.3125 154.357 53.791 154.262 54.3242 154.262C55.0853 154.262 55.68 154.43 56.1084 154.768C56.5413 155.1 56.849 155.538 57.0312 156.08ZM60.5312 162.178C60.0482 162.178 59.6084 162.087 59.2119 161.904C58.8154 161.717 58.501 161.449 58.2686 161.098C58.0361 160.747 57.9199 160.323 57.9199 159.826C57.9199 159.389 58.0065 159.035 58.1797 158.767C58.3529 158.493 58.583 158.279 58.8701 158.124C59.1618 157.965 59.4808 157.846 59.8271 157.769C60.1781 157.691 60.5312 157.63 60.8867 157.584C61.3516 157.525 61.7275 157.479 62.0146 157.447C62.3063 157.415 62.5182 157.361 62.6504 157.283C62.7871 157.206 62.8555 157.074 62.8555 156.887V156.846C62.8555 156.358 62.721 155.98 62.4521 155.711C62.1878 155.438 61.7845 155.301 61.2422 155.301C60.6862 155.301 60.2487 155.424 59.9297 155.67C59.6107 155.911 59.3874 156.171 59.2598 156.449L58.1387 156.053C58.3392 155.588 58.6058 155.226 58.9385 154.966C59.2757 154.706 59.6403 154.524 60.0322 154.419C60.4287 154.314 60.8184 154.262 61.2012 154.262C61.4473 154.262 61.7298 154.291 62.0488 154.351C62.3678 154.405 62.6777 154.524 62.9785 154.706C63.2839 154.884 63.5345 155.155 63.7305 155.52C63.931 155.88 64.0312 156.363 64.0312 156.969V162H62.8555V160.961H62.8008C62.7233 161.125 62.5911 161.303 62.4043 161.494C62.2174 161.681 61.9691 161.843 61.6592 161.979C61.3538 162.112 60.9779 162.178 60.5312 162.178ZM60.709 161.125C61.1738 161.125 61.5658 161.034 61.8848 160.852C62.2038 160.669 62.4453 160.435 62.6094 160.147C62.7734 159.856 62.8555 159.553 62.8555 159.238V158.158C62.8053 158.217 62.696 158.272 62.5273 158.322C62.3633 158.368 62.1719 158.409 61.9531 158.445C61.7389 158.482 61.5293 158.514 61.3242 158.541C61.1191 158.564 60.9551 158.582 60.832 158.596C60.5267 158.637 60.2419 158.703 59.9775 158.794C59.7132 158.881 59.499 159.01 59.335 159.184C59.1755 159.357 59.0957 159.594 59.0957 159.895C59.0957 160.3 59.2461 160.608 59.5469 160.817C59.8522 161.022 60.2396 161.125 60.709 161.125ZM68.625 162.164C67.9141 162.164 67.2988 161.995 66.7793 161.658C66.2643 161.316 65.8656 160.849 65.583 160.257C65.305 159.664 65.166 158.988 65.166 158.227C65.166 157.447 65.3096 156.761 65.5967 156.169C65.8838 155.572 66.2848 155.105 66.7998 154.768C67.3193 154.43 67.9232 154.262 68.6113 154.262C69.1491 154.262 69.6322 154.362 70.0605 154.562C70.4935 154.758 70.8467 155.036 71.1201 155.396C71.3981 155.757 71.569 156.176 71.6328 156.654H70.457C70.3978 156.422 70.2907 156.203 70.1357 155.998C69.9808 155.793 69.7757 155.629 69.5205 155.506C69.2699 155.378 68.9714 155.314 68.625 155.314C68.1693 155.314 67.7705 155.433 67.4287 155.67C67.0869 155.907 66.8203 156.242 66.6289 156.675C66.4375 157.103 66.3418 157.607 66.3418 158.186C66.3418 158.773 66.4352 159.288 66.6221 159.73C66.8089 160.168 67.0732 160.507 67.415 160.749C67.7614 160.991 68.1647 161.111 68.625 161.111C69.0853 161.111 69.4795 160.993 69.8076 160.756C70.1357 160.514 70.3522 160.186 70.457 159.771H71.6328C71.569 160.223 71.4049 160.628 71.1406 160.988C70.8809 161.348 70.5368 161.635 70.1084 161.85C69.6846 162.059 69.1901 162.164 68.625 162.164ZM76.0488 154.357V155.355H72.0977V154.357H76.0488ZM73.2461 152.539H74.4082V159.812C74.4082 160.209 74.4902 160.501 74.6543 160.688C74.8184 160.87 75.0781 160.961 75.4336 160.961C75.5111 160.961 75.5908 160.956 75.6729 160.947C75.7594 160.938 75.8529 160.924 75.9531 160.906L76.1992 161.959C76.0898 162 75.9554 162.032 75.7959 162.055C75.641 162.082 75.4837 162.096 75.3242 162.096C74.709 162.096 74.2077 161.913 73.8203 161.549C73.4375 161.184 73.2461 160.71 73.2461 160.127V152.539ZM77.1699 162V154.357H78.332V162H77.1699ZM77.7578 153.086C77.5299 153.086 77.334 153.008 77.1699 152.854C77.0059 152.699 76.9238 152.512 76.9238 152.293C76.9238 152.074 77.0059 151.887 77.1699 151.732C77.334 151.577 77.5299 151.5 77.7578 151.5C77.9857 151.5 78.1816 151.577 78.3457 151.732C78.5098 151.887 78.5918 152.074 78.5918 152.293C78.5918 152.512 78.5098 152.699 78.3457 152.854C78.1816 153.008 77.9857 153.086 77.7578 153.086ZM82.9258 162.164C82.2376 162.164 81.6338 162 81.1143 161.672C80.5947 161.344 80.1891 160.883 79.8975 160.291C79.6104 159.699 79.4668 159.01 79.4668 158.227C79.4668 157.429 79.6104 156.734 79.8975 156.142C80.1891 155.545 80.5947 155.082 81.1143 154.754C81.6338 154.426 82.2376 154.262 82.9258 154.262C83.6185 154.262 84.2246 154.426 84.7441 154.754C85.2637 155.082 85.6693 155.545 85.9609 156.142C86.2526 156.734 86.3984 157.429 86.3984 158.227C86.3984 159.01 86.2526 159.699 85.9609 160.291C85.6693 160.883 85.2637 161.344 84.7441 161.672C84.2246 162 83.6185 162.164 82.9258 162.164ZM82.9258 161.111C83.4544 161.111 83.8874 160.977 84.2246 160.708C84.5618 160.439 84.8125 160.086 84.9766 159.648C85.1406 159.206 85.2227 158.732 85.2227 158.227C85.2227 157.712 85.1406 157.233 84.9766 156.791C84.8125 156.349 84.5618 155.993 84.2246 155.725C83.8874 155.451 83.4544 155.314 82.9258 155.314C82.4062 155.314 81.9779 155.451 81.6406 155.725C81.3034 155.993 81.0527 156.349 80.8887 156.791C80.7246 157.233 80.6426 157.712 80.6426 158.227C80.6426 158.732 80.7246 159.206 80.8887 159.648C81.0527 160.086 81.3034 160.439 81.6406 160.708C81.9779 160.977 82.4062 161.111 82.9258 161.111ZM88.6953 157.406V162H87.5332V154.357H88.6543V155.561H88.7637C88.9414 155.169 89.2126 154.854 89.5771 154.617C89.9417 154.38 90.4134 154.262 90.9922 154.262C91.5072 154.262 91.9583 154.367 92.3457 154.576C92.7331 154.786 93.0339 155.105 93.248 155.533C93.4668 155.957 93.5762 156.495 93.5762 157.146V162H92.4141V157.229C92.4141 156.632 92.2568 156.164 91.9424 155.827C91.6279 155.485 91.1995 155.314 90.6572 155.314C90.2835 155.314 89.9486 155.396 89.6523 155.561C89.3561 155.725 89.1214 155.962 88.9482 156.271C88.7796 156.581 88.6953 156.96 88.6953 157.406Z" fill="#1A1A1C"/>
<path d="M274.451 159.511V158.273L278.847 151.314H279.824V153.146H279.195L276.051 158.123V158.205H282.087V159.511H274.451ZM279.264 161.5V159.135L279.277 158.567V151.314H280.74V161.5H279.264ZM286.756 161.637C285.972 161.637 285.3 161.432 284.739 161.021C284.183 160.611 283.757 160.019 283.461 159.244C283.169 158.465 283.023 157.521 283.023 156.414C283.023 155.311 283.172 154.37 283.468 153.591C283.764 152.807 284.19 152.21 284.746 151.8C285.307 151.385 285.977 151.178 286.756 151.178C287.54 151.178 288.21 151.385 288.766 151.8C289.326 152.21 289.752 152.807 290.044 153.591C290.34 154.37 290.488 155.311 290.488 156.414C290.488 157.521 290.342 158.465 290.051 159.244C289.759 160.019 289.335 160.611 288.779 161.021C288.223 161.432 287.549 161.637 286.756 161.637ZM286.756 160.324C287.234 160.324 287.638 160.172 287.966 159.866C288.294 159.561 288.545 159.117 288.718 158.533C288.891 157.945 288.978 157.239 288.978 156.414C288.978 155.585 288.891 154.878 288.718 154.295C288.545 153.707 288.294 153.26 287.966 152.955C287.638 152.645 287.234 152.49 286.756 152.49C286.049 152.49 285.503 152.834 285.115 153.522C284.732 154.206 284.541 155.17 284.541 156.414C284.541 157.239 284.628 157.945 284.801 158.533C284.974 159.117 285.225 159.561 285.553 159.866C285.885 160.172 286.286 160.324 286.756 160.324ZM296.996 159.586V159.053C296.996 158.665 297.076 158.312 297.235 157.993C297.395 157.674 297.63 157.419 297.939 157.228C298.249 157.032 298.625 156.934 299.067 156.934C299.519 156.934 299.897 157.029 300.202 157.221C300.507 157.412 300.738 157.67 300.893 157.993C301.048 158.312 301.125 158.665 301.125 159.053V159.586C301.125 159.973 301.045 160.329 300.886 160.652C300.731 160.971 300.501 161.227 300.195 161.418C299.89 161.609 299.514 161.705 299.067 161.705C298.621 161.705 298.243 161.609 297.933 161.418C297.623 161.227 297.388 160.971 297.229 160.652C297.074 160.329 296.996 159.973 296.996 159.586ZM298.151 159.053V159.586C298.151 159.873 298.22 160.133 298.356 160.365C298.493 160.598 298.73 160.714 299.067 160.714C299.4 160.714 299.632 160.598 299.765 160.365C299.897 160.133 299.963 159.873 299.963 159.586V159.053C299.963 158.766 299.899 158.508 299.771 158.28C299.644 158.048 299.409 157.932 299.067 157.932C298.735 157.932 298.498 158.048 298.356 158.28C298.22 158.508 298.151 158.766 298.151 159.053ZM291.876 153.762V153.229C291.876 152.841 291.956 152.488 292.115 152.169C292.279 151.845 292.514 151.588 292.819 151.396C293.129 151.205 293.503 151.109 293.94 151.109C294.392 151.109 294.77 151.205 295.075 151.396C295.385 151.588 295.618 151.845 295.772 152.169C295.927 152.488 296.003 152.841 295.998 153.229V153.762C296.003 154.145 295.925 154.498 295.766 154.821C295.606 155.14 295.374 155.398 295.068 155.594C294.763 155.785 294.387 155.881 293.94 155.881C293.494 155.881 293.116 155.785 292.806 155.594C292.5 155.398 292.268 155.14 292.108 154.821C291.953 154.498 291.876 154.145 291.876 153.762ZM293.031 153.229V153.762C293.031 154.049 293.1 154.309 293.236 154.541C293.373 154.773 293.608 154.887 293.94 154.883C294.278 154.887 294.512 154.773 294.645 154.541C294.777 154.309 294.843 154.049 294.843 153.762V153.229C294.843 152.941 294.779 152.682 294.651 152.449C294.524 152.217 294.287 152.103 293.94 152.107C293.612 152.103 293.378 152.217 293.236 152.449C293.1 152.682 293.031 152.941 293.031 153.229ZM292.348 161.5L299.348 151.314H300.537L293.537 161.5H292.348Z" fill="#1A1A1C"/>
<path d="M24 175H298" stroke="white" stroke-width="7" stroke-linecap="round"/>
<path d="M24 175L179 175" stroke="#ECC5A2" stroke-width="7" stroke-linecap="round"/>
<path d="M24.3418 205.908V204.814H31.9844V205.908H28.7852V215H27.5547V205.908H24.3418ZM32.2852 215V207.357H33.4062V208.52H33.4883C33.6296 208.141 33.8825 207.836 34.2471 207.604C34.6162 207.367 35.0286 207.248 35.4844 207.248C35.571 207.248 35.6781 207.25 35.8057 207.255C35.9333 207.255 36.0312 207.257 36.0996 207.262V208.451C36.0586 208.442 35.9674 208.428 35.8262 208.41C35.6849 208.392 35.5345 208.383 35.375 208.383C35.0059 208.383 34.6755 208.46 34.3838 208.615C34.0921 208.77 33.862 208.982 33.6934 209.251C33.5293 209.52 33.4473 209.827 33.4473 210.174V215H32.2852ZM39.0801 215.178C38.597 215.178 38.1572 215.087 37.7607 214.904C37.3643 214.717 37.0498 214.449 36.8174 214.098C36.585 213.747 36.4688 213.323 36.4688 212.826C36.4688 212.389 36.5553 212.035 36.7285 211.767C36.9017 211.493 37.1318 211.279 37.4189 211.124C37.7106 210.965 38.0296 210.846 38.376 210.769C38.7269 210.691 39.0801 210.63 39.4355 210.584C39.9004 210.525 40.2764 210.479 40.5635 210.447C40.8551 210.415 41.0671 210.361 41.1992 210.283C41.3359 210.206 41.4043 210.074 41.4043 209.887V209.846C41.4043 209.358 41.2699 208.98 41.001 208.711C40.7367 208.438 40.3333 208.301 39.791 208.301C39.235 208.301 38.7975 208.424 38.4785 208.67C38.1595 208.911 37.9362 209.171 37.8086 209.449L36.6875 209.053C36.888 208.588 37.1546 208.226 37.4873 207.966C37.8245 207.706 38.1891 207.524 38.5811 207.419C38.9775 207.314 39.3672 207.262 39.75 207.262C39.9961 207.262 40.2786 207.291 40.5977 207.351C40.9167 207.405 41.2266 207.524 41.5273 207.706C41.8327 207.884 42.0833 208.155 42.2793 208.52C42.4798 208.88 42.5801 209.363 42.5801 209.969V215H41.4043V213.961H41.3496C41.2721 214.125 41.14 214.303 40.9531 214.494C40.7663 214.681 40.5179 214.843 40.208 214.979C39.9027 215.112 39.5267 215.178 39.0801 215.178ZM39.2578 214.125C39.7227 214.125 40.1146 214.034 40.4336 213.852C40.7526 213.669 40.9941 213.435 41.1582 213.147C41.3223 212.856 41.4043 212.553 41.4043 212.238V211.158C41.3542 211.217 41.2448 211.272 41.0762 211.322C40.9121 211.368 40.7207 211.409 40.502 211.445C40.2878 211.482 40.0781 211.514 39.873 211.541C39.668 211.564 39.5039 211.582 39.3809 211.596C39.0755 211.637 38.7907 211.703 38.5264 211.794C38.262 211.881 38.0479 212.01 37.8838 212.184C37.7243 212.357 37.6445 212.594 37.6445 212.895C37.6445 213.3 37.7949 213.608 38.0957 213.817C38.401 214.022 38.7884 214.125 39.2578 214.125ZM45.2461 210.406V215H44.084V207.357H45.2051V208.561H45.3145C45.4922 208.169 45.7633 207.854 46.1279 207.617C46.4925 207.38 46.9642 207.262 47.543 207.262C48.0579 207.262 48.5091 207.367 48.8965 207.576C49.2839 207.786 49.5846 208.105 49.7988 208.533C50.0176 208.957 50.127 209.495 50.127 210.146V215H48.9648V210.229C48.9648 209.632 48.8076 209.164 48.4932 208.827C48.1787 208.485 47.7503 208.314 47.208 208.314C46.8343 208.314 46.4993 208.396 46.2031 208.561C45.9069 208.725 45.6722 208.962 45.499 209.271C45.3304 209.581 45.2461 209.96 45.2461 210.406ZM57.0312 209.08L55.9785 209.367C55.8783 209.107 55.7051 208.861 55.459 208.629C55.2174 208.392 54.8392 208.273 54.3242 208.273C53.8594 208.273 53.472 208.383 53.1621 208.602C52.8522 208.816 52.6973 209.085 52.6973 209.408C52.6973 209.7 52.8021 209.932 53.0117 210.105C53.2259 210.279 53.5586 210.42 54.0098 210.529L55.1445 210.803C55.8236 210.967 56.3294 211.22 56.6621 211.562C56.9993 211.903 57.168 212.339 57.168 212.867C57.168 213.305 57.0426 213.697 56.792 214.043C56.5413 214.389 56.1927 214.663 55.7461 214.863C55.2995 215.064 54.7799 215.164 54.1875 215.164C53.4082 215.164 52.7633 214.993 52.2529 214.651C51.7471 214.31 51.4258 213.815 51.2891 213.168L52.3965 212.895C52.5013 213.305 52.7018 213.612 52.998 213.817C53.2988 214.022 53.6908 214.125 54.1738 214.125C54.7161 214.125 55.1491 214.009 55.4727 213.776C55.8008 213.539 55.9648 213.259 55.9648 212.936C55.9648 212.398 55.5866 212.038 54.8301 211.855L53.5586 211.555C52.8568 211.386 52.3418 211.129 52.0137 210.782C51.6855 210.436 51.5215 210.001 51.5215 209.477C51.5215 209.044 51.6423 208.661 51.8838 208.328C52.1299 207.995 52.4648 207.736 52.8887 207.549C53.3125 207.357 53.791 207.262 54.3242 207.262C55.0853 207.262 55.68 207.43 56.1084 207.768C56.5413 208.1 56.849 208.538 57.0312 209.08ZM60.5312 215.178C60.0482 215.178 59.6084 215.087 59.2119 214.904C58.8154 214.717 58.501 214.449 58.2686 214.098C58.0361 213.747 57.9199 213.323 57.9199 212.826C57.9199 212.389 58.0065 212.035 58.1797 211.767C58.3529 211.493 58.583 211.279 58.8701 211.124C59.1618 210.965 59.4808 210.846 59.8271 210.769C60.1781 210.691 60.5312 210.63 60.8867 210.584C61.3516 210.525 61.7275 210.479 62.0146 210.447C62.3063 210.415 62.5182 210.361 62.6504 210.283C62.7871 210.206 62.8555 210.074 62.8555 209.887V209.846C62.8555 209.358 62.721 208.98 62.4521 208.711C62.1878 208.438 61.7845 208.301 61.2422 208.301C60.6862 208.301 60.2487 208.424 59.9297 208.67C59.6107 208.911 59.3874 209.171 59.2598 209.449L58.1387 209.053C58.3392 208.588 58.6058 208.226 58.9385 207.966C59.2757 207.706 59.6403 207.524 60.0322 207.419C60.4287 207.314 60.8184 207.262 61.2012 207.262C61.4473 207.262 61.7298 207.291 62.0488 207.351C62.3678 207.405 62.6777 207.524 62.9785 207.706C63.2839 207.884 63.5345 208.155 63.7305 208.52C63.931 208.88 64.0312 209.363 64.0312 209.969V215H62.8555V213.961H62.8008C62.7233 214.125 62.5911 214.303 62.4043 214.494C62.2174 214.681 61.9691 214.843 61.6592 214.979C61.3538 215.112 60.9779 215.178 60.5312 215.178ZM60.709 214.125C61.1738 214.125 61.5658 214.034 61.8848 213.852C62.2038 213.669 62.4453 213.435 62.6094 213.147C62.7734 212.856 62.8555 212.553 62.8555 212.238V211.158C62.8053 211.217 62.696 211.272 62.5273 211.322C62.3633 211.368 62.1719 211.409 61.9531 211.445C61.7389 211.482 61.5293 211.514 61.3242 211.541C61.1191 211.564 60.9551 211.582 60.832 211.596C60.5267 211.637 60.2419 211.703 59.9775 211.794C59.7132 211.881 59.499 212.01 59.335 212.184C59.1755 212.357 59.0957 212.594 59.0957 212.895C59.0957 213.3 59.2461 213.608 59.5469 213.817C59.8522 214.022 60.2396 214.125 60.709 214.125ZM68.625 215.164C67.9141 215.164 67.2988 214.995 66.7793 214.658C66.2643 214.316 65.8656 213.849 65.583 213.257C65.305 212.664 65.166 211.988 65.166 211.227C65.166 210.447 65.3096 209.761 65.5967 209.169C65.8838 208.572 66.2848 208.105 66.7998 207.768C67.3193 207.43 67.9232 207.262 68.6113 207.262C69.1491 207.262 69.6322 207.362 70.0605 207.562C70.4935 207.758 70.8467 208.036 71.1201 208.396C71.3981 208.757 71.569 209.176 71.6328 209.654H70.457C70.3978 209.422 70.2907 209.203 70.1357 208.998C69.9808 208.793 69.7757 208.629 69.5205 208.506C69.2699 208.378 68.9714 208.314 68.625 208.314C68.1693 208.314 67.7705 208.433 67.4287 208.67C67.0869 208.907 66.8203 209.242 66.6289 209.675C66.4375 210.103 66.3418 210.607 66.3418 211.186C66.3418 211.773 66.4352 212.288 66.6221 212.73C66.8089 213.168 67.0732 213.507 67.415 213.749C67.7614 213.991 68.1647 214.111 68.625 214.111C69.0853 214.111 69.4795 213.993 69.8076 213.756C70.1357 213.514 70.3522 213.186 70.457 212.771H71.6328C71.569 213.223 71.4049 213.628 71.1406 213.988C70.8809 214.348 70.5368 214.635 70.1084 214.85C69.6846 215.059 69.1901 215.164 68.625 215.164ZM76.0488 207.357V208.355H72.0977V207.357H76.0488ZM73.2461 205.539H74.4082V212.812C74.4082 213.209 74.4902 213.501 74.6543 213.688C74.8184 213.87 75.0781 213.961 75.4336 213.961C75.5111 213.961 75.5908 213.956 75.6729 213.947C75.7594 213.938 75.8529 213.924 75.9531 213.906L76.1992 214.959C76.0898 215 75.9554 215.032 75.7959 215.055C75.641 215.082 75.4837 215.096 75.3242 215.096C74.709 215.096 74.2077 214.913 73.8203 214.549C73.4375 214.184 73.2461 213.71 73.2461 213.127V205.539ZM77.1699 215V207.357H78.332V215H77.1699ZM77.7578 206.086C77.5299 206.086 77.334 206.008 77.1699 205.854C77.0059 205.699 76.9238 205.512 76.9238 205.293C76.9238 205.074 77.0059 204.887 77.1699 204.732C77.334 204.577 77.5299 204.5 77.7578 204.5C77.9857 204.5 78.1816 204.577 78.3457 204.732C78.5098 204.887 78.5918 205.074 78.5918 205.293C78.5918 205.512 78.5098 205.699 78.3457 205.854C78.1816 206.008 77.9857 206.086 77.7578 206.086ZM82.9258 215.164C82.2376 215.164 81.6338 215 81.1143 214.672C80.5947 214.344 80.1891 213.883 79.8975 213.291C79.6104 212.699 79.4668 212.01 79.4668 211.227C79.4668 210.429 79.6104 209.734 79.8975 209.142C80.1891 208.545 80.5947 208.082 81.1143 207.754C81.6338 207.426 82.2376 207.262 82.9258 207.262C83.6185 207.262 84.2246 207.426 84.7441 207.754C85.2637 208.082 85.6693 208.545 85.9609 209.142C86.2526 209.734 86.3984 210.429 86.3984 211.227C86.3984 212.01 86.2526 212.699 85.9609 213.291C85.6693 213.883 85.2637 214.344 84.7441 214.672C84.2246 215 83.6185 215.164 82.9258 215.164ZM82.9258 214.111C83.4544 214.111 83.8874 213.977 84.2246 213.708C84.5618 213.439 84.8125 213.086 84.9766 212.648C85.1406 212.206 85.2227 211.732 85.2227 211.227C85.2227 210.712 85.1406 210.233 84.9766 209.791C84.8125 209.349 84.5618 208.993 84.2246 208.725C83.8874 208.451 83.4544 208.314 82.9258 208.314C82.4062 208.314 81.9779 208.451 81.6406 208.725C81.3034 208.993 81.0527 209.349 80.8887 209.791C80.7246 210.233 80.6426 210.712 80.6426 211.227C80.6426 211.732 80.7246 212.206 80.8887 212.648C81.0527 213.086 81.3034 213.439 81.6406 213.708C81.9779 213.977 82.4062 214.111 82.9258 214.111ZM88.6953 210.406V215H87.5332V207.357H88.6543V208.561H88.7637C88.9414 208.169 89.2126 207.854 89.5771 207.617C89.9417 207.38 90.4134 207.262 90.9922 207.262C91.5072 207.262 91.9583 207.367 92.3457 207.576C92.7331 207.786 93.0339 208.105 93.248 208.533C93.4668 208.957 93.5762 209.495 93.5762 210.146V215H92.4141V210.229C92.4141 209.632 92.2568 209.164 91.9424 208.827C91.6279 208.485 91.1995 208.314 90.6572 208.314C90.2835 208.314 89.9486 208.396 89.6523 208.561C89.3561 208.725 89.1214 208.962 88.9482 209.271C88.7796 209.581 88.6953 209.96 88.6953 210.406Z" fill="#1A1A1C"/>
<path d="M278.73 204.171C279.186 204.175 279.633 204.26 280.07 204.424C280.512 204.583 280.911 204.848 281.267 205.217C281.627 205.586 281.914 206.085 282.128 206.714C282.342 207.338 282.449 208.118 282.449 209.052C282.449 209.94 282.36 210.731 282.183 211.424C282.005 212.117 281.747 212.702 281.41 213.181C281.077 213.659 280.674 214.024 280.2 214.274C279.726 214.521 279.195 214.644 278.607 214.644C278.001 214.644 277.461 214.523 276.987 214.281C276.513 214.04 276.131 213.709 275.839 213.29C275.547 212.866 275.363 212.381 275.285 211.834H276.803C276.903 212.267 277.106 212.62 277.411 212.894C277.721 213.162 278.12 213.297 278.607 213.297C279.35 213.297 279.929 212.971 280.344 212.319C280.763 211.668 280.975 210.758 280.979 209.592H280.904C280.727 209.879 280.51 210.127 280.255 210.337C280 210.542 279.713 210.699 279.394 210.809C279.075 210.918 278.737 210.973 278.382 210.973C277.789 210.973 277.252 210.829 276.769 210.542C276.285 210.255 275.903 209.861 275.62 209.359C275.338 208.854 275.194 208.277 275.189 207.63C275.194 206.983 275.342 206.397 275.634 205.873C275.93 205.349 276.342 204.934 276.871 204.629C277.4 204.319 278.02 204.166 278.73 204.171ZM278.737 205.47C278.35 205.47 278.001 205.565 277.691 205.757C277.382 205.948 277.138 206.206 276.96 206.529C276.782 206.853 276.693 207.213 276.693 207.609C276.693 208.006 276.778 208.364 276.946 208.683C277.119 209.002 277.359 209.257 277.664 209.448C277.969 209.635 278.316 209.729 278.703 209.729C279.095 209.729 279.446 209.631 279.756 209.435C280.07 209.234 280.321 208.972 280.508 208.648C280.695 208.32 280.788 207.967 280.788 207.589C280.788 207.215 280.699 206.867 280.521 206.543C280.344 206.219 280.1 205.96 279.79 205.764C279.485 205.568 279.134 205.47 278.737 205.47ZM286.988 214.637C286.364 214.637 285.803 214.518 285.307 214.281C284.814 214.04 284.42 213.709 284.124 213.29C283.828 212.866 283.671 212.385 283.652 211.848H285.143C285.179 212.281 285.373 212.638 285.724 212.921C286.075 213.203 286.496 213.345 286.988 213.345C287.38 213.345 287.727 213.254 288.027 213.071C288.328 212.889 288.565 212.641 288.738 212.326C288.911 212.007 288.998 211.643 288.998 211.232C288.998 210.822 288.909 210.455 288.731 210.132C288.554 209.804 288.308 209.546 287.993 209.359C287.683 209.173 287.326 209.079 286.92 209.079C286.61 209.079 286.3 209.134 285.99 209.243C285.68 209.348 285.43 209.485 285.238 209.653L283.823 209.448L284.397 204.314H289.996V205.634H285.683L285.361 208.484H285.416C285.612 208.288 285.874 208.129 286.202 208.006C286.535 207.878 286.893 207.814 287.275 207.814C287.895 207.814 288.447 207.963 288.93 208.259C289.417 208.55 289.8 208.951 290.078 209.462C290.356 209.968 290.495 210.549 290.495 211.205C290.495 211.866 290.345 212.456 290.044 212.976C289.743 213.491 289.328 213.896 288.8 214.192C288.276 214.489 287.672 214.637 286.988 214.637ZM296.996 212.586V212.053C296.996 211.665 297.076 211.312 297.235 210.993C297.395 210.674 297.63 210.419 297.939 210.228C298.249 210.032 298.625 209.934 299.067 209.934C299.519 209.934 299.897 210.029 300.202 210.221C300.507 210.412 300.738 210.67 300.893 210.993C301.048 211.312 301.125 211.665 301.125 212.053V212.586C301.125 212.973 301.045 213.329 300.886 213.652C300.731 213.971 300.501 214.227 300.195 214.418C299.89 214.609 299.514 214.705 299.067 214.705C298.621 214.705 298.243 214.609 297.933 214.418C297.623 214.227 297.388 213.971 297.229 213.652C297.074 213.329 296.996 212.973 296.996 212.586ZM298.151 212.053V212.586C298.151 212.873 298.22 213.133 298.356 213.365C298.493 213.598 298.73 213.714 299.067 213.714C299.4 213.714 299.632 213.598 299.765 213.365C299.897 213.133 299.963 212.873 299.963 212.586V212.053C299.963 211.766 299.899 211.508 299.771 211.28C299.644 211.048 299.409 210.932 299.067 210.932C298.735 210.932 298.498 211.048 298.356 211.28C298.22 211.508 298.151 211.766 298.151 212.053ZM291.876 206.762V206.229C291.876 205.841 291.956 205.488 292.115 205.169C292.279 204.845 292.514 204.588 292.819 204.396C293.129 204.205 293.503 204.109 293.94 204.109C294.392 204.109 294.77 204.205 295.075 204.396C295.385 204.588 295.618 204.845 295.772 205.169C295.927 205.488 296.003 205.841 295.998 206.229V206.762C296.003 207.145 295.925 207.498 295.766 207.821C295.606 208.14 295.374 208.398 295.068 208.594C294.763 208.785 294.387 208.881 293.94 208.881C293.494 208.881 293.116 208.785 292.806 208.594C292.5 208.398 292.268 208.14 292.108 207.821C291.953 207.498 291.876 207.145 291.876 206.762ZM293.031 206.229V206.762C293.031 207.049 293.1 207.309 293.236 207.541C293.373 207.773 293.608 207.887 293.94 207.883C294.278 207.887 294.512 207.773 294.645 207.541C294.777 207.309 294.843 207.049 294.843 206.762V206.229C294.843 205.941 294.779 205.682 294.651 205.449C294.524 205.217 294.287 205.103 293.94 205.107C293.612 205.103 293.378 205.217 293.236 205.449C293.1 205.682 293.031 205.941 293.031 206.229ZM292.348 214.5L299.348 204.314H300.537L293.537 214.5H292.348Z" fill="#1A1A1C"/>
<path d="M24 228H298" stroke="white" stroke-width="7" stroke-linecap="round"/>
<path d="M24 228L244 228" stroke="#ECC5A2" stroke-width="7" stroke-linecap="round"/>
<path d="M24.3418 258.908V257.814H31.9844V258.908H28.7852V268H27.5547V258.908H24.3418ZM32.2852 268V260.357H33.4062V261.52H33.4883C33.6296 261.141 33.8825 260.836 34.2471 260.604C34.6162 260.367 35.0286 260.248 35.4844 260.248C35.571 260.248 35.6781 260.25 35.8057 260.255C35.9333 260.255 36.0312 260.257 36.0996 260.262V261.451C36.0586 261.442 35.9674 261.428 35.8262 261.41C35.6849 261.392 35.5345 261.383 35.375 261.383C35.0059 261.383 34.6755 261.46 34.3838 261.615C34.0921 261.77 33.862 261.982 33.6934 262.251C33.5293 262.52 33.4473 262.827 33.4473 263.174V268H32.2852ZM39.0801 268.178C38.597 268.178 38.1572 268.087 37.7607 267.904C37.3643 267.717 37.0498 267.449 36.8174 267.098C36.585 266.747 36.4688 266.323 36.4688 265.826C36.4688 265.389 36.5553 265.035 36.7285 264.767C36.9017 264.493 37.1318 264.279 37.4189 264.124C37.7106 263.965 38.0296 263.846 38.376 263.769C38.7269 263.691 39.0801 263.63 39.4355 263.584C39.9004 263.525 40.2764 263.479 40.5635 263.447C40.8551 263.415 41.0671 263.361 41.1992 263.283C41.3359 263.206 41.4043 263.074 41.4043 262.887V262.846C41.4043 262.358 41.2699 261.98 41.001 261.711C40.7367 261.438 40.3333 261.301 39.791 261.301C39.235 261.301 38.7975 261.424 38.4785 261.67C38.1595 261.911 37.9362 262.171 37.8086 262.449L36.6875 262.053C36.888 261.588 37.1546 261.226 37.4873 260.966C37.8245 260.706 38.1891 260.524 38.5811 260.419C38.9775 260.314 39.3672 260.262 39.75 260.262C39.9961 260.262 40.2786 260.291 40.5977 260.351C40.9167 260.405 41.2266 260.524 41.5273 260.706C41.8327 260.884 42.0833 261.155 42.2793 261.52C42.4798 261.88 42.5801 262.363 42.5801 262.969V268H41.4043V266.961H41.3496C41.2721 267.125 41.14 267.303 40.9531 267.494C40.7663 267.681 40.5179 267.843 40.208 267.979C39.9027 268.112 39.5267 268.178 39.0801 268.178ZM39.2578 267.125C39.7227 267.125 40.1146 267.034 40.4336 266.852C40.7526 266.669 40.9941 266.435 41.1582 266.147C41.3223 265.856 41.4043 265.553 41.4043 265.238V264.158C41.3542 264.217 41.2448 264.272 41.0762 264.322C40.9121 264.368 40.7207 264.409 40.502 264.445C40.2878 264.482 40.0781 264.514 39.873 264.541C39.668 264.564 39.5039 264.582 39.3809 264.596C39.0755 264.637 38.7907 264.703 38.5264 264.794C38.262 264.881 38.0479 265.01 37.8838 265.184C37.7243 265.357 37.6445 265.594 37.6445 265.895C37.6445 266.3 37.7949 266.608 38.0957 266.817C38.401 267.022 38.7884 267.125 39.2578 267.125ZM45.2461 263.406V268H44.084V260.357H45.2051V261.561H45.3145C45.4922 261.169 45.7633 260.854 46.1279 260.617C46.4925 260.38 46.9642 260.262 47.543 260.262C48.0579 260.262 48.5091 260.367 48.8965 260.576C49.2839 260.786 49.5846 261.105 49.7988 261.533C50.0176 261.957 50.127 262.495 50.127 263.146V268H48.9648V263.229C48.9648 262.632 48.8076 262.164 48.4932 261.827C48.1787 261.485 47.7503 261.314 47.208 261.314C46.8343 261.314 46.4993 261.396 46.2031 261.561C45.9069 261.725 45.6722 261.962 45.499 262.271C45.3304 262.581 45.2461 262.96 45.2461 263.406ZM57.0312 262.08L55.9785 262.367C55.8783 262.107 55.7051 261.861 55.459 261.629C55.2174 261.392 54.8392 261.273 54.3242 261.273C53.8594 261.273 53.472 261.383 53.1621 261.602C52.8522 261.816 52.6973 262.085 52.6973 262.408C52.6973 262.7 52.8021 262.932 53.0117 263.105C53.2259 263.279 53.5586 263.42 54.0098 263.529L55.1445 263.803C55.8236 263.967 56.3294 264.22 56.6621 264.562C56.9993 264.903 57.168 265.339 57.168 265.867C57.168 266.305 57.0426 266.697 56.792 267.043C56.5413 267.389 56.1927 267.663 55.7461 267.863C55.2995 268.064 54.7799 268.164 54.1875 268.164C53.4082 268.164 52.7633 267.993 52.2529 267.651C51.7471 267.31 51.4258 266.815 51.2891 266.168L52.3965 265.895C52.5013 266.305 52.7018 266.612 52.998 266.817C53.2988 267.022 53.6908 267.125 54.1738 267.125C54.7161 267.125 55.1491 267.009 55.4727 266.776C55.8008 266.539 55.9648 266.259 55.9648 265.936C55.9648 265.398 55.5866 265.038 54.8301 264.855L53.5586 264.555C52.8568 264.386 52.3418 264.129 52.0137 263.782C51.6855 263.436 51.5215 263.001 51.5215 262.477C51.5215 262.044 51.6423 261.661 51.8838 261.328C52.1299 260.995 52.4648 260.736 52.8887 260.549C53.3125 260.357 53.791 260.262 54.3242 260.262C55.0853 260.262 55.68 260.43 56.1084 260.768C56.5413 261.1 56.849 261.538 57.0312 262.08ZM60.5312 268.178C60.0482 268.178 59.6084 268.087 59.2119 267.904C58.8154 267.717 58.501 267.449 58.2686 267.098C58.0361 266.747 57.9199 266.323 57.9199 265.826C57.9199 265.389 58.0065 265.035 58.1797 264.767C58.3529 264.493 58.583 264.279 58.8701 264.124C59.1618 263.965 59.4808 263.846 59.8271 263.769C60.1781 263.691 60.5312 263.63 60.8867 263.584C61.3516 263.525 61.7275 263.479 62.0146 263.447C62.3063 263.415 62.5182 263.361 62.6504 263.283C62.7871 263.206 62.8555 263.074 62.8555 262.887V262.846C62.8555 262.358 62.721 261.98 62.4521 261.711C62.1878 261.438 61.7845 261.301 61.2422 261.301C60.6862 261.301 60.2487 261.424 59.9297 261.67C59.6107 261.911 59.3874 262.171 59.2598 262.449L58.1387 262.053C58.3392 261.588 58.6058 261.226 58.9385 260.966C59.2757 260.706 59.6403 260.524 60.0322 260.419C60.4287 260.314 60.8184 260.262 61.2012 260.262C61.4473 260.262 61.7298 260.291 62.0488 260.351C62.3678 260.405 62.6777 260.524 62.9785 260.706C63.2839 260.884 63.5345 261.155 63.7305 261.52C63.931 261.88 64.0312 262.363 64.0312 262.969V268H62.8555V266.961H62.8008C62.7233 267.125 62.5911 267.303 62.4043 267.494C62.2174 267.681 61.9691 267.843 61.6592 267.979C61.3538 268.112 60.9779 268.178 60.5312 268.178ZM60.709 267.125C61.1738 267.125 61.5658 267.034 61.8848 266.852C62.2038 266.669 62.4453 266.435 62.6094 266.147C62.7734 265.856 62.8555 265.553 62.8555 265.238V264.158C62.8053 264.217 62.696 264.272 62.5273 264.322C62.3633 264.368 62.1719 264.409 61.9531 264.445C61.7389 264.482 61.5293 264.514 61.3242 264.541C61.1191 264.564 60.9551 264.582 60.832 264.596C60.5267 264.637 60.2419 264.703 59.9775 264.794C59.7132 264.881 59.499 265.01 59.335 265.184C59.1755 265.357 59.0957 265.594 59.0957 265.895C59.0957 266.3 59.2461 266.608 59.5469 266.817C59.8522 267.022 60.2396 267.125 60.709 267.125ZM68.625 268.164C67.9141 268.164 67.2988 267.995 66.7793 267.658C66.2643 267.316 65.8656 266.849 65.583 266.257C65.305 265.664 65.166 264.988 65.166 264.227C65.166 263.447 65.3096 262.761 65.5967 262.169C65.8838 261.572 66.2848 261.105 66.7998 260.768C67.3193 260.43 67.9232 260.262 68.6113 260.262C69.1491 260.262 69.6322 260.362 70.0605 260.562C70.4935 260.758 70.8467 261.036 71.1201 261.396C71.3981 261.757 71.569 262.176 71.6328 262.654H70.457C70.3978 262.422 70.2907 262.203 70.1357 261.998C69.9808 261.793 69.7757 261.629 69.5205 261.506C69.2699 261.378 68.9714 261.314 68.625 261.314C68.1693 261.314 67.7705 261.433 67.4287 261.67C67.0869 261.907 66.8203 262.242 66.6289 262.675C66.4375 263.103 66.3418 263.607 66.3418 264.186C66.3418 264.773 66.4352 265.288 66.6221 265.73C66.8089 266.168 67.0732 266.507 67.415 266.749C67.7614 266.991 68.1647 267.111 68.625 267.111C69.0853 267.111 69.4795 266.993 69.8076 266.756C70.1357 266.514 70.3522 266.186 70.457 265.771H71.6328C71.569 266.223 71.4049 266.628 71.1406 266.988C70.8809 267.348 70.5368 267.635 70.1084 267.85C69.6846 268.059 69.1901 268.164 68.625 268.164ZM76.0488 260.357V261.355H72.0977V260.357H76.0488ZM73.2461 258.539H74.4082V265.812C74.4082 266.209 74.4902 266.501 74.6543 266.688C74.8184 266.87 75.0781 266.961 75.4336 266.961C75.5111 266.961 75.5908 266.956 75.6729 266.947C75.7594 266.938 75.8529 266.924 75.9531 266.906L76.1992 267.959C76.0898 268 75.9554 268.032 75.7959 268.055C75.641 268.082 75.4837 268.096 75.3242 268.096C74.709 268.096 74.2077 267.913 73.8203 267.549C73.4375 267.184 73.2461 266.71 73.2461 266.127V258.539ZM77.1699 268V260.357H78.332V268H77.1699ZM77.7578 259.086C77.5299 259.086 77.334 259.008 77.1699 258.854C77.0059 258.699 76.9238 258.512 76.9238 258.293C76.9238 258.074 77.0059 257.887 77.1699 257.732C77.334 257.577 77.5299 257.5 77.7578 257.5C77.9857 257.5 78.1816 257.577 78.3457 257.732C78.5098 257.887 78.5918 258.074 78.5918 258.293C78.5918 258.512 78.5098 258.699 78.3457 258.854C78.1816 259.008 77.9857 259.086 77.7578 259.086ZM82.9258 268.164C82.2376 268.164 81.6338 268 81.1143 267.672C80.5947 267.344 80.1891 266.883 79.8975 266.291C79.6104 265.699 79.4668 265.01 79.4668 264.227C79.4668 263.429 79.6104 262.734 79.8975 262.142C80.1891 261.545 80.5947 261.082 81.1143 260.754C81.6338 260.426 82.2376 260.262 82.9258 260.262C83.6185 260.262 84.2246 260.426 84.7441 260.754C85.2637 261.082 85.6693 261.545 85.9609 262.142C86.2526 262.734 86.3984 263.429 86.3984 264.227C86.3984 265.01 86.2526 265.699 85.9609 266.291C85.6693 266.883 85.2637 267.344 84.7441 267.672C84.2246 268 83.6185 268.164 82.9258 268.164ZM82.9258 267.111C83.4544 267.111 83.8874 266.977 84.2246 266.708C84.5618 266.439 84.8125 266.086 84.9766 265.648C85.1406 265.206 85.2227 264.732 85.2227 264.227C85.2227 263.712 85.1406 263.233 84.9766 262.791C84.8125 262.349 84.5618 261.993 84.2246 261.725C83.8874 261.451 83.4544 261.314 82.9258 261.314C82.4062 261.314 81.9779 261.451 81.6406 261.725C81.3034 261.993 81.0527 262.349 80.8887 262.791C80.7246 263.233 80.6426 263.712 80.6426 264.227C80.6426 264.732 80.7246 265.206 80.8887 265.648C81.0527 266.086 81.3034 266.439 81.6406 266.708C81.9779 266.977 82.4062 267.111 82.9258 267.111ZM88.6953 263.406V268H87.5332V260.357H88.6543V261.561H88.7637C88.9414 261.169 89.2126 260.854 89.5771 260.617C89.9417 260.38 90.4134 260.262 90.9922 260.262C91.5072 260.262 91.9583 260.367 92.3457 260.576C92.7331 260.786 93.0339 261.105 93.248 261.533C93.4668 261.957 93.5762 262.495 93.5762 263.146V268H92.4141V263.229C92.4141 262.632 92.2568 262.164 91.9424 261.827C91.6279 261.485 91.1995 261.314 90.6572 261.314C90.2835 261.314 89.9486 261.396 89.6523 261.561C89.3561 261.725 89.1214 261.962 88.9482 262.271C88.7796 262.581 88.6953 262.96 88.6953 263.406Z" fill="#1A1A1C"/>
<path d="M278.327 267.637C277.639 267.637 277.028 267.521 276.495 267.288C275.962 267.051 275.54 266.723 275.23 266.304C274.921 265.884 274.757 265.399 274.738 264.848H276.283C276.306 265.148 276.409 265.408 276.591 265.627C276.773 265.846 277.012 266.017 277.309 266.14C277.609 266.258 277.944 266.317 278.313 266.317C278.715 266.317 279.07 266.247 279.38 266.105C279.69 265.964 279.931 265.771 280.104 265.524C280.282 265.274 280.371 264.984 280.371 264.656C280.371 264.314 280.285 264.014 280.111 263.754C279.938 263.49 279.685 263.285 279.353 263.139C279.02 262.993 278.619 262.92 278.149 262.92H277.281V261.662H278.149C278.523 261.662 278.854 261.594 279.141 261.457C279.428 261.32 279.651 261.131 279.811 260.89C279.975 260.648 280.057 260.363 280.057 260.035C280.057 259.721 279.986 259.447 279.845 259.215C279.703 258.978 279.505 258.796 279.25 258.668C278.995 258.536 278.694 258.47 278.348 258.47C278.015 258.47 277.705 258.529 277.418 258.647C277.131 258.766 276.896 258.937 276.714 259.16C276.536 259.379 276.443 259.646 276.434 259.96H274.95C274.964 259.409 275.123 258.925 275.429 258.511C275.739 258.091 276.149 257.766 276.659 257.533C277.174 257.296 277.744 257.178 278.368 257.178C279.02 257.178 279.583 257.305 280.057 257.561C280.535 257.811 280.904 258.148 281.164 258.572C281.424 258.992 281.554 259.45 281.554 259.946C281.554 260.525 281.394 261.013 281.075 261.409C280.756 261.801 280.33 262.068 279.797 262.209V262.284C280.471 262.389 280.993 262.658 281.362 263.091C281.736 263.524 281.923 264.062 281.923 264.704C281.923 265.265 281.766 265.766 281.451 266.208C281.141 266.65 280.715 266.999 280.173 267.254C279.635 267.509 279.02 267.637 278.327 267.637ZM286.756 267.637C285.972 267.637 285.3 267.432 284.739 267.021C284.183 266.611 283.757 266.019 283.461 265.244C283.169 264.465 283.023 263.521 283.023 262.414C283.023 261.311 283.172 260.37 283.468 259.591C283.764 258.807 284.19 258.21 284.746 257.8C285.307 257.385 285.977 257.178 286.756 257.178C287.54 257.178 288.21 257.385 288.766 257.8C289.326 258.21 289.752 258.807 290.044 259.591C290.34 260.37 290.488 261.311 290.488 262.414C290.488 263.521 290.342 264.465 290.051 265.244C289.759 266.019 289.335 266.611 288.779 267.021C288.223 267.432 287.549 267.637 286.756 267.637ZM286.756 266.324C287.234 266.324 287.638 266.172 287.966 265.866C288.294 265.561 288.545 265.117 288.718 264.533C288.891 263.945 288.978 263.239 288.978 262.414C288.978 261.585 288.891 260.878 288.718 260.295C288.545 259.707 288.294 259.26 287.966 258.955C287.638 258.645 287.234 258.49 286.756 258.49C286.049 258.49 285.503 258.834 285.115 259.522C284.732 260.206 284.541 261.17 284.541 262.414C284.541 263.239 284.628 263.945 284.801 264.533C284.974 265.117 285.225 265.561 285.553 265.866C285.885 266.172 286.286 266.324 286.756 266.324ZM296.996 265.586V265.053C296.996 264.665 297.076 264.312 297.235 263.993C297.395 263.674 297.63 263.419 297.939 263.228C298.249 263.032 298.625 262.934 299.067 262.934C299.519 262.934 299.897 263.029 300.202 263.221C300.507 263.412 300.738 263.67 300.893 263.993C301.048 264.312 301.125 264.665 301.125 265.053V265.586C301.125 265.973 301.045 266.329 300.886 266.652C300.731 266.971 300.501 267.227 300.195 267.418C299.89 267.609 299.514 267.705 299.067 267.705C298.621 267.705 298.243 267.609 297.933 267.418C297.623 267.227 297.388 266.971 297.229 266.652C297.074 266.329 296.996 265.973 296.996 265.586ZM298.151 265.053V265.586C298.151 265.873 298.22 266.133 298.356 266.365C298.493 266.598 298.73 266.714 299.067 266.714C299.4 266.714 299.632 266.598 299.765 266.365C299.897 266.133 299.963 265.873 299.963 265.586V265.053C299.963 264.766 299.899 264.508 299.771 264.28C299.644 264.048 299.409 263.932 299.067 263.932C298.735 263.932 298.498 264.048 298.356 264.28C298.22 264.508 298.151 264.766 298.151 265.053ZM291.876 259.762V259.229C291.876 258.841 291.956 258.488 292.115 258.169C292.279 257.845 292.514 257.588 292.819 257.396C293.129 257.205 293.503 257.109 293.94 257.109C294.392 257.109 294.77 257.205 295.075 257.396C295.385 257.588 295.618 257.845 295.772 258.169C295.927 258.488 296.003 258.841 295.998 259.229V259.762C296.003 260.145 295.925 260.498 295.766 260.821C295.606 261.14 295.374 261.398 295.068 261.594C294.763 261.785 294.387 261.881 293.94 261.881C293.494 261.881 293.116 261.785 292.806 261.594C292.5 261.398 292.268 261.14 292.108 260.821C291.953 260.498 291.876 260.145 291.876 259.762ZM293.031 259.229V259.762C293.031 260.049 293.1 260.309 293.236 260.541C293.373 260.773 293.608 260.887 293.94 260.883C294.278 260.887 294.512 260.773 294.645 260.541C294.777 260.309 294.843 260.049 294.843 259.762V259.229C294.843 258.941 294.779 258.682 294.651 258.449C294.524 258.217 294.287 258.103 293.94 258.107C293.612 258.103 293.378 258.217 293.236 258.449C293.1 258.682 293.031 258.941 293.031 259.229ZM292.348 267.5L299.348 257.314H300.537L293.537 267.5H292.348Z" fill="#1A1A1C"/>
<path d="M24 281H298" stroke="white" stroke-width="7" stroke-linecap="round"/>
<path d="M24 281L150 281" stroke="#ECC5A2" stroke-width="7" stroke-linecap="round"/>
</svg>
