<svg width="255" height="177" viewBox="0 0 255 177" fill="none" xmlns="http://www.w3.org/2000/svg">
<rect width="255" height="177" fill="#1A1A1C"/>
<rect x="16" y="16" width="40" height="40" rx="8" fill="#ECC5A2"/>
<path d="M41.5332 39.4668L41.5322 39.4678L36.002 45L30.4707 39.4707L30.4688 39.4678L32.5059 37.4365L36.002 40.9326L39.499 37.4355L41.5332 39.4668ZM38.0645 35.999H38.0654L38.0645 36.001L36.001 38.0645L33.9385 36.0029L33.9355 35.999L34.2998 35.6348L34.4756 35.46L36.001 33.9346L38.0645 35.999ZM31.0674 36L29.0342 38.0342L27 36L29.0342 33.9668L31.0674 36ZM45 36.001L42.9658 38.0342L40.9316 36.001L42.9658 33.9668L45 36.001ZM41.5322 32.5322L39.499 34.5664L36.002 31.0693L32.5059 34.5635L30.4707 32.5303L36.002 27L41.5322 32.5322Z" fill="#1A1A1C"/>
<path d="M17.0312 87V75.3594H21.1094C21.9167 75.3594 22.5833 75.5 23.1094 75.7812C23.6354 76.0573 24.026 76.4297 24.2812 76.8984C24.5417 77.3672 24.6719 77.8854 24.6719 78.4531C24.6719 78.9531 24.5833 79.3672 24.4062 79.6953C24.2292 80.0182 23.9974 80.276 23.7109 80.4688C23.4245 80.6562 23.1146 80.7969 22.7812 80.8906V81C23.1406 81.0208 23.5 81.1458 23.8594 81.375C24.2188 81.6042 24.5182 81.9297 24.7578 82.3516C25.0026 82.7734 25.125 83.2917 25.125 83.9062C25.125 84.4896 24.9922 85.0156 24.7266 85.4844C24.4609 85.9479 24.0417 86.3177 23.4688 86.5938C22.901 86.8646 22.1562 87 21.2344 87H17.0312ZM18.4375 85.75H21.2344C22.1562 85.75 22.8099 85.5703 23.1953 85.2109C23.5859 84.8516 23.7812 84.4167 23.7812 83.9062C23.7812 83.5104 23.6797 83.1458 23.4766 82.8125C23.2786 82.4792 22.9948 82.2109 22.625 82.0078C22.2552 81.8047 21.8177 81.7031 21.3125 81.7031H18.4375V85.75ZM18.4375 80.4844H21.0625C21.4844 80.4844 21.8672 80.401 22.2109 80.2344C22.5547 80.0625 22.8255 79.8255 23.0234 79.5234C23.2266 79.2161 23.3281 78.8594 23.3281 78.4531C23.3281 77.9427 23.151 77.5078 22.7969 77.1484C22.4427 76.7891 21.8802 76.6094 21.1094 76.6094H18.4375V80.4844ZM36.1935 75.3594V87H34.8029L28.4747 77.8594H28.3497V87H26.9435V75.3594H28.3029L34.6779 84.5156H34.7872V75.3594H36.1935ZM38.512 87V75.3594H42.5901C43.3974 75.3594 44.0641 75.5 44.5901 75.7812C45.1162 76.0573 45.5068 76.4297 45.762 76.8984C46.0224 77.3672 46.1526 77.8854 46.1526 78.4531C46.1526 78.9531 46.0641 79.3672 45.887 79.6953C45.7099 80.0182 45.4781 80.276 45.1917 80.4688C44.9052 80.6562 44.5953 80.7969 44.262 80.8906V81C44.6214 81.0208 44.9807 81.1458 45.3401 81.375C45.6995 81.6042 45.999 81.9297 46.2386 82.3516C46.4834 82.7734 46.6057 83.2917 46.6057 83.9062C46.6057 84.4896 46.4729 85.0156 46.2073 85.4844C45.9417 85.9479 45.5224 86.3177 44.9495 86.5938C44.3818 86.8646 43.637 87 42.7151 87H38.512ZM39.9182 85.75H42.7151C43.637 85.75 44.2906 85.5703 44.6761 85.2109C45.0667 84.8516 45.262 84.4167 45.262 83.9062C45.262 83.5104 45.1604 83.1458 44.9573 82.8125C44.7594 82.4792 44.4755 82.2109 44.1057 82.0078C43.736 81.8047 43.2985 81.7031 42.7932 81.7031H39.9182V85.75ZM39.9182 80.4844H42.5432C42.9651 80.4844 43.3479 80.401 43.6917 80.2344C44.0354 80.0625 44.3063 79.8255 44.5042 79.5234C44.7073 79.2161 44.8089 78.8594 44.8089 78.4531C44.8089 77.9427 44.6318 77.5078 44.2776 77.1484C43.9235 76.7891 43.361 76.6094 42.5901 76.6094H39.9182V80.4844Z" fill="white"/>
<path d="M65.6394 79.6001C65.5444 79.6001 65.4494 79.5651 65.3744 79.4901C65.2294 79.3451 65.2294 79.1051 65.3744 78.9601L66.9694 77.3651L65.3744 75.7701C65.2294 75.6251 65.2294 75.3851 65.3744 75.2401C65.5194 75.0951 65.7594 75.0951 65.9044 75.2401L67.7644 77.1001C67.8344 77.1701 67.8744 77.2651 67.8744 77.3651C67.8744 77.4651 67.8344 77.5601 67.7644 77.6301L65.9044 79.4901C65.8294 79.5601 65.7344 79.6001 65.6394 79.6001Z" fill="white"/>
<path d="M67.5 77.74H58.5C58.295 77.74 58.125 77.57 58.125 77.365C58.125 77.16 58.295 76.99 58.5 76.99H67.5C67.705 76.99 67.875 77.16 67.875 77.365C67.875 77.57 67.705 77.74 67.5 77.74Z" fill="white"/>
<path d="M60.36 84.875C60.265 84.875 60.17 84.84 60.095 84.765L58.235 82.905C58.165 82.835 58.125 82.74 58.125 82.64C58.125 82.54 58.165 82.445 58.235 82.375L60.095 80.515C60.24 80.37 60.48 80.37 60.625 80.515C60.77 80.66 60.77 80.9 60.625 81.045L59.03 82.64L60.625 84.235C60.77 84.38 60.77 84.62 60.625 84.765C60.555 84.84 60.46 84.875 60.36 84.875Z" fill="white"/>
<path d="M67.5 83.01H58.5C58.295 83.01 58.125 82.84 58.125 82.635C58.125 82.43 58.295 82.26 58.5 82.26H67.5C67.705 82.26 67.875 82.43 67.875 82.635C67.875 82.84 67.705 83.01 67.5 83.01Z" fill="white"/>
<path d="M86.6719 75.3594H88.0781V83.0625C88.0781 83.8594 87.8906 84.5703 87.5156 85.1953C87.1458 85.8151 86.6224 86.3047 85.9453 86.6641C85.2682 87.0234 84.474 87.2031 83.5625 87.2031C82.651 87.2031 81.8542 87.0234 81.1719 86.6641C80.4948 86.3047 79.9688 85.8151 79.5938 85.1953C79.2188 84.5703 79.0312 83.8594 79.0312 83.0625V75.3594H80.4375V82.9531C80.4375 83.5208 80.5625 84.026 80.8125 84.4688C81.0625 84.9115 81.4219 85.2604 81.8906 85.5156C82.3594 85.7656 82.9167 85.8906 83.5625 85.8906C84.2083 85.8906 84.763 85.7656 85.2266 85.5156C85.6901 85.2604 86.0469 84.9115 86.2969 84.4688C86.5469 84.026 86.6719 83.5208 86.6719 82.9531V75.3594ZM94.0841 87.2031C93.2508 87.2031 92.5294 87.0703 91.9201 86.8047C91.3107 86.5339 90.8315 86.1589 90.4826 85.6797C90.1388 85.1953 89.9435 84.6354 89.8966 84H91.3497C91.3914 84.4375 91.5399 84.7995 91.7951 85.0859C92.0555 85.3724 92.3862 85.5859 92.7872 85.7266C93.1883 85.8672 93.6206 85.9375 94.0841 85.9375C94.6206 85.9375 95.1024 85.849 95.5294 85.6719C95.9617 85.4948 96.3029 85.2474 96.5529 84.9297C96.8029 84.612 96.9279 84.2396 96.9279 83.8125C96.9279 83.4271 96.8185 83.1146 96.5997 82.875C96.381 82.6354 96.0945 82.4401 95.7404 82.2891C95.3914 82.138 95.0112 82.0052 94.5997 81.8906L93.1779 81.4844C92.2664 81.224 91.5451 80.8516 91.0138 80.3672C90.4878 79.8776 90.2247 79.2396 90.2247 78.4531C90.2247 77.8021 90.3992 77.2344 90.7482 76.75C91.1024 76.2604 91.5789 75.8802 92.1779 75.6094C92.782 75.3385 93.4539 75.2031 94.1935 75.2031C94.9435 75.2031 95.6102 75.3385 96.1935 75.6094C96.7768 75.875 97.2404 76.2396 97.5841 76.7031C97.9279 77.1615 98.1102 77.6823 98.131 78.2656H96.756C96.6883 77.6927 96.4122 77.2474 95.9279 76.9297C95.4487 76.612 94.855 76.4531 94.1466 76.4531C93.6362 76.4531 93.1883 76.5365 92.8029 76.7031C92.4175 76.8698 92.118 77.099 91.9044 77.3906C91.6909 77.6823 91.5841 78.0156 91.5841 78.3906C91.5841 78.8021 91.7117 79.1354 91.9669 79.3906C92.2221 79.6406 92.5242 79.8359 92.8732 79.9766C93.2274 80.1172 93.5477 80.2292 93.8341 80.3125L95.006 80.6406C95.3081 80.724 95.644 80.8359 96.0138 80.9766C96.3888 81.1172 96.7482 81.3073 97.0919 81.5469C97.4409 81.7865 97.7274 82.0938 97.9513 82.4688C98.1753 82.8385 98.2872 83.2969 98.2872 83.8438C98.2872 84.4688 98.1232 85.0365 97.7951 85.5469C97.4669 86.0521 96.9904 86.4557 96.3654 86.7578C95.7404 87.0547 94.98 87.2031 94.0841 87.2031ZM103.699 87H100.903V85.75H103.606C104.569 85.75 105.366 85.5651 105.996 85.1953C106.632 84.8255 107.106 84.2969 107.418 83.6094C107.731 82.9219 107.887 82.1042 107.887 81.1562C107.887 80.2188 107.733 79.4115 107.426 78.7344C107.119 78.0521 106.658 77.5286 106.043 77.1641C105.434 76.7943 104.673 76.6094 103.762 76.6094H100.84V75.3594H103.856C104.986 75.3594 105.952 75.5911 106.754 76.0547C107.561 76.5182 108.179 77.1849 108.606 78.0547C109.033 78.9193 109.246 79.9531 109.246 81.1562C109.246 82.3698 109.03 83.4141 108.598 84.2891C108.166 85.1589 107.535 85.8281 106.707 86.2969C105.884 86.7656 104.882 87 103.699 87ZM101.512 75.3594V87H100.106V75.3594H101.512Z" fill="white"/>
<path d="M22.9375 115.234C22.2266 115.234 21.5117 115.105 20.793 114.848C20.0742 114.582 19.418 114.141 18.8242 113.523C18.2383 112.898 17.7656 112.051 17.4062 110.98C17.0469 109.91 16.8672 108.57 16.8672 106.961C16.8672 105.414 17.0117 104.043 17.3008 102.848C17.5977 101.652 18.0195 100.645 18.5664 99.8242C19.1211 98.9961 19.7891 98.3711 20.5703 97.9492C21.3516 97.5195 22.2344 97.3047 23.2188 97.3047C24.1953 97.3047 25.0625 97.5 25.8203 97.8906C26.5859 98.2812 27.2109 98.8242 27.6953 99.5195C28.1797 100.207 28.4922 101 28.6328 101.898H26.5703C26.375 101.117 25.9961 100.469 25.4336 99.9531C24.8789 99.4375 24.1406 99.1797 23.2188 99.1797C21.8672 99.1797 20.8008 99.7695 20.0195 100.949C19.2461 102.121 18.8594 103.773 18.8594 105.906H19C19.3203 105.422 19.6992 105.008 20.1367 104.664C20.5742 104.312 21.0586 104.047 21.5898 103.867C22.1211 103.68 22.6875 103.586 23.2891 103.586C24.2891 103.586 25.2031 103.836 26.0312 104.336C26.8594 104.828 27.5234 105.512 28.0234 106.387C28.5234 107.254 28.7734 108.25 28.7734 109.375C28.7734 110.453 28.5312 111.438 28.0469 112.328C27.5703 113.211 26.8945 113.918 26.0195 114.449C25.1445 114.973 24.1172 115.234 22.9375 115.234ZM22.9375 113.359C23.6562 113.359 24.3008 113.184 24.8711 112.832C25.4414 112.473 25.8945 111.992 26.2305 111.391C26.5664 110.781 26.7344 110.109 26.7344 109.375C26.7344 108.648 26.5703 107.992 26.2422 107.406C25.9219 106.812 25.4805 106.34 24.918 105.988C24.3633 105.637 23.7266 105.461 23.0078 105.461C22.2891 105.461 21.6367 105.645 21.0508 106.012C20.4727 106.379 20.0117 106.863 19.668 107.465C19.332 108.059 19.1641 108.703 19.1641 109.398C19.1641 110.094 19.3281 110.746 19.6562 111.355C19.9844 111.957 20.4297 112.441 20.9922 112.809C21.5625 113.176 22.2109 113.359 22.9375 113.359ZM36.7277 115.234C35.7277 115.234 34.8254 115.039 34.0207 114.648C33.2238 114.25 32.5832 113.703 32.0988 113.008C31.6145 112.312 31.3527 111.523 31.3137 110.641H33.3527C33.4309 111.422 33.7863 112.07 34.4192 112.586C35.0598 113.102 35.8293 113.359 36.7277 113.359C37.4465 113.359 38.0832 113.191 38.6379 112.855C39.1926 112.52 39.6301 112.059 39.9504 111.473C40.2707 110.887 40.4309 110.219 40.4309 109.469C40.4309 108.711 40.2629 108.031 39.927 107.43C39.5988 106.828 39.1457 106.355 38.5676 106.012C37.9895 105.66 37.3293 105.484 36.5871 105.484C36.0481 105.484 35.4973 105.57 34.9348 105.742C34.3801 105.906 33.9231 106.117 33.5637 106.375L31.5715 106.141L32.6262 97.5391H41.6965V99.4141H34.4074L33.7981 104.57H33.8918C34.2512 104.281 34.7004 104.047 35.2395 103.867C35.7785 103.68 36.3449 103.586 36.9387 103.586C38.009 103.586 38.9621 103.84 39.7981 104.348C40.634 104.855 41.2902 105.551 41.7668 106.434C42.2512 107.309 42.4934 108.312 42.4934 109.445C42.4934 110.555 42.2434 111.547 41.7434 112.422C41.2434 113.297 40.5598 113.984 39.6926 114.484C38.8254 114.984 37.8371 115.234 36.7277 115.234ZM44.5883 111.414V109.68L52.2524 97.5391H53.518V100.234H52.6508L46.8617 109.398V109.539H57.1977V111.414H44.5883ZM52.7914 115V110.898V110.078V97.5391H54.8071V115H52.7914ZM60.1833 115L67.9879 99.5547V99.4141H58.9879V97.5391H70.1911V99.5312L62.4098 115H60.1833ZM71.0087 115.141C70.5868 115.141 70.2235 114.992 69.9188 114.695C69.6219 114.391 69.4735 114.027 69.4735 113.605C69.4735 113.184 69.6219 112.824 69.9188 112.527C70.2235 112.223 70.5868 112.07 71.0087 112.07C71.4305 112.07 71.7899 112.223 72.0868 112.527C72.3915 112.824 72.5438 113.184 72.5438 113.605C72.5438 114.027 72.3915 114.391 72.0868 114.695C71.7899 114.992 71.4305 115.141 71.0087 115.141ZM75.67 115L83.4747 99.5547V99.4141H74.4747V97.5391H85.6778V99.5312L77.8966 115H75.67ZM93.1165 97.3047C93.8353 97.3125 94.5501 97.4492 95.261 97.7148C95.9798 97.9805 96.636 98.4219 97.2298 99.0391C97.8235 99.6562 98.2962 100.496 98.6478 101.559C99.0071 102.621 99.1868 103.953 99.1868 105.555C99.1868 107.109 99.0423 108.488 98.7532 109.691C98.4642 110.887 98.0423 111.898 97.4876 112.727C96.9407 113.547 96.2767 114.172 95.4954 114.602C94.7142 115.023 93.8353 115.234 92.8587 115.234C91.8821 115.234 91.0071 115.039 90.2337 114.648C89.4681 114.258 88.8431 113.715 88.3587 113.02C87.8743 112.324 87.5618 111.516 87.4212 110.594H89.5071C89.6946 111.398 90.0696 112.062 90.6321 112.586C91.1946 113.102 91.9368 113.359 92.8587 113.359C94.2024 113.359 95.261 112.773 96.0345 111.602C96.8157 110.422 97.2103 108.758 97.2181 106.609H97.0774C96.7571 107.086 96.3782 107.5 95.9407 107.852C95.5032 108.195 95.0188 108.461 94.4876 108.648C93.9563 108.836 93.3899 108.93 92.7884 108.93C91.7884 108.93 90.8704 108.684 90.0345 108.191C89.1985 107.691 88.5306 107.008 88.0306 106.141C87.5384 105.266 87.2884 104.266 87.2806 103.141C87.2884 102.07 87.5306 101.094 88.0071 100.211C88.4915 99.3203 89.1673 98.6094 90.0345 98.0781C90.9095 97.5469 91.9368 97.2891 93.1165 97.3047ZM93.1165 99.1797C92.4056 99.1797 91.761 99.3594 91.1829 99.7188C90.6126 100.07 90.1634 100.547 89.8353 101.148C89.5071 101.742 89.3431 102.406 89.3431 103.141C89.3431 103.867 89.4993 104.527 89.8118 105.121C90.1321 105.715 90.5735 106.188 91.136 106.539C91.6985 106.883 92.3353 107.055 93.0462 107.055C93.7649 107.055 94.4134 106.871 94.9915 106.504C95.5774 106.129 96.0423 105.641 96.386 105.039C96.7376 104.438 96.9134 103.789 96.9134 103.094C96.9134 102.414 96.7493 101.777 96.4212 101.184C96.0931 100.582 95.6438 100.098 95.0735 99.7305C94.5032 99.3633 93.8509 99.1797 93.1165 99.1797Z" fill="white"/>
<path d="M29.6162 140.924H27.6162V139.506L24.3184 142.804L23.6104 143.511L20.7939 140.695L17.4141 144.076L16 142.662L20.0869 138.574L20.7939 137.867L21.502 138.574L23.6104 140.682L26.3691 137.924H24.6162V135.924H29.6162V140.924Z" fill="#ECC5A2"/>
<path d="M37.5264 135.178C37.9456 135.182 38.3626 135.262 38.7773 135.417C39.1966 135.572 39.5794 135.829 39.9258 136.189C40.2721 136.549 40.5479 137.039 40.7529 137.659C40.9626 138.279 41.0674 139.056 41.0674 139.99C41.0674 140.897 40.9831 141.701 40.8145 142.403C40.6458 143.101 40.3997 143.691 40.0762 144.174C39.7572 144.652 39.3698 145.017 38.9141 145.268C38.4583 145.514 37.9456 145.637 37.376 145.637C36.8063 145.637 36.2959 145.523 35.8447 145.295C35.3981 145.067 35.0335 144.75 34.751 144.345C34.4684 143.939 34.2861 143.467 34.2041 142.93H35.4209C35.5303 143.399 35.749 143.786 36.0771 144.092C36.4053 144.393 36.8382 144.543 37.376 144.543C38.1598 144.543 38.7773 144.201 39.2285 143.518C39.6842 142.829 39.9144 141.859 39.9189 140.605H39.8369C39.6501 140.883 39.429 141.125 39.1738 141.33C38.9186 141.531 38.6361 141.686 38.3262 141.795C38.0163 141.904 37.6859 141.959 37.335 141.959C36.7516 141.959 36.2161 141.815 35.7285 141.528C35.2409 141.237 34.8512 140.838 34.5596 140.332C34.2725 139.822 34.1266 139.238 34.1221 138.582C34.1266 137.958 34.2679 137.388 34.5459 136.873C34.8285 136.354 35.2227 135.939 35.7285 135.629C36.2389 135.319 36.8382 135.169 37.5264 135.178ZM37.5264 136.271C37.1117 136.271 36.7357 136.376 36.3984 136.586C36.0658 136.791 35.8037 137.069 35.6123 137.42C35.4209 137.766 35.3252 138.154 35.3252 138.582C35.3252 139.006 35.4163 139.391 35.5986 139.737C35.7855 140.084 36.043 140.359 36.3711 140.564C36.6992 140.765 37.0706 140.865 37.4854 140.865C37.9046 140.865 38.2829 140.758 38.6201 140.544C38.9619 140.325 39.2331 140.04 39.4336 139.689C39.6387 139.339 39.7412 138.96 39.7412 138.555C39.7412 138.158 39.6455 137.787 39.4541 137.44C39.2627 137.09 39.0007 136.807 38.668 136.593C38.3353 136.379 37.9548 136.271 37.5264 136.271ZM42.5989 145.582C42.3528 145.582 42.1409 145.495 41.9632 145.322C41.79 145.145 41.7034 144.933 41.7034 144.687C41.7034 144.44 41.79 144.231 41.9632 144.058C42.1409 143.88 42.3528 143.791 42.5989 143.791C42.845 143.791 43.0546 143.88 43.2278 144.058C43.4055 144.231 43.4944 144.44 43.4944 144.687C43.4944 144.933 43.4055 145.145 43.2278 145.322C43.0546 145.495 42.845 145.582 42.5989 145.582ZM47.6851 145.637C47.1018 145.637 46.5754 145.523 46.106 145.295C45.6412 145.062 45.2675 144.743 44.9849 144.338C44.7024 143.932 44.5497 143.472 44.5269 142.957H45.7164C45.7619 143.413 45.9693 143.791 46.3384 144.092C46.7121 144.393 47.161 144.543 47.6851 144.543C48.1044 144.543 48.4758 144.445 48.7994 144.249C49.1229 144.053 49.3782 143.784 49.565 143.442C49.7518 143.101 49.8453 142.711 49.8453 142.273C49.8453 141.831 49.7473 141.435 49.5513 141.084C49.3599 140.733 49.0956 140.457 48.7584 140.257C48.4211 140.052 48.036 139.949 47.6031 139.949C47.2886 139.949 46.9673 139.999 46.6392 140.1C46.3157 140.195 46.049 140.318 45.8394 140.469L44.6773 140.332L45.2925 135.314H50.5836V136.408H46.3316L45.9761 139.416H46.0308C46.2405 139.247 46.5025 139.111 46.817 139.006C47.1314 138.896 47.4618 138.842 47.8082 138.842C48.4325 138.842 48.9885 138.99 49.4761 139.286C49.9638 139.582 50.3466 139.988 50.6246 140.503C50.9071 141.013 51.0484 141.599 51.0484 142.26C51.0484 142.907 50.9026 143.486 50.6109 143.996C50.3192 144.507 49.9205 144.908 49.4146 145.199C48.9087 145.491 48.3323 145.637 47.6851 145.637ZM57.1942 143.586V143.053C57.1942 142.679 57.2694 142.337 57.4198 142.027C57.5747 141.717 57.8003 141.469 58.0965 141.282C58.3927 141.095 58.7528 141.002 59.1766 141.002C59.6095 141.002 59.9718 141.095 60.2635 141.282C60.5552 141.469 60.7739 141.717 60.9198 142.027C61.0702 142.337 61.1454 142.679 61.1454 143.053V143.586C61.1454 143.96 61.0702 144.301 60.9198 144.611C60.7694 144.921 60.5483 145.17 60.2567 145.356C59.965 145.543 59.605 145.637 59.1766 145.637C58.7482 145.637 58.3859 145.543 58.0897 145.356C57.7935 145.17 57.5702 144.921 57.4198 144.611C57.2694 144.301 57.1942 143.96 57.1942 143.586ZM58.2059 143.053V143.586C58.2059 143.896 58.2788 144.174 58.4246 144.42C58.5705 144.661 58.8211 144.785 59.1766 144.789C59.5275 144.785 59.7736 144.661 59.9149 144.42C60.0607 144.174 60.1336 143.896 60.1336 143.586V143.053C60.1336 142.743 60.063 142.467 59.9217 142.226C59.785 141.984 59.5366 141.863 59.1766 141.863C58.8302 141.863 58.5819 141.984 58.4315 142.226C58.2811 142.467 58.2059 142.743 58.2059 143.053ZM52.1219 137.762V137.229C52.1219 136.855 52.1994 136.513 52.3543 136.203C52.5093 135.893 52.7326 135.645 53.0243 135.458C53.3205 135.271 53.6805 135.178 54.1043 135.178C54.5373 135.178 54.8996 135.271 55.1912 135.458C55.4875 135.645 55.7085 135.893 55.8543 136.203C56.0047 136.513 56.0776 136.855 56.0731 137.229V137.762C56.0776 138.131 56.0024 138.473 55.8475 138.787C55.6971 139.097 55.4761 139.345 55.1844 139.532C54.8927 139.719 54.5327 139.812 54.1043 139.812C53.676 139.812 53.3136 139.719 53.0174 139.532C52.7212 139.345 52.4979 139.097 52.3475 138.787C52.1971 138.473 52.1219 138.131 52.1219 137.762ZM53.1336 137.229V137.762C53.1336 138.072 53.2065 138.35 53.3524 138.596C53.4982 138.837 53.7489 138.956 54.1043 138.951C54.4552 138.956 54.7013 138.837 54.8426 138.596C54.9885 138.35 55.0614 138.072 55.0614 137.762V137.229C55.0614 136.919 54.9907 136.643 54.8495 136.401C54.7127 136.155 54.4644 136.035 54.1043 136.039C53.758 136.035 53.5096 136.155 53.3592 136.401C53.2088 136.643 53.1336 136.919 53.1336 137.229ZM52.5047 145.5L59.5047 135.314H60.6395L53.6395 145.5H52.5047Z" fill="#ECC5A2"/>
<path d="M239 60.5C231.96 74.5 225.321 92.3724 211.19 92.3724C193.945 92.8015 190.421 76.883 175.636 77.7766C150.642 77.7766 159.794 116.5 126 116.5" stroke="#ECC5A2" stroke-width="2"/>
</svg>
