<svg width="629" height="210" viewBox="0 0 629 210" fill="none" xmlns="http://www.w3.org/2000/svg">
<path d="M575.387 0C628.68 0 671.883 39.4042 671.883 88.0117C671.883 136.619 628.68 176.023 575.387 176.023C564.533 176.023 554.097 174.389 544.36 171.375C530.501 190.967 506.359 203.938 478.895 203.938C451.54 203.938 427.482 191.071 413.596 171.611C403.816 184.162 388.092 192.305 370.359 192.305C347.266 192.305 327.577 178.497 319.991 159.123C320.223 161.043 320.344 162.995 320.344 164.974C320.344 193.066 296.3 215.84 266.641 215.84C248.908 215.84 233.183 207.698 223.403 195.146C209.517 214.606 185.459 227.474 158.105 227.474C130.641 227.474 106.498 214.502 92.6387 194.91C82.9018 197.924 72.4669 199.559 61.6133 199.559C8.31996 199.559 -34.8828 160.154 -34.8828 111.547C-34.8828 62.9393 8.31996 23.5352 61.6133 23.5352C104.988 23.5352 141.679 49.6376 153.833 85.5596C155.247 85.4898 156.672 85.4531 158.105 85.4531C190.088 85.4531 217.564 103.043 229.545 128.193C239.186 119.467 252.252 114.107 266.641 114.107C289.734 114.107 309.422 127.914 317.008 147.288C316.776 145.369 316.656 143.417 316.656 141.438C316.656 113.346 340.7 90.5723 370.359 90.5723C384.747 90.5723 397.813 95.9323 407.454 104.658C419.434 79.5073 446.912 61.918 478.895 61.918C480.328 61.918 481.752 61.9547 483.166 62.0244C495.32 26.1023 532.012 0 575.387 0Z" fill="url(#paint0_linear_5448_7834)" fill-opacity="0.6"/>
<defs>
<linearGradient id="paint0_linear_5448_7834" x1="318.5" y1="0" x2="318.5" y2="227.474" gradientUnits="userSpaceOnUse">
<stop offset="0.237737" stop-color="white"/>
<stop offset="1" stop-color="white" stop-opacity="0"/>
</linearGradient>
</defs>
</svg>
