<svg width="165" height="197" viewBox="0 0 165 197" fill="none" xmlns="http://www.w3.org/2000/svg">
<path d="M72.3096 5.7832C78.6482 3.4063 85.6331 3.4063 91.9717 5.7832L142.112 24.5859C153.041 28.6841 160.281 39.1312 160.281 50.8027V99.0439C160.281 121.699 148.743 141.169 135.026 156.338C121.283 171.537 104.992 182.827 94.6289 189.205C86.9098 193.956 77.3714 193.956 69.6523 189.205C59.2889 182.827 42.998 171.537 29.2549 156.338C15.5384 141.169 4 121.699 4 99.0439V50.8027C4.00007 39.1312 11.2405 28.6841 22.1689 24.5859L72.3096 5.7832Z" fill="url(#paint0_linear_5425_26236)" stroke="white" stroke-width="8"/>
<path d="M80.0453 171.051C81.3789 171.782 82.9161 171.782 84.2497 171.051C94.7097 165.317 140.647 137.922 140.647 99.0432V51.2049C140.647 49.1909 139.397 47.3881 137.511 46.6809L83.844 26.5556C82.7502 26.1454 81.5448 26.1454 80.451 26.5556L26.7836 46.6809C24.8978 47.3881 23.6484 49.1909 23.6484 51.2049V99.0432C23.6484 137.922 69.5853 165.317 80.0453 171.051Z" fill="white"/>
<path d="M82.1367 153.795L80.3486 157.374L82.1367 158.267L83.9258 157.374L82.1367 153.795ZM82.1367 153.795L83.9287 157.372L83.9424 157.365C83.9505 157.361 83.9612 157.355 83.9746 157.348C84.0014 157.335 84.0387 157.316 84.0859 157.292C84.1805 157.243 84.3156 157.173 84.4883 157.083C84.8337 156.901 85.3301 156.636 85.9561 156.29C87.2077 155.597 88.9805 154.577 91.1006 153.252C95.3328 150.607 100.993 146.717 106.672 141.749C117.861 131.958 129.938 117.254 129.938 99.0435V57.9458L127.343 56.9722L83.542 40.5474L82.1367 40.02L80.7324 40.5474L36.9316 56.9722L34.3359 57.9458V99.0435C34.3359 117.255 46.4133 131.958 57.6025 141.749C63.2812 146.717 68.9407 150.607 73.1729 153.252C75.2929 154.577 77.0657 155.597 78.3174 156.29C78.9435 156.636 79.4407 156.901 79.7861 157.083C79.9588 157.173 80.0939 157.243 80.1885 157.292C80.2357 157.316 80.273 157.335 80.2998 157.348C80.3132 157.355 80.3239 157.361 80.332 157.365L80.3457 157.372L82.1367 153.795Z" fill="url(#paint1_linear_5425_26236)" stroke="white" stroke-width="8"/>
<path fill-rule="evenodd" clip-rule="evenodd" d="M96.3064 87.4277H94.6761V81.742C94.6761 78.4154 93.3551 75.2247 91.0028 72.8725C88.6506 70.5203 85.4599 69.1992 82.1334 69.1992C78.8068 69.1992 75.6161 70.5203 73.2639 72.8725C70.9117 75.2247 69.5907 78.4154 69.5906 81.742V87.4277H67.951C64.3796 87.4277 61.4844 90.3229 61.4844 93.8943V108.072L61.4926 108.405C61.6657 111.822 64.4911 114.539 67.951 114.539H96.3064C99.8778 114.539 102.773 111.643 102.773 108.072V93.8943C102.773 90.3229 99.8778 87.4277 96.3064 87.4277ZM87.5855 76.2898C89.0316 77.7359 89.8444 79.6969 89.8445 81.742V87.4277H74.4223V81.742C74.4223 79.6969 75.2351 77.7359 76.6812 76.2898C78.1273 74.8437 80.0883 74.0309 82.1334 74.0309C84.1785 74.0309 86.1394 74.8438 87.5855 76.2898Z" fill="white"/>
<defs>
<linearGradient id="paint0_linear_5425_26236" x1="82.1406" y1="6.36816" x2="82.1406" y2="191.72" gradientUnits="userSpaceOnUse">
<stop stop-color="#142E6E"/>
<stop offset="1" stop-color="#EDF3FF"/>
</linearGradient>
<linearGradient id="paint1_linear_5425_26236" x1="82.1371" y1="44.2925" x2="82.1371" y2="153.795" gradientUnits="userSpaceOnUse">
<stop stop-color="#142E6E"/>
<stop offset="1" stop-color="#EDF3FF"/>
</linearGradient>
</defs>
</svg>
