<svg width="95" height="257" viewBox="0 0 95 257" fill="none" xmlns="http://www.w3.org/2000/svg">
<rect x="35.5391" y="118.311" width="23.6875" height="138.199" fill="url(#paint0_linear_5448_7839)"/>
<path d="M88.5533 58.0114L68.5359 49.0742V87.5728L94.7656 104.072L88.5533 58.0114Z" fill="white" fill-opacity="0.43"/>
<path d="M5.61112 58.0114L23.6914 49.0742V87.5728L0 104.072L5.61112 58.0114Z" fill="white" fill-opacity="0.43"/>
<path d="M47.3828 104.113L47.3828 95.8938V87.6743L47.3828 0C47.3828 0 34.2437 5.44383 25.3091 31.302C20.1692 46.1779 17.8374 60.0673 16.5283 74.6602C15.7382 83.4678 16.1034 92.649 16.7132 102.245C16.78 103.296 17.6532 104.113 18.7066 104.113H20.9441C22.0486 104.113 22.9441 105.009 22.9441 106.113V107.593C22.9441 108.697 23.8395 109.593 24.9441 109.593H28.1054C29.21 109.593 30.1054 110.488 30.1054 111.593V113.073C30.1054 114.177 31.0008 115.073 32.1054 115.073H47.3828V109.593V104.113Z" fill="white"/>
<path d="M46.5391 104.113L46.5391 95.8938V87.6743L46.5391 0C46.5391 0 59.6782 5.44383 68.6128 31.302C73.7527 46.1779 76.0845 60.0673 77.3936 74.6602C78.1837 83.4678 77.8185 92.649 77.2087 102.245C77.1419 103.296 76.2687 104.113 75.2153 104.113H72.9778C71.8732 104.113 70.9778 105.009 70.9778 106.113V107.593C70.9778 108.697 70.0824 109.593 68.9778 109.593H65.8165C64.7119 109.593 63.8165 110.488 63.8165 111.593V113.073C63.8165 114.177 62.9211 115.073 61.8165 115.073H46.5391V109.593V104.113Z" fill="white"/>
<path d="M33 115.072H60.922L59.8154 119.309C59.4704 120.63 58.2776 121.551 56.9127 121.551H37.585C36.3505 121.551 35.2421 120.795 34.7917 119.645L33 115.072Z" fill="#1A1A1C" fill-opacity="0.2"/>
<circle cx="46.7098" cy="28.7684" r="13.5379" fill="url(#paint1_linear_5448_7839)"/>
<path d="M49.499 44.4219L55.4219 51.8213L56.4785 53.1416L56.2676 54.8193L50.3447 101.99H42.4072L36.4844 54.8193L36.2734 53.1416L37.3301 51.8213L43.2529 44.4219L46.376 40.5205L49.499 44.4219Z" fill="url(#paint2_linear_5448_7839)" stroke="white" stroke-width="8"/>
<defs>
<linearGradient id="paint0_linear_5448_7839" x1="47.3828" y1="118.311" x2="47.3828" y2="256.51" gradientUnits="userSpaceOnUse">
<stop stop-color="white"/>
<stop offset="0.792276" stop-color="white" stop-opacity="0"/>
</linearGradient>
<linearGradient id="paint1_linear_5448_7839" x1="46.7098" y1="15.2305" x2="46.7098" y2="42.3064" gradientUnits="userSpaceOnUse">
<stop stop-color="#142E6E"/>
<stop offset="1" stop-color="#EDF3FF"/>
</linearGradient>
<linearGradient id="paint2_linear_5448_7839" x1="46.376" y1="46.9219" x2="46.376" y2="101.492" gradientUnits="userSpaceOnUse">
<stop stop-color="#142E6E"/>
<stop offset="1" stop-color="#EDF3FF"/>
</linearGradient>
</defs>
</svg>
