<svg width="233" height="166" viewBox="0 0 233 166" fill="none" xmlns="http://www.w3.org/2000/svg">
<mask id="mask0_2264_32055" style="mask-type:alpha" maskUnits="userSpaceOnUse" x="0" y="0" width="233" height="166">
<rect width="233" height="166" rx="16" fill="#C6F56F"/>
</mask>
<g mask="url(#mask0_2264_32055)">
<rect width="233" height="166" rx="16" fill="#1A1A1C"/>
<path d="M-13.7437 95.5738C-23.0917 99.9997 -35.5556 96.1885 -40.6191 93.7297L-71 164.597L329.21 172.5C331.741 140.272 333.533 74.6035 320.446 69.7561C304.087 63.6968 295.907 75.025 292.986 78.4498C290.065 81.8746 280.133 84.509 271.953 83.4553C263.774 82.4015 246.246 95.5738 233.977 98.7351C221.708 101.896 204.765 84.509 197.17 81.6112C189.574 78.7133 183.148 85.0359 180.226 84.509C177.305 83.9822 165.036 67.3851 156.272 67.6485C147.509 67.912 139.913 83.4553 133.487 81.6112C127.06 79.767 120.049 93.7297 98.4318 102.95C76.8146 112.171 68.0509 67.912 56.366 65.8044C44.681 63.6968 41.1755 72.9174 29.4906 81.6112C17.8056 90.3049 12.5474 83.7187 9.04192 81.6112C5.53643 79.5036 -2.05879 90.0414 -13.7437 95.5738Z" fill="#ECC5A2" fill-opacity="0.12" stroke="#ECC5A2" stroke-width="3" stroke-linecap="round" stroke-linejoin="round"/>
</g>
<path d="M20.3418 22.9082V21.8145H27.9844V22.9082H24.7852V32H23.5547V22.9082H20.3418ZM29.0781 32V24.3574H30.2402V32H29.0781ZM29.666 23.0859C29.4382 23.0859 29.2422 23.0085 29.0781 22.8535C28.9141 22.6986 28.832 22.5117 28.832 22.293C28.832 22.0742 28.9141 21.8874 29.0781 21.7324C29.2422 21.5775 29.4382 21.5 29.666 21.5C29.8939 21.5 30.0898 21.5775 30.2539 21.7324C30.418 21.8874 30.5 22.0742 30.5 22.293C30.5 22.5117 30.418 22.6986 30.2539 22.8535C30.0898 23.0085 29.8939 23.0859 29.666 23.0859ZM31.7441 32V24.3574H32.8652V25.5605H32.9746C33.1341 25.1504 33.3916 24.8314 33.7471 24.6035C34.1025 24.3757 34.5286 24.2617 35.0254 24.2617C35.5267 24.2617 35.9437 24.3757 36.2764 24.6035C36.6136 24.8314 36.8757 25.1504 37.0625 25.5605H37.1445C37.3451 25.1641 37.639 24.8496 38.0264 24.6172C38.4183 24.3802 38.8854 24.2617 39.4277 24.2617C40.1113 24.2617 40.6719 24.4759 41.1094 24.9043C41.5469 25.3281 41.7656 25.9889 41.7656 26.8867V32H40.5898V26.8867C40.5898 26.3216 40.4349 25.9183 40.125 25.6768C39.8151 25.4352 39.4505 25.3145 39.0312 25.3145C38.498 25.3145 38.0833 25.4785 37.7871 25.8066C37.4954 26.1302 37.3496 26.5358 37.3496 27.0234V32H36.1465V26.7637C36.1465 26.3307 36.0075 25.9821 35.7295 25.7178C35.4515 25.4489 35.0892 25.3145 34.6426 25.3145C34.3372 25.3145 34.0524 25.3965 33.7881 25.5605C33.5238 25.7246 33.3096 25.9502 33.1455 26.2373C32.986 26.5244 32.9062 26.8548 32.9062 27.2285V32H31.7441ZM46.4688 32.1641C45.735 32.1641 45.0993 32 44.5615 31.6719C44.0283 31.3438 43.6182 30.8857 43.3311 30.2979C43.0439 29.7054 42.9004 29.0195 42.9004 28.2402C42.9004 27.4564 43.0417 26.766 43.3242 26.1689C43.6068 25.5719 44.0033 25.1048 44.5137 24.7676C45.0286 24.4303 45.6302 24.2617 46.3184 24.2617C46.7148 24.2617 47.109 24.3278 47.501 24.46C47.8929 24.5921 48.2484 24.8063 48.5674 25.1025C48.891 25.3988 49.1484 25.7907 49.3398 26.2783C49.5312 26.766 49.627 27.3652 49.627 28.0762V28.582H43.7344V27.5703H48.9912L48.4512 27.9531C48.4512 27.4427 48.3714 26.9893 48.2119 26.5928C48.0524 26.1963 47.8132 25.8841 47.4941 25.6562C47.1797 25.4284 46.7878 25.3145 46.3184 25.3145C45.849 25.3145 45.4456 25.4307 45.1084 25.6631C44.7757 25.891 44.5205 26.1895 44.3428 26.5586C44.165 26.9277 44.0762 27.3242 44.0762 27.748V28.418C44.0762 28.9967 44.1764 29.4867 44.377 29.8877C44.5775 30.2887 44.8577 30.5941 45.2178 30.8037C45.5778 31.0088 45.9948 31.1113 46.4688 31.1113C46.7741 31.1113 47.0521 31.068 47.3027 30.9814C47.5534 30.8903 47.7699 30.7559 47.9521 30.5781C48.1344 30.3958 48.2734 30.1725 48.3691 29.9082L49.5039 30.2363C49.3854 30.6191 49.1849 30.9564 48.9023 31.248C48.6243 31.5352 48.278 31.7607 47.8633 31.9248C47.4486 32.0843 46.9837 32.1641 46.4688 32.1641ZM54.0156 32V24.3574H55.1777V32H54.0156ZM54.6035 23.0859C54.3757 23.0859 54.1797 23.0085 54.0156 22.8535C53.8516 22.6986 53.7695 22.5117 53.7695 22.293C53.7695 22.0742 53.8516 21.8874 54.0156 21.7324C54.1797 21.5775 54.3757 21.5 54.6035 21.5C54.8314 21.5 55.0273 21.5775 55.1914 21.7324C55.3555 21.8874 55.4375 22.0742 55.4375 22.293C55.4375 22.5117 55.3555 22.6986 55.1914 22.8535C55.0273 23.0085 54.8314 23.0859 54.6035 23.0859ZM57.8438 27.4062V32H56.6816V24.3574H57.8027V25.5605H57.9121C58.0898 25.1686 58.361 24.8542 58.7256 24.6172C59.0902 24.3802 59.5618 24.2617 60.1406 24.2617C60.6556 24.2617 61.1068 24.3665 61.4941 24.5762C61.8815 24.7858 62.1823 25.1048 62.3965 25.5332C62.6152 25.957 62.7246 26.4948 62.7246 27.1465V32H61.5625V27.2285C61.5625 26.6315 61.4053 26.1644 61.0908 25.8271C60.7764 25.4854 60.348 25.3145 59.8057 25.3145C59.432 25.3145 59.097 25.3965 58.8008 25.5605C58.5046 25.7246 58.2699 25.9616 58.0967 26.2715C57.9281 26.5814 57.8438 26.9596 57.8438 27.4062ZM67.3184 32.1641C66.6074 32.1641 65.9922 31.9954 65.4727 31.6582C64.9577 31.3164 64.5589 30.8493 64.2764 30.2568C63.9984 29.6644 63.8594 28.9876 63.8594 28.2266C63.8594 27.4473 64.0029 26.7614 64.29 26.1689C64.5771 25.5719 64.9782 25.1048 65.4932 24.7676C66.0127 24.4303 66.6165 24.2617 67.3047 24.2617C67.8424 24.2617 68.3255 24.362 68.7539 24.5625C69.1868 24.7585 69.54 25.0365 69.8135 25.3965C70.0915 25.7565 70.2624 26.1758 70.3262 26.6543H69.1504C69.0911 26.4219 68.984 26.2031 68.8291 25.998C68.6742 25.793 68.4691 25.6289 68.2139 25.5059C67.9632 25.3783 67.6647 25.3145 67.3184 25.3145C66.8626 25.3145 66.4639 25.4329 66.1221 25.6699C65.7803 25.9069 65.5137 26.2419 65.3223 26.6748C65.1309 27.1032 65.0352 27.6068 65.0352 28.1855C65.0352 28.7734 65.1286 29.2884 65.3154 29.7305C65.5023 30.168 65.7666 30.5075 66.1084 30.749C66.4548 30.9906 66.8581 31.1113 67.3184 31.1113C67.7786 31.1113 68.1729 30.9928 68.501 30.7559C68.8291 30.5143 69.0456 30.1862 69.1504 29.7715H70.3262C70.2624 30.2227 70.0983 30.6283 69.834 30.9883C69.5742 31.3483 69.2301 31.6354 68.8018 31.8496C68.3779 32.0592 67.8835 32.1641 67.3184 32.1641ZM71.4336 32V24.3574H72.5547V25.5195H72.6367C72.778 25.1413 73.0309 24.8359 73.3955 24.6035C73.7646 24.3665 74.1771 24.248 74.6328 24.248C74.7194 24.248 74.8265 24.2503 74.9541 24.2549C75.0817 24.2549 75.1797 24.2572 75.248 24.2617V25.4512C75.207 25.4421 75.1159 25.4284 74.9746 25.4102C74.8333 25.3919 74.6829 25.3828 74.5234 25.3828C74.1543 25.3828 73.8239 25.4603 73.5322 25.6152C73.2406 25.7702 73.0104 25.9821 72.8418 26.251C72.6777 26.5199 72.5957 26.8275 72.5957 27.1738V32H71.4336ZM78.9531 32.1641C78.2194 32.1641 77.5837 32 77.0459 31.6719C76.5127 31.3438 76.1025 30.8857 75.8154 30.2979C75.5283 29.7054 75.3848 29.0195 75.3848 28.2402C75.3848 27.4564 75.526 26.766 75.8086 26.1689C76.0911 25.5719 76.4876 25.1048 76.998 24.7676C77.513 24.4303 78.1146 24.2617 78.8027 24.2617C79.1992 24.2617 79.5934 24.3278 79.9854 24.46C80.3773 24.5921 80.7327 24.8063 81.0518 25.1025C81.3753 25.3988 81.6328 25.7907 81.8242 26.2783C82.0156 26.766 82.1113 27.3652 82.1113 28.0762V28.582H76.2188V27.5703H81.4756L80.9355 27.9531C80.9355 27.4427 80.8558 26.9893 80.6963 26.5928C80.5368 26.1963 80.2975 25.8841 79.9785 25.6562C79.6641 25.4284 79.2721 25.3145 78.8027 25.3145C78.3333 25.3145 77.93 25.4307 77.5928 25.6631C77.2601 25.891 77.0049 26.1895 76.8271 26.5586C76.6494 26.9277 76.5605 27.3242 76.5605 27.748V28.418C76.5605 28.9967 76.6608 29.4867 76.8613 29.8877C77.0618 30.2887 77.3421 30.5941 77.7021 30.8037C78.0622 31.0088 78.4792 31.1113 78.9531 31.1113C79.2585 31.1113 79.5365 31.068 79.7871 30.9814C80.0378 30.8903 80.2542 30.7559 80.4365 30.5781C80.6188 30.3958 80.7578 30.1725 80.8535 29.9082L81.9883 30.2363C81.8698 30.6191 81.6693 30.9564 81.3867 31.248C81.1087 31.5352 80.7624 31.7607 80.3477 31.9248C79.9329 32.0843 79.4681 32.1641 78.9531 32.1641ZM85.4609 32.1777C84.9779 32.1777 84.5381 32.0866 84.1416 31.9043C83.7451 31.7174 83.4307 31.4486 83.1982 31.0977C82.9658 30.7467 82.8496 30.3229 82.8496 29.8262C82.8496 29.3887 82.9362 29.0355 83.1094 28.7666C83.2826 28.4932 83.5127 28.279 83.7998 28.124C84.0915 27.9645 84.4105 27.846 84.7568 27.7686C85.1077 27.6911 85.4609 27.6296 85.8164 27.584C86.2812 27.5247 86.6572 27.4792 86.9443 27.4473C87.236 27.4154 87.4479 27.3607 87.5801 27.2832C87.7168 27.2057 87.7852 27.0736 87.7852 26.8867V26.8457C87.7852 26.3581 87.6507 25.9798 87.3818 25.7109C87.1175 25.4375 86.7142 25.3008 86.1719 25.3008C85.6159 25.3008 85.1784 25.4238 84.8594 25.6699C84.5404 25.9115 84.3171 26.1712 84.1895 26.4492L83.0684 26.0527C83.2689 25.5879 83.5355 25.2256 83.8682 24.9658C84.2054 24.7061 84.57 24.5238 84.9619 24.4189C85.3584 24.3141 85.748 24.2617 86.1309 24.2617C86.377 24.2617 86.6595 24.2913 86.9785 24.3506C87.2975 24.4053 87.6074 24.5238 87.9082 24.7061C88.2135 24.8838 88.4642 25.1549 88.6602 25.5195C88.8607 25.8796 88.9609 26.3626 88.9609 26.9688V32H87.7852V30.9609H87.7305C87.653 31.125 87.5208 31.3027 87.334 31.4941C87.1471 31.681 86.8988 31.8428 86.5889 31.9795C86.2835 32.1117 85.9076 32.1777 85.4609 32.1777ZM85.6387 31.125C86.1035 31.125 86.4954 31.0339 86.8145 30.8516C87.1335 30.6693 87.375 30.4346 87.5391 30.1475C87.7031 29.8558 87.7852 29.5527 87.7852 29.2383V28.1582C87.735 28.2174 87.6257 28.2721 87.457 28.3223C87.293 28.3678 87.1016 28.4089 86.8828 28.4453C86.6686 28.4818 86.459 28.5137 86.2539 28.541C86.0488 28.5638 85.8848 28.582 85.7617 28.5957C85.4564 28.6367 85.1715 28.7028 84.9072 28.7939C84.6429 28.8805 84.4287 29.0104 84.2646 29.1836C84.1051 29.3568 84.0254 29.5938 84.0254 29.8945C84.0254 30.3001 84.1758 30.6077 84.4766 30.8174C84.7819 31.0225 85.1693 31.125 85.6387 31.125ZM95.8652 26.0801L94.8125 26.3672C94.7122 26.1074 94.5391 25.8613 94.293 25.6289C94.0514 25.3919 93.6732 25.2734 93.1582 25.2734C92.6934 25.2734 92.306 25.3828 91.9961 25.6016C91.6862 25.8158 91.5312 26.0846 91.5312 26.4082C91.5312 26.6999 91.6361 26.9323 91.8457 27.1055C92.0599 27.2786 92.3926 27.4199 92.8438 27.5293L93.9785 27.8027C94.6576 27.9668 95.1634 28.2197 95.4961 28.5615C95.8333 28.9033 96.002 29.3385 96.002 29.8672C96.002 30.3047 95.8766 30.6966 95.626 31.043C95.3753 31.3893 95.0267 31.6628 94.5801 31.8633C94.1335 32.0638 93.6139 32.1641 93.0215 32.1641C92.2422 32.1641 91.5973 31.9932 91.0869 31.6514C90.5811 31.3096 90.2598 30.8151 90.123 30.168L91.2305 29.8945C91.3353 30.3047 91.5358 30.6123 91.832 30.8174C92.1328 31.0225 92.5247 31.125 93.0078 31.125C93.5501 31.125 93.9831 31.0088 94.3066 30.7764C94.6348 30.5394 94.7988 30.2591 94.7988 29.9355C94.7988 29.3978 94.4206 29.0378 93.6641 28.8555L92.3926 28.5547C91.6908 28.3861 91.1758 28.1286 90.8477 27.7822C90.5195 27.4359 90.3555 27.0007 90.3555 26.4766C90.3555 26.0436 90.4762 25.6608 90.7178 25.3281C90.9639 24.9954 91.2988 24.7357 91.7227 24.5488C92.1465 24.3574 92.625 24.2617 93.1582 24.2617C93.9193 24.2617 94.514 24.4303 94.9424 24.7676C95.3753 25.1003 95.6829 25.5378 95.8652 26.0801ZM100.322 32.1641C99.5885 32.1641 98.9528 32 98.415 31.6719C97.8818 31.3438 97.4717 30.8857 97.1846 30.2979C96.8975 29.7054 96.7539 29.0195 96.7539 28.2402C96.7539 27.4564 96.8952 26.766 97.1777 26.1689C97.4603 25.5719 97.8568 25.1048 98.3672 24.7676C98.8822 24.4303 99.4837 24.2617 100.172 24.2617C100.568 24.2617 100.963 24.3278 101.354 24.46C101.746 24.5921 102.102 24.8063 102.421 25.1025C102.744 25.3988 103.002 25.7907 103.193 26.2783C103.385 26.766 103.48 27.3652 103.48 28.0762V28.582H97.5879V27.5703H102.845L102.305 27.9531C102.305 27.4427 102.225 26.9893 102.065 26.5928C101.906 26.1963 101.667 25.8841 101.348 25.6562C101.033 25.4284 100.641 25.3145 100.172 25.3145C99.7025 25.3145 99.2992 25.4307 98.9619 25.6631C98.6292 25.891 98.374 26.1895 98.1963 26.5586C98.0186 26.9277 97.9297 27.3242 97.9297 27.748V28.418C97.9297 28.9967 98.0299 29.4867 98.2305 29.8877C98.431 30.2887 98.7113 30.5941 99.0713 30.8037C99.4313 31.0088 99.8483 31.1113 100.322 31.1113C100.628 31.1113 100.906 31.068 101.156 30.9814C101.407 30.8903 101.623 30.7559 101.806 30.5781C101.988 30.3958 102.127 30.1725 102.223 29.9082L103.357 30.2363C103.239 30.6191 103.038 30.9564 102.756 31.248C102.478 31.5352 102.132 31.7607 101.717 31.9248C101.302 32.0843 100.837 32.1641 100.322 32.1641Z" fill="white"/>
<path d="M28.9375 139.312C27.6042 139.312 26.401 139.052 25.3281 138.531C24.2656 138 23.4115 137.271 22.7656 136.344C22.1198 135.417 21.7708 134.365 21.7188 133.188H24.4375C24.5417 134.229 25.0156 135.094 25.8594 135.781C26.7135 136.469 27.7396 136.812 28.9375 136.812C29.8958 136.812 30.7448 136.589 31.4844 136.141C32.224 135.693 32.8073 135.078 33.2344 134.297C33.6615 133.516 33.875 132.625 33.875 131.625C33.875 130.615 33.651 129.708 33.2031 128.906C32.7656 128.104 32.1615 127.474 31.3906 127.016C30.6198 126.547 29.7396 126.312 28.75 126.312C28.0312 126.312 27.2969 126.427 26.5469 126.656C25.8073 126.875 25.1979 127.156 24.7188 127.5L22.0625 127.188L23.4688 115.719H35.5625V118.219H25.8438L25.0312 125.094H25.1562C25.6354 124.708 26.2344 124.396 26.9531 124.156C27.6719 123.906 28.4271 123.781 29.2188 123.781C30.6458 123.781 31.9167 124.12 33.0312 124.797C34.1458 125.474 35.0208 126.401 35.6562 127.578C36.3021 128.745 36.625 130.083 36.625 131.594C36.625 133.073 36.2917 134.396 35.625 135.562C34.9583 136.729 34.0469 137.646 32.8906 138.312C31.7344 138.979 30.4167 139.312 28.9375 139.312Z" fill="white"/>
<path d="M45.5391 131.152C44.9141 131.152 44.373 131.053 43.916 130.854C43.459 130.65 43.0996 130.369 42.8379 130.01C42.5801 129.646 42.4336 129.227 42.3984 128.75H43.4883C43.5195 129.078 43.6309 129.35 43.8223 129.564C44.0176 129.779 44.2656 129.939 44.5664 130.045C44.8672 130.15 45.1914 130.203 45.5391 130.203C45.9414 130.203 46.3027 130.137 46.623 130.004C46.9473 129.871 47.2031 129.686 47.3906 129.447C47.5781 129.209 47.6719 128.93 47.6719 128.609C47.6719 128.32 47.5898 128.086 47.4258 127.906C47.2617 127.727 47.0469 127.58 46.7812 127.467C46.5195 127.354 46.2344 127.254 45.9258 127.168L44.8594 126.863C44.1758 126.668 43.6348 126.389 43.2363 126.025C42.8418 125.658 42.6445 125.18 42.6445 124.59C42.6445 124.102 42.7754 123.676 43.0371 123.312C43.3027 122.945 43.6602 122.66 44.1094 122.457C44.5625 122.254 45.0664 122.152 45.6211 122.152C46.1836 122.152 46.6836 122.254 47.1211 122.457C47.5586 122.656 47.9062 122.93 48.1641 123.277C48.4219 123.621 48.5586 124.012 48.5742 124.449H47.543C47.4922 124.02 47.2852 123.686 46.9219 123.447C46.5625 123.209 46.1172 123.09 45.5859 123.09C45.2031 123.09 44.8672 123.152 44.5781 123.277C44.2891 123.402 44.0645 123.574 43.9043 123.793C43.7441 124.012 43.6641 124.262 43.6641 124.543C43.6641 124.852 43.7598 125.102 43.9512 125.293C44.1426 125.48 44.3691 125.627 44.6309 125.732C44.8965 125.838 45.1367 125.922 45.3516 125.984L46.2305 126.23C46.457 126.293 46.709 126.377 46.9863 126.482C47.2676 126.588 47.5371 126.73 47.7949 126.91C48.0566 127.09 48.2715 127.32 48.4395 127.602C48.6074 127.879 48.6914 128.223 48.6914 128.633C48.6914 129.102 48.5684 129.527 48.3223 129.91C48.0762 130.289 47.7188 130.592 47.25 130.818C46.7812 131.041 46.2109 131.152 45.5391 131.152ZM52.4766 131.141C51.8477 131.141 51.3027 131 50.8418 130.719C50.3848 130.438 50.0332 130.045 49.7871 129.541C49.541 129.033 49.418 128.445 49.418 127.777C49.418 127.105 49.5391 126.514 49.7812 126.002C50.0234 125.49 50.3633 125.09 50.8008 124.801C51.2422 124.512 51.7578 124.367 52.3477 124.367C52.6875 124.367 53.0254 124.424 53.3613 124.537C53.6973 124.65 54.002 124.834 54.2754 125.088C54.5527 125.342 54.7734 125.678 54.9375 126.096C55.1016 126.514 55.1836 127.027 55.1836 127.637V128.07H50.1328V127.203H54.6387L54.1758 127.531C54.1758 127.094 54.1074 126.705 53.9707 126.365C53.834 126.025 53.6289 125.758 53.3555 125.562C53.0859 125.367 52.75 125.27 52.3477 125.27C51.9453 125.27 51.5996 125.369 51.3105 125.568C51.0254 125.764 50.8066 126.02 50.6543 126.336C50.502 126.652 50.4258 126.992 50.4258 127.355V127.93C50.4258 128.426 50.5117 128.846 50.6836 129.189C50.8555 129.533 51.0957 129.795 51.4043 129.975C51.7129 130.15 52.0703 130.238 52.4766 130.238C52.7383 130.238 52.9766 130.201 53.1914 130.127C53.4062 130.049 53.5918 129.934 53.748 129.781C53.9043 129.625 54.0234 129.434 54.1055 129.207L55.0781 129.488C54.9766 129.816 54.8047 130.105 54.5625 130.355C54.3242 130.602 54.0273 130.795 53.6719 130.936C53.3164 131.072 52.918 131.141 52.4766 131.141ZM58.7812 131.141C58.1719 131.141 57.6445 130.996 57.1992 130.707C56.7578 130.414 56.416 130.014 56.1738 129.506C55.9355 128.998 55.8164 128.418 55.8164 127.766C55.8164 127.098 55.9395 126.51 56.1855 126.002C56.4316 125.49 56.7754 125.09 57.2168 124.801C57.6621 124.512 58.1797 124.367 58.7695 124.367C59.2305 124.367 59.6445 124.453 60.0117 124.625C60.3828 124.793 60.6855 125.031 60.9199 125.34C61.1582 125.648 61.3047 126.008 61.3594 126.418H60.3516C60.3008 126.219 60.209 126.031 60.0762 125.855C59.9434 125.68 59.7676 125.539 59.5488 125.434C59.334 125.324 59.0781 125.27 58.7812 125.27C58.3906 125.27 58.0488 125.371 57.7559 125.574C57.4629 125.777 57.2344 126.064 57.0703 126.436C56.9062 126.803 56.8242 127.234 56.8242 127.73C56.8242 128.234 56.9043 128.676 57.0645 129.055C57.2246 129.43 57.4512 129.721 57.7441 129.928C58.041 130.135 58.3867 130.238 58.7812 130.238C59.1758 130.238 59.5137 130.137 59.7949 129.934C60.0762 129.727 60.2617 129.445 60.3516 129.09H61.3594C61.3047 129.477 61.1641 129.824 60.9375 130.133C60.7148 130.441 60.4199 130.688 60.0527 130.871C59.6895 131.051 59.2656 131.141 58.7812 131.141ZM64.957 131.141C64.3672 131.141 63.8496 131 63.4043 130.719C62.959 130.438 62.6113 130.043 62.3613 129.535C62.1152 129.027 61.9922 128.438 61.9922 127.766C61.9922 127.082 62.1152 126.486 62.3613 125.979C62.6113 125.467 62.959 125.07 63.4043 124.789C63.8496 124.508 64.3672 124.367 64.957 124.367C65.5508 124.367 66.0703 124.508 66.5156 124.789C66.9609 125.07 67.3086 125.467 67.5586 125.979C67.8086 126.486 67.9336 127.082 67.9336 127.766C67.9336 128.438 67.8086 129.027 67.5586 129.535C67.3086 130.043 66.9609 130.438 66.5156 130.719C66.0703 131 65.5508 131.141 64.957 131.141ZM64.957 130.238C65.4102 130.238 65.7812 130.123 66.0703 129.893C66.3594 129.662 66.5742 129.359 66.7148 128.984C66.8555 128.605 66.9258 128.199 66.9258 127.766C66.9258 127.324 66.8555 126.914 66.7148 126.535C66.5742 126.156 66.3594 125.852 66.0703 125.621C65.7812 125.387 65.4102 125.27 64.957 125.27C64.5117 125.27 64.1445 125.387 63.8555 125.621C63.5664 125.852 63.3516 126.156 63.2109 126.535C63.0703 126.914 63 127.324 63 127.766C63 128.199 63.0703 128.605 63.2109 128.984C63.3516 129.359 63.5664 129.662 63.8555 129.893C64.1445 130.123 64.5117 130.238 64.957 130.238ZM69.9023 127.062V131H68.9062V124.449H69.8672V125.48H69.9609C70.1133 125.145 70.3457 124.875 70.6582 124.672C70.9707 124.469 71.375 124.367 71.8711 124.367C72.3125 124.367 72.6992 124.457 73.0312 124.637C73.3633 124.816 73.6211 125.09 73.8047 125.457C73.9922 125.82 74.0859 126.281 74.0859 126.84V131H73.0898V126.91C73.0898 126.398 72.9551 125.998 72.6855 125.709C72.416 125.416 72.0488 125.27 71.584 125.27C71.2637 125.27 70.9766 125.34 70.7227 125.48C70.4688 125.621 70.2676 125.824 70.1191 126.09C69.9746 126.355 69.9023 126.68 69.9023 127.062ZM77.8359 131.141C77.2891 131.141 76.8066 131.002 76.3887 130.725C75.9707 130.447 75.6445 130.055 75.4102 129.547C75.1758 129.035 75.0586 128.434 75.0586 127.742C75.0586 127.055 75.1758 126.459 75.4102 125.955C75.6484 125.447 75.9766 125.057 76.3945 124.783C76.8125 124.506 77.2969 124.367 77.8477 124.367C78.2773 124.367 78.6152 124.438 78.8613 124.578C79.1113 124.719 79.3027 124.879 79.4355 125.059C79.5684 125.234 79.6719 125.379 79.7461 125.492H79.8281V122.27H80.8242V131H79.8633V129.992H79.7461C79.6719 130.109 79.5664 130.26 79.4297 130.443C79.293 130.623 79.0977 130.785 78.8438 130.93C78.5938 131.07 78.2578 131.141 77.8359 131.141ZM77.9648 130.238C78.3711 130.238 78.7129 130.133 78.9902 129.922C79.2676 129.707 79.4785 129.412 79.623 129.037C79.7676 128.658 79.8398 128.223 79.8398 127.73C79.8398 127.238 79.7695 126.809 79.6289 126.441C79.4883 126.07 79.2773 125.783 78.9961 125.58C78.7188 125.373 78.375 125.27 77.9648 125.27C77.543 125.27 77.1914 125.379 76.9102 125.598C76.6289 125.816 76.418 126.111 76.2773 126.482C76.1367 126.854 76.0664 127.27 76.0664 127.73C76.0664 128.195 76.1367 128.617 76.2773 128.996C76.4219 129.375 76.6348 129.678 76.916 129.904C77.1973 130.127 77.5469 130.238 77.9648 130.238Z" fill="white"/>
</svg>
