<svg width="578" height="221" viewBox="0 0 578 221" fill="none" xmlns="http://www.w3.org/2000/svg">
<path d="M75.9943 70.2514C68.6503 75.1781 59.7494 75.313 52.0137 73.703C44.1856 72.0737 35.1356 75.8137 33.1475 83.5585L2.38423 203.4C0.393245 211.156 6.41281 218.649 14.4157 218.377L564.184 199.659C570.53 199.443 575.613 194.34 575.72 187.991C576.801 123.951 574.282 12.9436 556.213 4.89177C532.233 -5.79405 521.17 16.0868 517.178 22.724C513.187 29.3612 499.035 34.844 487.173 33.2475C475.311 31.651 450.887 57.4874 433.4 64.084C415.912 70.6805 390.359 38.5441 379.22 33.4223C368.081 28.3005 359.222 40.6044 354.975 39.7488C350.729 38.8932 331.966 8.02581 319.346 8.95558C306.726 9.88535 296.778 39.7299 287.392 36.5488C278.006 33.3677 268.798 60.1864 238.222 78.7308C207.646 97.2752 192.152 13.7863 175.167 10.3638C158.182 6.94129 153.723 24.5966 137.435 41.6544C121.147 58.7122 113.14 46.4823 107.949 42.6583C102.758 38.8342 92.4863 59.1879 75.9943 70.2514Z" fill="url(#paint0_linear_5447_7811)" stroke="url(#paint1_linear_5447_7811)" stroke-width="4" stroke-linecap="round" stroke-linejoin="round"/>
<defs>
<linearGradient id="paint0_linear_5447_7811" x1="281.476" y1="-13.3374" x2="287.67" y2="168.565" gradientUnits="userSpaceOnUse">
<stop stop-color="#8BA2D8"/>
<stop offset="0.72165" stop-color="#CDDEFF" stop-opacity="0"/>
</linearGradient>
<linearGradient id="paint1_linear_5447_7811" x1="281.324" y1="6.17162" x2="288.232" y2="209.054" gradientUnits="userSpaceOnUse">
<stop stop-color="#142E6E"/>
<stop offset="0.7" stop-color="white" stop-opacity="0"/>
</linearGradient>
</defs>
</svg>
